<svg width="733" height="270" viewBox="0 0 733 270" fill="none" xmlns="http://www.w3.org/2000/svg">
<path fill-rule="evenodd" clip-rule="evenodd" d="M37.0373 191.127C7.50994 193.596 -12.5486 184.866 11.467 157.854C22.5021 145.444 42.0998 153.565 51.8303 147.006C61.0412 140.784 57.424 120.987 71.4474 112.577C72.9084 111.694 74.6389 111.104 76.2717 110.545C77.2404 110.217 78.1935 109.846 79.1701 109.534C87.8537 106.745 98.3928 123.514 105.221 117.924C109.014 114.827 109.295 103.315 111.33 98.9751C133.799 50.9673 147.256 30.7056 205.725 8.55714C247.541 -7.2827 325.811 0.174328 351.897 37.0571C358.018 45.7173 363.514 68.8267 371.033 74.2368C372.877 75.5649 393.596 62.3775 396.44 61.7954C414.217 58.1665 428.846 66.7056 443.072 74.5259C451.041 78.9048 455.397 107.194 457.545 107.795C475.436 112.827 495.471 85.0767 519.135 97.2368C539.276 107.596 526.514 135.815 526.854 136.014C531.959 138.877 574.1 127.737 579.6 126.604C599.514 122.514 633.217 119.807 652.123 126.604C661.065 129.827 660.057 146.545 669.651 147.295C695.682 149.327 727.287 127.905 732.045 168.557C735.615 199.084 600.049 222.967 567.862 208.487C561.487 205.627 554.826 196.827 548.401 195.616C536.596 193.377 523.787 208.807 512.701 211.526C484.916 218.346 468.553 204.647 447.096 206.026C438.217 206.596 430.471 217.276 419.596 217.897C396.295 219.206 376.596 187.334 358.651 192.717C317.096 205.174 303.049 260.635 243.19 266.784C217.99 269.377 154.838 271.456 137.381 249.866C134.408 246.186 129.967 228.674 127.088 227.584C114.369 222.764 95.3459 247.987 75.7912 242.487C73.0021 241.694 21.8146 217.897 37.0373 191.127Z" fill="white"/>
<mask id="mask0_11_705" style="mask-type:luminance" maskUnits="userSpaceOnUse" x="6" y="160" width="727" height="110">
<path d="M6.29102 160.206H732.291V269.206H6.29102V160.206Z" fill="white"/>
</mask>
<g mask="url(#mask0_11_705)">
<mask id="mask1_11_705" style="mask-type:luminance" maskUnits="userSpaceOnUse" x="0" y="0" width="733" height="269">
<path fill-rule="evenodd" clip-rule="evenodd" d="M37.0371 191.127C7.50976 193.596 -12.5488 184.866 11.4668 157.854C22.5019 145.444 42.0996 153.565 51.8301 147.006C61.041 140.784 57.4238 120.987 71.4473 112.577C72.9082 111.694 74.6387 111.104 76.2715 110.545C77.2402 110.217 78.1934 109.846 79.1699 109.534C87.8535 106.745 98.3926 123.514 105.221 117.924C109.014 114.827 109.295 103.315 111.33 98.9751C133.799 50.9673 147.256 30.7056 205.725 8.55714C247.541 -7.2827 325.811 0.174328 351.896 37.0571C358.018 45.7173 363.514 68.8267 371.033 74.2368C372.877 75.5649 393.596 62.3775 396.439 61.7954C414.217 58.1665 428.846 66.7056 443.072 74.5259C451.041 78.9048 455.396 107.194 457.545 107.795C475.436 112.827 495.471 85.0767 519.135 97.2368C539.275 107.596 526.514 135.815 526.854 136.014C531.959 138.877 574.1 127.737 579.6 126.604C599.514 122.514 633.217 119.807 652.123 126.604C661.064 129.827 660.057 146.545 669.65 147.295C695.682 149.327 727.287 127.905 732.045 168.557C735.615 199.084 600.049 222.967 567.861 208.487C561.486 205.627 554.826 196.827 548.4 195.616C536.596 193.377 523.787 208.807 512.701 211.526C484.916 218.346 468.553 204.647 447.096 206.026C438.217 206.596 430.471 217.276 419.596 217.897C396.295 219.206 376.596 187.334 358.65 192.717C317.096 205.174 303.049 260.635 243.189 266.784C217.99 269.377 154.838 271.456 137.381 249.866C134.408 246.186 129.967 228.674 127.088 227.584C114.369 222.764 95.3457 247.987 75.791 242.487C73.002 241.694 21.8144 217.897 37.0371 191.127Z" fill="white"/>
</mask>
<g mask="url(#mask1_11_705)">
<path fill-rule="evenodd" clip-rule="evenodd" d="M40.5957 193.905C52.0293 197.514 70.916 221.514 91.4199 219.467C108.604 217.745 118.627 200.186 137.541 204.737C173.096 213.284 205.24 241.577 242.514 229.506C257.936 224.506 314.361 191.416 312.857 173.397C312.334 167.096 288.955 172.737 285.678 168.995C283.643 166.666 297.729 164.186 299.193 163.866C305.654 162.444 312.846 161.616 319.51 161.264C352.959 159.506 376.795 183.885 408.432 187.834C428.486 190.346 442.717 178.397 462.076 176.354C477.525 174.737 489.432 184.354 504.729 183.147C517.959 182.104 535.846 168.756 549.049 173.034C549.861 173.295 550.623 173.706 551.432 173.975C588.354 186.264 636.346 192.045 674.768 184.737C690.08 181.815 704.432 175.487 719.666 172.315C732.404 169.666 755.068 172.444 756.174 188.995C757.959 215.725 683.854 247.307 664.576 252.397C646.881 257.065 628.811 257.584 610.787 259.905C569.256 265.237 528.037 270.284 487.092 279.545C369.475 306.135 220.646 359.647 98.8652 325.405C69.1504 317.045 23.1621 287.616 13.0488 255.065C5.30664 230.147 2.26367 213.924 22.8105 197.807C28.6074 193.256 34.8066 192.077 40.5957 193.905Z" fill="#D2ECED"/>
</g>
</g>
<path d="M113.307 131.514C124.002 153.995 147.904 164.807 171.697 168.854C177.615 169.866 185.068 168.167 190.623 170.006" stroke="#B4B4B4" stroke-width="1.667" stroke-miterlimit="10" stroke-linecap="round" stroke-linejoin="round"/>
<path d="M337.666 115.526C354.561 107.217 363.869 97.8149 375.697 83.6353" stroke="#B4B4B4" stroke-width="1.667" stroke-miterlimit="10" stroke-linecap="round" stroke-linejoin="round"/>
</svg>
