<svg width="670" height="145" viewBox="0 0 670 145" fill="none" xmlns="http://www.w3.org/2000/svg">
<path fill-rule="evenodd" clip-rule="evenodd" d="M67.2066 98.0143C54.3589 88.6159 -10.5122 104.585 3.80815 70.0963C12.5269 49.0846 41.9566 58.776 56.898 50.6276C66.1167 45.6041 69.6792 28.2955 83.5894 24.3971C131.308 11.0143 130.636 30.7448 159.136 30.7448C171.527 30.7448 185.429 9.27601 202.91 8.74476C238.019 7.66664 241.5 14.1744 268.57 21.2955C273.41 22.5651 305.398 1.04554 316.437 0.565072C341.488 -0.544303 349.98 10.3541 368.539 17.4869C372.777 19.1159 401.488 5.50648 408.777 5.21742C433.75 4.21742 448.597 20.0455 466.82 22.8463C477.48 24.4869 491.277 14.276 502.957 14.6666C530.589 15.5846 542.109 22.776 561.699 35.8151C566.796 39.2174 664.41 17.2565 669.019 63.3268C673.546 108.546 589.378 91.3463 573.988 95.6159C553.847 101.206 533.917 112.424 512.418 118.186C472.57 128.866 455.097 105.936 426.007 107.745C392.847 109.815 363.679 132.436 329.988 131.444C310.949 130.885 294.019 108.135 279.019 110.565C245.687 115.967 218.16 144.135 182.718 144.135C160.007 144.135 147.378 115.424 132.019 114.667C114.527 113.784 99.2964 132.635 80.9097 126.506C65.3863 121.335 75.7183 104.245 67.2066 98.0143Z" fill="white"/>
<mask id="mask0_11_708" style="mask-type:luminance" maskUnits="userSpaceOnUse" x="0" y="80" width="670" height="65">
<path d="M0.808105 80.7056H669.808V144.706H0.808105V80.7056Z" fill="white"/>
</mask>
<g mask="url(#mask0_11_708)">
<mask id="mask1_11_708" style="mask-type:luminance" maskUnits="userSpaceOnUse" x="1" y="0" width="669" height="145">
<path fill-rule="evenodd" clip-rule="evenodd" d="M67.2066 98.014C54.3589 88.6156 -10.5122 104.584 3.80815 70.0961C12.5269 49.0844 41.9566 58.7758 56.898 50.6273C66.1167 45.6039 69.6792 28.2953 83.5894 24.3969C131.308 11.014 130.636 30.7445 159.136 30.7445C171.527 30.7445 185.429 9.27577 202.91 8.74452C238.019 7.66639 241.5 14.1742 268.57 21.2953C273.41 22.5648 305.398 1.0453 316.437 0.564828C341.488 -0.544547 349.98 10.3539 368.539 17.4867C372.777 19.1156 401.488 5.50623 408.777 5.21717C433.75 4.21717 448.597 20.0453 466.82 22.8461C477.48 24.4867 491.277 14.2758 502.957 14.6664C530.589 15.5844 542.109 22.7758 561.699 35.8148C566.796 39.2172 664.41 17.2562 669.019 63.3265C673.546 108.545 589.378 91.3461 573.988 95.6156C553.847 101.205 533.917 112.424 512.418 118.186C472.57 128.866 455.097 105.936 426.007 107.745C392.847 109.815 363.679 132.436 329.988 131.444C310.949 130.885 294.019 108.135 279.019 110.565C245.687 115.967 218.16 144.135 182.718 144.135C160.007 144.135 147.378 115.424 132.019 114.666C114.527 113.784 99.2964 132.635 80.9097 126.506C65.3863 121.334 75.7183 104.245 67.2066 98.014Z" fill="white"/>
</mask>
<g mask="url(#mask1_11_708)">
<path fill-rule="evenodd" clip-rule="evenodd" d="M5.26899 93.5062C16.0463 84.6859 55.5971 74.3344 75.7885 86.2562C84.0385 91.1273 85.187 105.514 95.3081 106.354C112.429 107.784 127.828 96.1937 144.449 99.5141C167.039 104.026 171.769 122.916 201.73 120.225C231.249 117.565 256.867 102.174 286.449 99.3773C310.058 97.1469 330.07 117.006 353.359 112.647C383.636 106.975 412.929 91.8148 443.859 90.3656C456.039 89.7953 467.128 94.8773 478.878 96.6937C495.456 99.2641 512.636 99.0336 529.456 97.8969C553.238 96.2953 576.398 79.2445 600.109 81.9555C618.738 84.0844 637.398 84.5844 656.23 87.4555C658.988 87.8773 673.617 89.3969 674.417 93.6469C675.179 97.7055 646.66 114.514 644.019 115.737C606.539 133.127 563.277 137.955 523.07 145.596C449.437 159.584 375.898 164.967 301.206 168.467C278.249 169.545 255.519 173.045 232.499 173.877C188.628 175.467 144.859 174.186 101.046 172.397C70.5385 171.155 32.4565 163.084 11.1479 139.217C5.91743 133.366 -5.50054 102.334 5.26899 93.5062Z" fill="#D2ECED"/>
</g>
</g>
<mask id="mask2_11_708" style="mask-type:luminance" maskUnits="userSpaceOnUse" x="322" y="48" width="169" height="16">
<path d="M322.808 48.7056H490.808V63.7056H322.808V48.7056Z" fill="white"/>
</mask>
<g mask="url(#mask2_11_708)">
<mask id="mask3_11_708" style="mask-type:luminance" maskUnits="userSpaceOnUse" x="1" y="0" width="669" height="145">
<path fill-rule="evenodd" clip-rule="evenodd" d="M67.2066 98.014C54.3589 88.6156 -10.5122 104.584 3.80815 70.0961C12.5269 49.0844 41.9566 58.7758 56.898 50.6273C66.1167 45.6039 69.6792 28.2953 83.5894 24.3969C131.308 11.014 130.636 30.7445 159.136 30.7445C171.527 30.7445 185.429 9.27577 202.91 8.74452C238.019 7.66639 241.5 14.1742 268.57 21.2953C273.41 22.5648 305.398 1.0453 316.437 0.564828C341.488 -0.544547 349.98 10.3539 368.539 17.4867C372.777 19.1156 401.488 5.50623 408.777 5.21717C433.75 4.21717 448.597 20.0453 466.82 22.8461C477.48 24.4867 491.277 14.2758 502.957 14.6664C530.589 15.5844 542.109 22.7758 561.699 35.8148C566.796 39.2172 664.41 17.2562 669.019 63.3265C673.546 108.545 589.378 91.3461 573.988 95.6156C553.847 101.205 533.917 112.424 512.418 118.186C472.57 128.866 455.097 105.936 426.007 107.745C392.847 109.815 363.679 132.436 329.988 131.444C310.949 130.885 294.019 108.135 279.019 110.565C245.687 115.967 218.16 144.135 182.718 144.135C160.007 144.135 147.378 115.424 132.019 114.666C114.527 113.784 99.2964 132.635 80.9097 126.506C65.3863 121.334 75.7183 104.245 67.2066 98.014Z" fill="white"/>
</mask>
<g mask="url(#mask3_11_708)">
<path d="M323.917 51.9435C329.98 64.924 354.359 62.174 365.367 61.6467C379.628 60.967 392.117 50.5763 405.859 49.7638C421.988 48.8263 439.257 55.2638 455.917 54.4357C463.929 54.0334 482.91 47.7443 489.929 52.1271" stroke="#B4B4B4" stroke-width="1.667" stroke-miterlimit="10" stroke-linecap="round" stroke-linejoin="round"/>
</g>
</g>
</svg>
