<svg width="740" height="418" viewBox="0 0 740 418" fill="none" xmlns="http://www.w3.org/2000/svg">
<path fill-rule="evenodd" clip-rule="evenodd" d="M65.8784 302.479C52.0191 289.264 -11.6724 313.526 4.3589 272.35C16.8081 240.385 58.3472 259.17 70.6362 241.627C81.4683 226.182 88.2378 153.057 148.039 184.346C151.488 186.151 116.808 132.706 134.808 76.7056C138.808 60.2056 164.56 27.601 184.808 19.2056C205.308 10.7056 218.548 16.6003 226.808 22.7056C238.308 31.2056 247.808 56.7056 263.308 64.2056C290.808 70.7056 345.046 -12.0249 479.539 1.95559C603.968 14.9048 663.777 151.1 676.269 168.913C688.578 186.479 737.98 180.151 737.98 224.612C737.98 259.6 723.898 254.479 723.898 254.479C723.898 254.479 768.5 282.729 707.417 316.385C683.589 329.522 632.636 331.073 629.429 332.838C548.277 377.561 503.507 427.62 401.917 415.276C341.898 407.987 293.23 346.713 257.378 337.764C256.48 337.538 255.519 337.717 254.597 337.565C242.179 335.495 228.339 353.401 215.707 357.385C170.847 371.534 169.519 343.756 144.66 338.358C127.238 334.573 107.468 353.37 87.5073 351.639C64.7886 349.667 78.8394 314.834 65.8784 302.479Z" fill="white"/>
<mask id="mask0_11_710" style="mask-type:luminance" maskUnits="userSpaceOnUse" x="0" y="211" width="740" height="207">
<path d="M0.808105 211.706H739.808V417.706H0.808105V211.706Z" fill="white"/>
</mask>
<g mask="url(#mask0_11_710)">
<mask id="mask1_11_710" style="mask-type:luminance" maskUnits="userSpaceOnUse" x="1" y="0" width="739" height="418">
<path fill-rule="evenodd" clip-rule="evenodd" d="M65.8784 302.479C52.0191 289.264 -11.6724 313.526 4.3589 272.35C16.8081 240.385 58.3472 259.17 70.6362 241.627C81.4683 226.182 88.2378 153.057 148.039 184.346C151.488 186.151 159.089 193.717 162.328 192.471C176.949 186.854 179.917 166.034 201.617 162.936C208.57 161.944 233.75 168.756 237.929 165.713C242.48 162.409 244.937 128.331 248.847 120.717C264.398 90.4361 345.046 -12.0249 479.539 1.95562C603.968 14.9048 663.777 151.1 676.269 168.913C688.578 186.479 737.98 180.151 737.98 224.612C737.98 259.6 723.898 254.479 723.898 254.479C723.898 254.479 768.5 282.729 707.417 316.385C683.589 329.522 632.636 331.073 629.429 332.838C548.277 377.561 503.507 427.62 401.917 415.276C341.898 407.987 293.23 346.713 257.378 337.764C256.48 337.538 255.519 337.717 254.597 337.565C242.179 335.495 228.339 353.401 215.707 357.385C170.847 371.534 169.519 343.756 144.66 338.358C127.238 334.573 107.468 353.37 87.5073 351.639C64.7886 349.667 78.8394 314.835 65.8784 302.479Z" fill="white"/>
</mask>
<g mask="url(#mask1_11_710)">
<path fill-rule="evenodd" clip-rule="evenodd" d="M6.8979 281.659C12.0073 277.241 21.1284 282.245 27.1362 282.561C47.519 283.631 62.1791 272.901 82.6284 281.659C94.6362 286.799 94.1987 308.084 110.546 311.897C136.968 318.053 159.648 294.459 178.867 299.26C199.558 304.424 207.859 323.971 231.648 316.049C310.527 289.788 373.898 361.897 456.128 351.881C486.249 348.213 530.546 332.6 552.187 310.002C567.738 293.764 580.769 272.983 601.167 262.522C623.82 250.905 654.167 261.272 678.886 253.045C693.499 248.178 682.007 234.995 690.808 228.401C704.91 217.846 742.628 202.846 754.429 221.272C765.199 238.069 768.218 260.44 769.527 279.944C775.749 373.276 615.749 445.588 545.859 466.428C399.386 510.1 247.609 497.881 109.019 435.018C64.2768 414.721 -11.4419 382.405 -26.5318 328.956C-36.231 294.608 -2.05132 289.389 6.8979 281.659Z" fill="#D2ECED"/>
</g>
</g>
<mask id="mask2_11_710" style="mask-type:luminance" maskUnits="userSpaceOnUse" x="350" y="216" width="132" height="33">
<path d="M350.808 216.706H481.808V248.706H350.808V216.706Z" fill="white"/>
</mask>
<g mask="url(#mask2_11_710)">
<mask id="mask3_11_710" style="mask-type:luminance" maskUnits="userSpaceOnUse" x="1" y="0" width="739" height="418">
<path fill-rule="evenodd" clip-rule="evenodd" d="M65.8784 302.479C52.0191 289.264 -11.6724 313.526 4.3589 272.35C16.8081 240.385 58.3472 259.17 70.6362 241.627C81.4683 226.182 88.2378 153.057 148.039 184.346C151.488 186.151 159.089 193.717 162.328 192.471C176.949 186.854 179.917 166.034 201.617 162.936C208.57 161.944 233.75 168.756 237.929 165.713C242.48 162.409 244.937 128.331 248.847 120.717C264.398 90.4361 345.046 -12.0249 479.539 1.95562C603.968 14.9048 663.777 151.1 676.269 168.913C688.578 186.479 737.98 180.151 737.98 224.612C737.98 259.6 723.898 254.479 723.898 254.479C723.898 254.479 768.5 282.729 707.417 316.385C683.589 329.522 632.636 331.073 629.429 332.838C548.277 377.561 503.507 427.62 401.917 415.276C341.898 407.987 293.23 346.713 257.378 337.764C256.48 337.538 255.519 337.717 254.597 337.565C242.179 335.495 228.339 353.401 215.707 357.385C170.847 371.534 169.519 343.756 144.66 338.358C127.238 334.573 107.468 353.37 87.5073 351.639C64.7886 349.667 78.8394 314.835 65.8784 302.479Z" fill="white"/>
</mask>
<g mask="url(#mask3_11_710)">
<path d="M352.488 218.256C364.468 256.147 465.25 255.17 480.207 225.284" stroke="#B4B4B4" stroke-width="1.667" stroke-miterlimit="10" stroke-linecap="round" stroke-linejoin="round"/>
</g>
</g>
<mask id="mask4_11_710" style="mask-type:luminance" maskUnits="userSpaceOnUse" x="182" y="229" width="83" height="31">
<path d="M182.808 229.706H264.808V259.706H182.808V229.706Z" fill="white"/>
</mask>
<g mask="url(#mask4_11_710)">
<mask id="mask5_11_710" style="mask-type:luminance" maskUnits="userSpaceOnUse" x="1" y="0" width="739" height="418">
<path fill-rule="evenodd" clip-rule="evenodd" d="M65.8784 302.479C52.0191 289.264 -11.6724 313.526 4.3589 272.35C16.8081 240.385 58.3472 259.17 70.6362 241.627C81.4683 226.182 88.2378 153.057 148.039 184.346C151.488 186.151 159.089 193.717 162.328 192.471C176.949 186.854 179.917 166.034 201.617 162.936C208.57 161.944 233.75 168.756 237.929 165.713C242.48 162.409 244.937 128.331 248.847 120.717C264.398 90.4361 345.046 -12.0249 479.539 1.95562C603.968 14.9048 663.777 151.1 676.269 168.913C688.578 186.479 737.98 180.151 737.98 224.612C737.98 259.6 723.898 254.479 723.898 254.479C723.898 254.479 768.5 282.729 707.417 316.385C683.589 329.522 632.636 331.073 629.429 332.838C548.277 377.561 503.507 427.62 401.917 415.276C341.898 407.987 293.23 346.713 257.378 337.764C256.48 337.538 255.519 337.717 254.597 337.565C242.179 335.495 228.339 353.401 215.707 357.385C170.847 371.534 169.519 343.756 144.66 338.358C127.238 334.573 107.468 353.37 87.5073 351.639C64.7886 349.667 78.8394 314.835 65.8784 302.479Z" fill="white"/>
</mask>
<g mask="url(#mask5_11_710)">
<path d="M184.48 231.256C195.648 264.729 235.687 257.827 263.128 257.827" stroke="#B4B4B4" stroke-width="1.667" stroke-miterlimit="10" stroke-linecap="round" stroke-linejoin="round"/>
</g>
</g>
</svg>
