<svg width="967" height="151" viewBox="0 0 967 151" fill="none" xmlns="http://www.w3.org/2000/svg">
<path fill-rule="evenodd" clip-rule="evenodd" d="M70.636 126.772C45.0032 116.663 -47.8952 103.042 33.0735 69.9127C79.3313 50.9869 113.046 66.651 156.984 59.3893C190.281 53.8893 225.167 13.1158 259.663 2.82287C307.792 -11.5365 383.632 44.9322 402.07 41.4127C480.241 26.483 470.609 -3.69276 576.402 4.72521C596.39 6.31506 640.952 36.8736 654.175 35.4205C687.691 31.7252 715.179 19.483 751.956 21.6783C786.038 23.7135 792.699 41.1158 817.484 49.3033C850.257 60.1354 963.449 45.3346 966.706 89.6471C971.046 148.725 733.159 121.928 685.816 126.772C667.128 128.682 650.57 138.952 631.515 141.682C590.242 147.592 548.937 148.249 506.788 149.721C470.214 150.999 434.085 137.772 400.437 139.78C352.136 142.663 281.843 147.526 229.859 147.526C177.499 147.526 103.433 139.71 70.636 126.772Z" fill="white"/>
<mask id="mask0_11_709" style="mask-type:luminance" maskUnits="userSpaceOnUse" x="30" y="87" width="914" height="64">
<path d="M30.8081 87.7056H943.808V150.706H30.8081V87.7056Z" fill="white"/>
</mask>
<g mask="url(#mask0_11_709)">
<mask id="mask1_11_709" style="mask-type:luminance" maskUnits="userSpaceOnUse" x="0" y="0" width="967" height="150">
<path fill-rule="evenodd" clip-rule="evenodd" d="M70.6362 126.772C45.0034 116.663 -47.895 103.042 33.0737 69.9127C79.3315 50.9869 113.046 66.651 156.984 59.3893C190.281 53.8893 225.167 13.1158 259.664 2.82287C307.792 -11.5365 383.632 44.9322 402.07 41.4127C480.242 26.483 470.609 -3.69276 576.402 4.72521C596.39 6.31506 640.953 36.8736 654.175 35.4205C687.691 31.7252 715.179 19.483 751.957 21.6783C786.039 23.7135 792.699 41.1158 817.484 49.3033C850.257 60.1354 963.449 45.3346 966.707 89.6471C971.046 148.725 733.16 121.928 685.816 126.772C667.128 128.682 650.57 138.952 631.515 141.682C590.242 147.592 548.937 148.249 506.789 149.721C470.214 150.999 434.085 137.772 400.437 139.78C352.136 142.663 281.843 147.526 229.859 147.526C177.499 147.526 103.433 139.71 70.6362 126.772Z" fill="white"/>
</mask>
<g mask="url(#mask1_11_709)">
<path fill-rule="evenodd" clip-rule="evenodd" d="M31.6323 138.784C39.7456 126.26 63.9487 122.272 76.6284 117.639C136.75 95.6704 196.82 124.499 258.582 123.417C285.738 122.94 311.71 120.612 337.875 112.092C364 103.588 387.425 89.4908 415.375 88.3501C448.148 87.0142 471.875 115.881 502.996 118.1C532.82 120.229 567.656 106.315 595.824 98.1704C604.082 95.7837 611.898 89.7017 620.695 89.1001C664.542 86.1158 703.011 108.006 749.667 104.12C801.457 99.8111 853.171 94.4673 903.796 109.377C906.109 110.057 941.707 118.885 942.839 120.354C950.027 129.682 898.296 147.397 891.429 149.237C830.921 165.467 766.261 167.506 704.5 175.811C637.828 184.78 571.132 192.475 504.328 200.362C387.601 214.147 264.292 235.034 147.246 215.385C106.792 208.592 41.1089 186.096 31.6323 138.784Z" fill="#D2ECED"/>
</g>
</g>
<mask id="mask2_11_709" style="mask-type:luminance" maskUnits="userSpaceOnUse" x="181" y="63" width="41" height="28">
<path d="M181.808 63.7056H221.808V90.7056H181.808V63.7056Z" fill="white"/>
</mask>
<g mask="url(#mask2_11_709)">
<mask id="mask3_11_709" style="mask-type:luminance" maskUnits="userSpaceOnUse" x="0" y="0" width="967" height="150">
<path fill-rule="evenodd" clip-rule="evenodd" d="M70.6362 126.772C45.0034 116.663 -47.895 103.042 33.0737 69.9127C79.3315 50.9869 113.046 66.651 156.984 59.3893C190.281 53.8893 225.167 13.1158 259.664 2.82287C307.792 -11.5365 383.632 44.9322 402.07 41.4127C480.242 26.483 470.609 -3.69276 576.402 4.72521C596.39 6.31506 640.953 36.8736 654.175 35.4205C687.691 31.7252 715.179 19.483 751.957 21.6783C786.039 23.7135 792.699 41.1158 817.484 49.3033C850.257 60.1354 963.449 45.3346 966.707 89.6471C971.046 148.725 733.16 121.928 685.816 126.772C667.128 128.682 650.57 138.952 631.515 141.682C590.242 147.592 548.937 148.249 506.789 149.721C470.214 150.999 434.085 137.772 400.437 139.78C352.136 142.663 281.843 147.526 229.859 147.526C177.499 147.526 103.433 139.71 70.6362 126.772Z" fill="white"/>
</mask>
<g mask="url(#mask3_11_709)">
<path d="M183.375 65.4126C189.503 80.4399 203.605 88.9829 220.16 88.9829" stroke="#B4B4B4" stroke-width="1.667" stroke-miterlimit="10" stroke-linecap="round" stroke-linejoin="round"/>
</g>
</g>
<mask id="mask4_11_709" style="mask-type:luminance" maskUnits="userSpaceOnUse" x="580" y="39" width="37" height="24">
<path d="M580.808 39.7056H616.808V62.7056H580.808V39.7056Z" fill="white"/>
</mask>
<g mask="url(#mask4_11_709)">
<mask id="mask5_11_709" style="mask-type:luminance" maskUnits="userSpaceOnUse" x="0" y="0" width="967" height="150">
<path fill-rule="evenodd" clip-rule="evenodd" d="M70.6362 126.772C45.0034 116.663 -47.895 103.042 33.0737 69.9127C79.3315 50.9869 113.046 66.651 156.984 59.3893C190.281 53.8893 225.167 13.1158 259.664 2.82287C307.792 -11.5365 383.632 44.9322 402.07 41.4127C480.242 26.483 470.609 -3.69276 576.402 4.72521C596.39 6.31506 640.953 36.8736 654.175 35.4205C687.691 31.7252 715.179 19.483 751.957 21.6783C786.039 23.7135 792.699 41.1158 817.484 49.3033C850.257 60.1354 963.449 45.3346 966.707 89.6471C971.046 148.725 733.16 121.928 685.816 126.772C667.128 128.682 650.57 138.952 631.515 141.682C590.242 147.592 548.937 148.249 506.789 149.721C470.214 150.999 434.085 137.772 400.437 139.78C352.136 142.663 281.843 147.526 229.859 147.526C177.499 147.526 103.433 139.71 70.6362 126.772Z" fill="white"/>
</mask>
<g mask="url(#mask5_11_709)">
<path d="M582.156 61.0767C592.75 57.979 610.753 52.6001 615.64 41.2056" stroke="#B4B4B4" stroke-width="1.667" stroke-miterlimit="10" stroke-linecap="round" stroke-linejoin="round"/>
</g>
</g>
</svg>
