<svg width="629" height="391" viewBox="0 0 629 391" fill="none" xmlns="http://www.w3.org/2000/svg">
<path fill-rule="evenodd" clip-rule="evenodd" d="M47.0971 258.557C28.5073 268.686 0.85884 275.128 0.85884 246.745C0.85884 238.495 0.706496 232.257 2.61665 224.175C7.8081 204.706 14.8081 205.706 7.8081 153.128C12.5269 110.819 36.8003 133.538 39.3081 131.206C46.8081 63.7058 75.3081 63.7058 86.8081 65.2058C150.808 69.7058 89.8081 108.483 110.308 99.7058C124.808 93.4975 115.808 30.7058 149.308 29.2058C171.16 26.5886 164.808 38.7058 155.808 53.7058C153.808 57.0392 164.265 69.2058 170.808 47.7058C177.808 24.7058 186.308 14.2058 217.308 12.7058C250.308 12.7058 290.16 32.7058 311.308 65.2058C312.089 66.4168 307.808 24.7058 319.308 12.7058C331.766 -0.294173 374.218 -14.1848 510.417 38.034C540.578 49.6043 555.167 83.2566 560.738 108.878C563.82 123.014 548.468 148.745 562.507 152.245C588.578 158.757 614.277 152.557 625.367 188.565C641.968 242.514 580.687 241.104 575.749 250.975C566.23 269.987 601.32 312.284 534.796 359.745C490.699 391.217 435.917 402.104 388.296 373.147C380.886 368.647 377.019 352.534 371.359 349.706C368.32 348.186 360.769 362.647 359.179 364.514C331.296 396.995 251.308 389.846 217.98 372.616C208.148 367.546 190.546 335.026 186.558 334.366C183.109 333.784 137.328 324.846 118.058 324.846C92.019 324.846 99.0893 283.194 79.9291 290.647C58.5971 298.924 41.5385 298.925 47.0971 258.557Z" fill="white"/>
<mask id="mask0_11_706" style="mask-type:luminance" maskUnits="userSpaceOnUse" x="0" y="199" width="629" height="192">
<path d="M0.808105 199.706H628.808V390.706H0.808105V199.706Z" fill="white"/>
</mask>
<g mask="url(#mask0_11_706)">
<mask id="mask1_11_706" style="mask-type:luminance" maskUnits="userSpaceOnUse" x="0" y="26" width="629" height="365">
<path fill-rule="evenodd" clip-rule="evenodd" d="M47.0971 258.557C28.5073 268.686 0.85884 275.128 0.85884 246.745C0.85884 238.495 0.706496 232.257 2.61665 224.174C3.32759 221.194 3.94868 218.397 5.08931 215.534C6.3979 212.276 9.28853 209.936 11.7963 207.604C35.7495 185.397 56.2495 209.194 64.0463 206.194C65.2963 205.717 88.019 161.905 108.519 153.128C109.578 152.674 111.687 152.378 112.757 152.245C134.609 149.628 144.648 174.194 159.179 173.225C162.667 172.995 180.859 170.897 182.32 166.706C193.796 133.725 208.167 108.104 243.738 96.5339C275.929 86.0651 318.968 85.0143 340.117 117.514C340.898 118.725 348.636 128.378 349.82 127.917C370.507 119.967 374.218 -14.1849 510.417 38.0339C540.578 49.6042 555.167 83.2565 560.738 108.878C563.82 123.014 548.468 148.745 562.507 152.245C588.578 158.757 614.277 152.557 625.367 188.565C641.968 242.514 580.687 241.104 575.749 250.975C566.23 269.987 601.32 312.284 534.796 359.745C490.699 391.217 435.917 402.104 388.296 373.147C380.886 368.647 377.019 352.534 371.359 349.706C368.32 348.186 360.769 362.647 359.179 364.514C331.296 396.995 251.308 389.846 217.98 372.616C208.148 367.546 190.546 335.026 186.558 334.366C183.109 333.784 137.328 324.846 118.058 324.846C92.019 324.846 99.0893 283.194 79.9292 290.647C58.5971 298.924 41.5385 298.924 47.0971 258.557Z" fill="white"/>
</mask>
<g mask="url(#mask1_11_706)">
<path fill-rule="evenodd" clip-rule="evenodd" d="M-6.40279 245.007C11.4996 213.675 70.5191 238.725 81.0074 248.386C86.7574 253.694 88.8277 267.944 95.4097 270.397C121.546 280.104 149.187 266.616 178.007 279.694C193.48 286.718 200.859 306.307 218.679 311.577C249.668 320.745 274.636 285.995 303.82 284.218C322.398 283.077 344.367 302.628 357.757 300.577C386.058 296.225 380.707 328.675 468.839 313.257C541.328 300.577 540.218 244.534 557.699 241.905C576.859 239.014 597.546 236.386 628.207 207.995C691.41 149.495 589.789 438.995 536.949 470.667C446.679 524.764 216.789 514.487 122.937 466.155C85.2066 446.718 59.148 412.147 31.4488 381.104C-0.660603 345.136 -21.3715 303.866 -12.4731 255.866C-10.9223 247.495 -8.45357 248.604 -6.40279 245.007Z" fill="#D2ECED"/>
</g>
</g>
<mask id="mask2_11_706" style="mask-type:luminance" maskUnits="userSpaceOnUse" x="351" y="142" width="57" height="66">
<path d="M351.808 142.706H407.808V207.706H351.808V142.706Z" fill="white"/>
</mask>
<g mask="url(#mask2_11_706)">
<mask id="mask3_11_706" style="mask-type:luminance" maskUnits="userSpaceOnUse" x="0" y="26" width="629" height="365">
<path fill-rule="evenodd" clip-rule="evenodd" d="M47.0971 258.557C28.5073 268.686 0.85884 275.128 0.85884 246.745C0.85884 238.495 0.706496 232.257 2.61665 224.174C3.32759 221.194 3.94868 218.397 5.08931 215.534C6.3979 212.276 9.28853 209.936 11.7963 207.604C35.7495 185.397 56.2495 209.194 64.0463 206.194C65.2963 205.717 88.019 161.905 108.519 153.128C109.578 152.674 111.687 152.378 112.757 152.245C134.609 149.628 144.648 174.194 159.179 173.225C162.667 172.995 180.859 170.897 182.32 166.706C193.796 133.725 208.167 108.104 243.738 96.5339C275.929 86.0651 318.968 85.0143 340.117 117.514C340.898 118.725 348.636 128.378 349.82 127.917C370.507 119.967 374.218 -14.1849 510.417 38.0339C540.578 49.6042 555.167 83.2565 560.738 108.878C563.82 123.014 548.468 148.745 562.507 152.245C588.578 158.757 614.277 152.557 625.367 188.565C641.968 242.514 580.687 241.104 575.749 250.975C566.23 269.987 601.32 312.284 534.796 359.745C490.699 391.217 435.917 402.104 388.296 373.147C380.886 368.647 377.019 352.534 371.359 349.706C368.32 348.186 360.769 362.647 359.179 364.514C331.296 396.995 251.308 389.846 217.98 372.616C208.148 367.546 190.546 335.026 186.558 334.366C183.109 333.784 137.328 324.846 118.058 324.846C92.019 324.846 99.0893 283.194 79.9292 290.647C58.5971 298.924 41.5385 298.924 47.0971 258.557Z" fill="white"/>
</mask>
<g mask="url(#mask3_11_706)">
<path d="M353.007 143.995C354.558 169.725 377.648 206.854 406.507 206.854" stroke="#B4B4B4" stroke-width="1.667" stroke-miterlimit="10" stroke-linecap="round" stroke-linejoin="round"/>
</g>
</g>
</svg>
