<svg width="792" height="314" viewBox="0 0 792 314" fill="none" xmlns="http://www.w3.org/2000/svg">
<path fill-rule="evenodd" clip-rule="evenodd" d="M47.1792 221.01C50.1675 209.171 23.7496 207.206 24.2378 192.452C25.6675 149.424 76.2496 132.046 112.488 139.917C117.23 140.944 128.789 151.901 130.847 151.901C136.136 151.901 131.367 141.327 131.367 136.038C131.367 118.702 134.136 103.174 137.546 86.1432C145.597 45.9635 183.308 16.3893 221.738 6.98699C255.878 -1.36457 317.148 -4.85676 346.527 19.8542C384.546 51.8346 393.57 90.28 416.957 113.647C418.73 115.421 433.75 115.96 436.898 116.292C511.98 124.186 509.238 160.288 525.679 163.186C548.929 167.284 569.179 145.096 596.988 154.901C610.847 159.784 619.207 181.034 631.589 182.577C666.937 186.991 710.328 170.495 748.609 183.991C770.039 191.546 788.418 196.796 791.5 221.366C795.418 252.678 715.429 269.624 693.179 268.612C680.296 268.026 655.668 253.803 645 255.741C617.187 260.792 598.07 279.518 564.867 274.608C556.109 273.311 538.296 258.729 531.859 259.444C508.367 262.053 501.636 285.729 473.257 282.186C455.718 279.995 440.027 261.385 422.777 261.385C394.296 261.385 364.82 279.007 336.82 284.831C275.707 297.549 32.1988 348.299 3.93706 273.018C-10.2309 235.284 43.7964 234.44 47.1792 221.01Z" fill="white"/>
<mask id="mask0_11_711" style="mask-type:luminance" maskUnits="userSpaceOnUse" x="0" y="170" width="792" height="144">
<path d="M0.808105 170.706H791.808V313.706H0.808105V170.706Z" fill="white"/>
</mask>
<g mask="url(#mask0_11_711)">
<mask id="mask1_11_711" style="mask-type:luminance" maskUnits="userSpaceOnUse" x="1" y="0" width="791" height="314">
<path fill-rule="evenodd" clip-rule="evenodd" d="M47.1792 221.01C50.1675 209.17 23.7496 207.205 24.2378 192.452C25.6675 149.424 76.2496 132.045 112.488 139.916C117.23 140.944 128.789 151.901 130.847 151.901C136.136 151.901 131.367 141.327 131.367 136.038C131.367 118.702 134.136 103.174 137.546 86.143C145.597 45.9633 183.308 16.3891 221.738 6.98674C255.878 -1.36482 317.148 -4.85701 346.527 19.8539C384.546 51.8344 393.57 90.2797 416.957 113.647C418.73 115.42 433.75 115.959 436.898 116.291C511.98 124.186 509.238 160.288 525.679 163.186C548.929 167.284 569.179 145.096 596.988 154.901C610.847 159.784 619.207 181.034 631.589 182.577C666.937 186.991 710.328 170.495 748.609 183.991C770.039 191.545 788.418 196.795 791.5 221.366C795.418 252.678 715.429 269.623 693.179 268.612C680.296 268.026 655.668 253.803 645 255.741C617.187 260.791 598.07 279.518 564.867 274.608C556.109 273.311 538.296 258.729 531.859 259.444C508.367 262.053 501.636 285.729 473.257 282.186C455.718 279.995 440.027 261.385 422.777 261.385C394.296 261.385 364.82 279.006 336.82 284.831C275.707 297.549 32.1988 348.299 3.93706 273.018C-10.2309 235.284 43.7964 234.44 47.1792 221.01Z" fill="white"/>
</mask>
<g mask="url(#mask1_11_711)">
<path fill-rule="evenodd" clip-rule="evenodd" d="M42.8979 230.53C50.8472 236.444 32.5893 253.92 39.3276 267.686C49.6792 288.834 92.0893 283.608 110.148 282.412C176.429 278.033 242.929 270.944 307.07 252.221C342.57 241.854 372.398 232.272 410.277 236.998C434.66 240.045 458.699 252.994 482.699 254.006C498.046 254.655 509.519 242.615 524.218 241.252C548.046 239.037 569.097 254.143 593.07 252.526C615.48 251.018 633.25 240.815 655.257 237.924C688.558 233.545 719.867 269.729 744.847 234.721C755.386 219.936 763.347 202.143 747.886 191.115C744.589 188.76 720.867 179.096 725.828 175.381C750.058 157.229 819.359 201.787 819.359 234.721C819.359 308.42 687.046 334.002 635.078 344.033C487.148 372.592 331.917 370.291 181.898 368.865C116.218 368.244 32.9175 374.811 -25.7036 339.533C-79.8325 306.959 -53.2427 255.08 -8.36378 232.194C5.937 224.897 34.9487 224.612 42.8979 230.53Z" fill="#D2ECED"/>
</g>
</g>
<mask id="mask2_11_711" style="mask-type:luminance" maskUnits="userSpaceOnUse" x="345" y="133" width="99" height="35">
<path d="M345.808 133.706H443.808V167.706H345.808V133.706Z" fill="white"/>
</mask>
<g mask="url(#mask2_11_711)">
<mask id="mask3_11_711" style="mask-type:luminance" maskUnits="userSpaceOnUse" x="1" y="0" width="791" height="314">
<path fill-rule="evenodd" clip-rule="evenodd" d="M47.1792 221.01C50.1675 209.17 23.7496 207.205 24.2378 192.452C25.6675 149.424 76.2496 132.045 112.488 139.916C117.23 140.944 128.789 151.901 130.847 151.901C136.136 151.901 131.367 141.327 131.367 136.038C131.367 118.702 134.136 103.174 137.546 86.143C145.597 45.9633 183.308 16.3891 221.738 6.98674C255.878 -1.36482 317.148 -4.85701 346.527 19.8539C384.546 51.8344 393.57 90.2797 416.957 113.647C418.73 115.42 433.75 115.959 436.898 116.291C511.98 124.186 509.238 160.288 525.679 163.186C548.929 167.284 569.179 145.096 596.988 154.901C610.847 159.784 619.207 181.034 631.589 182.577C666.937 186.991 710.328 170.495 748.609 183.991C770.039 191.545 788.418 196.795 791.5 221.366C795.418 252.678 715.429 269.623 693.179 268.612C680.296 268.026 655.668 253.803 645 255.741C617.187 260.791 598.07 279.518 564.867 274.608C556.109 273.311 538.296 258.729 531.859 259.444C508.367 262.053 501.636 285.729 473.257 282.186C455.718 279.995 440.027 261.385 422.777 261.385C394.296 261.385 364.82 279.006 336.82 284.831C275.707 297.549 32.1988 348.299 3.93706 273.018C-10.2309 235.284 43.7964 234.44 47.1792 221.01Z" fill="white"/>
</mask>
<g mask="url(#mask3_11_711)">
<path d="M347.609 166.373C371.839 159.819 381.007 140.584 395.878 134.873C396.41 134.67 398.468 139.651 398.738 140.346C400.308 144.42 404.5 146.455 407.519 149.17C414.398 155.354 433.417 158.69 442.32 155.725" stroke="#B4B4B4" stroke-width="1.667" stroke-miterlimit="10" stroke-linecap="round" stroke-linejoin="round"/>
</g>
</g>
<mask id="mask4_11_711" style="mask-type:luminance" maskUnits="userSpaceOnUse" x="140" y="151" width="75" height="38">
<path d="M140.808 151.706H214.808V188.706H140.808V151.706Z" fill="white"/>
</mask>
<g mask="url(#mask4_11_711)">
<mask id="mask5_11_711" style="mask-type:luminance" maskUnits="userSpaceOnUse" x="1" y="0" width="791" height="314">
<path fill-rule="evenodd" clip-rule="evenodd" d="M47.1792 221.01C50.1675 209.17 23.7496 207.205 24.2378 192.452C25.6675 149.424 76.2496 132.045 112.488 139.916C117.23 140.944 128.789 151.901 130.847 151.901C136.136 151.901 131.367 141.327 131.367 136.038C131.367 118.702 134.136 103.174 137.546 86.143C145.597 45.9633 183.308 16.3891 221.738 6.98674C255.878 -1.36482 317.148 -4.85701 346.527 19.8539C384.546 51.8344 393.57 90.2797 416.957 113.647C418.73 115.42 433.75 115.959 436.898 116.291C511.98 124.186 509.238 160.288 525.679 163.186C548.929 167.284 569.179 145.096 596.988 154.901C610.847 159.784 619.207 181.034 631.589 182.577C666.937 186.991 710.328 170.495 748.609 183.991C770.039 191.545 788.418 196.795 791.5 221.366C795.418 252.678 715.429 269.623 693.179 268.612C680.296 268.026 655.668 253.803 645 255.741C617.187 260.791 598.07 279.518 564.867 274.608C556.109 273.311 538.296 258.729 531.859 259.444C508.367 262.053 501.636 285.729 473.257 282.186C455.718 279.995 440.027 261.385 422.777 261.385C394.296 261.385 364.82 279.006 336.82 284.831C275.707 297.549 32.1988 348.299 3.93706 273.018C-10.2309 235.284 43.7964 234.44 47.1792 221.01Z" fill="white"/>
</mask>
<g mask="url(#mask5_11_711)">
<path d="M142.398 153.065C154.98 176.807 188.679 187.424 213.57 187.424" stroke="#B4B4B4" stroke-width="1.667" stroke-miterlimit="10" stroke-linecap="round" stroke-linejoin="round"/>
</g>
</g>
</svg>
