<svg width="783" height="314" viewBox="0 0 783 314" fill="none" xmlns="http://www.w3.org/2000/svg">
<path fill-rule="evenodd" clip-rule="evenodd" d="M40.6168 230.768C15.8785 234.53 -7.98088 235.893 2.55818 210.385C9.66755 193.182 25.5582 202.979 35.2847 196.795C57.3668 182.76 54.5816 143.018 119.308 137.846C142.949 135.956 145.136 163.127 159.386 165.026C165.328 165.815 196.175 137.776 211.605 136.377C227.351 134.948 255.031 161.116 265.472 156.209C287.652 145.788 332.968 72.3813 347.757 54.6548C394.152 -0.950687 508.523 -17.4194 568.753 20.8657C592.621 36.0337 596.332 63.0102 612.144 82.7524C616.832 88.604 650.75 70.5767 663.257 75.0415C686.753 83.4243 678.875 123.764 691.894 138.397C710.343 159.127 748.468 138.397 774.007 183.756C805.695 240.03 740.507 230.768 707.566 230.768C688.648 230.768 674.425 262.241 647.261 259.049C640.707 258.28 623.781 240.846 619.128 242.706C553.421 268.959 533.929 315.463 447.593 313.409C349.539 311.077 354.597 249.924 338.199 245.827C318.675 240.952 267.652 276.729 246.906 274.292C235.277 272.928 222.648 252.338 213.996 254.643C200.777 258.163 185.425 271.225 171.339 269.885C158.718 268.686 145.218 249.014 139.164 249.686C131.496 250.534 123.148 262.928 116.734 267.315C79.1519 292.999 61.6363 227.573 40.6168 230.768Z" fill="white"/>
<mask id="mask0_11_712" style="mask-type:luminance" maskUnits="userSpaceOnUse" x="10" y="154" width="773" height="160">
<path d="M10.8081 154.706H782.808V313.706H10.8081V154.706Z" fill="white"/>
</mask>
<g mask="url(#mask0_11_712)">
<mask id="mask1_11_712" style="mask-type:luminance" maskUnits="userSpaceOnUse" x="0" y="0" width="783" height="314">
<path fill-rule="evenodd" clip-rule="evenodd" d="M40.6167 230.768C15.8784 234.53 -7.98094 235.893 2.55812 210.385C9.66749 193.182 25.5581 202.979 35.2847 196.795C57.3667 182.76 54.5816 143.018 119.308 137.846C142.949 135.956 145.136 163.127 159.386 165.026C165.328 165.815 196.175 137.776 211.605 136.377C227.351 134.948 255.031 161.116 265.472 156.209C287.652 145.788 332.968 72.3813 347.757 54.6548C394.152 -0.950687 508.523 -17.4194 568.753 20.8657C592.621 36.0337 596.332 63.0102 612.144 82.7524C616.832 88.604 650.75 70.5767 663.257 75.0415C686.753 83.4243 678.875 123.764 691.894 138.397C710.343 159.127 748.468 138.397 774.007 183.756C805.695 240.03 740.507 230.768 707.566 230.768C688.648 230.768 674.425 262.241 647.261 259.049C640.707 258.28 623.781 240.846 619.128 242.706C553.421 268.959 533.929 315.463 447.593 313.409C349.539 311.077 354.597 249.924 338.199 245.827C318.675 240.952 267.652 276.729 246.906 274.292C235.277 272.928 222.648 252.338 213.996 254.643C200.777 258.163 185.425 271.225 171.339 269.885C158.718 268.686 145.218 249.014 139.164 249.686C131.496 250.534 123.148 262.928 116.734 267.315C79.1519 292.999 61.6362 227.573 40.6167 230.768Z" fill="white"/>
</mask>
<g mask="url(#mask1_11_712)">
<path fill-rule="evenodd" clip-rule="evenodd" d="M47.5034 228.225C60.7925 223.741 74.5777 241.334 91.23 242.397C111.125 243.667 129.093 228.022 147.367 230.303C159.312 231.795 173.55 240.393 184.921 239.854C201.859 239.049 216.187 226.881 233.812 227.917C257.121 229.284 273.441 238.092 298.203 235.616C320.183 233.424 347.414 202.155 359.511 202.959C363.695 203.237 368.843 209.631 372.082 211.893C403.23 233.674 446.429 268.991 488.601 251.252C514.5 240.362 535.875 226.346 547.515 200.034C551.859 190.213 552.785 176.667 550.679 166.139C549.941 162.463 543.757 156.909 547.207 155.436C550.078 154.206 556.691 163.69 558.234 164.987C564.609 170.334 574.148 171.909 581.371 175.846C594.359 182.924 607.074 191.186 619.464 198.182C638.003 208.651 667.207 207.471 687.867 213.819C708.593 220.19 811.14 215.838 809.554 234.846C805.917 278.409 653.929 315.635 625.093 319.807C559.91 329.237 495.492 344.967 430.148 353.002C338.75 364.245 244.695 367.483 152.921 359.858C111.027 356.377 3.79249 329.827 11.4917 269.276C15.7808 235.53 34.2144 232.702 47.5034 228.225Z" fill="#D2ECED"/>
</g>
</g>
<mask id="mask2_11_712" style="mask-type:luminance" maskUnits="userSpaceOnUse" x="352" y="123" width="118" height="32">
<path d="M352.808 123.706H469.808V154.706H352.808V123.706Z" fill="white"/>
</mask>
<g mask="url(#mask2_11_712)">
<mask id="mask3_11_712" style="mask-type:luminance" maskUnits="userSpaceOnUse" x="0" y="0" width="783" height="314">
<path fill-rule="evenodd" clip-rule="evenodd" d="M40.6167 230.768C15.8784 234.53 -7.98094 235.893 2.55812 210.385C9.66749 193.182 25.5581 202.979 35.2847 196.795C57.3667 182.76 54.5816 143.018 119.308 137.846C142.949 135.956 145.136 163.127 159.386 165.026C165.328 165.815 196.175 137.776 211.605 136.377C227.351 134.948 255.031 161.116 265.472 156.209C287.652 145.788 332.968 72.3813 347.757 54.6548C394.152 -0.950687 508.523 -17.4194 568.753 20.8657C592.621 36.0337 596.332 63.0102 612.144 82.7524C616.832 88.604 650.75 70.5767 663.257 75.0415C686.753 83.4243 678.875 123.764 691.894 138.397C710.343 159.127 748.468 138.397 774.007 183.756C805.695 240.03 740.507 230.768 707.566 230.768C688.648 230.768 674.425 262.241 647.261 259.049C640.707 258.28 623.781 240.846 619.128 242.706C553.421 268.959 533.929 315.463 447.593 313.409C349.539 311.077 354.597 249.924 338.199 245.827C318.675 240.952 267.652 276.729 246.906 274.292C235.277 272.928 222.648 252.338 213.996 254.643C200.777 258.163 185.425 271.225 171.339 269.885C158.718 268.686 145.218 249.014 139.164 249.686C131.496 250.534 123.148 262.928 116.734 267.315C79.1519 292.999 61.6362 227.573 40.6167 230.768Z" fill="white"/>
</mask>
<g mask="url(#mask3_11_712)">
<path d="M353.832 124.987C354.535 124.987 354.617 126.331 354.832 126.913C357.843 135.112 380.113 148.05 388.07 149.792C419.789 156.733 439.343 153.565 468.73 143.78" stroke="#B4B4B4" stroke-width="1.667" stroke-miterlimit="10" stroke-linecap="round" stroke-linejoin="round"/>
</g>
</g>
</svg>
