<svg width="928" height="267" viewBox="0 0 928 267" fill="none" xmlns="http://www.w3.org/2000/svg">
<path fill-rule="evenodd" clip-rule="evenodd" d="M57.5269 242.503C29.9527 236.792 -25.1997 225.382 17.3238 184.902C41.3745 162.015 56.355 157.331 74.0659 152.093C93.1714 146.433 121.437 158.273 136.343 152.765C177.789 137.413 170.55 100.491 231.183 112.574C239.906 114.312 246.988 128.472 254.441 124.183C272.593 113.734 269.429 72.4524 321.23 70.3821C349.273 69.2649 385.812 120.074 388.996 118.382C412.16 106.062 425.417 20.0149 517.429 6.76492C536.074 4.07352 558.589 -0.41867 577.64 0.964143C709.398 10.4446 669.054 63.3548 706.07 84.6751C719.519 92.4134 765.878 54.6634 790.574 70.3821C807.617 81.2337 794.789 107.304 806.593 114.363C821.503 123.273 867.199 109.913 890.062 118.605C943.179 138.792 892.132 154.304 892.132 169.722C892.132 181.183 927.093 173.464 927.792 184.902C928.546 197.374 902.21 210.484 891.097 217.054C855.32 238.195 781.863 241.445 740.441 235.132C730.609 233.632 719.675 219.874 712.273 220.624C681.113 223.792 645.156 255.753 607.875 260.363C566.667 265.445 497.218 268.925 456.183 260.581C444.175 258.144 432.671 241.714 424.914 242.503C381.691 246.894 324.328 242.804 277.957 248.523C251.628 251.773 259.238 231.784 239.195 231.784C223.703 231.784 208.988 243.695 192.937 244.952C149.203 248.394 88.0855 244.464 57.5269 242.503Z" fill="white"/>
<mask id="mask0_11_707" style="mask-type:luminance" maskUnits="userSpaceOnUse" x="0" y="193" width="928" height="74">
<path d="M0.808105 193.253H927.808V266.253H0.808105V193.253Z" fill="white"/>
</mask>
<g mask="url(#mask0_11_707)">
<mask id="mask1_11_707" style="mask-type:luminance" maskUnits="userSpaceOnUse" x="1" y="0" width="927" height="266">
<path fill-rule="evenodd" clip-rule="evenodd" d="M57.5269 242.503C29.9527 236.792 -25.1997 225.382 17.3238 184.902C41.3745 162.015 56.355 157.331 74.0659 152.093C93.1714 146.433 121.437 158.273 136.343 152.765C177.789 137.413 170.55 100.491 231.183 112.574C239.906 114.312 246.988 128.472 254.441 124.183C272.593 113.734 269.429 72.4524 321.23 70.3821C349.273 69.2649 385.812 120.074 388.996 118.382C412.16 106.062 425.417 20.0149 517.429 6.76492C536.074 4.07352 558.589 -0.41867 577.64 0.964143C709.398 10.4446 669.054 63.3548 706.07 84.6751C719.519 92.4134 765.878 54.6634 790.574 70.3821C807.617 81.2337 794.789 107.304 806.593 114.363C821.503 123.273 867.199 109.913 890.062 118.605C943.179 138.792 892.132 154.304 892.132 169.722C892.132 181.183 927.093 173.464 927.792 184.902C928.546 197.374 902.21 210.484 891.097 217.054C855.32 238.195 781.863 241.445 740.441 235.132C730.609 233.632 719.675 219.874 712.273 220.624C681.113 223.792 645.156 255.753 607.875 260.363C566.667 265.445 497.218 268.925 456.183 260.581C444.175 258.144 432.671 241.714 424.914 242.503C381.691 246.894 324.328 242.804 277.957 248.523C251.628 251.773 259.238 231.784 239.195 231.784C223.703 231.784 208.988 243.695 192.937 244.952C149.203 248.394 88.0855 244.464 57.5269 242.503Z" fill="white"/>
</mask>
<g mask="url(#mask1_11_707)">
<path fill-rule="evenodd" clip-rule="evenodd" d="M1.83546 220.542C15.3941 217.554 27.3589 210.913 40.4448 207.831C87.9956 196.613 144.808 189.003 193.347 196.273C240.539 203.343 272.55 233.734 322.035 230.933C349.691 229.374 398.093 208.644 416.886 210.214C450.167 212.984 480.574 228.652 513.039 234.984C543.167 240.855 574.312 232.792 604.058 228.913C635.691 224.792 662.523 201.554 693.777 195.773C738.714 187.453 782.554 217.683 827.015 213.242C846.425 211.304 927.054 190.324 938.429 194.394C955.429 200.492 948.117 216.265 938.57 226.242C906.324 259.913 765.632 279.554 724.789 284.015C619.539 295.503 514.851 315.945 409.003 321.855C343.363 325.515 278.167 317.035 212.796 317.953C147.804 318.863 49.8159 336.324 7.47609 271.882C-6.77391 250.195 -5.68016 240.015 2.9214 220.683" fill="#D2ECEE"/>
</g>
</g>
<mask id="mask2_11_707" style="mask-type:luminance" maskUnits="userSpaceOnUse" x="632" y="119" width="93" height="30">
<path d="M632.808 119.253H724.808V148.253H632.808V119.253Z" fill="white"/>
</mask>
<g mask="url(#mask2_11_707)">
<mask id="mask3_11_707" style="mask-type:luminance" maskUnits="userSpaceOnUse" x="1" y="0" width="927" height="266">
<path fill-rule="evenodd" clip-rule="evenodd" d="M57.5269 242.503C29.9527 236.792 -25.1997 225.382 17.3238 184.902C41.3745 162.015 56.355 157.331 74.0659 152.093C93.1714 146.433 121.437 158.273 136.343 152.765C177.789 137.413 170.55 100.491 231.183 112.574C239.906 114.312 246.988 128.472 254.441 124.183C272.593 113.734 269.429 72.4524 321.23 70.3821C349.273 69.2649 385.812 120.074 388.996 118.382C412.16 106.062 425.417 20.0149 517.429 6.76492C536.074 4.07352 558.589 -0.41867 577.64 0.964143C709.398 10.4446 669.054 63.3548 706.07 84.6751C719.519 92.4134 765.878 54.6634 790.574 70.3821C807.617 81.2337 794.789 107.304 806.593 114.363C821.503 123.273 867.199 109.913 890.062 118.605C943.179 138.792 892.132 154.304 892.132 169.722C892.132 181.183 927.093 173.464 927.792 184.902C928.546 197.374 902.21 210.484 891.097 217.054C855.32 238.195 781.863 241.445 740.441 235.132C730.609 233.632 719.675 219.874 712.273 220.624C681.113 223.792 645.156 255.753 607.875 260.363C566.667 265.445 497.218 268.925 456.183 260.581C444.175 258.144 432.671 241.714 424.914 242.503C381.691 246.894 324.328 242.804 277.957 248.523C251.628 251.773 259.238 231.784 239.195 231.784C223.703 231.784 208.988 243.695 192.937 244.952C149.203 248.394 88.0855 244.464 57.5269 242.503Z" fill="white"/>
</mask>
<g mask="url(#mask3_11_707)">
<path d="M634.628 146.683C664.382 146.683 668.878 124.863 680.031 120.573C681.492 120.015 683.464 124.753 684.253 125.714C686.957 129.015 690.406 131.652 694.375 133.284C703.285 136.945 714.05 131.663 723.003 131.663" stroke="#878787" stroke-width="1.667" stroke-miterlimit="10" stroke-linecap="round" stroke-linejoin="round"/>
</g>
</g>
<mask id="mask4_11_707" style="mask-type:luminance" maskUnits="userSpaceOnUse" x="410" y="117" width="42" height="39">
<path d="M410.808 117.253H451.808V155.253H410.808V117.253Z" fill="white"/>
</mask>
<g mask="url(#mask4_11_707)">
<mask id="mask5_11_707" style="mask-type:luminance" maskUnits="userSpaceOnUse" x="1" y="0" width="927" height="266">
<path fill-rule="evenodd" clip-rule="evenodd" d="M57.5269 242.503C29.9527 236.792 -25.1997 225.382 17.3238 184.902C41.3745 162.015 56.355 157.331 74.0659 152.093C93.1714 146.433 121.437 158.273 136.343 152.765C177.789 137.413 170.55 100.491 231.183 112.574C239.906 114.312 246.988 128.472 254.441 124.183C272.593 113.734 269.429 72.4524 321.23 70.3821C349.273 69.2649 385.812 120.074 388.996 118.382C412.16 106.062 425.417 20.0149 517.429 6.76492C536.074 4.07352 558.589 -0.41867 577.64 0.964143C709.398 10.4446 669.054 63.3548 706.07 84.6751C719.519 92.4134 765.878 54.6634 790.574 70.3821C807.617 81.2337 794.789 107.304 806.593 114.363C821.503 123.273 867.199 109.913 890.062 118.605C943.179 138.792 892.132 154.304 892.132 169.722C892.132 181.183 927.093 173.464 927.792 184.902C928.546 197.374 902.21 210.484 891.097 217.054C855.32 238.195 781.863 241.445 740.441 235.132C730.609 233.632 719.675 219.874 712.273 220.624C681.113 223.792 645.156 255.753 607.875 260.363C566.667 265.445 497.218 268.925 456.183 260.581C444.175 258.144 432.671 241.714 424.914 242.503C381.691 246.894 324.328 242.804 277.957 248.523C251.628 251.773 259.238 231.784 239.195 231.784C223.703 231.784 208.988 243.695 192.937 244.952C149.203 248.394 88.0855 244.464 57.5269 242.503Z" fill="white"/>
</mask>
<g mask="url(#mask5_11_707)">
<path d="M411.73 119.073C422.996 134.823 430.347 147.702 450.191 154.312" stroke="#878787" stroke-width="1.667" stroke-miterlimit="10" stroke-linecap="round" stroke-linejoin="round"/>
</g>
</g>
</svg>
