<svg width="1684" height="1684" viewBox="0 0 1684 1684" fill="none" xmlns="http://www.w3.org/2000/svg">
<path d="M1684 842C1684 618.688 1595.29 404.522 1437.38 246.616C1279.48 88.7105 1065.31 1.68596e-05 842 0C618.688 -1.68596e-05 404.522 88.7104 246.616 246.616C88.7105 404.522 3.37192e-05 618.688 0 842L842 842H1684Z" fill="#F8B31D"/>
<path d="M1641 842C1641 631.153 1557.24 428.942 1408.15 279.85C1259.06 130.759 1056.85 47 846 47C635.153 47 432.942 130.759 283.85 279.85C134.759 428.941 51 631.153 51 842L846 842H1641Z" fill="#F89D1D"/>
<path d="M1599 842C1599 642.292 1519.67 450.764 1378.45 309.549C1237.24 168.334 1045.71 89 846 89C646.292 89 454.764 168.334 313.549 309.549C172.334 450.763 93 642.292 93 842L846 842H1599Z" fill="#F8831D"/>
<path d="M1564 841.5C1564 651.207 1488.41 468.708 1353.85 334.151C1219.29 199.594 1036.79 124 846.5 124C656.207 124 473.708 199.593 339.151 334.151C204.594 468.708 129 651.207 129 841.5L846.5 841.5H1564Z" fill="#F86A1D"/>
<path d="M1523 842C1523 662.448 1451.67 490.251 1324.71 363.289C1197.75 236.327 1025.55 165 846 165C666.448 165 494.251 236.327 367.289 363.289C240.327 490.251 169 662.448 169 842L846 842H1523Z" fill="#F8571D"/>
<path d="M1485 842C1485 675.179 1418.73 515.19 1300.77 397.23C1182.81 279.269 1022.82 213 856 213C689.179 213 529.19 279.269 411.23 397.23C293.269 515.19 227 675.179 227 842L856 842H1485Z" fill="#D13318"/>
<path d="M1441 842C1441 686.848 1379.37 538.051 1269.66 428.343C1159.95 318.634 1011.15 257 856 257C700.848 257 552.051 318.634 442.343 428.342C332.634 538.051 271 686.848 271 842L856 842H1441Z" fill="#B31D1D"/>
</svg>
