<svg width="154" height="205" viewBox="0 0 154 205" fill="none" xmlns="http://www.w3.org/2000/svg">
<path d="M97.5 89.1803C94.9737 92.9147 91.2286 96.1745 86.0749 98.575C88.4656 101.9 90.7408 104.587 93 106.745C101.477 114.842 109.727 115.498 123 114.5C119.213 105.404 115.952 100.407 107 91.771C104.031 91.1142 100.889 90.2475 97.5 89.1803Z" fill="#F8B31D"/>
<path d="M77.5 45.2626C80.5701 45.7363 83.4491 46.773 86.0749 48.2463C89.9945 44.027 93.6955 40.5461 97.5 37.6017C100.137 21.9826 100.197 13.9524 97.5 1C84.2581 12.4928 78.2949 19.0844 74.1934 31.5C75.4069 35.664 76.4259 40.117 77.5 45.2626Z" fill="#F8B31D"/>
<path d="M53.5 38.5L59.7412 48.7454C66.0286 45.3509 72.0637 44.424 77.5 45.2626C76.4259 40.117 75.4069 35.664 74.1934 31.5C71.4072 21.939 67.5962 13.9014 59.7412 2.5C53.2209 16.4413 53.1591 24.3612 53.5 38.5Z" fill="#F8B31D"/>
<path d="M59.7412 48.7454L53.5 38.5C44.0972 30.0121 37.9828 26.663 24.5 25C28.475 35.0221 32.117 41.7275 37.8612 48.7454C40.6258 52.1231 43.8774 55.5731 47.8874 59.5C50.4093 55.4076 54.2856 51.6909 59.7412 48.7454Z" fill="#F8B31D"/>
<path d="M47.8874 59.5C43.8774 55.5731 40.6258 52.1231 37.8612 48.7454C29.1408 46.1541 24.2477 45.5341 15.5 48.2463C19.4651 56.9408 24.27 61.7221 31.7118 66C35.2164 68.0146 39.3057 69.9175 44.1676 72.0648C44.2773 67.7635 45.4495 63.4562 47.8874 59.5Z" fill="#F8B31D"/>
<path d="M44.1676 72.0648C39.3057 69.9175 35.2164 68.0146 31.7118 66C18.9804 70.4928 12.1985 74.3337 1 84.5C15.9443 88.8973 25.3171 88.9282 37.8612 86.478C40.6458 85.934 43.5867 85.2678 46.7796 84.5C44.9955 80.5933 44.0587 76.332 44.1676 72.0648Z" fill="#F8B31D"/>
<path d="M46.7796 84.5C43.5867 85.2678 40.6458 85.934 37.8612 86.478C23.9987 96.0104 20.5397 103.486 17 116C35.3978 115.236 43.6023 110.122 56 96.0452C52.0064 93.0203 48.8322 88.9949 46.7796 84.5Z" fill="#F8B31D"/>
<path d="M56 96.0452C47.3408 109.447 46.5546 119.593 49.5 140.5C58.1825 133.691 61.9323 130.63 66.321 121.5C67.2849 119.495 69.7406 114.342 70.6445 112C71.8363 108.913 72.999 105.498 74.1934 101.663C67.2444 102.037 60.9841 99.8204 56 96.0452Z" fill="#F8B31D"/>
<path d="M86.0749 98.575C81.9732 100.485 77.981 101.459 74.1934 101.663C72.999 105.498 71.8363 108.913 70.6445 112C71.8928 114.413 73.12 116.56 74.3635 118.5C80.3296 127.808 86.6699 132.344 97.5 138.5C98.8861 125.197 98.2847 118.135 93 106.745C90.7408 104.587 88.4656 101.9 86.0749 98.575Z" fill="#F8B31D"/>
<path d="M77.5 45.2626C72.0637 44.424 66.0286 45.3509 59.7412 48.7454C54.2856 51.6909 50.4093 55.4076 47.8874 59.5C45.4495 63.4562 44.2773 67.7635 44.1676 72.0648C44.0587 76.332 44.9955 80.5933 46.7796 84.5C48.8322 88.9949 52.0064 93.0203 56 96.0452C60.9841 99.8204 67.2444 102.037 74.1934 101.663C77.981 101.459 81.9732 100.485 86.0749 98.575C91.2286 96.1745 94.9737 92.9147 97.5 89.1803C100.978 84.0398 102.146 78.0001 101.5 72.0648C101.163 68.9672 100.332 65.8981 99.0769 63C96.4198 56.8634 91.8629 51.494 86.0749 48.2463C83.4491 46.773 80.5701 45.7363 77.5 45.2626Z" fill="#F26A1B"/>
<path d="M86.0749 48.2463C91.8629 51.494 96.4198 56.8634 99.0769 63C106.042 60.0258 111.479 56.8789 116 53.1844C125.032 45.8038 130.408 36.2381 137 21.5C118.832 25.6016 107.788 29.6397 97.5 37.6017C93.6955 40.5461 89.9945 44.027 86.0749 48.2463Z" fill="#F8B31D"/>
<path d="M116 53.1844C111.479 56.8789 106.042 60.0258 99.0769 63C100.332 65.8981 101.163 68.9672 101.5 72.0648L118 73.5C134.062 69.2211 141.551 65.7826 152.5 58C138.554 53.9579 130.589 52.7382 116 53.1844Z" fill="#F8B31D"/>
<path d="M118 73.5L101.5 72.0648C102.146 78.0001 100.978 84.0398 97.5 89.1803C100.889 90.2475 104.031 91.1142 107 91.771C122.529 95.2066 133.317 92.8983 150 83.5C140.776 78.3626 133.829 76.1586 118 73.5Z" fill="#F8B31D"/>
<path d="M70.6445 112C69.7406 114.342 67.2849 119.495 66.321 121.5C65.9351 135.561 68.531 166.95 81.965 204C85.6708 199.399 89.2841 194.21 93 194C81.6404 200.589 65.8118 144.481 74.3635 118.5C73.12 116.56 71.8928 114.413 70.6445 112Z" fill="#6E9E6E"/>
<path d="M59.7412 48.7454L53.5 38.5M59.7412 48.7454C66.0286 45.3509 72.0637 44.424 77.5 45.2626M59.7412 48.7454C54.2856 51.6909 50.4093 55.4076 47.8874 59.5M86.0749 98.575C91.2286 96.1745 94.9737 92.9147 97.5 89.1803M86.0749 98.575C81.9732 100.485 77.981 101.459 74.1934 101.663M86.0749 98.575C88.4656 101.9 90.7408 104.587 93 106.745M53.5 38.5C53.1591 24.3612 53.2209 16.4413 59.7412 2.5C67.5962 13.9014 71.4072 21.939 74.1934 31.5M53.5 38.5C44.0972 30.0121 37.9828 26.663 24.5 25C28.475 35.0221 32.117 41.7275 37.8612 48.7454M77.5 45.2626C80.57 45.7363 83.4491 46.773 86.0749 48.2463M77.5 45.2626C76.4259 40.117 75.4069 35.664 74.1934 31.5M86.0749 48.2463C91.8629 51.494 96.4198 56.8634 99.0769 63M86.0749 48.2463C89.9945 44.027 93.6955 40.5461 97.5 37.6017M99.0769 63C106.042 60.0258 111.479 56.8789 116 53.1844M99.0769 63C100.332 65.8981 101.163 68.9672 101.5 72.0648M74.1934 31.5C78.2949 19.0844 84.2581 12.4928 97.5 1C100.197 13.9524 100.137 21.9826 97.5 37.6017M97.5 37.6017C107.788 29.6397 118.832 25.6016 137 21.5C130.408 36.2381 125.032 45.8038 116 53.1844M116 53.1844C130.589 52.7382 138.554 53.9579 152.5 58C141.551 65.7826 134.062 69.2211 118 73.5M118 73.5L101.5 72.0648M118 73.5C133.829 76.1586 140.776 78.3626 150 83.5C133.317 92.8983 122.529 95.2066 107 91.771M101.5 72.0648C102.146 78.0001 100.978 84.0398 97.5 89.1803M97.5 89.1803C100.889 90.2475 104.031 91.1142 107 91.771M47.8874 59.5C43.8774 55.5731 40.6258 52.1231 37.8612 48.7454M47.8874 59.5C45.4495 63.4562 44.2773 67.7635 44.1676 72.0648M37.8612 48.7454C29.1408 46.1541 24.2477 45.5341 15.5 48.2463C19.4651 56.9408 24.27 61.7221 31.7118 66M44.1676 72.0648C39.3057 69.9175 35.2164 68.0146 31.7118 66M44.1676 72.0648C44.0587 76.332 44.9955 80.5933 46.7796 84.5M31.7118 66C18.9804 70.4928 12.1985 74.3337 1 84.5C15.9443 88.8973 25.3171 88.9282 37.8612 86.478M46.7796 84.5C43.5867 85.2678 40.6458 85.934 37.8612 86.478M46.7796 84.5C48.8322 88.9949 52.0064 93.0203 56 96.0452M37.8612 86.478C23.9987 96.0104 20.5397 103.486 17 116C35.3978 115.236 43.6023 110.122 56 96.0452M56 96.0452C47.3408 109.447 46.5546 119.593 49.5 140.5C58.1825 133.691 61.9323 130.63 66.321 121.5M56 96.0452C60.9841 99.8204 67.2444 102.037 74.1934 101.663M74.1934 101.663C72.999 105.498 71.8363 108.913 70.6445 112M107 91.771C115.952 100.407 119.213 105.404 123 114.5C109.727 115.498 101.477 114.842 93 106.745M70.6445 112C69.7406 114.342 67.2849 119.495 66.321 121.5M70.6445 112C71.8928 114.413 73.12 116.56 74.3635 118.5M93 106.745C98.2847 118.135 98.8861 125.197 97.5 138.5C86.6699 132.344 80.3296 127.808 74.3635 118.5M66.321 121.5C65.9351 135.561 68.531 166.95 81.965 204C85.6708 199.399 89.2841 194.21 93 194C81.6404 200.589 65.8118 144.481 74.3635 118.5" stroke="black"/>
</svg>
