<svg width="143" height="172" viewBox="0 0 143 172" fill="none" xmlns="http://www.w3.org/2000/svg">
<path d="M66.8235 98.2349C70.8426 97.8237 74.3627 97.0063 77.4173 95.861C90.0035 91.142 94.6875 80.8563 93.8158 70.4868C93.508 66.8252 92.5074 63.1531 90.9173 59.712C88.4997 54.4798 84.7192 49.7817 79.9392 46.4663C76.6893 44.2122 72.9773 42.5973 68.9173 41.8883C66.3732 41.444 63.6924 41.3554 60.9031 41.6883C50.5717 42.921 42.9899 49.2825 38.7651 57.3311C36.6293 61.4 35.3515 65.9 35.0102 70.3867C35.0076 70.4201 35.0051 70.4534 35.0027 70.4868C34.338 79.5951 37.5354 88.6342 45.2516 93.8835C50.381 97.373 57.5073 99.1878 66.8235 98.2349Z" fill="#F26A1B"/>
<path d="M102.317 51C116.008 39.2398 130.206 23.1641 124.418 23.4918C112.71 24.1546 99.4221 31.5877 89.8506 38.4571C85.7073 41.4308 82.2602 44.2988 79.9392 46.4663C84.7192 49.7817 88.4997 54.4798 90.9173 59.712C94.329 57.5279 98.3014 54.4496 102.317 51Z" fill="#F2B035"/>
<path d="M102.317 51C98.3014 54.4496 94.329 57.5279 90.9173 59.712C92.5074 63.1531 93.508 66.8252 93.8158 70.4868C99.9425 70.8916 105.29 71.4106 109.958 72.0081C110.057 72.0208 110.156 72.0336 110.254 72.0463C113.758 71.9791 139.103 60.9903 140.16 57.0132C141.381 52.4173 115.605 49.1388 102.317 51Z" fill="#F8B31D"/>
<path d="M89.9176 86.4918C90.3605 86.7076 90.8377 86.953 91.3443 87.2268C100.691 90.3129 142.204 85.3699 141.784 83.5424C141.401 81.8792 137.69 75.6003 110.254 72.0463C110.125 72.0488 110.025 72.0364 109.958 72.0081C105.29 71.4106 99.9425 70.8916 93.8158 70.4868C94.6875 80.8563 90.0035 91.142 77.4173 95.861C85.9304 101.581 120.307 123.306 115.418 111.492C110.679 100.043 98.2728 90.9722 91.3443 87.2268C90.7157 87.0192 90.2327 86.7754 89.9176 86.4918Z" fill="#F8B31D"/>
<path d="M81.9174 130.987C105.917 150.987 82.4173 101.487 77.4173 95.861C74.3627 97.0063 70.8426 97.8237 66.8235 98.2349C57.5073 99.1878 50.381 97.373 45.2516 93.8835C40.4183 108.05 33.2174 135.987 42.4174 133.987C48.3701 132.693 54.225 122.817 58.5196 113.026C60.6197 108.238 62.3467 103.471 63.5295 99.7381C63.7122 98.9145 63.9175 98.4868 63.9175 98.4868C63.7956 98.8891 63.6662 99.3067 63.5295 99.7381C63.0337 101.973 62.7038 107.123 67.0895 114.556C69.8267 119.195 74.4007 124.723 81.9174 130.987Z" fill="#F8B31D"/>
<path d="M35.0027 70.4868C33.6149 69.7929 34.0562 69.9754 32.4172 68.9868C25.6216 66.2518 13.5333 65.0825 3.91736 73.9868C-10.9648 87.7677 35.8733 81.3509 37.0723 83.8421C30.7262 80.7478 23.1893 102.744 24.5 107C25.8107 111.257 40.8204 97.0436 45.2516 93.8835C37.5354 88.6342 34.338 79.5951 35.0027 70.4868Z" fill="#F8B31D"/>
<path d="M5.91742 44.9868C8.57221 52.3865 23.0337 63.3274 32.4172 68.9868C34.1794 69.6961 33.7364 69.539 35.0027 70.4868C35.0051 70.4534 35.0076 70.4201 35.0102 70.3867C35.3515 65.9 36.6293 61.4 38.7651 57.3311C35.9738 55.2913 33.3047 52.6823 30.849 49.8081C20.5571 46.1954 3.91196 39.397 5.91742 44.9868Z" fill="#F8B31D"/>
<path d="M68.9173 41.8883C68.0701 38.7223 67.1136 35.3512 65.7227 30.9999C61.915 19.0874 56.3119 4.41665 51.9172 1.48684C50.9018 0.809902 50.0514 0.866151 49.3411 1.48684C43.7867 17.2483 45.8983 37.3238 46.6334 39.8677C35.7208 30.5944 19.9719 18.7535 16.9173 22.4868C15.7394 25.2353 21.8676 39.2961 30.849 49.8081C33.3047 52.6823 35.9738 55.2913 38.7651 57.3311C42.9899 49.2825 50.5717 42.921 60.9031 41.6883C63.6924 41.3554 66.3732 41.444 68.9173 41.8883Z" fill="#F8B31D"/>
<path d="M89.0001 168.5C67.8001 157.7 65.7562 128.222 67.0895 114.556C62.7038 107.123 63.0337 101.973 63.5295 99.7381C62.3467 103.471 60.6197 108.238 58.5196 113.026C58.5196 129.526 71.1469 166.1 82.5001 170.5L89.0001 168.5Z" fill="#6E9E6E"/>
<path d="M89.8506 38.4571C90.0173 26.2905 90.4173 1.7868 88.4173 2.9868C85.9173 4.4868 74.2227 12.4999 65.7227 30.9999C67.1136 35.3512 68.0701 38.7223 68.9173 41.8883C72.9773 42.5973 76.6893 44.2122 79.9392 46.4663C82.2602 44.2988 85.7073 41.4308 89.8506 38.4571Z" fill="#F8B31D"/>
<path d="M35.0027 70.4868C33.6149 69.7929 34.0562 69.9754 32.4172 68.9868M35.0027 70.4868C33.7364 69.539 34.1794 69.6961 32.4172 68.9868M35.0027 70.4868C34.338 79.5951 37.5354 88.6342 45.2516 93.8835M35.0027 70.4868C35.0051 70.4534 35.0076 70.4201 35.0102 70.3867M32.4172 68.9868C23.0337 63.3274 8.57221 52.3865 5.91742 44.9868C3.91196 39.397 20.5571 46.1954 30.849 49.8081M32.4172 68.9868C25.6216 66.2518 13.5333 65.0825 3.91736 73.9868C-10.9648 87.7677 35.8733 81.3509 37.0723 83.8421C30.7262 80.7478 23.1893 102.744 24.5 107C25.8107 111.257 40.8204 97.0436 45.2516 93.8835M30.9173 49.8321C30.8946 49.8241 30.8718 49.8161 30.849 49.8081M89.8506 38.4571C90.0173 26.2905 90.4173 1.7868 88.4173 2.9868C85.9173 4.4868 74.2227 12.4999 65.7227 30.9999M89.8506 38.4571C85.7073 41.4308 82.2602 44.2988 79.9392 46.4663M89.8506 38.4571C99.4221 31.5877 112.71 24.1546 124.418 23.4918M65.7227 30.9999C67.1136 35.3512 68.0701 38.7223 68.9173 41.8883M65.7227 30.9999C61.915 19.0874 56.3119 4.41665 51.9172 1.48684M68.9173 41.8883C65.7507 30.0549 57.9172 5.48684 51.9172 1.48684M68.9173 41.8883C72.9773 42.5973 76.6893 44.2122 79.9392 46.4663M68.9173 41.8883C66.3732 41.444 63.6924 41.3554 60.9031 41.6883M51.9172 1.48684C50.9018 0.809902 50.0514 0.866151 49.3411 1.48684C43.7867 17.2483 45.8983 37.3238 46.6334 39.8677M46.6334 39.8677C48.5822 41.5237 50.2452 42.9768 51.7857 44.3658M46.6334 39.8677C35.7208 30.5944 19.9719 18.7535 16.9173 22.4868C15.7394 25.2353 21.8676 39.2961 30.849 49.8081M38.7651 57.3311C42.9899 49.2825 50.5717 42.921 60.9031 41.6883M38.7651 57.3311C36.6293 61.4 35.3515 65.9 35.0102 70.3867M38.7651 57.3311C35.9738 55.2913 33.3047 52.6823 30.849 49.8081M79.9172 46.4868C79.9245 46.48 79.9318 46.4732 79.9392 46.4663M124.418 23.4918C131.904 23.068 105.96 50.0821 90.9173 59.712M124.418 23.4918C130.206 23.1641 116.008 39.2398 102.317 51M90.9173 59.712C92.5074 63.1531 93.508 66.8252 93.8158 70.4868M90.9173 59.712C88.4997 54.4798 84.7192 49.7817 79.9392 46.4663M90.9173 59.712C94.329 57.5279 98.3014 54.4496 102.317 51M102.317 51C115.605 49.1388 141.381 52.4173 140.16 57.0132C139.103 60.9903 113.758 71.9791 110.254 72.0463M109.917 71.9868C109.929 71.9947 109.943 72.0018 109.958 72.0081M77.4173 95.861C85.9304 101.581 120.307 123.306 115.418 111.492C110.679 100.043 98.2728 90.9722 91.3443 87.2268M77.4173 95.861C82.4173 101.487 105.917 150.987 81.9174 130.987C74.4007 124.723 69.8267 119.195 67.0895 114.556M77.4173 95.861C74.3627 97.0063 70.8426 97.8237 66.8235 98.2349C57.5073 99.1878 50.381 97.373 45.2516 93.8835M77.4173 95.861C90.0035 91.142 94.6875 80.8563 93.8158 70.4868M77.4173 95.861C101.206 86.942 96.7657 58.137 79.9392 46.4663M63.5295 99.7381C63.7122 98.9145 63.9175 98.4868 63.9175 98.4868C63.7956 98.8891 63.6662 99.3067 63.5295 99.7381ZM63.5295 99.7381C63.0337 101.973 62.7037 107.123 67.0895 114.556M63.5295 99.7381C62.3467 103.471 60.6197 108.238 58.5196 113.026M45.2516 93.8835C40.4183 108.05 33.2174 135.987 42.4174 133.987C48.3701 132.693 54.225 122.817 58.5196 113.026M45.2516 93.8835C37.5071 88.615 34.3146 79.5287 35.0102 70.3867M60.9031 41.6883C68.1436 40.8243 74.6527 42.7997 79.9392 46.4663M60.9031 41.6883C45.3487 43.5443 36.0268 57.0251 35.0102 70.3867M93.8158 70.4868C99.9425 70.8916 105.29 71.4106 109.958 72.0081M67.0895 114.556C65.7562 128.222 67.8001 157.7 89.0001 168.5L82.5001 170.5C71.1469 166.1 58.5196 129.526 58.5196 113.026M109.958 72.0081C110.057 72.0208 110.156 72.0336 110.254 72.0463M109.958 72.0081C110.025 72.0364 110.125 72.0488 110.254 72.0463M110.254 72.0463C137.69 75.6003 141.401 81.8792 141.784 83.5424C142.204 85.3699 100.691 90.3129 91.3443 87.2268M91.3443 87.2268C90.8377 86.953 90.3605 86.7076 89.9176 86.4918C90.2327 86.7754 90.7157 87.0192 91.3443 87.2268Z" stroke="black"/>
</svg>
