<svg width="191" height="266" viewBox="0 0 191 266" fill="none" xmlns="http://www.w3.org/2000/svg">
<path d="M122.764 120.17C116.21 125.343 107.411 128.619 96.4085 128.699L101.153 140.638C102.592 143.93 103.973 146.896 105.318 149.59C106.339 151.636 107.339 153.525 108.327 155.282C115.908 168.756 122.78 174.381 133.093 182.825L133.307 183C140.084 155.472 137.691 141.724 122.764 120.17Z" fill="#F8B31D"/>
<path d="M92.7187 128.609C88.0497 128.351 83.837 127.555 80.0678 126.315C77.6583 128.567 75.3877 130.668 73.2153 132.627C67.0891 142.04 67.0736 152.069 70.0356 174.109C80.7009 168.48 87.4096 163.494 93.9886 153.5C94.7948 152.275 95.5991 150.975 96.4085 149.59C97.9549 146.943 99.5199 143.983 101.153 140.638L96.4085 128.699C95.2049 128.708 93.975 128.679 92.7187 128.609Z" fill="#F8B31D"/>
<path d="M150.175 105.778C145.441 105.265 140.519 104.176 135.007 102.46C132.778 109.273 128.687 115.496 122.764 120.17C140.533 135.723 152.653 139.629 176.003 142.73C169.845 129.633 165.665 122.044 150.175 105.778Z" fill="#F8B31D"/>
<path d="M136.923 87.2931C137.242 92.4173 136.6 97.5895 135.007 102.46C140.519 104.176 145.441 105.265 150.175 105.778C162.193 107.078 172.997 104.658 189.181 99.3218C183.309 91.8814 177.208 87.7054 158.081 80.2507C152.263 83.0189 145.549 85.2132 136.923 87.2931Z" fill="#F8B31D"/>
<path d="M143.849 58.3082C140.169 61.5454 135.922 64.8632 130.868 68.4655C134.5 74.162 136.511 80.6877 136.923 87.2931C145.549 85.2132 152.263 83.0189 158.081 80.2507C167.053 75.982 173.894 70.3488 182.329 61.6667C170.659 55.6832 157.088 53.9988 143.849 58.3082Z" fill="#F8B31D"/>
<path d="M120.129 41.2701L109.587 52.4493C119.247 55.5141 126.326 61.3414 130.868 68.4655C135.922 64.8632 140.169 61.5454 143.849 58.3082C155.101 48.4121 161.061 39.2701 168.624 25.0575C151.279 25.9299 141.514 26.5581 120.129 41.2701Z" fill="#F8B31D"/>
<path d="M85.8662 50.989C89.9894 50.1502 94.4972 49.9081 99.3725 50.3892C103.05 50.752 106.454 51.4554 109.587 52.4493L120.129 41.2701C120.129 41.2701 115.055 9.95925 109.587 1C99.575 12.7881 94.3478 22.3119 89.4575 38.1322C88.2619 41.9998 87.0865 46.2437 85.8662 50.989Z" fill="#F8B31D"/>
<path d="M85.8662 50.989C87.0865 46.2437 88.2619 41.9998 89.4575 38.1322C78.6958 18.1278 71.1933 11.5138 57.4017 1C55.5284 13.1927 54.8687 21.1922 57.4017 46.5L70.0356 58.3082C74.4187 54.8202 79.7144 52.2405 85.8662 50.989Z" fill="#F8B31D"/>
<path d="M70.0356 58.3082L57.4017 46.5C41.0815 35.9872 31.797 31.7638 14.7051 30.8103C22.9853 48.4819 30.1804 58.8233 41.0175 68.4655C45.397 72.3622 50.3713 76.1447 56.2524 80.2507C58.3664 71.7612 63.0378 63.8771 70.0356 58.3082Z" fill="#F8B31D"/>
<path d="M56.2524 80.2507C50.3713 76.1447 45.397 72.3622 41.0175 68.4655C25.4789 68.2853 16.7378 69.0485 1 74.7414C13.1966 86.0809 21.0241 89.6184 35.2628 95.1379L54.9751 92C54.862 88.0652 55.2948 84.0958 56.2524 80.2507Z" fill="#F8B31D"/>
<path d="M54.9751 92L35.2628 95.1379C19.782 100.532 11.7782 103.858 1 111.351C18.2817 119.197 31.721 119.487 51.0763 117.855C55.2734 117.502 59.7487 117.058 64.6017 116.58C58.3573 109.841 55.2342 101.011 54.9751 92Z" fill="#F8B31D"/>
<path d="M64.6017 116.58C59.7487 117.058 55.2734 117.502 51.0763 117.855C37.2007 131.113 33.6827 139.441 32.1 155.282C49.1047 152.122 59.0803 145.377 73.2153 132.627C75.3877 130.668 77.6583 128.567 80.0678 126.315C73.6463 124.202 68.512 120.801 64.6017 116.58Z" fill="#F8B31D"/>
<path d="M99.3725 50.3892C94.4972 49.9081 89.9894 50.1502 85.8662 50.989C79.7144 52.2405 74.4187 54.8202 70.0356 58.3082C63.0378 63.8771 58.3664 71.7612 56.2524 80.2507C55.2948 84.0958 54.862 88.0652 54.9751 92C55.2342 101.011 58.3573 109.841 64.6017 116.58C68.512 120.801 73.6463 124.202 80.0678 126.315C83.837 127.555 88.0497 128.351 92.7187 128.609C93.975 128.679 95.2049 128.708 96.4085 128.699C107.411 128.619 116.21 125.343 122.764 120.17C128.687 115.496 132.778 109.273 135.007 102.46C136.6 97.5895 137.242 92.4173 136.923 87.2931C136.511 80.6877 134.5 74.162 130.868 68.4655C126.326 61.3414 119.247 55.5141 109.587 52.4493C106.454 51.4554 103.05 50.752 99.3725 50.3892Z" fill="#F26A1B"/>
<path d="M101.153 140.638C99.5199 143.983 97.9549 146.943 96.4085 149.59C95.5991 150.975 94.7948 152.275 93.9886 153.5C108.128 174.754 92.7187 265.5 92.7187 265.5H105.318C98.8519 263.016 109.5 196.5 108.327 193C107.155 189.5 104.014 157.877 108.327 155.282C107.339 153.525 106.339 151.636 105.318 149.59C103.973 146.896 102.592 143.93 101.153 140.638Z" fill="#6E9E6E"/>
<path d="M85.8662 50.989C89.9894 50.1502 94.4972 49.9081 99.3725 50.3892C103.05 50.752 106.454 51.4554 109.587 52.4493M85.8662 50.989C87.0865 46.2437 88.2619 41.9998 89.4575 38.1322M85.8662 50.989C79.7144 52.2405 74.4187 54.8202 70.0356 58.3082M120.129 41.2701C120.129 41.2701 115.055 9.95925 109.587 1C99.5749 12.7881 94.3478 22.3119 89.4575 38.1322M120.129 41.2701L109.587 52.4493M120.129 41.2701C141.514 26.5581 151.279 25.9299 168.624 25.0575C161.061 39.2701 155.101 48.4121 143.849 58.3082M109.587 52.4493C119.247 55.5141 126.326 61.3414 130.868 68.4655M130.868 68.4655C135.922 64.8632 140.169 61.5454 143.849 58.3082M130.868 68.4655C134.5 74.162 136.511 80.6877 136.923 87.2931M143.849 58.3082C157.088 53.9988 170.659 55.6832 182.329 61.6667C173.894 70.3488 167.053 75.982 158.081 80.2507M136.923 87.2931C137.242 92.4173 136.6 97.5895 135.007 102.46M136.923 87.2931C145.549 85.2132 152.263 83.0189 158.081 80.2507M135.007 102.46C140.519 104.176 145.441 105.265 150.175 105.778M135.007 102.46C132.778 109.273 128.687 115.496 122.764 120.17M158.081 80.2507C177.208 87.7054 183.309 91.8814 189.181 99.3218C172.997 104.658 162.193 107.078 150.175 105.778M150.175 105.778C165.665 122.044 169.845 129.633 176.003 142.73C152.653 139.629 140.533 135.723 122.764 120.17M122.764 120.17C116.21 125.343 107.411 128.619 96.4085 128.699M122.764 120.17C137.691 141.724 140.084 155.472 133.307 183M89.4575 38.1322C78.6958 18.1278 71.1933 11.5138 57.4017 1C55.5284 13.1927 54.8687 21.1922 57.4017 46.5M57.4017 46.5L70.0356 58.3082M57.4017 46.5C41.0815 35.9872 31.797 31.7638 14.7051 30.8103C22.9853 48.4819 30.1804 58.8233 41.0175 68.4655M70.0356 58.3082C63.0378 63.8771 58.3664 71.7612 56.2524 80.2507M56.2524 80.2507C50.3713 76.1447 45.397 72.3622 41.0175 68.4655M56.2524 80.2507C55.2949 84.0958 54.862 88.0652 54.9751 92M41.0175 68.4655C25.4789 68.2853 16.7378 69.0485 1 74.7414C13.1966 86.0809 21.0241 89.6184 35.2628 95.1379M35.2628 95.1379L54.9751 92M35.2628 95.1379C19.782 100.532 11.7782 103.858 1 111.351C18.2817 119.197 31.721 119.487 51.0763 117.855M54.9751 92C55.2342 101.011 58.3572 109.841 64.6017 116.58M64.6017 116.58C59.7487 117.058 55.2734 117.502 51.0763 117.855M64.6017 116.58C68.512 120.801 73.6463 124.202 80.0678 126.315M51.0763 117.855C37.2007 131.113 33.6827 139.441 32.1 155.282C49.1047 152.122 59.0803 145.377 73.2153 132.627M80.0678 126.315C83.837 127.555 88.0497 128.351 92.7187 128.609C93.975 128.679 95.2049 128.708 96.4085 128.699M80.0678 126.315C77.6583 128.567 75.3877 130.668 73.2153 132.627M73.2153 132.627C67.0891 142.04 67.0736 152.069 70.0356 174.109C80.7009 168.48 87.4096 163.494 93.9886 153.5M101.153 140.638L96.4085 128.699M101.153 140.638C99.5199 143.983 97.9549 146.943 96.4085 149.59C95.5991 150.975 94.7948 152.275 93.9886 153.5M101.153 140.638C102.592 143.93 103.973 146.896 105.318 149.59C106.339 151.636 107.339 153.526 108.327 155.282M133.307 183L133.093 182.825M133.307 183C133.235 182.941 133.164 182.883 133.093 182.825M133.093 182.825C122.78 174.381 115.908 168.756 108.327 155.282M93.9886 153.5C108.128 174.754 92.7187 265.5 92.7187 265.5H105.318C98.8519 263.016 109.5 196.5 108.327 193C107.155 189.5 104.014 157.877 108.327 155.282" stroke="black"/>
</svg>
