<svg width="441" height="469" viewBox="0 0 441 469" fill="none" xmlns="http://www.w3.org/2000/svg">
<path fill-rule="evenodd" clip-rule="evenodd" d="M83.6392 246.614C79.6392 258.614 73.1393 254.114 69.6393 251.114C67.381 249.178 64.9146 240.582 62.9115 233.114C62.3209 233.531 61.6426 234.035 60.8943 234.614C54.7697 239.357 43.9544 249.218 38.1393 259.114C30.7943 271.614 27.1393 278.114 27.6393 310.614C27.7638 318.706 28.9893 326.685 30.7943 334.114C48.9184 332.514 57.9093 342.962 60.1393 348.386C64.977 346.21 69.3743 345.874 75.3636 344.549C82.6792 342.932 92.3699 339.838 108.139 330.114C117.287 324.473 125.139 317.03 130.87 310C144.693 293.044 151.009 273.191 151.704 263.807C149.767 265.356 148.005 266.404 146.639 266.614C140.139 267.614 135.639 260.114 138.639 256.114C140.203 254.029 145.246 249.002 149.955 244.461C145.963 247.45 142.633 248.45 138.639 250.114C132.639 252.614 124.139 242.114 133.639 238.614C138.146 236.954 142.758 233.453 146.392 230.114L143.031 226.114C140.713 227.023 138.799 227.846 137.639 227.614C133.956 226.141 132.443 223.039 133.501 219.709C126.328 218.038 119.429 217.084 113.553 216.789C89.531 215.583 76.2726 224.118 75.8709 224.921C81.391 232.308 85.9156 239.785 83.6392 246.614ZM59.6393 277.114C46.1393 301.281 35.3902 345.43 90.6393 311.614C148.639 276.114 91.6393 228.114 59.6393 277.114Z" fill="#F8B31D"/>
<path d="M130.87 310C131.537 311.333 134.203 315.441 136.603 317.441L137.139 312.614C143.139 307.814 148.306 311.614 150.139 314.114L149.504 326.18C150.799 327.043 160.173 332.062 166.4 333.946C174.567 323.78 191.57 297.913 194.37 277.513C187.543 276.557 181.697 275.271 177.139 273.614C184.727 266.169 192.479 259.186 200.353 252.674C201.153 250.674 205.806 222.099 208.139 207.841C203.234 207.339 195.639 206.114 191.139 209.614C192.127 211.59 195.557 217.961 186.952 223.419C191.285 231.932 189.204 245.518 177.139 253.114C177.306 257.281 175.639 267.414 167.639 274.614C162.084 279.614 156.935 271.114 158.639 268.614C161.139 264.947 165.379 255.509 164.979 249.509C161.384 254.218 156.095 260.297 151.704 263.807C151.009 273.191 144.693 293.044 130.87 310Z" fill="#F8B31D"/>
<path d="M135.639 326.114C126.973 330.781 108.539 341.014 104.139 344.614C98.6393 349.114 92.6395 354.114 93.6393 381.614C94.0756 393.614 100.139 404.614 106.639 410.614L107.639 361.114L149.139 333.114L149.504 326.18L150.139 314.114C148.306 311.614 143.139 307.814 137.139 312.614L136.603 317.441L135.639 326.114Z" fill="#AE6817"/>
<path d="M130.639 318.114L130.87 310C125.139 317.03 117.287 324.473 108.139 330.114C92.3699 339.838 82.6792 342.932 75.3636 344.549C67.7636 369.349 79.6393 388.781 86.6393 395.114L88.6393 346.114L130.639 318.114Z" fill="#AE6817"/>
<path d="M168.139 335.614C146.639 358.614 148.139 363.114 152.139 366.614C153.993 368.236 159.927 366.422 166.557 362.963C174.235 358.958 182.846 352.748 187.139 347.114C188.865 344.849 190.451 342.678 191.857 340.614C196.97 333.11 199.708 327.036 198.139 323.114C196.205 318.278 178.366 326.072 169.055 334.732C168.74 335.025 168.434 335.319 168.139 335.614Z" fill="#AE6817"/>
<path d="M152.139 366.614C139.339 383.814 137.806 409.614 139.139 420.114L147.639 425.114C155.639 417.614 170.557 394.563 166.557 362.963C159.927 366.422 153.993 368.236 152.139 366.614Z" fill="#AE6817"/>
<path d="M293.639 401.114C287.239 399.914 283.306 395.947 282.139 394.114C272.139 399.947 249.765 414.391 247.639 426.614C246.885 430.95 250.079 432.94 255.139 432.773C263.502 432.496 276.964 426.328 286.139 415.114C291.457 408.614 292.639 403.947 293.639 401.114Z" fill="#AE6817"/>
<path d="M271.211 316.114C274.687 314.114 281.639 320.614 282.139 325.614C282.193 326.148 282.191 326.69 282.139 327.239C285.161 328.672 289.681 330.659 294.675 332.599C298.777 334.193 303.199 335.755 307.374 336.952C311.572 338.155 315.519 338.989 318.639 339.114C322.902 339.285 326.641 338.408 329.639 336.902C335.433 333.991 338.457 328.727 337.139 324.114C335.832 319.539 330.894 315.391 324.139 312.089C320.559 310.339 316.469 308.826 312.139 307.614C308.792 306.677 305.086 305.919 301.139 305.465C290.349 304.224 277.762 305.256 265.796 311.114C268.223 312.238 269.996 314.161 271.211 316.114Z" fill="#AE6817"/>
<path fill-rule="evenodd" clip-rule="evenodd" d="M328.519 344.614C329.196 341.969 329.591 339.239 329.639 336.902C326.641 338.408 322.902 339.285 318.639 339.114C315.519 338.989 311.572 338.155 307.374 336.952C298.418 348.41 292.163 361.464 288.077 372.614C284.767 381.651 282.881 389.439 282.139 394.114C283.306 395.947 287.239 399.914 293.639 401.114C296.32 398.094 299.613 394.142 303.108 389.614C306.222 385.58 309.495 381.089 312.639 376.389C319.65 365.909 326.015 354.394 328.519 344.614Z" fill="#AE6817"/>
<path d="M324.139 312.089C330.894 315.391 335.832 319.539 337.139 324.114C338.457 328.727 335.433 333.991 329.639 336.902C329.591 339.239 329.196 341.969 328.519 344.614C366.215 316.614 391.878 286.614 399.997 275.114C394.296 269.147 388.605 263.691 384.784 260.263C384.086 260.55 383.371 260.833 382.639 261.114C380.448 261.955 377.918 262.79 375.089 263.614C359.889 282.814 334.639 304.097 324.139 312.089Z" fill="black"/>
<path d="M312.639 376.389C309.495 381.089 306.222 385.58 303.108 389.614C306.614 392.594 311.84 396.558 318.139 400.657C340.94 388.309 393.9 351.614 423.34 303.614C419.471 297.665 414.615 291.48 409.552 285.614C394.682 316.814 338.748 359.13 312.639 376.389Z" fill="black"/>
<path d="M433.639 451.114C436.639 443.947 440.139 424.048 430.139 401.782C423.214 411.744 412.609 417.199 399.668 419.614C418.091 424.014 429.992 442.447 433.639 451.114Z" fill="black"/>
<path d="M271.984 344.614C274.151 354.421 283.422 367.16 288.077 372.614C292.163 361.464 298.418 348.41 307.374 336.952C303.199 335.755 298.777 334.193 294.675 332.599C294.342 332.766 289.308 335.414 271.984 344.614Z" fill="black"/>
<path d="M261.341 307.614L261.139 310.114C262.903 310.114 264.45 310.491 265.796 311.114C277.762 305.256 290.349 304.224 301.139 305.465C312.139 297.348 335.639 278.624 340.039 271.024C328.308 272.92 315.33 274.609 301.908 275.984C296.308 281.184 272.274 299.447 261.341 307.614Z" fill="black"/>
<path d="M224.136 279.637C223.315 285.485 226.766 299.828 247.139 310.614C250.739 303.014 257.973 306.947 261.139 310.114L261.341 307.614L263.639 278.932C249.875 279.633 236.428 279.906 224.136 279.637Z" fill="black"/>
<path d="M194.37 277.513C191.57 297.913 174.567 323.78 166.4 333.946C167.39 334.246 168.232 334.594 169.055 334.732C178.366 326.072 196.205 318.278 198.139 323.114C199.708 327.036 196.97 333.11 191.857 340.614C193.631 341.814 196.472 342.114 197.671 342.114C199.543 337.084 202.551 332.371 206.639 328.614C216.401 319.644 229.453 319.171 239.887 321.228C214.749 308.858 211.488 287.717 212.134 279.176C205.707 278.812 199.735 278.265 194.37 277.513Z" fill="black"/>
<path d="M59.6393 277.114C46.1393 301.281 35.3902 345.43 90.6393 311.614C148.639 276.114 91.6393 228.114 59.6393 277.114Z" fill="black"/>
<path d="M45.6393 370.614C46.1393 365.447 49.4393 353.914 58.6393 349.114C59.1453 348.85 59.6446 348.608 60.1393 348.386C57.9093 342.962 48.9184 332.514 30.7943 334.114C34.7889 350.554 41.6215 364.3 45.6393 370.614Z" fill="black"/>
<path d="M18.6393 232.614C27.2508 229.6 44.0197 215.833 51.3841 212.387C52.5715 211.832 53.5144 211.545 54.1393 211.614C57.1393 211.947 58.1393 217.114 60.1393 223.114C60.8488 225.243 61.8101 229.008 62.9115 233.114C64.9146 240.582 67.381 249.178 69.6393 251.114C73.1393 254.114 79.6392 258.614 83.6392 246.614C85.9156 239.785 81.391 232.308 75.8709 224.921C71.6909 219.328 66.9402 213.785 64.1393 208.614C62.3187 205.253 60.1795 203.387 57.846 202.554C53.5144 201.006 48.5135 203.014 43.6393 205.614C36.1393 209.614 15.1392 217.114 10.6393 223.114C9.25317 224.962 8.53122 226.905 8.488 228.607C8.39092 232.43 11.7194 235.036 18.6393 232.614Z" fill="#F8B31D"/>
<path d="M10.6393 223.114C15.1392 217.114 36.1393 209.614 43.6393 205.614C48.5135 203.014 53.5144 201.006 57.846 202.554C55.346 196.554 51.1392 194.754 48.6392 196.114C19.1392 212.158 9.43319 210.874 3.63919 217.114C-2.78844 224.036 3.98502 228.351 8.488 228.607C8.53122 226.905 9.25317 224.962 10.6393 223.114Z" fill="#F8B31D"/>
<path d="M60.1393 223.114C58.1393 217.114 57.1393 211.947 54.1393 211.614C53.5144 211.545 52.5715 211.832 51.3841 212.387C54.5841 215.587 59.2276 228.781 60.8943 234.614C61.6426 234.035 62.3209 233.531 62.9115 233.114C61.8101 229.008 60.8488 225.243 60.1393 223.114Z" fill="#F8B31D"/>
<path d="M179.139 202.614C173.837 201.857 170.507 206.12 169.319 208.697C168.189 208.56 167.012 208.476 165.821 208.471C163.07 208.458 160.249 208.86 157.778 209.968C155.483 210.998 153.491 212.635 152.139 215.114C147.973 213.947 138.839 212.514 135.639 216.114C134.586 217.299 133.879 218.518 133.501 219.709C132.443 223.039 133.956 226.141 137.639 227.614C138.799 227.846 140.713 227.023 143.031 226.114C145.708 225.064 148.923 223.9 152.139 224.114C150.918 225.606 148.885 227.822 146.392 230.114C142.758 233.453 138.146 236.954 133.639 238.614C124.139 242.114 132.639 252.614 138.639 250.114C142.633 248.45 145.963 247.45 149.955 244.461C152.474 242.031 154.897 239.741 156.639 238.114C154.132 240.956 151.96 242.959 149.955 244.461C145.246 249.002 140.203 254.029 138.639 256.114C135.639 260.114 140.139 267.614 146.639 266.614C148.005 266.404 149.767 265.356 151.704 263.807C156.095 260.297 161.384 254.218 164.979 249.509C165.379 255.509 161.139 264.947 158.639 268.614C156.935 271.114 162.084 279.614 167.639 274.614C175.639 267.414 177.306 257.281 177.139 253.114C189.204 245.518 191.285 231.932 186.952 223.419C195.557 217.961 192.127 211.59 191.139 209.614C189.806 207.447 185.539 203.014 179.139 202.614Z" fill="white"/>
<path d="M135.639 216.114C138.839 212.514 147.973 213.947 152.139 215.114C153.491 212.635 155.483 210.998 157.778 209.968C155.36 206.745 150.532 202.843 145.139 201.587C143.839 201.284 142.499 201.114 141.139 201.114C134.139 201.114 128.139 210.658 127.86 210.714C121.092 212.082 115.86 215.025 113.553 216.789C119.429 217.084 126.328 218.038 133.501 219.709C133.879 218.518 134.586 217.299 135.639 216.114Z" fill="white"/>
<path d="M145.139 201.587C150.532 202.843 155.36 206.745 157.778 209.968C160.249 208.86 163.07 208.458 165.821 208.471C165.639 207.114 165.477 206.47 164.153 204.614C162.948 202.926 160.997 201.043 158.139 199.614C156.901 198.995 155.732 198.602 154.639 198.386C149.635 197.394 146.234 200.089 145.139 201.587Z" fill="white"/>
<path d="M163.139 30.614C141.639 19.614 125.639 17.614 122.639 21.114C122.402 21.3903 122.197 21.7256 122.036 22.114C133.933 18.614 151.639 32.114 159.639 36.114C160.107 36.3481 160.744 36.6479 161.53 37.0053C167.403 39.6769 181.583 45.5704 195.681 51.3499C205.478 55.3661 215.236 59.3273 222.139 62.114C234.139 58.514 240.139 66.614 241.639 71.114L256.139 77.114C256.806 74.9473 258.739 68.614 261.139 60.614C264.139 50.614 256.139 10.1141 216.139 2.11405C184.139 -4.28595 167.473 18.4474 163.139 30.614Z" fill="#7EAF7D"/>
<path d="M177.139 273.614C181.697 275.271 187.543 276.557 194.37 277.513C199.735 278.265 205.707 278.812 212.134 279.176C215.982 279.394 219.993 279.546 224.136 279.637C236.428 279.906 249.875 279.633 263.639 278.932C276.346 278.285 289.322 277.273 301.908 275.984C315.33 274.609 328.308 272.92 340.039 271.024C353.904 268.784 366.028 266.254 375.089 263.614C377.918 262.79 380.448 261.955 382.639 261.114C383.371 260.833 384.086 260.55 384.784 260.263C418.884 246.275 412.701 225.921 411.639 220.614C410.639 215.614 406.467 201.49 385.639 193.392C376.154 189.704 363.35 187.519 346.139 188.614C330.82 189.589 315.036 192.581 299.088 197.514C273.553 205.413 247.6 218.29 222.471 235.834C215.015 241.039 207.632 246.655 200.353 252.674C192.479 259.186 184.727 266.169 177.139 273.614Z" fill="#CAE5FF"/>
<path d="M355.639 173.114C320.439 170.714 296.01 179.688 288.177 184.456C290.37 186.712 291.938 188.193 292.639 188.614C294.283 190.587 297.84 195.088 299.088 197.514C315.036 192.581 330.82 189.589 346.139 188.614C363.35 187.519 376.154 189.704 385.639 193.392C384.639 184.695 374.139 174.375 355.639 173.114Z" fill="#A8C6E2"/>
<path d="M263.639 278.932L261.341 307.614C272.274 299.447 296.308 281.184 301.908 275.984C289.322 277.273 276.346 278.285 263.639 278.932Z" fill="#F8B31D"/>
<path d="M301.139 305.465C305.086 305.919 308.792 306.677 312.139 307.614C316.469 308.826 320.559 310.339 324.139 312.089C334.639 304.097 359.889 282.814 375.089 263.614C366.028 266.254 353.904 268.784 340.039 271.024C335.639 278.624 312.139 297.348 301.139 305.465Z" fill="#F8B31D"/>
<path d="M399.997 275.114C391.878 286.614 366.215 316.614 328.519 344.614C326.015 354.394 319.65 365.909 312.639 376.389C338.748 359.13 394.682 316.814 409.552 285.614C406.384 281.944 403.135 278.398 399.997 275.114Z" fill="#F8B31D"/>
<path d="M429.139 314.114C427.692 310.786 425.7 307.244 423.34 303.614C393.9 351.614 340.94 388.309 318.139 400.657C323.22 403.964 329 407.358 335.139 410.395C397.139 377.114 413.472 342.114 430.806 318.114C430.266 316.761 429.71 315.427 429.139 314.114Z" fill="#F8B31D"/>
<path d="M355.639 418.362C359.837 419.498 364.034 420.288 368.139 420.614C370.505 420.802 372.84 420.944 375.139 421.037C414.139 401.782 432.813 370.114 439.726 355.114C439.258 349.244 438.308 343.414 436.987 337.735C433.704 349.361 412.839 381.764 355.639 418.362Z" fill="#F8B31D"/>
<path d="M430.139 401.782C432.116 398.938 433.793 395.727 435.139 392.114C439.544 380.292 440.724 367.61 439.726 355.114C432.813 370.114 414.139 401.782 375.139 421.037C383.923 421.39 392.186 421.01 399.668 419.614C412.609 417.199 423.214 411.744 430.139 401.782Z" fill="black"/>
<path d="M430.806 318.114C413.472 342.114 397.139 377.114 335.139 410.395C341.7 413.64 348.671 416.477 355.639 418.362C412.839 381.764 433.704 349.361 436.987 337.735C435.4 330.916 433.277 324.313 430.806 318.114Z" fill="black"/>
<path d="M247.639 426.614C230.039 437.414 228.639 454.614 231.139 467.114C234.306 458.053 243.539 438.5 255.139 432.773C250.079 432.94 246.885 430.95 247.639 426.614Z" fill="black"/>
<path d="M147.639 425.114L139.139 420.114C137.539 436.914 147.473 449.614 152.639 453.614C150.306 447.947 146.039 433.514 147.639 425.114Z" fill="black"/>
<path d="M251.639 342.614C269.639 338.214 273.473 326.114 273.139 320.614C272.848 319.392 272.224 317.743 271.211 316.114C269.996 314.161 268.223 312.238 265.796 311.114C264.45 310.491 262.903 310.114 261.139 310.114C261.939 315.714 256.139 322.781 253.139 325.614C249.962 324.025 245.273 322.29 239.887 321.228C229.453 319.171 216.401 319.644 206.639 328.614C202.551 332.371 199.543 337.084 197.671 342.114C191.07 359.847 198.582 381.52 222.639 379.114C242.639 377.114 252.806 351.447 251.639 342.614Z" fill="#7EAF7D"/>
<path d="M273.139 320.614C273.473 326.114 269.639 338.214 251.639 342.614C252.806 351.447 242.639 377.114 222.639 379.114C221.973 381.447 222.639 386.514 230.639 388.114C240.639 390.114 259.139 370.114 261.139 348.614C263.935 347.639 267.881 345.294 271.602 342.263C276.855 337.984 281.659 332.336 282.139 327.239C282.191 326.69 282.193 326.148 282.139 325.614C281.639 320.614 274.687 314.114 271.211 316.114C272.224 317.743 272.848 319.392 273.139 320.614Z" fill="#4F5823"/>
<path d="M247.139 310.614C247.473 313.114 245.087 319.628 239.887 321.228C245.273 322.29 249.962 324.025 253.139 325.614C256.139 322.781 261.939 315.714 261.139 310.114C257.973 306.947 250.739 303.014 247.139 310.614Z" fill="#6E9E6E"/>
<path d="M292.639 188.614C275.639 192.281 237.139 205.214 219.139 227.614C219.139 228.814 221.138 233.667 222.471 235.834C247.6 218.29 273.553 205.413 299.088 197.514C297.84 195.088 294.283 190.587 292.639 188.614Z" fill="#878787"/>
<path d="M239.887 321.228C245.087 319.628 247.473 313.114 247.139 310.614C226.766 299.828 223.315 285.485 224.136 279.637C219.993 279.546 215.982 279.394 212.134 279.176C211.488 287.717 214.749 308.858 239.887 321.228Z" fill="#CB904B"/>
<path d="M191.139 209.614C199.139 201.614 205.091 190.852 207.091 186.519C204.184 186.123 200.059 184.741 195.741 181.436C194.075 184.936 188.339 194.214 179.139 202.614C185.539 203.014 189.806 207.447 191.139 209.614Z" fill="#CB904B"/>
<path d="M154.639 198.386C155.732 198.602 156.901 198.995 158.139 199.614C160.997 201.043 162.948 202.926 164.153 204.614C170.815 200.114 185.599 188.438 191.199 177.238C190.337 176.289 189.057 174.597 188.216 173.461C187.649 173.897 187.119 174.283 186.639 174.614L179.372 172.57C173.372 185.77 160.306 195.462 154.639 198.386Z" fill="#CB904B"/>
<path fill-rule="evenodd" clip-rule="evenodd" d="M232.639 125.114C232.239 119.514 234.806 112.914 236.139 110.064C237.579 108.471 238.948 106.83 240.247 105.167L237.174 102.614V92.114C237.5 91.806 237.822 91.4732 238.139 91.114C244.139 84.314 242.973 74.9473 241.639 71.114C240.139 66.614 234.139 58.514 222.139 62.114C215.139 64.614 210.973 71.9474 210.139 75.614H207.139C206.339 66.414 198.139 61.114 194.139 59.614L195.681 51.3499C181.583 45.5704 167.403 39.6769 161.53 37.0053C160.331 39.1638 158.65 42.9024 156.989 47.7547C154.033 56.3888 151.14 68.5491 151.139 81.6077C159.264 83.8407 157.341 92.753 147.139 89.614C145.139 92.9474 143.639 100.214 153.639 102.614C166.139 105.614 190.639 96.614 196.639 94.614C202.639 92.614 210.139 93.614 212.139 104.114C212.55 106.271 211.927 108.449 210.556 110.54C205.254 118.627 188.763 125.409 177.639 124.614C177.302 124.59 176.971 124.567 176.648 124.544C163.567 123.638 162.115 124.126 161.139 124.614C160.139 125.114 155.139 128.114 171.139 133.614C180.706 136.902 192.238 135.722 201.996 131.998L201.925 132.182C201.299 133.81 200.322 136.35 199.639 137.809C213.5 140.779 227.679 129.174 232.497 125.23L232.639 125.114ZM161.639 64.6141C158.839 77.4141 162.139 82.8443 164.139 83.9594C166.486 82.9848 169.114 82.2656 171.639 81.7483C174.439 77.8556 176.139 70.3702 176.639 67.1141L169.639 65.1141L177.639 61.6141C179.139 49.6141 173.139 47.6141 171.639 47.6141C170.139 47.6141 165.139 48.6141 161.639 64.6141Z" fill="#CB904B"/>
<path d="M196.639 94.614C190.639 96.614 166.139 105.614 153.639 102.614C154.139 106.447 156.339 116.214 161.139 124.614C162.115 124.126 163.567 123.638 176.648 124.544C177.35 118.867 182.705 109.117 195.851 111.906C203.358 107.22 208.611 108.835 210.556 110.54C211.927 108.449 212.55 106.271 212.139 104.114C210.139 93.614 202.639 92.614 196.639 94.614Z" fill="#633500"/>
<path d="M164.139 83.9594C162.139 82.8443 158.839 77.4141 161.639 64.6141C165.139 48.6141 170.139 47.6141 171.639 47.6141C173.139 47.6141 179.139 49.6141 177.639 61.6141L169.639 65.1141L176.639 67.1141C176.139 70.3702 174.439 77.8556 171.639 81.7483C169.114 82.2656 166.486 82.9848 164.139 83.9594Z" fill="black"/>
<path d="M147.139 81.114C140.639 81.114 134.139 85.614 147.139 89.614C157.341 92.753 159.264 83.8407 151.139 81.6077C150.004 81.2957 148.672 81.114 147.139 81.114Z" fill="#CB904B"/>
<path d="M256.139 77.114L241.639 71.114C242.973 74.9473 244.139 84.314 238.139 91.114C237.822 91.4732 237.5 91.806 237.174 92.114V102.614L240.247 105.167C248.71 94.3327 254.146 82.5942 256.139 77.114Z" fill="black"/>
<path d="M195.681 51.3499L194.139 59.614C198.139 61.114 206.339 66.414 207.139 75.614H210.139C210.973 71.9474 215.139 64.614 222.139 62.114C215.236 59.3273 205.478 55.3661 195.681 51.3499Z" fill="black"/>
<path d="M243.639 124.114C241.63 120.765 238.139 120.614 232.639 125.114L232.497 125.23C227.679 129.174 213.5 140.779 199.639 137.809C191.209 155.807 177.096 166.732 170.639 170.114L179.372 172.57L186.639 174.614C187.119 174.283 187.649 173.897 188.216 173.461C189.057 174.597 190.337 176.289 191.199 177.238C192.708 178.898 194.236 180.284 195.741 181.436C200.059 184.741 204.184 186.123 207.091 186.519C208.102 186.657 208.966 186.675 209.639 186.614C210.024 186.277 210.48 185.781 210.986 185.114C210.063 189.914 214.704 202.114 217.139 207.614C217.006 208.147 216.893 208.683 216.798 209.22C215.468 216.745 217.739 224.503 219.139 227.614C237.139 205.214 275.639 192.281 292.639 188.614C291.938 188.193 290.37 186.712 288.177 184.456C277.838 173.814 253.683 146.078 240.831 131.114C242.993 128.382 244.444 125.456 243.639 124.114Z" fill="white"/>
<path d="M122.036 22.114C120.16 26.6472 124.751 38.5439 156.989 47.7547C158.65 42.9024 160.331 39.1638 161.53 37.0053C160.744 36.6479 160.107 36.3481 159.639 36.114C151.639 32.114 133.933 18.614 122.036 22.114Z" fill="#3E603E"/>
<path d="M256.139 77.114C256.806 74.9473 258.739 68.614 261.139 60.614C264.139 50.614 256.139 10.1141 216.139 2.11405C184.139 -4.28595 167.473 18.4474 163.139 30.614C141.639 19.614 125.639 17.614 122.639 21.114C122.402 21.3903 122.197 21.7256 122.036 22.114M256.139 77.114L241.639 71.114M256.139 77.114C254.146 82.5942 248.71 94.3327 240.247 105.167M236.139 110.064C234.406 111.983 232.572 113.847 230.639 115.614M236.139 110.064C234.806 112.914 232.239 119.514 232.639 125.114M236.139 110.064C237.579 108.471 238.948 106.83 240.247 105.167M232.639 125.114C238.139 120.614 241.63 120.765 243.639 124.114C244.444 125.456 242.993 128.382 240.831 131.114M232.639 125.114L232.497 125.23M232.639 125.114C232.593 125.152 232.545 125.191 232.497 125.23M62.9115 233.114C61.8101 229.008 60.8488 225.243 60.1393 223.114C58.1393 217.114 57.1393 211.947 54.1393 211.614C53.5144 211.545 52.5715 211.832 51.3841 212.387M62.9115 233.114C64.9146 240.582 67.381 249.178 69.6393 251.114C73.1393 254.114 79.6392 258.614 83.6392 246.614C85.9156 239.785 81.391 232.308 75.8709 224.921M62.9115 233.114C62.3209 233.531 61.6426 234.035 60.8943 234.614M151.704 263.807C151.009 273.191 144.693 293.044 130.87 310M151.704 263.807C149.767 265.356 148.005 266.404 146.639 266.614C140.139 267.614 135.639 260.114 138.639 256.114C140.203 254.029 145.246 249.002 149.955 244.461M151.704 263.807C156.095 260.297 161.384 254.218 164.979 249.509M60.1393 348.386C59.6446 348.608 59.1453 348.85 58.6393 349.114C49.4393 353.914 46.1393 365.447 45.6393 370.614C41.6215 364.3 34.7889 350.554 30.7943 334.114M60.1393 348.386C57.9093 342.962 48.9184 332.514 30.7943 334.114M60.1393 348.386C64.977 346.21 69.3743 345.874 75.3636 344.549M30.7943 334.114C28.9893 326.685 27.7638 318.706 27.6393 310.614C27.1393 278.114 30.7943 271.614 38.1393 259.114C43.9544 249.218 54.7697 239.357 60.8943 234.614M130.87 310L130.639 318.114L88.6393 346.114L86.6393 395.114C79.6393 388.781 67.7636 369.349 75.3636 344.549M130.87 310C131.537 311.333 134.203 315.441 136.603 317.441M130.87 310C125.139 317.03 117.287 324.473 108.139 330.114C92.3699 339.838 82.6792 342.932 75.3636 344.549M136.603 317.441L137.139 312.614C143.139 307.814 148.306 311.614 150.139 314.114L149.504 326.18M136.603 317.441L135.639 326.114C126.973 330.781 108.539 341.014 104.139 344.614C98.6393 349.114 92.6395 354.114 93.6393 381.614C94.0756 393.614 100.139 404.614 106.639 410.614L107.639 361.114L149.139 333.114L149.504 326.18M152.139 366.614C148.139 363.114 146.639 358.614 168.139 335.614C168.434 335.319 168.74 335.025 169.055 334.732M152.139 366.614C139.339 383.814 137.806 409.614 139.139 420.114M152.139 366.614C153.993 368.236 159.927 366.422 166.557 362.963M60.8943 234.614C59.2276 228.781 54.5841 215.587 51.3841 212.387M51.3841 212.387C44.0198 215.833 27.2508 229.6 18.6393 232.614C11.7194 235.036 8.39092 232.43 8.488 228.607M8.488 228.607C8.53122 226.905 9.25317 224.962 10.6393 223.114C15.1392 217.114 36.1393 209.614 43.6393 205.614C48.5135 203.014 53.5144 201.006 57.846 202.554M8.488 228.607C8.43791 228.605 8.53869 228.61 8.488 228.607ZM8.488 228.607C3.98502 228.351 -2.78844 224.036 3.63919 217.114C9.43319 210.874 19.1392 212.158 48.6392 196.114C51.1392 194.754 55.346 196.554 57.846 202.554M57.846 202.554C60.1795 203.387 62.3187 205.253 64.1393 208.614C66.9402 213.785 71.6909 219.328 75.8709 224.921M139.139 420.114L147.639 425.114M139.139 420.114C137.539 436.914 147.473 449.614 152.639 453.614C150.306 447.947 146.039 433.514 147.639 425.114M147.639 425.114C155.639 417.614 170.557 394.563 166.557 362.963M166.557 362.963C174.235 358.959 182.846 352.748 187.139 347.114C188.865 344.849 190.451 342.678 191.857 340.614M149.504 326.18C150.799 327.043 160.173 332.062 166.4 333.946M169.055 334.732C168.232 334.594 167.39 334.246 166.4 333.946M169.055 334.732C178.366 326.072 196.205 318.278 198.139 323.114C199.708 327.036 196.97 333.11 191.857 340.614M241.639 71.114C240.139 66.614 234.139 58.514 222.139 62.114M241.639 71.114C242.973 74.9473 244.139 84.314 238.139 91.114C237.822 91.4732 237.5 91.806 237.174 92.114M222.139 62.114C215.139 64.614 210.973 71.9474 210.139 75.614H207.139C206.339 66.414 198.139 61.114 194.139 59.614L195.681 51.3499M222.139 62.114C215.236 59.3273 205.478 55.3661 195.681 51.3499M156.989 47.7547C124.751 38.5439 120.16 26.6472 122.036 22.114M156.989 47.7547C158.65 42.9024 160.331 39.1638 161.53 37.0053M156.989 47.7547C154.032 56.3902 151.139 68.553 151.139 81.614M156.989 47.7547C154.033 56.3888 151.14 68.5491 151.139 81.6077M122.036 22.114C133.933 18.614 151.639 32.114 159.639 36.114C160.107 36.3481 160.744 36.6479 161.53 37.0053M161.53 37.0053C167.403 39.6769 181.583 45.5704 195.681 51.3499M147.139 89.614C134.139 85.614 140.639 81.114 147.139 81.114C148.672 81.114 150.004 81.2957 151.139 81.6077M147.139 89.614C145.139 92.9474 143.639 100.214 153.639 102.614M147.139 89.614C157.341 92.753 159.264 83.8407 151.139 81.6077M153.639 102.614C166.139 105.614 190.639 96.614 196.639 94.614C202.639 92.614 210.139 93.614 212.139 104.114C212.55 106.271 211.927 108.449 210.556 110.54M153.639 102.614C154.139 106.447 156.339 116.214 161.139 124.614M161.139 124.614C160.139 125.114 155.139 128.114 171.139 133.614C180.706 136.902 192.238 135.722 201.996 131.998M161.139 124.614C162.115 124.126 163.567 123.638 176.648 124.544M218.139 121.614C214.319 125.836 208.559 129.492 201.996 131.998M176.639 124.614C176.642 124.591 176.645 124.568 176.648 124.544M195.851 111.906C194.668 112.644 193.43 113.539 192.139 114.614M195.851 111.906C182.705 109.117 177.35 118.867 176.648 124.544M195.851 111.906C203.358 107.22 208.611 108.835 210.556 110.54M210.639 110.614C210.612 110.589 210.585 110.564 210.556 110.54M201.996 131.998L201.925 132.182M201.996 131.998C201.973 132.058 201.949 132.119 201.925 132.182M202.639 153.114C201.558 161.401 193.364 169.5 188.216 173.461M188.216 173.461C189.057 174.597 190.337 176.289 191.199 177.238M188.216 173.461C187.649 173.897 187.119 174.283 186.639 174.614L179.372 172.57M199.639 137.809C191.209 155.807 177.096 166.732 170.639 170.114L179.372 172.57M199.639 137.809C213.5 140.779 227.679 129.174 232.497 125.23M199.639 137.809C200.322 136.35 201.299 133.81 201.925 132.182M240.831 131.114C238.965 133.473 236.57 135.687 234.639 136.614M240.831 131.114C253.683 146.078 277.838 173.814 288.177 184.456M292.639 188.614C275.639 192.281 237.139 205.214 219.139 227.614M292.639 188.614C291.938 188.193 290.37 186.712 288.177 184.456M292.639 188.614C294.283 190.587 297.84 195.088 299.088 197.514M219.139 227.614C217.739 224.503 215.468 216.745 216.798 209.22M219.139 227.614C219.139 228.814 221.138 233.667 222.471 235.834M210.986 185.114C210.48 185.781 210.024 186.277 209.639 186.614C208.966 186.675 208.102 186.657 207.091 186.519M210.986 185.114C213.982 181.167 218.744 171.251 221.139 153.114M210.986 185.114C210.063 189.914 214.704 202.114 217.139 207.614C217.006 208.147 216.893 208.683 216.798 209.22M299.139 197.614C299.123 197.581 299.106 197.548 299.088 197.514M288.177 184.456C296.01 179.688 320.439 170.714 355.639 173.114C374.139 174.375 384.639 184.695 385.639 193.392M385.639 193.392C376.154 189.704 363.35 187.519 346.139 188.614C330.82 189.589 315.036 192.581 299.088 197.514M385.639 193.392C406.467 201.49 410.639 215.614 411.639 220.614C412.701 225.921 418.884 246.275 384.784 260.263M160.139 86.1141C161.299 85.286 162.663 84.5723 164.139 83.9594M164.139 83.9594C162.139 82.8443 158.839 77.4141 161.639 64.6141C165.139 48.6141 170.139 47.6141 171.639 47.6141C173.139 47.6141 179.139 49.6141 177.639 61.6141L169.639 65.1141L176.639 67.1141C176.139 70.3702 174.439 77.8556 171.639 81.7483M164.139 83.9594C166.486 82.9848 169.114 82.2656 171.639 81.7483M171.639 81.7483C175.197 81.0196 178.552 80.6914 180.639 80.6141M219.639 77.6141C221.139 73.1139 224.014 71.4889 226.89 71.114M226.89 71.114C229.764 70.7391 232.639 71.6141 234.139 72.1141M226.89 71.114C228.139 71.9473 229.839 75.814 226.639 84.614M221.139 93.114C224.139 95.1662 231.428 97.5395 237.174 92.114M237.174 92.114V102.614L240.247 105.167M207.091 186.519C205.091 190.852 199.139 201.614 191.139 209.614M207.091 186.519C204.184 186.123 200.059 184.741 195.741 181.436M191.139 209.614C189.806 207.447 185.539 203.014 179.139 202.614M191.139 209.614C195.639 206.114 203.234 207.339 208.139 207.841M191.139 209.614C192.127 211.59 195.557 217.961 186.952 223.419M195.741 181.436C194.075 184.936 188.339 194.214 179.139 202.614M195.741 181.436C194.236 180.284 192.708 178.898 191.199 177.238M179.139 202.614C173.837 201.857 170.507 206.12 169.319 208.697M169.139 209.114C169.192 208.981 169.252 208.842 169.319 208.697M186.639 223.614C186.745 223.549 186.85 223.484 186.952 223.419M175.639 210.114C173.984 209.546 171.762 208.995 169.319 208.697M185.139 220.614C185.83 221.465 186.437 222.406 186.952 223.419M164.979 249.509C165.379 255.509 161.139 264.947 158.639 268.614C156.935 271.114 162.084 279.614 167.639 274.614C175.639 267.414 177.306 257.281 177.139 253.114C189.204 245.518 191.285 231.932 186.952 223.419M164.979 249.509C167.348 246.406 168.982 243.899 169.139 243.114M149.955 244.461C145.963 247.45 142.633 248.45 138.639 250.114C132.639 252.614 124.139 242.114 133.639 238.614C138.146 236.954 142.758 233.453 146.392 230.114M149.955 244.461C151.96 242.959 154.132 240.956 156.639 238.114C154.897 239.741 152.474 242.031 149.955 244.461ZM143.031 226.114C140.713 227.023 138.799 227.846 137.639 227.614C133.956 226.141 132.443 223.039 133.501 219.709M143.031 226.114C145.708 225.064 148.923 223.9 152.139 224.114C150.918 225.606 148.885 227.822 146.392 230.114M143.031 226.114L146.392 230.114M75.8709 224.921C76.2726 224.118 89.531 215.583 113.553 216.789M133.501 219.709C126.328 218.038 119.429 217.084 113.553 216.789M133.501 219.709C133.879 218.518 134.586 217.299 135.639 216.114C138.839 212.514 147.973 213.947 152.139 215.114C153.491 212.635 155.483 210.998 157.778 209.968M113.553 216.789C115.86 215.025 121.092 212.082 127.86 210.714M127.86 210.714C129.404 210.402 131.005 210.188 132.639 210.114M127.86 210.714C128.139 210.658 134.139 201.114 141.139 201.114C142.499 201.114 143.839 201.284 145.139 201.587M145.139 201.587C150.532 202.843 155.36 206.745 157.778 209.968M145.139 201.587C146.234 200.089 149.635 197.394 154.639 198.386M157.778 209.968C160.249 208.86 163.07 208.458 165.821 208.471M154.639 198.386C155.732 198.602 156.901 198.995 158.139 199.614C160.997 201.043 162.948 202.926 164.153 204.614M154.639 198.386C160.306 195.462 173.372 185.77 179.372 172.57M164.153 204.614C165.477 206.47 165.639 207.114 165.821 208.471M164.153 204.614C170.815 200.114 185.599 188.438 191.199 177.238M165.821 208.471C167.012 208.476 168.189 208.56 169.319 208.697M222.471 235.834C215.015 241.039 207.632 246.655 200.353 252.674M222.471 235.834C247.6 218.29 273.553 205.413 299.088 197.514M216.798 209.22C214.811 208.809 211.562 208.191 208.139 207.841M208.139 207.841C205.806 222.099 201.153 250.674 200.353 252.674M200.353 252.674C192.479 259.186 184.727 266.169 177.139 273.614C181.697 275.271 187.543 276.557 194.37 277.513M194.37 277.513C191.57 297.913 174.567 323.78 166.4 333.946M194.37 277.513C199.735 278.265 205.707 278.812 212.134 279.176M212.139 279.114C212.138 279.135 212.136 279.155 212.134 279.176M239.887 321.228C245.087 319.628 247.473 313.114 247.139 310.614M239.887 321.228C229.453 319.171 216.401 319.644 206.639 328.614C202.551 332.371 199.543 337.084 197.671 342.114M239.887 321.228C245.273 322.29 249.962 324.025 253.139 325.614C256.139 322.781 261.939 315.714 261.139 310.114M239.887 321.228C214.749 308.858 211.488 287.717 212.134 279.176M224.139 279.614C224.138 279.622 224.137 279.629 224.136 279.637M247.139 310.614C250.739 303.014 257.973 306.947 261.139 310.114M247.139 310.614C226.766 299.828 223.315 285.485 224.136 279.637M261.139 310.114L261.341 307.614M261.139 310.114C262.903 310.114 264.45 310.491 265.796 311.114M222.639 379.114C242.639 377.114 252.806 351.447 251.639 342.614C269.639 338.214 273.473 326.114 273.139 320.614C272.848 319.392 272.224 317.743 271.211 316.114M222.639 379.114C221.973 381.447 222.639 386.514 230.639 388.114C240.639 390.114 259.139 370.114 261.139 348.614C263.935 347.639 267.881 345.294 271.602 342.263M222.639 379.114C198.582 381.52 191.07 359.847 197.671 342.114M271.211 316.114C274.687 314.114 281.639 320.614 282.139 325.614C282.193 326.148 282.191 326.69 282.139 327.239M271.211 316.114C269.996 314.161 268.223 312.238 265.796 311.114M263.639 278.932L261.341 307.614M263.639 278.932C276.346 278.285 289.322 277.273 301.908 275.984M263.639 278.932C249.875 279.633 236.428 279.906 224.136 279.637M261.341 307.614C272.274 299.447 296.308 281.184 301.908 275.984M301.908 275.984C315.33 274.609 328.308 272.92 340.039 271.024M265.796 311.114C277.762 305.256 290.349 304.224 301.139 305.465M282.139 327.239C281.659 332.336 276.855 337.984 271.602 342.263M282.139 327.239C285.161 328.672 289.681 330.659 294.675 332.599M301.139 305.465C305.086 305.919 308.792 306.677 312.139 307.614C316.469 308.826 320.559 310.339 324.139 312.089M301.139 305.465C312.139 297.348 335.639 278.624 340.039 271.024M340.039 271.024C353.904 268.784 366.028 266.254 375.089 263.614M324.139 312.089C330.894 315.391 335.832 319.539 337.139 324.114C338.457 328.727 335.433 333.991 329.639 336.902M324.139 312.089C334.639 304.097 359.889 282.814 375.089 263.614M375.089 263.614C377.918 262.79 380.448 261.955 382.639 261.114C383.371 260.833 384.086 260.55 384.784 260.263M282.139 394.114C283.306 395.947 287.239 399.914 293.639 401.114M282.139 394.114C272.139 399.947 249.765 414.391 247.639 426.614M282.139 394.114C282.881 389.439 284.767 381.652 288.077 372.614M293.639 401.114C292.639 403.947 291.457 408.614 286.139 415.114C276.964 426.328 263.502 432.496 255.139 432.773M293.639 401.114C296.32 398.094 299.613 394.142 303.108 389.614M247.639 426.614C230.039 437.414 228.639 454.614 231.139 467.114C234.306 458.053 243.539 438.5 255.139 432.773M247.639 426.614C246.885 430.95 250.079 432.94 255.139 432.773M288.077 372.614C283.422 367.16 274.151 354.421 271.984 344.614M288.077 372.614C292.162 361.464 298.418 348.41 307.374 336.952M271.984 344.614C271.834 343.932 271.68 342.913 271.602 342.263M271.984 344.614C289.308 335.414 294.342 332.766 294.675 332.599M294.675 332.599C298.777 334.193 303.199 335.755 307.374 336.952M303.108 389.614C306.222 385.58 309.495 381.089 312.639 376.389M303.108 389.614C306.614 392.594 311.84 396.558 318.139 400.657M430.139 401.782C432.116 398.938 433.793 395.727 435.139 392.114C439.544 380.292 440.724 367.61 439.726 355.114M430.139 401.782C440.139 424.048 436.639 443.947 433.639 451.114C429.992 442.447 418.091 424.014 399.668 419.614M430.139 401.782C423.214 411.744 412.609 417.199 399.668 419.614M399.668 419.614C392.186 421.01 383.923 421.39 375.139 421.037M328.519 344.614C329.196 341.969 329.591 339.239 329.639 336.902M328.519 344.614C366.215 316.614 391.878 286.614 399.997 275.114M328.519 344.614C326.015 354.394 319.65 365.909 312.639 376.389M329.639 336.902C326.641 338.408 322.902 339.285 318.639 339.114C315.519 338.989 311.572 338.155 307.374 336.952M399.997 275.114C394.296 269.147 388.605 263.691 384.784 260.263M399.997 275.114C403.135 278.398 406.384 281.944 409.552 285.614M312.639 376.389C338.748 359.131 394.682 316.814 409.552 285.614M409.552 285.614C414.615 291.48 419.471 297.665 423.34 303.614M318.139 400.657C340.94 388.309 393.9 351.614 423.34 303.614M318.139 400.657C323.22 403.963 329 407.358 335.139 410.395M423.34 303.614C425.7 307.244 427.692 310.786 429.139 314.114C429.71 315.427 430.266 316.761 430.806 318.114M335.139 410.395C397.139 377.114 413.472 342.114 430.806 318.114M335.139 410.395C341.7 413.64 348.671 416.477 355.639 418.362M430.806 318.114C433.277 324.313 435.4 330.916 436.987 337.735M355.639 418.362C359.837 419.498 364.034 420.288 368.139 420.614C370.505 420.802 372.84 420.944 375.139 421.037M355.639 418.362C412.839 381.764 433.704 349.361 436.987 337.735M436.987 337.735C438.308 343.414 439.258 349.244 439.726 355.114M375.139 421.037C414.139 401.782 432.813 370.114 439.726 355.114M197.671 342.114C196.472 342.114 193.631 341.814 191.857 340.614M224.136 279.637C219.994 279.546 215.982 279.394 212.134 279.176M210.556 110.54C205.254 118.627 188.763 125.409 177.639 124.614C177.302 124.59 176.971 124.567 176.648 124.544M59.6393 277.114C46.1393 301.281 35.3902 345.43 90.6393 311.614C148.639 276.114 91.6393 228.114 59.6393 277.114Z" stroke="black"/>
</svg>
