<svg width="192" height="141" viewBox="0 0 192 141" fill="none" xmlns="http://www.w3.org/2000/svg">
<path d="M11.5 84.3149C11.5048 93.9896 17 106.315 20.5 111.315C21.1835 107.623 26.2625 100.32 29 100.315C18.3112 99.934 14.2159 96.2451 11.5 84.3149Z" fill="black"/>
<path d="M27.5 71.3149C26.5 77.4815 26.5 89.4149 34.5 87.8149C44.5 85.8149 49 77.3149 50.5 74.3149C52 71.3149 53 63.3149 47 60.8149C41 58.3149 34.5 60.8149 31.5 63.8149C31 64.3149 29 65.8149 27.5 71.3149Z" fill="black"/>
<path d="M107.173 129.315C107.402 129.497 107.676 129.664 108 129.815C110.13 130.809 112.575 130.194 115 128.748C114.2 131.095 109 137.104 106.5 139.815C106.399 139.925 108.235 136.115 107.173 129.315Z" fill="black"/>
<path d="M82 118.315C81.6567 117.994 81.3537 117.661 81.0881 117.315C74.1763 127.315 81.5 131.815 81.5 131.815C81.5 131.815 80 123.315 84.5 117.935C83.5523 118.729 82.6733 118.943 82 118.315Z" fill="black"/>
<path d="M49 137.315C47.4087 136.121 44.5314 129.388 45.4841 123.904C44.9234 126.874 41.1328 129.815 40.5 129.815C43 133.815 51 138.815 49 137.315Z" fill="black"/>
<path d="M32.5 111.83C34.3284 114.416 37.8284 119.7 38.4155 121.81C38.3055 120.238 38.1138 116.592 38 114.315C37.3333 114.325 35.3 113.843 32.5 111.83Z" fill="black"/>
<path d="M114 82.4248C114 81.9198 113.981 81.4211 113.947 80.9317C113.676 77.06 112.438 73.764 111.846 72.4323C103.847 73.2712 94.7047 74.1046 87.0829 74.7644C86.7495 75.5977 86.1 77.6149 86.5 78.8149C92.5 82.3149 93 92.8149 93 96.3149C93 98.6572 92.3904 101.609 91.1712 102.315C91.1455 102.668 91.1084 103.028 91.0608 103.393C94.7405 102.311 101.341 99.6014 106.394 95.644C109.122 93.507 111.4 91.0062 112.522 88.2011C106.735 88.0564 101.112 87.7779 96.5 87.4695C101.224 85.8564 107.493 83.968 114 82.4248Z" fill="black"/>
<path fill-rule="evenodd" clip-rule="evenodd" d="M14.2256 66.9114C12.2272 72.0477 11.4967 77.5466 11.5 84.3149C14.2159 96.2451 18.3112 99.934 29 100.315C31.4163 100.31 41.4415 94.1334 47.3106 89.6012C48.1327 88.9663 48.8733 88.3637 49.5 87.8149L49.5334 87.7856C54.1892 83.7082 65.3559 73.9288 65 62.8149C64.8327 57.589 62.4635 53.3422 59.5 50.1849C59.3351 50.0092 59.1683 49.8368 59 49.6679C55.7521 46.408 51.922 44.4115 49.5 43.8149C43.5745 42.3552 32.3967 43.1213 23.5 52.8149C19.7199 56.9337 17.0275 60.7568 15.1642 64.7234C14.8242 65.447 14.5119 66.1755 14.2256 66.9114ZM34.5 87.8149C26.5 89.4149 26.5 77.4815 27.5 71.3149C29 65.8149 31 64.3149 31.5 63.8149C34.5 60.8149 41 58.3149 47 60.8149C53 63.3149 52 71.3149 50.5 74.3149C49 77.3149 44.5 85.8149 34.5 87.8149Z" fill="#F8B31D"/>
<path d="M57.1069 97.8362C60.2735 100.003 69.7242 104.333 82.1242 104.333C83.3963 102.126 84.9234 100.174 86.1952 98.8149C84.7101 96.7481 83.273 93.6955 82.5 89.3149C81.3 82.5149 83.5 78.8149 86.5 78.8149C86.1 77.6149 86.7495 75.5977 87.0829 74.7644C81.9104 75.2121 77.4385 75.5798 74.5 75.8149C77.8979 70.0964 84.1724 60.6441 91.9833 50.8149C89.047 49.2081 83.7271 47.2062 77.5 46.5606C71.7211 45.9616 65.1611 46.5307 59 49.6679C59.1683 49.8368 59.3351 50.0092 59.5 50.1849C62.4635 53.3422 64.8327 57.589 65 62.8149C65.3559 73.9288 54.1892 83.7082 49.5334 87.7856L49.5 87.8149C48.8733 88.3637 48.1327 88.9663 47.3106 89.6012L50.5 92.3149C57.5683 85.6599 60 86.8149 61 87.3149C61.9693 87.7995 63.9641 89.6455 57.1069 97.8362Z" fill="#F8B31D"/>
<path d="M86.5 78.8149C83.5 78.8149 81.3 82.5149 82.5 89.3149C83.273 93.6955 84.7101 96.7481 86.1952 98.8149C87.5917 100.758 89.0307 101.83 90 102.315C90.4384 102.534 90.8288 102.513 91.1712 102.315C92.3904 101.609 93 98.6572 93 96.3149C93 92.8149 92.5 82.3149 86.5 78.8149Z" fill="#F8B31D"/>
<path d="M90 102.315C89.0307 101.83 87.5917 100.758 86.1952 98.8149C84.9234 100.174 83.3963 102.126 82.1242 104.333C79.7202 108.505 78.2268 113.59 81.0881 117.315C81.3537 117.661 81.6567 117.994 82 118.315C82.6733 118.943 83.5523 118.729 84.5 117.935C87.1489 115.715 90.3341 108.96 91.0608 103.393C91.1084 103.028 91.1455 102.668 91.1712 102.315C90.8288 102.513 90.4384 102.534 90 102.315Z" fill="#F8B31D"/>
<path d="M61 87.3149C60 86.8149 57.5683 85.6599 50.5 92.3149C49.6716 93.2707 48.8937 94.2377 48.168 95.2021C43.1998 101.805 40.6785 108.291 41.1391 110.315C42.8504 110.315 44.7594 109.367 45.5 108.894C47.917 107.131 50.76 104.555 52.5 102.815C54.3566 100.964 55.8736 99.3093 57.1069 97.8362C63.9641 89.6455 61.9693 87.7995 61 87.3149Z" fill="#F8B31D"/>
<path d="M47.3106 89.6012C39.5 96.3149 33.6 100.715 32 108.315C31.4942 110.718 31.7746 111.718 32.5 111.83C33.3873 111.968 34.9403 110.778 36.5347 109.202C37.7599 107.991 39.0095 106.553 40 105.315L48.168 95.2021C48.8937 94.2377 49.6716 93.2707 50.5 92.3149L47.3106 89.6012Z" fill="#F8B31D"/>
<path d="M32.5 111.83C35.3 113.843 37.3333 114.325 38 114.315C38 112.982 37.7347 110.002 36.5347 109.202C34.9403 110.778 33.3873 111.968 32.5 111.83Z" fill="#F8B31D"/>
<path d="M41.1391 110.315C40.2594 112.148 38.5 117.115 38.5 122.315C38.5 128.815 39.8609 129.815 40.5 129.815C41.1328 129.815 44.9234 126.874 45.4841 123.904C45.4897 123.875 45.495 123.845 45.5 123.815C46 120.815 47 109.473 45.5 108.894C43.7498 110.17 41.8621 110.519 41.1391 110.315Z" fill="#F8B31D"/>
<path d="M139 87.312C144.838 86.4314 147.92 84.8775 145.5 82.3149C144.53 81.2876 143.1 80.567 141.322 80.1005C134.978 78.4367 124.196 80.007 114 82.4248C107.493 83.968 101.224 85.8564 96.5 87.4695C101.112 87.7779 106.735 88.0564 112.522 88.2011C117.937 88.3365 123.495 88.3548 128.5 88.1708C132.461 88.0253 136.076 87.7531 139 87.312Z" fill="#F8B31D"/>
<path d="M139 87.312C136.076 87.7531 132.461 88.0253 128.5 88.1708C128.39 88.3416 128.272 88.5235 128.147 88.7161C127.496 89.7201 126.656 91.014 125.752 92.5252C123.415 96.4302 120.644 101.786 119.561 107.341C119.087 109.775 118.936 112.247 119.288 114.652C119.346 115.041 119.416 115.429 119.5 115.815C120.467 120.242 123.217 119.636 126.36 116.762C127.519 115.703 128.731 114.336 129.927 112.799C132.997 108.853 135.959 103.79 137.636 99.9546C138.371 98.2729 138.859 96.8271 139 95.8149C139.352 93.2898 139.5 89.8149 139 87.312Z" fill="#F8B31D"/>
<path d="M119.288 114.652C113.454 118.278 103.155 126.126 107.173 129.315C107.402 129.497 107.676 129.664 108 129.815C110.13 130.809 112.575 130.194 115 128.748C119.405 126.122 124.103 120.202 126.36 116.762C123.217 119.636 120.467 120.242 119.5 115.815C119.416 115.429 119.346 115.041 119.288 114.652Z" fill="#F8B31D"/>
<path d="M141.322 80.1005C144.922 74.9005 147 67.3014 147.5 64.4681C139.605 67.601 131.135 69.9133 121.447 71.3063C120.781 73.1396 118.347 77.7317 113.947 80.9317C113.981 81.4211 114 81.9198 114 82.4248C124.196 80.007 134.978 78.4367 141.322 80.1005Z" fill="black"/>
<path d="M128.5 88.1708C123.495 88.3548 117.937 88.3365 112.522 88.2011C111.4 91.0062 109.122 93.507 106.394 95.644C107.091 96.7595 108.477 98.6395 110.198 100.455C114.785 98.3992 123.818 93.9943 125.752 92.5252C126.656 91.014 127.496 89.7201 128.147 88.7161C128.272 88.5235 128.39 88.3416 128.5 88.1708Z" fill="black"/>
<path d="M160.957 62.3149C160.457 72.3149 154.836 94.3546 137.636 99.9546C135.959 103.79 132.997 108.853 129.927 112.799C131.424 113.447 133.665 114.314 136.243 115.222C150.243 112.555 177.336 99.6889 174.936 70.8889C171.248 67.9978 166.654 65.1134 160.957 62.3149Z" fill="black"/>
<path d="M182.566 78.3149C185.566 89.8149 182.883 114.386 153.683 119.986C157.524 120.679 161.323 121.05 164.5 120.815C171.25 120.315 176.125 117.44 179.562 114.315C183 111.19 185 107.815 186 106.315C186.264 105.919 186.696 105.159 187.15 104.093C189.091 99.5338 191.418 89.3877 182.566 78.3149Z" fill="black"/>
<path d="M179.562 114.315C187.562 119.815 188 127.315 188 127.315C188 127.315 195.65 113.593 187.15 104.093C186.696 105.159 186.264 105.919 186 106.315C185 107.815 183 111.19 179.562 114.315Z" fill="black"/>
<path d="M174.936 70.8889C177.336 99.6889 150.243 112.555 136.243 115.222C141.161 116.952 147.573 118.884 153.683 119.986C182.883 114.386 185.566 89.8149 182.566 78.3149C180.61 75.8681 178.108 73.376 174.936 70.8889Z" fill="#F8B31D"/>
<path d="M147.5 64.4681C147 67.3014 144.922 74.9005 141.322 80.1005C143.1 80.567 144.53 81.2876 145.5 82.3149C147.92 84.8775 144.838 86.4314 139 87.312C139.5 89.8149 139.352 93.2898 139 95.8149C138.859 96.8271 138.371 98.2729 137.636 99.9546C154.836 94.3546 160.457 72.3149 160.957 62.3149C159.604 61.6501 158.189 60.9903 156.709 60.3363C153.703 61.8398 150.647 63.2191 147.5 64.4681Z" fill="#F8B31D"/>
<path d="M110.198 100.455C112.591 102.981 115.838 105.712 119.561 107.341C120.644 101.786 123.415 96.4302 125.752 92.5252C123.818 93.9943 114.785 98.3992 110.198 100.455Z" fill="#F8B31D"/>
<path d="M113.947 80.9317C118.347 77.7317 120.781 73.1396 121.447 71.3063C120.154 71.4923 118.839 71.6619 117.5 71.8149C115.711 72.0193 113.813 72.226 111.846 72.4323C112.438 73.764 113.676 77.06 113.947 80.9317Z" fill="#F8B31D"/>
<path d="M161.5 57.8149C174.475 50.6565 180.228 25.8694 171 13.8149C167.649 9.43716 162.503 7.20105 156 7.24343C146.234 7.30708 133.407 12.5097 119 23.3149C109.347 30.5543 99.8801 40.8773 91.9833 50.8149C84.1724 60.6441 77.8979 70.0964 74.5 75.8149C77.4385 75.5798 81.9104 75.2121 87.0829 74.7644C94.7047 74.1046 103.847 73.2712 111.846 72.4323C113.813 72.226 115.711 72.0193 117.5 71.8149C118.839 71.6619 120.154 71.4923 121.447 71.3063C131.135 69.9133 139.605 67.601 147.5 64.4681C150.647 63.2191 153.703 61.8398 156.709 60.3363C158.318 59.5311 159.913 58.6903 161.5 57.8149Z" fill="#CAE5FF"/>
<path d="M119 23.3149C133.407 12.5097 146.234 7.30708 156 7.24343C154.667 4.60058 149.1 -0.285121 137.5 1.31488C123 3.31488 111.5 7.31488 96.5 22.3149C81.5 37.3149 78 45.0606 77.5 46.5606C83.7271 47.2062 89.047 49.2081 91.9833 50.8149C99.8801 40.8773 109.347 30.5543 119 23.3149Z" fill="#A8C6E2"/>
<path d="M18 71.3149L14.2256 66.9114M2 79.3149C5.2 66.9149 8 61.8149 9 60.8149L14.2256 66.9114M18.5 69.8149L15.1642 64.7234M1 72.8149C3.4 64.0149 7.33333 57.4815 9 55.3149L15.1642 64.7234M147.5 64.4681C147 67.3014 144.922 74.9005 141.322 80.1005M147.5 64.4681C139.605 67.601 131.135 69.9133 121.447 71.3063M147.5 64.4681C150.647 63.2191 153.703 61.8398 156.709 60.3363M141.322 80.1005C134.978 78.4367 124.196 80.007 114 82.4248M141.322 80.1005C143.1 80.567 144.53 81.2876 145.5 82.3149C147.92 84.8776 144.838 86.4314 139 87.312M110.198 100.455C108.477 98.6395 107.091 96.7595 106.394 95.644M110.198 100.455C112.591 102.981 115.838 105.712 119.561 107.341M110.198 100.455C114.785 98.3992 123.818 93.9943 125.752 92.5252M126 92.3149C125.939 92.376 125.856 92.4464 125.752 92.5252M121.447 71.3063C120.781 73.1396 118.347 77.7317 113.947 80.9317M121.447 71.3063C120.154 71.4923 118.839 71.6619 117.5 71.8149C115.711 72.0193 113.813 72.226 111.846 72.4323M113.947 80.9317C113.676 77.06 112.438 73.764 111.846 72.4323M113.947 80.9317C113.981 81.4211 114 81.9198 114 82.4248M160.957 62.3149C160.457 72.3149 154.836 94.3546 137.636 99.9546M160.957 62.3149C159.604 61.6501 158.189 60.9903 156.709 60.3363M160.957 62.3149C166.654 65.1134 171.248 67.9978 174.936 70.8889M137.636 99.9546C135.959 103.79 132.997 108.853 129.927 112.799M137.636 99.9546C138.371 98.2729 138.859 96.8271 139 95.8149C139.352 93.2898 139.5 89.8149 139 87.312M136.243 115.222C150.243 112.555 177.336 99.6889 174.936 70.8889M136.243 115.222C141.161 116.952 147.573 118.884 153.683 119.986M136.243 115.222C133.665 114.314 131.424 113.447 129.927 112.799M174.936 70.8889C178.108 73.376 180.61 75.8681 182.566 78.3149M182.566 78.3149C185.566 89.8149 182.883 114.386 153.683 119.986M182.566 78.3149C191.418 89.3877 189.091 99.5337 187.15 104.093M153.683 119.986C157.524 120.679 161.323 121.05 164.5 120.815C171.25 120.315 176.125 117.44 179.562 114.315M111.846 72.4323C103.847 73.2712 94.7047 74.1046 87.0829 74.7644M114 82.4248C107.493 83.968 101.224 85.8564 96.5 87.4695C101.112 87.7779 106.735 88.0564 112.522 88.2011M91.0608 103.393C90.3341 108.96 87.1489 115.715 84.5 117.935M91.0608 103.393C91.1084 103.028 91.1455 102.668 91.1712 102.315M91.0608 103.393C94.7405 102.311 101.341 99.6014 106.394 95.644M112.522 88.2011C117.937 88.3365 123.495 88.3548 128.5 88.1708M112.522 88.2011C111.4 91.0062 109.122 93.5071 106.394 95.644M119.561 107.341C119.087 109.775 118.936 112.247 119.288 114.652M119.561 107.341C120.644 101.786 123.415 96.4302 125.752 92.5252M57.1069 97.8362C60.2735 100.003 69.7242 104.333 82.1242 104.333M57.1069 97.8362C55.8736 99.3093 54.3566 100.964 52.5 102.815C50.76 104.555 47.917 107.131 45.5 108.894M57.1069 97.8362C63.9641 89.6455 61.9693 87.7995 61 87.3149C60 86.8149 57.5683 85.6599 50.5 92.3149M82.1242 104.333C83.3963 102.126 84.9234 100.174 86.1952 98.8149M82.1242 104.333C79.7202 108.505 78.2268 113.59 81.0881 117.315M179.562 114.315C187.562 119.815 188 127.315 188 127.315C188 127.315 195.65 113.593 187.15 104.093M179.562 114.315C183 111.19 185 107.815 186 106.315C186.264 105.919 186.696 105.159 187.15 104.093M40.5 129.815C43 133.815 51 138.815 49 137.315C47.4087 136.121 44.5314 129.388 45.4841 123.904M40.5 129.815C39.8609 129.815 38.5 128.815 38.5 122.315M40.5 129.815C41.1328 129.815 44.9234 126.874 45.4841 123.904M47.3106 89.6012C39.5 96.3149 33.6 100.715 32 108.315C31.4942 110.718 31.7746 111.718 32.5 111.83M47.3106 89.6012L50.5 92.3149M47.3106 89.6012C48.1327 88.9663 48.8733 88.3637 49.5 87.8149M47.3106 89.6012C41.4415 94.1334 31.4163 100.31 29 100.315M50.5 92.3149C49.6716 93.2707 48.8937 94.2377 48.168 95.2021M50.5 92.3149L48.168 95.2021M32.5 111.83C34.3284 114.416 37.8284 119.7 38.4155 121.81M32.5 111.83C35.3 113.843 37.3333 114.325 38 114.315M32.5 111.83C33.3873 111.968 34.9403 110.778 36.5347 109.202M38.4155 121.81C38.4706 122.008 38.5 122.178 38.5 122.315M38.4155 121.81C38.4665 122.539 38.5 122.822 38.5 122.315M38.4155 121.81C38.3055 120.238 38.1139 116.592 38 114.315M38.5 122.315C38.5 117.115 40.2594 112.148 41.1391 110.315M38 114.315C38 112.982 37.7347 110.002 36.5347 109.202M36.5347 109.202C37.7599 107.991 39.0095 106.553 40 105.315L48.168 95.2021M86.5 78.8149C83.5 78.8149 81.3 82.5149 82.5 89.3149C83.273 93.6955 84.7101 96.7481 86.1952 98.8149M86.5 78.8149C92.5 82.3149 93 92.8149 93 96.3149C93 98.6572 92.3904 101.609 91.1712 102.315M86.5 78.8149C86.1 77.6149 86.7495 75.5977 87.0829 74.7644M86.1952 98.8149C87.5917 100.758 89.0307 101.83 90 102.315C90.4384 102.534 90.8288 102.513 91.1712 102.315M81.0881 117.315C81.3537 117.661 81.6567 117.994 82 118.315C82.6733 118.943 83.5523 118.729 84.5 117.935M81.0881 117.315C74.1763 127.315 81.5 131.815 81.5 131.815C81.5 131.815 80 123.315 84.5 117.935M128.5 88.1708C132.461 88.0253 136.076 87.7531 139 87.312M128.5 88.1708C128.39 88.3416 128.272 88.5235 128.147 88.7161C127.496 89.7201 126.656 91.014 125.752 92.5252M156.709 60.3363C158.318 59.5311 159.913 58.6903 161.5 57.8149C174.475 50.6565 180.228 25.8694 171 13.8149C167.649 9.43716 162.503 7.20105 156 7.24343M129.927 112.799C128.731 114.336 127.519 115.703 126.36 116.762M41.1391 110.315C41.8621 110.519 43.7498 110.17 45.5 108.894M41.1391 110.315C42.8504 110.315 44.7594 109.367 45.5 108.894M41.1391 110.315C40.6785 108.291 43.1998 101.805 48.168 95.2021M45.5 108.894C47 109.473 46 120.815 45.5 123.815C45.495 123.845 45.4897 123.875 45.4841 123.904M119.288 114.652C113.454 118.278 103.155 126.126 107.173 129.315M119.288 114.652C119.346 115.041 119.416 115.429 119.5 115.815C120.467 120.242 123.217 119.636 126.36 116.762M107.173 129.315C107.402 129.497 107.676 129.664 108 129.815C110.13 130.809 112.575 130.194 115 128.748M107.173 129.315C108.235 136.115 106.399 139.925 106.5 139.815C109 137.104 114.2 131.095 115 128.748M115 128.748C119.405 126.122 124.103 120.202 126.36 116.762M87.0829 74.7644C81.9104 75.2121 77.4385 75.5798 74.5 75.8149C77.8979 70.0964 84.1724 60.6441 91.9833 50.8149M11.5 84.3149C11.5048 93.9896 17 106.315 20.5 111.315C21.1835 107.623 26.2625 100.32 29 100.315M11.5 84.3149C14.2159 96.2451 18.3112 99.934 29 100.315M11.5 84.3149C11.4967 77.5466 12.2272 72.0477 14.2256 66.9114M49.5 87.8149L49.5334 87.7856M49.5 87.8149C49.5111 87.8051 49.5222 87.7954 49.5334 87.7856M156 7.24343C146.234 7.30708 133.407 12.5097 119 23.3149C109.347 30.5543 99.8801 40.8773 91.9833 50.8149M156 7.24343C154.667 4.60058 149.1 -0.285121 137.5 1.31488C123 3.31488 111.5 7.31488 96.5 22.3149C81.5 37.3149 78 45.0606 77.5 46.5606M77.5 46.5606C83.7271 47.2062 89.047 49.2081 91.9833 50.8149M77.5 46.5606C71.7211 45.9616 65.1611 46.5307 59 49.6679M59 49.6679C55.7521 46.408 51.922 44.4115 49.5 43.8149C43.5745 42.3552 32.3967 43.1213 23.5 52.8149C19.7199 56.9337 17.0275 60.7568 15.1642 64.7234M59 49.6679C59.1683 49.8368 59.3351 50.0092 59.5 50.1849C62.4635 53.3422 64.8327 57.589 65 62.8149C65.3559 73.9288 54.1892 83.7082 49.5334 87.7856M14.2256 66.9114C14.5119 66.1755 14.8242 65.447 15.1642 64.7234M27.5 71.3149C26.5 77.4815 26.5 89.4149 34.5 87.8149C44.5 85.8149 49 77.3149 50.5 74.3149C52 71.3149 53 63.3149 47 60.8149C41 58.3149 34.5 60.8149 31.5 63.8149C31 64.3149 29 65.8149 27.5 71.3149Z" stroke="black"/>
</svg>
