<svg width="1428" height="990" viewBox="0 0 1428 990" fill="none" xmlns="http://www.w3.org/2000/svg">
<path fill-rule="evenodd" clip-rule="evenodd" d="M75.0756 242.028C30.1881 245.166 -0.304934 234.069 36.2036 199.737C52.9793 183.964 82.7716 194.286 97.5639 185.95C111.566 178.04 106.067 152.878 127.386 142.189C129.607 141.067 132.237 140.317 134.72 139.607C136.192 139.19 137.641 138.719 139.126 138.321C152.327 134.776 168.348 156.091 178.728 148.986C184.494 145.049 184.922 130.417 188.016 124.901C222.173 63.8829 242.63 38.13 331.514 9.97912C395.084 -10.1535 514.069 -0.67552 553.725 46.2029C563.03 57.2101 571.385 86.5823 582.816 93.4587C585.619 95.1468 617.116 78.3853 621.439 77.6455C648.464 73.0332 670.703 83.8864 692.33 93.8261C704.444 99.3917 711.065 135.347 714.331 136.112C741.529 142.507 771.986 107.236 807.96 122.692C838.578 135.859 819.178 171.725 819.694 171.978C827.456 175.618 891.518 161.458 899.879 160.018C930.152 154.82 981.388 151.379 1010.13 160.018C1023.72 164.114 1022.19 185.364 1036.77 186.317C1076.35 188.899 1124.39 161.671 1131.63 213.341C1137.05 252.141 930.966 282.497 882.034 264.092C872.343 260.458 862.218 249.272 852.45 247.733C834.504 244.888 815.033 264.499 798.18 267.955C755.941 276.623 731.065 259.211 698.447 260.964C684.949 261.689 673.173 275.263 656.641 276.052C621.219 277.716 591.272 237.207 563.992 244.049C500.821 259.882 479.467 330.373 388.468 338.188C350.16 341.484 254.156 344.126 227.618 316.685C223.099 312.008 216.347 289.75 211.971 288.365C192.636 282.239 163.716 314.297 133.989 307.306C129.749 306.298 51.9341 276.052 75.0756 242.028Z" fill="white"/>
<mask id="mask0_81_1250" style="mask-type:luminance" maskUnits="userSpaceOnUse" x="28" y="202" width="1104" height="140">
<path d="M28.3351 202.726H1132V341.266H28.3351V202.726Z" fill="white"/>
</mask>
<g mask="url(#mask0_81_1250)">
<mask id="mask1_81_1250" style="mask-type:luminance" maskUnits="userSpaceOnUse" x="19" y="0" width="1113" height="341">
<path fill-rule="evenodd" clip-rule="evenodd" d="M75.0753 242.028C30.1879 245.166 -0.305204 234.069 36.2033 199.737C52.979 183.964 82.7713 194.286 97.5636 185.95C111.566 178.04 106.067 152.878 127.386 142.189C129.607 141.067 132.237 140.317 134.719 139.607C136.192 139.19 137.641 138.719 139.126 138.321C152.326 134.776 168.348 156.091 178.728 148.986C184.494 145.049 184.922 130.417 188.015 124.901C222.172 63.8829 242.63 38.13 331.514 9.97912C395.083 -10.1535 514.069 -0.67552 553.724 46.2029C563.03 57.2101 571.385 86.5823 582.816 93.4587C585.619 95.1468 617.116 78.3853 621.439 77.6455C648.464 73.0332 670.702 83.8864 692.33 93.8261C704.444 99.3917 711.065 135.347 714.331 136.112C741.528 142.507 771.986 107.236 807.96 122.692C838.578 135.859 819.177 171.725 819.694 171.978C827.455 175.618 891.517 161.458 899.879 160.018C930.152 154.82 981.387 151.379 1010.13 160.018C1023.72 164.114 1022.19 185.364 1036.77 186.317C1076.35 188.899 1124.39 161.671 1131.63 213.341C1137.05 252.141 930.965 282.497 882.034 264.092C872.343 260.458 862.218 249.272 852.449 247.733C834.504 244.888 815.032 264.499 798.18 267.955C755.941 276.623 731.065 259.211 698.446 260.964C684.948 261.689 673.173 275.263 656.641 276.052C621.219 277.716 591.272 237.207 563.992 244.049C500.82 259.882 479.466 330.373 388.468 338.188C350.16 341.484 254.156 344.126 227.618 316.685C223.099 312.008 216.347 289.75 211.97 288.365C192.635 282.239 163.716 314.297 133.989 307.306C129.749 306.298 51.9338 276.052 75.0753 242.028Z" fill="white"/>
</mask>
<g mask="url(#mask1_81_1250)">
<path fill-rule="evenodd" clip-rule="evenodd" d="M80.4851 245.558C97.8664 250.145 126.578 280.65 157.748 278.048C183.871 275.859 199.108 253.541 227.861 259.326C281.912 270.189 330.778 306.149 387.441 290.808C410.885 284.453 496.663 242.395 494.377 219.492C493.581 211.484 458.041 218.653 453.059 213.897C449.965 210.938 471.378 207.785 473.605 207.378C483.427 205.571 494.359 204.518 504.49 204.071C555.34 201.837 591.575 232.823 639.669 237.842C670.156 241.035 691.789 225.847 721.22 223.251C744.705 221.195 762.805 233.419 786.06 231.885C806.173 230.559 833.364 213.594 853.435 219.031C854.67 219.363 855.828 219.885 857.058 220.227C913.186 235.847 986.144 243.195 1044.55 233.905C1067.83 230.192 1089.65 222.148 1112.81 218.117C1132.17 214.751 1166.63 218.281 1168.31 239.317C1171.02 273.292 1058.37 313.433 1029.06 319.902C1002.16 325.835 974.689 326.495 947.29 329.445C884.154 336.222 821.493 342.636 759.248 354.408C580.447 388.204 354.198 456.218 169.066 412.696C123.894 402.071 53.9825 364.666 38.6083 323.293C26.8387 291.622 22.2127 271.003 53.4481 250.518C62.2605 244.734 71.6845 243.234 80.4851 245.558Z" fill="#D2D2D2"/>
</g>
</g>
<path d="M191.02 166.259C207.279 194.832 243.616 208.575 279.786 213.718C288.782 215.004 300.112 212.844 308.557 215.183" stroke="#BEBEBE" stroke-width="1.667" stroke-miterlimit="10" stroke-linecap="round" stroke-linejoin="round"/>
<path d="M532.091 145.938C557.774 135.377 571.925 123.427 589.906 105.404" stroke="#BEBEBE" stroke-width="1.667" stroke-miterlimit="10" stroke-linecap="round" stroke-linejoin="round"/>
<path fill-rule="evenodd" clip-rule="evenodd" d="M468.782 335.778C439.151 348.74 395.081 356.983 395.081 320.662C395.081 310.105 394.838 302.122 397.883 291.779C406.158 266.865 417.315 268.145 406.158 200.862C413.679 146.72 452.37 175.793 456.367 172.808C468.322 86.4297 513.749 86.4297 532.08 88.3492C634.092 94.1078 536.861 143.731 569.537 132.498C592.65 124.554 578.304 44.2001 631.701 42.2805C666.532 38.9314 656.408 54.4375 642.062 73.6328C638.874 77.8984 655.541 93.4679 665.971 65.9547C677.129 36.522 690.678 23.0853 740.09 21.1657C792.69 21.1657 856.212 46.7594 889.921 88.3492C891.166 89.8988 884.342 36.522 902.673 21.1657C922.531 4.52983 990.197 -13.2458 1207.29 53.5778C1255.36 68.3841 1278.62 111.449 1287.5 144.235C1292.41 162.326 1267.94 195.253 1290.32 199.732C1331.87 208.065 1372.84 200.132 1390.51 246.21C1416.98 315.248 1319.3 313.444 1311.43 326.076C1296.25 350.405 1352.18 404.531 1246.15 465.266C1175.86 505.541 1088.54 519.473 1012.64 482.417C1000.83 476.659 994.661 456.039 985.639 452.419C980.795 450.475 968.759 468.98 966.225 471.37C921.781 512.935 794.284 503.787 741.161 481.737C725.489 475.249 697.433 433.634 691.076 432.789C685.578 432.044 612.605 420.607 581.89 420.607C540.385 420.607 551.655 367.305 521.115 376.843C487.113 387.435 459.922 387.436 468.782 335.778Z" fill="white"/>
<mask id="mask2_81_1250" style="mask-type:luminance" maskUnits="userSpaceOnUse" x="395" y="260" width="1001" height="245">
<path d="M395 260.467H1396V504.887H395V260.467Z" fill="white"/>
</mask>
<g mask="url(#mask2_81_1250)">
<mask id="mask3_81_1250" style="mask-type:luminance" maskUnits="userSpaceOnUse" x="395" y="38" width="1001" height="466">
<path fill-rule="evenodd" clip-rule="evenodd" d="M468.782 335.778C439.151 348.74 395.081 356.983 395.081 320.662C395.081 310.105 394.838 302.122 397.883 291.779C399.016 287.965 400.006 284.386 401.824 280.722C403.91 276.553 408.517 273.559 412.515 270.574C450.695 242.156 483.371 272.609 495.799 268.77C497.791 268.16 534.01 212.094 566.686 200.861C568.373 200.282 571.735 199.902 573.441 199.732C608.272 196.383 624.273 227.82 647.435 226.58C652.996 226.285 681.992 223.601 684.32 218.237C702.613 176.033 725.52 143.246 782.217 128.439C833.529 115.043 902.131 113.698 935.84 155.288C937.086 156.837 949.42 169.189 951.307 168.599C984.282 158.427 990.197 -13.2459 1207.29 53.5777C1255.37 68.384 1278.62 111.448 1287.5 144.235C1292.41 162.326 1267.94 195.253 1290.32 199.732C1331.87 208.065 1372.84 200.132 1390.51 246.21C1416.98 315.248 1319.3 313.444 1311.43 326.076C1296.25 350.405 1352.18 404.531 1246.15 465.266C1175.86 505.541 1088.54 519.473 1012.64 482.417C1000.83 476.659 994.661 456.039 985.639 452.42C980.795 450.475 968.759 468.98 966.225 471.37C921.781 512.935 794.284 503.787 741.161 481.737C725.489 475.249 697.433 433.634 691.076 432.789C685.578 432.045 612.605 420.607 581.89 420.607C540.386 420.607 551.655 367.305 521.115 376.843C487.113 387.436 459.922 387.436 468.782 335.778Z" fill="white"/>
</mask>
<g mask="url(#mask3_81_1250)">
<path fill-rule="evenodd" clip-rule="evenodd" d="M383.506 318.438C412.042 278.342 506.116 310.399 522.834 322.761C531.999 329.555 535.299 347.79 545.79 350.93C587.451 363.351 631.508 346.091 677.447 362.827C702.109 371.814 713.871 396.883 742.275 403.627C791.669 415.359 831.468 370.89 877.985 368.615C907.598 367.156 942.615 392.174 963.959 389.55C1009.07 383.981 1000.54 425.506 1141.02 405.776C1256.56 389.55 1254.79 317.833 1282.66 314.468C1313.2 310.769 1346.17 307.405 1395.04 271.074C1495.78 196.213 1333.81 566.681 1249.58 607.211C1105.7 676.439 739.262 663.288 589.667 601.438C529.527 576.564 487.991 532.325 443.84 492.6C392.659 446.571 359.647 393.759 373.83 332.334C376.302 321.622 380.237 323.041 383.506 318.438Z" fill="#E1DFDF"/>
</g>
</g>
<mask id="mask4_81_1250" style="mask-type:luminance" maskUnits="userSpaceOnUse" x="954" y="187" width="90" height="84">
<path d="M954.476 187.525H1043.74V270.704H954.476V187.525Z" fill="white"/>
</mask>
<g mask="url(#mask4_81_1250)">
<mask id="mask5_81_1250" style="mask-type:luminance" maskUnits="userSpaceOnUse" x="395" y="38" width="1001" height="466">
<path fill-rule="evenodd" clip-rule="evenodd" d="M468.782 335.778C439.151 348.74 395.081 356.983 395.081 320.662C395.081 310.105 394.838 302.122 397.883 291.779C399.016 287.965 400.006 284.386 401.824 280.722C403.91 276.553 408.517 273.559 412.515 270.575C450.695 242.157 483.371 272.609 495.799 268.77C497.791 268.16 534.01 212.094 566.686 200.862C568.373 200.282 571.735 199.902 573.441 199.732C608.272 196.383 624.273 227.82 647.435 226.58C652.996 226.285 681.992 223.601 684.32 218.237C702.613 176.033 725.52 143.246 782.217 128.439C833.529 115.043 902.131 113.698 935.841 155.288C937.086 156.838 949.42 169.189 951.307 168.6C984.282 158.427 990.197 -13.2457 1207.29 53.5779C1255.37 68.3843 1278.62 111.449 1287.5 144.236C1292.41 162.326 1267.94 195.253 1290.32 199.732C1331.87 208.065 1372.84 200.132 1390.51 246.211C1416.98 315.249 1319.3 313.444 1311.43 326.076C1296.25 350.405 1352.18 404.532 1246.15 465.267C1175.86 505.542 1088.54 519.473 1012.64 482.417C1000.83 476.659 994.661 456.039 985.639 452.42C980.795 450.475 968.759 468.981 966.225 471.37C921.781 512.935 794.284 503.787 741.161 481.738C725.489 475.249 697.433 433.634 691.076 432.79C685.578 432.045 612.605 420.608 581.89 420.608C540.386 420.608 551.655 367.306 521.115 376.843C487.113 387.436 459.922 387.436 468.782 335.778Z" fill="white"/>
</mask>
<g mask="url(#mask5_81_1250)">
<path d="M956.388 189.175C958.859 222.101 995.664 269.615 1041.66 269.615" stroke="#B4B4B4" stroke-width="1.667" stroke-miterlimit="10" stroke-linecap="round" stroke-linejoin="round"/>
</g>
</g>
<path fill-rule="evenodd" clip-rule="evenodd" d="M297.667 685.252C261.853 674.478 190.221 652.951 245.451 576.579C276.688 533.4 296.145 524.564 319.148 514.681C343.963 504.003 380.674 526.34 400.035 515.949C453.865 486.986 444.463 417.328 523.214 440.122C534.543 443.402 543.741 470.117 553.422 462.025C576.998 442.311 572.889 364.428 640.168 360.523C676.591 358.415 724.048 454.272 728.183 451.081C758.269 427.837 775.488 265.498 894.994 240.5C919.21 235.422 948.454 226.947 973.197 229.556C1144.33 247.442 1091.93 347.265 1140 387.488C1157.47 402.087 1217.68 330.867 1249.76 360.523C1271.89 380.995 1255.23 430.181 1270.56 443.498C1289.93 460.308 1349.28 435.104 1378.97 451.501C1447.96 489.588 1381.66 518.852 1381.66 547.941C1381.66 569.563 1427.07 555.001 1427.98 576.579C1428.96 600.11 1394.75 624.843 1380.32 637.239C1333.85 677.123 1238.44 683.255 1184.64 671.346C1171.87 668.516 1157.67 642.56 1148.06 643.975C1107.59 649.951 1060.89 710.25 1012.47 718.946C958.945 728.534 868.744 735.101 815.447 719.359C799.851 714.76 784.91 683.763 774.834 685.252C718.696 693.536 644.191 685.82 583.964 696.609C549.769 702.74 559.652 665.03 533.62 665.03C513.498 665.03 494.387 687.5 473.54 689.873C416.737 696.366 337.357 688.952 297.667 685.252Z" fill="white"/>
<mask id="mask6_81_1250" style="mask-type:luminance" maskUnits="userSpaceOnUse" x="224" y="592" width="1204" height="139">
<path d="M224 592.335H1428V730.06H224V592.335Z" fill="white"/>
</mask>
<g mask="url(#mask6_81_1250)">
<mask id="mask7_81_1250" style="mask-type:luminance" maskUnits="userSpaceOnUse" x="225" y="229" width="1203" height="500">
<path fill-rule="evenodd" clip-rule="evenodd" d="M297.667 685.252C261.853 674.478 190.221 652.951 245.451 576.579C276.688 533.4 296.145 524.564 319.148 514.681C343.963 504.003 380.674 526.34 400.035 515.949C453.865 486.986 444.463 417.328 523.214 440.122C534.543 443.402 543.741 470.117 553.422 462.025C576.998 442.311 572.889 364.428 640.168 360.523C676.591 358.415 724.048 454.272 728.183 451.081C758.269 427.837 775.488 265.498 894.994 240.5C919.21 235.422 948.454 226.947 973.197 229.556C1144.33 247.442 1091.93 347.265 1140 387.488C1157.47 402.087 1217.68 330.867 1249.76 360.523C1271.89 380.995 1255.23 430.181 1270.56 443.498C1289.93 460.308 1349.28 435.104 1378.97 451.501C1447.96 489.588 1381.66 518.852 1381.66 547.941C1381.66 569.563 1427.07 555.001 1427.98 576.579C1428.96 600.11 1394.75 624.843 1380.32 637.239C1333.85 677.123 1238.44 683.255 1184.64 671.346C1171.87 668.516 1157.67 642.56 1148.06 643.975C1107.59 649.951 1060.89 710.25 1012.47 718.946C958.946 728.534 868.744 735.101 815.447 719.359C799.851 714.76 784.91 683.763 774.834 685.252C718.696 693.536 644.191 685.82 583.964 696.609C549.769 702.74 559.652 665.03 533.62 665.03C513.498 665.03 494.387 687.5 473.54 689.873C416.737 696.366 337.357 688.952 297.667 685.252Z" fill="white"/>
</mask>
<g mask="url(#mask7_81_1250)">
<path fill-rule="evenodd" clip-rule="evenodd" d="M225.334 643.82C242.944 638.182 258.485 625.654 275.481 619.839C337.24 598.673 411.029 584.317 474.072 598.032C535.365 611.371 576.942 668.707 641.213 663.423C677.134 660.483 739.999 621.372 764.408 624.334C807.634 629.56 847.126 659.119 889.292 671.066C928.423 682.142 968.874 666.931 1007.51 659.613C1048.59 651.838 1083.44 607.996 1124.04 597.089C1182.4 581.391 1239.34 638.425 1297.09 630.046C1322.3 626.391 1427.02 586.808 1441.79 594.487C1463.87 605.991 1454.38 635.75 1441.98 654.572C1400.1 718.099 1217.36 755.153 1164.32 763.57C1027.62 785.244 891.646 823.809 754.169 834.96C668.914 841.865 584.238 825.865 499.333 827.597C414.92 829.314 287.652 862.257 232.66 740.679C214.152 699.763 215.573 680.558 226.745 644.085" fill="#D2D1D1"/>
</g>
</g>
<mask id="mask8_81_1250" style="mask-type:luminance" maskUnits="userSpaceOnUse" x="1044" y="452" width="121" height="56">
<path d="M1044.85 452.725H1164.34V507.437H1044.85V452.725Z" fill="white"/>
</mask>
<g mask="url(#mask8_81_1250)">
<mask id="mask9_81_1250" style="mask-type:luminance" maskUnits="userSpaceOnUse" x="225" y="229" width="1203" height="500">
<path fill-rule="evenodd" clip-rule="evenodd" d="M297.667 685.252C261.853 674.478 190.221 652.951 245.451 576.579C276.688 533.4 296.145 524.564 319.148 514.681C343.963 504.003 380.674 526.34 400.035 515.949C453.865 486.986 444.463 417.328 523.214 440.122C534.543 443.402 543.741 470.117 553.422 462.025C576.998 442.311 572.889 364.428 640.168 360.523C676.591 358.415 724.048 454.272 728.183 451.081C758.269 427.837 775.488 265.498 894.994 240.5C919.21 235.422 948.454 226.947 973.197 229.556C1144.33 247.442 1091.93 347.265 1140 387.488C1157.47 402.087 1217.68 330.867 1249.76 360.523C1271.89 380.995 1255.23 430.181 1270.56 443.498C1289.93 460.308 1349.28 435.104 1378.97 451.501C1447.96 489.588 1381.66 518.852 1381.66 547.941C1381.66 569.563 1427.07 555.001 1427.98 576.579C1428.96 600.11 1394.75 624.843 1380.32 637.239C1333.85 677.123 1238.44 683.255 1184.64 671.346C1171.87 668.516 1157.67 642.56 1148.06 643.975C1107.59 649.951 1060.89 710.25 1012.47 718.946C958.945 728.534 868.744 735.101 815.447 719.359C799.851 714.76 784.91 683.763 774.834 685.252C718.696 693.536 644.191 685.82 583.964 696.609C549.769 702.74 559.652 665.03 533.62 665.03C513.498 665.03 494.387 687.5 473.54 689.873C416.737 696.366 337.357 688.952 297.667 685.252Z" fill="white"/>
</mask>
<g mask="url(#mask9_81_1250)">
<path d="M1047.21 504.474C1085.86 504.474 1091.7 463.307 1106.18 455.216C1108.08 454.162 1110.64 463.101 1111.67 464.914C1115.18 471.141 1119.66 476.116 1124.81 479.196C1136.39 486.102 1150.37 476.138 1162 476.138" stroke="#C9C7C7" stroke-width="1.667" stroke-miterlimit="10" stroke-linecap="round" stroke-linejoin="round"/>
</g>
</g>
<mask id="mask10_81_1250" style="mask-type:luminance" maskUnits="userSpaceOnUse" x="756" y="448" width="54" height="73">
<path d="M756.513 448.951H809.765V520.643H756.513V448.951Z" fill="white"/>
</mask>
<g mask="url(#mask10_81_1250)">
<mask id="mask11_81_1250" style="mask-type:luminance" maskUnits="userSpaceOnUse" x="225" y="229" width="1203" height="500">
<path fill-rule="evenodd" clip-rule="evenodd" d="M297.667 685.252C261.853 674.478 190.221 652.951 245.451 576.579C276.688 533.4 296.145 524.564 319.148 514.681C343.963 504.003 380.674 526.34 400.035 515.949C453.865 486.986 444.463 417.328 523.214 440.122C534.543 443.402 543.741 470.117 553.422 462.025C576.998 442.311 572.889 364.428 640.168 360.523C676.591 358.415 724.048 454.272 728.183 451.081C758.269 427.837 775.488 265.498 894.994 240.5C919.21 235.422 948.454 226.947 973.197 229.556C1144.33 247.442 1091.93 347.265 1140 387.488C1157.47 402.087 1217.68 330.867 1249.76 360.523C1271.89 380.995 1255.23 430.181 1270.56 443.498C1289.93 460.308 1349.28 435.104 1378.97 451.501C1447.96 489.588 1381.66 518.852 1381.66 547.941C1381.66 569.563 1427.07 555.001 1427.98 576.579C1428.96 600.11 1394.75 624.843 1380.32 637.239C1333.85 677.123 1238.44 683.255 1184.64 671.346C1171.87 668.516 1157.67 642.56 1148.06 643.975C1107.59 649.951 1060.89 710.25 1012.47 718.946C958.945 728.534 868.744 735.101 815.447 719.359C799.851 714.76 784.91 683.763 774.834 685.252C718.696 693.536 644.191 685.82 583.964 696.609C549.769 702.74 559.652 665.03 533.62 665.03C513.498 665.03 494.386 687.5 473.54 689.873C416.737 696.366 337.357 688.952 297.667 685.252Z" fill="white"/>
</mask>
<g mask="url(#mask11_81_1250)">
<path d="M757.711 452.385C772.343 482.1 781.891 506.398 807.664 518.867" stroke="#C9C7C7" stroke-width="1.667" stroke-miterlimit="10" stroke-linecap="round" stroke-linejoin="round"/>
</g>
</g>
<path fill-rule="evenodd" clip-rule="evenodd" d="M145.404 738.683C123.593 714.562 23.3589 758.846 48.5881 683.69C68.18 625.346 133.552 659.634 152.892 627.613C169.939 599.422 180.592 465.951 274.704 523.061C280.132 526.355 225.555 428.804 253.882 326.59C260.177 296.473 300.705 236.962 332.57 221.638C364.832 206.123 385.668 216.883 398.667 228.026C416.765 243.541 431.716 290.085 456.109 303.774C499.387 315.638 584.744 164.635 796.401 190.153C992.222 213.788 1086.35 462.378 1106.01 494.891C1125.38 526.954 1203.12 515.403 1203.12 596.556C1203.12 660.418 1180.96 651.071 1180.96 651.071C1180.96 651.071 1251.15 702.634 1155.03 764.065C1117.53 788.043 1037.34 790.873 1032.29 794.096C904.578 875.726 834.122 967.096 674.245 944.565C579.79 931.261 503.198 819.421 446.777 803.087C445.363 802.673 443.851 803.001 442.4 802.723C422.857 798.944 401.077 831.628 381.196 838.9C310.599 864.725 308.509 814.024 269.386 804.171C241.969 797.262 210.856 831.571 179.443 828.412C143.689 824.812 165.802 761.234 145.404 738.683Z" fill="white"/>
<mask id="mask12_81_1250" style="mask-type:luminance" maskUnits="userSpaceOnUse" x="43" y="572" width="1163" height="377">
<path d="M43 572.999H1206V949H43V572.999Z" fill="white"/>
</mask>
<g mask="url(#mask12_81_1250)">
<mask id="mask13_81_1250" style="mask-type:luminance" maskUnits="userSpaceOnUse" x="44" y="187" width="1162" height="762">
<path fill-rule="evenodd" clip-rule="evenodd" d="M145.404 738.683C123.593 714.562 23.3589 758.846 48.5881 683.69C68.18 625.346 133.552 659.634 152.892 627.613C169.939 599.422 180.592 465.951 274.704 523.061C280.132 526.355 292.095 540.165 297.191 537.891C320.201 527.638 324.873 489.636 359.022 483.982C369.965 482.171 409.591 494.606 416.169 489.051C423.331 483.019 427.197 420.818 433.351 406.922C457.824 351.651 584.744 164.635 796.401 190.153C992.222 213.788 1086.35 462.378 1106.01 494.891C1125.38 526.954 1203.12 515.403 1203.12 596.556C1203.12 660.418 1180.96 651.071 1180.96 651.071C1180.96 651.071 1251.15 702.634 1155.03 764.065C1117.53 788.043 1037.34 790.873 1032.29 794.096C904.578 875.726 834.122 967.096 674.245 944.565C579.79 931.261 503.198 819.422 446.777 803.087C445.363 802.673 443.851 803.001 442.4 802.723C422.857 798.944 401.077 831.628 381.196 838.9C310.599 864.725 308.509 814.024 269.386 804.171C241.969 797.262 210.856 831.571 179.443 828.412C143.689 824.812 165.802 761.235 145.404 738.683Z" fill="white"/>
</mask>
<g mask="url(#mask13_81_1250)">
<path fill-rule="evenodd" clip-rule="evenodd" d="M52.5838 700.681C60.6247 692.617 74.979 701.75 84.4338 702.328C116.511 704.281 139.583 684.695 171.765 700.681C190.662 710.064 189.973 748.914 215.7 755.873C257.282 767.11 292.974 724.045 323.219 732.808C355.782 742.234 368.846 777.911 406.284 763.452C530.419 715.518 630.149 847.135 759.56 828.854C806.963 822.16 876.675 793.661 910.732 752.415C935.205 722.776 955.713 684.845 987.815 665.751C1023.46 644.547 1071.22 663.47 1110.12 648.454C1133.12 639.57 1115.04 615.507 1128.89 603.472C1151.08 584.207 1210.44 556.828 1229.01 590.46C1245.96 621.118 1250.71 661.951 1252.77 697.551C1262.56 867.905 1010.76 999.893 900.773 1037.93C670.262 1117.64 431.402 1095.34 213.297 980.6C142.884 943.553 23.7215 884.567 -0.0261033 787.009C-15.2902 724.316 38.5 714.791 52.5838 700.681Z" fill="#E0E0E0"/>
</g>
</g>
<mask id="mask14_81_1250" style="mask-type:luminance" maskUnits="userSpaceOnUse" x="593" y="582" width="207" height="59">
<path d="M593.812 582.125H799.973V640.533H593.812V582.125Z" fill="white"/>
</mask>
<g mask="url(#mask14_81_1250)">
<mask id="mask15_81_1250" style="mask-type:luminance" maskUnits="userSpaceOnUse" x="44" y="187" width="1162" height="762">
<path fill-rule="evenodd" clip-rule="evenodd" d="M145.404 738.683C123.593 714.562 23.3589 758.846 48.588 683.69C68.18 625.346 133.552 659.634 152.892 627.613C169.939 599.422 180.592 465.951 274.704 523.061C280.132 526.355 292.095 540.165 297.191 537.891C320.201 527.638 324.873 489.636 359.022 483.982C369.965 482.171 409.591 494.606 416.169 489.051C423.331 483.019 427.197 420.818 433.351 406.922C457.824 351.651 584.744 164.635 796.401 190.153C992.222 213.788 1086.35 462.378 1106.01 494.891C1125.38 526.954 1203.12 515.403 1203.12 596.556C1203.12 660.418 1180.96 651.071 1180.96 651.071C1180.96 651.071 1251.15 702.634 1155.03 764.065C1117.53 788.043 1037.34 790.873 1032.29 794.096C904.578 875.726 834.122 967.096 674.245 944.565C579.79 931.261 503.198 819.422 446.777 803.087C445.363 802.673 443.851 803.001 442.4 802.723C422.857 798.944 401.077 831.628 381.196 838.9C310.599 864.725 308.509 814.024 269.386 804.171C241.969 797.262 210.856 831.571 179.443 828.412C143.689 824.812 165.802 761.235 145.404 738.683Z" fill="white"/>
</mask>
<g mask="url(#mask15_81_1250)">
<path d="M596.455 584.955C615.31 654.115 773.914 652.333 797.452 597.782" stroke="#D4D4D4" stroke-width="1.667" stroke-miterlimit="10" stroke-linecap="round" stroke-linejoin="round"/>
</g>
</g>
<mask id="mask16_81_1250" style="mask-type:luminance" maskUnits="userSpaceOnUse" x="329" y="605" width="130" height="56">
<path d="M329.422 605.853H458.47V660.611H329.422V605.853Z" fill="white"/>
</mask>
<g mask="url(#mask16_81_1250)">
<mask id="mask17_81_1250" style="mask-type:luminance" maskUnits="userSpaceOnUse" x="44" y="187" width="1162" height="762">
<path fill-rule="evenodd" clip-rule="evenodd" d="M145.404 738.683C123.593 714.562 23.3589 758.846 48.5881 683.69C68.18 625.346 133.552 659.634 152.892 627.613C169.939 599.422 180.592 465.951 274.704 523.061C280.132 526.355 292.095 540.165 297.191 537.891C320.201 527.638 324.873 489.636 359.022 483.982C369.965 482.171 409.591 494.606 416.169 489.051C423.331 483.019 427.197 420.818 433.351 406.922C457.824 351.651 584.744 164.635 796.401 190.153C992.222 213.788 1086.35 462.378 1106.01 494.891C1125.38 526.954 1203.12 515.403 1203.12 596.556C1203.12 660.418 1180.96 651.071 1180.96 651.071C1180.96 651.071 1251.15 702.634 1155.03 764.065C1117.53 788.043 1037.34 790.873 1032.29 794.096C904.578 875.726 834.122 967.096 674.245 944.565C579.79 931.261 503.198 819.422 446.777 803.087C445.363 802.673 443.851 803.001 442.4 802.723C422.857 798.944 401.077 831.628 381.196 838.9C310.599 864.725 308.509 814.024 269.386 804.171C241.969 797.262 210.856 831.571 179.443 828.412C143.689 824.812 165.802 761.235 145.404 738.683Z" fill="white"/>
</mask>
<g mask="url(#mask17_81_1250)">
<path d="M332.053 608.684C349.629 669.779 412.64 657.181 455.826 657.181" stroke="#D4D4D4" stroke-width="1.667" stroke-miterlimit="10" stroke-linecap="round" stroke-linejoin="round"/>
</g>
</g>
<path fill-rule="evenodd" clip-rule="evenodd" d="M46.8401 483.937C49.8586 471.409 23.1735 469.33 23.6667 453.718C25.1108 408.189 76.2045 389.8 112.809 398.129C117.599 399.216 129.275 410.81 131.354 410.81C136.697 410.81 131.879 399.621 131.879 394.024C131.879 375.68 134.677 359.25 138.121 341.229C146.253 298.713 184.346 267.419 223.164 257.47C257.65 248.633 319.539 244.938 349.215 271.085C387.619 304.925 396.734 345.606 420.357 370.332C422.149 372.208 437.32 372.779 440.5 373.13C516.342 381.483 513.572 419.684 530.18 422.751C553.665 427.087 574.12 403.609 602.209 413.984C616.209 419.151 624.653 441.636 637.161 443.269C672.866 447.94 716.696 430.485 755.364 444.765C777.01 452.759 795.575 458.315 798.688 484.313C802.646 517.447 721.849 535.377 699.374 534.307C686.361 533.687 661.483 518.637 650.707 520.687C622.613 526.032 603.302 545.847 569.763 540.651C560.917 539.279 542.924 523.849 536.422 524.606C512.692 527.367 505.893 552.419 477.228 548.67C459.511 546.351 443.661 526.66 426.237 526.66C397.468 526.66 367.693 545.305 339.41 551.468C277.679 564.927 31.7082 618.627 3.1606 538.969C-11.1507 499.041 43.4231 498.148 46.8401 483.937Z" fill="white"/>
<mask id="mask18_81_1250" style="mask-type:luminance" maskUnits="userSpaceOnUse" x="0" y="430" width="799" height="153">
<path d="M0 430.708H799V582.022H0V430.708Z" fill="white"/>
</mask>
<g mask="url(#mask18_81_1250)">
<mask id="mask19_81_1250" style="mask-type:luminance" maskUnits="userSpaceOnUse" x="0" y="250" width="799" height="332">
<path fill-rule="evenodd" clip-rule="evenodd" d="M46.8401 483.937C49.8586 471.409 23.1735 469.33 23.6667 453.718C25.1108 408.189 76.2045 389.8 112.809 398.129C117.599 399.216 129.275 410.81 131.354 410.81C136.697 410.81 131.879 399.621 131.879 394.024C131.879 375.68 134.677 359.25 138.121 341.229C146.253 298.713 184.346 267.419 223.164 257.47C257.65 248.633 319.539 244.938 349.215 271.085C387.619 304.925 396.734 345.606 420.357 370.332C422.149 372.208 437.32 372.779 440.5 373.13C516.342 381.483 513.572 419.684 530.18 422.751C553.665 427.087 574.12 403.609 602.209 413.984C616.209 419.151 624.653 441.636 637.161 443.269C672.866 447.94 716.696 430.485 755.364 444.765C777.01 452.759 795.575 458.315 798.688 484.313C802.646 517.447 721.849 535.377 699.374 534.307C686.361 533.687 661.483 518.637 650.707 520.687C622.613 526.032 603.302 545.847 569.763 540.651C560.917 539.279 542.924 523.849 536.422 524.606C512.692 527.367 505.893 552.419 477.228 548.67C459.511 546.351 443.661 526.66 426.237 526.66C397.468 526.66 367.693 545.305 339.41 551.468C277.679 564.927 31.7082 618.627 3.1606 538.969C-11.1507 499.041 43.4231 498.148 46.8401 483.937Z" fill="white"/>
</mask>
<g mask="url(#mask19_81_1250)">
<path fill-rule="evenodd" clip-rule="evenodd" d="M42.5155 494.01C50.5452 500.268 32.1027 518.761 38.9091 533.327C49.3654 555.705 92.2045 550.175 110.446 548.91C177.397 544.276 244.57 536.774 309.359 516.963C345.218 505.993 375.348 495.854 413.61 500.855C438.239 504.079 462.522 517.781 486.764 518.852C502.267 519.538 513.856 506.799 528.704 505.356C552.773 503.013 574.037 518.997 598.252 517.285C620.889 515.69 638.838 504.894 661.068 501.835C694.706 497.201 726.331 535.489 751.564 498.445C762.21 482.801 770.251 463.973 754.634 452.305C751.304 449.812 727.341 439.586 732.352 435.655C756.828 416.448 826.829 463.597 826.829 498.445C826.829 576.43 693.179 603.499 640.684 614.114C491.259 644.333 334.458 641.898 182.921 640.39C116.577 639.732 32.4341 646.681 -26.7799 609.352C-81.4562 574.884 -54.5974 519.989 -9.26463 495.771C5.18078 488.05 34.4859 487.748 42.5155 494.01Z" fill="#EBEBEB"/>
</g>
</g>
<mask id="mask20_81_1250" style="mask-type:luminance" maskUnits="userSpaceOnUse" x="348" y="391" width="100" height="37">
<path d="M348.489 391.556H447.48V427.533H348.489V391.556Z" fill="white"/>
</mask>
<g mask="url(#mask20_81_1250)">
<mask id="mask21_81_1250" style="mask-type:luminance" maskUnits="userSpaceOnUse" x="0" y="250" width="799" height="332">
<path fill-rule="evenodd" clip-rule="evenodd" d="M46.8401 483.937C49.8586 471.409 23.1735 469.33 23.6667 453.718C25.1108 408.189 76.2045 389.8 112.809 398.129C117.599 399.216 129.275 410.81 131.354 410.81C136.697 410.81 131.879 399.621 131.879 394.024C131.879 375.68 134.677 359.25 138.121 341.229C146.253 298.713 184.346 267.419 223.164 257.47C257.65 248.633 319.539 244.938 349.215 271.085C387.619 304.925 396.734 345.606 420.357 370.332C422.149 372.208 437.32 372.779 440.5 373.13C516.342 381.483 513.572 419.684 530.18 422.751C553.665 427.087 574.12 403.609 602.209 413.984C616.209 419.151 624.653 441.636 637.161 443.269C672.866 447.94 716.696 430.485 755.364 444.765C777.01 452.759 795.575 458.315 798.688 484.313C802.646 517.447 721.849 535.377 699.374 534.307C686.361 533.687 661.483 518.637 650.707 520.687C622.613 526.032 603.302 545.847 569.763 540.651C560.917 539.279 542.924 523.849 536.422 524.606C512.692 527.367 505.893 552.419 477.228 548.67C459.511 546.351 443.661 526.66 426.237 526.66C397.468 526.66 367.693 545.305 339.41 551.468C277.679 564.927 31.7082 618.627 3.1606 538.969C-11.1507 499.041 43.4231 498.148 46.8401 483.937Z" fill="white"/>
</mask>
<g mask="url(#mask21_81_1250)">
<path d="M350.308 426.124C374.784 419.188 384.044 398.835 399.066 392.792C399.603 392.577 401.682 397.847 401.954 398.583C403.54 402.894 407.774 405.048 410.824 407.92C417.773 414.464 436.985 417.993 445.977 414.856" stroke="#DAD6D6" stroke-width="1.667" stroke-miterlimit="10" stroke-linecap="round" stroke-linejoin="round"/>
</g>
</g>
<mask id="mask22_81_1250" style="mask-type:luminance" maskUnits="userSpaceOnUse" x="141" y="410" width="76" height="40">
<path d="M141.416 410.603H216.164V449.754H141.416V410.603Z" fill="white"/>
</mask>
<g mask="url(#mask22_81_1250)">
<mask id="mask23_81_1250" style="mask-type:luminance" maskUnits="userSpaceOnUse" x="0" y="250" width="799" height="332">
<path fill-rule="evenodd" clip-rule="evenodd" d="M46.8401 483.937C49.8586 471.409 23.1735 469.33 23.6667 453.718C25.1108 408.189 76.2045 389.8 112.809 398.129C117.599 399.216 129.275 410.81 131.354 410.81C136.697 410.81 131.879 399.621 131.879 394.024C131.879 375.68 134.677 359.25 138.121 341.229C146.253 298.713 184.346 267.419 223.164 257.47C257.65 248.633 319.539 244.938 349.215 271.085C387.619 304.925 396.734 345.606 420.357 370.332C422.149 372.208 437.32 372.779 440.5 373.13C516.342 381.483 513.572 419.684 530.18 422.751C553.665 427.087 574.12 403.609 602.209 413.984C616.209 419.151 624.653 441.636 637.161 443.269C672.866 447.94 716.696 430.485 755.364 444.765C777.01 452.759 795.575 458.315 798.688 484.313C802.646 517.447 721.849 535.377 699.374 534.307C686.361 533.687 661.483 518.637 650.707 520.687C622.613 526.032 603.302 545.847 569.763 540.651C560.917 539.279 542.924 523.849 536.422 524.606C512.692 527.367 505.893 552.419 477.228 548.67C459.511 546.351 443.661 526.66 426.237 526.66C397.468 526.66 367.693 545.305 339.41 551.468C277.679 564.927 31.7082 618.627 3.1606 538.969C-11.1507 499.041 43.4231 498.148 46.8401 483.937Z" fill="white"/>
</mask>
<g mask="url(#mask23_81_1250)">
<path d="M143.022 412.042C155.731 437.164 189.771 448.399 214.914 448.399" stroke="#DAD6D6" stroke-width="1.667" stroke-miterlimit="10" stroke-linecap="round" stroke-linejoin="round"/>
</g>
</g>
<path fill-rule="evenodd" clip-rule="evenodd" d="M653.617 284.936C628.878 287.867 605.019 288.929 615.558 269.055C622.668 255.651 638.558 263.284 648.285 258.466C670.367 247.531 667.582 216.566 732.308 212.536C755.949 211.063 758.136 232.234 772.386 233.713C778.328 234.328 809.175 212.481 824.605 211.392C840.351 210.278 868.031 230.667 878.472 226.844C900.652 218.724 945.968 161.529 960.757 147.718C1007.15 104.393 1121.52 91.5615 1181.75 121.391C1205.62 133.209 1209.33 154.228 1225.14 169.61C1229.83 174.169 1263.75 160.123 1276.26 163.602C1299.75 170.134 1291.87 201.564 1304.89 212.965C1323.34 229.117 1361.47 212.965 1387.01 248.307C1418.69 292.152 1353.51 284.936 1320.57 284.936C1301.65 284.936 1287.43 309.458 1260.26 306.971C1253.71 306.372 1236.78 292.788 1232.13 294.237C1166.42 314.693 1146.93 350.926 1060.59 349.325C962.539 347.508 967.597 299.861 951.199 296.669C931.675 292.87 880.652 320.746 859.906 318.847C848.277 317.785 835.648 301.742 826.996 303.538C813.777 306.28 798.425 316.458 784.339 315.414C771.718 314.48 758.218 299.152 752.164 299.676C744.496 300.336 736.148 309.993 729.734 313.411C692.152 333.423 674.636 282.446 653.617 284.936Z" fill="white"/>
<mask id="mask24_81_1250" style="mask-type:luminance" maskUnits="userSpaceOnUse" x="623" y="225" width="773" height="125">
<path d="M623.808 225.672H1395.81V349.556H623.808V225.672Z" fill="white"/>
</mask>
<g mask="url(#mask24_81_1250)">
<mask id="mask25_81_1250" style="mask-type:luminance" maskUnits="userSpaceOnUse" x="613" y="105" width="783" height="245">
<path fill-rule="evenodd" clip-rule="evenodd" d="M653.617 284.936C628.878 287.867 605.019 288.929 615.558 269.055C622.667 255.651 638.558 263.284 648.285 258.466C670.367 247.531 667.582 216.566 732.308 212.536C755.949 211.063 758.136 232.234 772.386 233.713C778.328 234.328 809.175 212.481 824.605 211.392C840.351 210.278 868.031 230.667 878.472 226.844C900.652 218.724 945.968 161.529 960.757 147.718C1007.15 104.393 1121.52 91.5615 1181.75 121.391C1205.62 133.209 1209.33 154.228 1225.14 169.61C1229.83 174.169 1263.75 160.123 1276.26 163.602C1299.75 170.134 1291.87 201.564 1304.89 212.965C1323.34 229.117 1361.47 212.965 1387.01 248.307C1418.69 292.152 1353.51 284.936 1320.57 284.936C1301.65 284.936 1287.43 309.458 1260.26 306.971C1253.71 306.372 1236.78 292.788 1232.13 294.237C1166.42 314.693 1146.93 350.926 1060.59 349.325C962.539 347.508 967.597 299.861 951.199 296.669C931.675 292.87 880.652 320.746 859.906 318.847C848.277 317.785 835.648 301.742 826.996 303.538C813.777 306.28 798.425 316.458 784.339 315.414C771.718 314.48 758.218 299.152 752.164 299.676C744.496 300.336 736.148 309.993 729.734 313.411C692.152 333.423 674.636 282.446 653.617 284.936Z" fill="white"/>
</mask>
<g mask="url(#mask25_81_1250)">
<path fill-rule="evenodd" clip-rule="evenodd" d="M660.503 282.954C673.792 279.46 687.578 293.169 704.23 293.996C724.125 294.986 742.093 282.796 760.367 284.574C772.312 285.736 786.55 292.435 797.921 292.015C814.859 291.388 829.187 281.907 846.812 282.714C870.121 283.779 886.441 290.642 911.203 288.713C933.183 287.005 960.414 262.642 972.511 263.269C976.695 263.485 981.843 268.467 985.082 270.229C1016.23 287.2 1059.43 314.717 1101.6 300.896C1127.5 292.411 1148.87 281.49 1160.52 260.989C1164.86 253.338 1165.78 242.783 1163.68 234.58C1162.94 231.716 1156.76 227.389 1160.21 226.241C1163.08 225.282 1169.69 232.672 1171.23 233.683C1177.61 237.849 1187.15 239.076 1194.37 242.144C1207.36 247.659 1220.07 254.096 1232.46 259.547C1251 267.703 1280.21 266.784 1300.87 271.73C1321.59 276.694 1424.14 273.303 1422.55 288.113C1418.92 322.055 1266.93 351.06 1238.09 354.31C1172.91 361.657 1108.49 373.914 1043.15 380.174C951.75 388.934 857.695 391.457 765.921 385.516C724.027 382.804 616.792 362.117 624.492 314.939C628.781 288.646 647.214 286.442 660.503 282.954Z" fill="#F0EDED"/>
</g>
</g>
<mask id="mask26_81_1250" style="mask-type:luminance" maskUnits="userSpaceOnUse" x="965" y="201" width="118" height="25">
<path d="M965.808 201.519H1082.81V225.672H965.808V201.519Z" fill="white"/>
</mask>
<g mask="url(#mask26_81_1250)">
<mask id="mask27_81_1250" style="mask-type:luminance" maskUnits="userSpaceOnUse" x="613" y="105" width="783" height="245">
<path fill-rule="evenodd" clip-rule="evenodd" d="M653.617 284.936C628.878 287.867 605.019 288.929 615.558 269.055C622.667 255.651 638.558 263.284 648.285 258.466C670.367 247.531 667.582 216.566 732.308 212.536C755.949 211.063 758.136 232.234 772.386 233.713C778.328 234.328 809.175 212.481 824.605 211.392C840.351 210.278 868.031 230.667 878.472 226.844C900.652 218.724 945.968 161.529 960.757 147.718C1007.15 104.393 1121.52 91.5615 1181.75 121.391C1205.62 133.209 1209.33 154.228 1225.14 169.61C1229.83 174.169 1263.75 160.123 1276.26 163.602C1299.75 170.134 1291.87 201.564 1304.89 212.965C1323.34 229.117 1361.47 212.965 1387.01 248.307C1418.69 292.152 1353.51 284.936 1320.57 284.936C1301.65 284.936 1287.43 309.458 1260.26 306.971C1253.71 306.372 1236.78 292.788 1232.13 294.237C1166.42 314.693 1146.93 350.926 1060.59 349.325C962.539 347.508 967.597 299.861 951.199 296.669C931.675 292.87 880.652 320.746 859.906 318.847C848.277 317.785 835.648 301.742 826.996 303.538C813.777 306.28 798.425 316.458 784.339 315.414C771.718 314.48 758.218 299.152 752.164 299.676C744.496 300.336 736.148 309.993 729.734 313.411C692.152 333.423 674.636 282.446 653.617 284.936Z" fill="white"/>
</mask>
<g mask="url(#mask27_81_1250)">
<path d="M966.832 202.517C967.535 202.517 967.617 203.564 967.832 204.017C970.843 210.406 993.113 220.486 1001.07 221.843C1032.79 227.252 1052.34 224.783 1081.73 217.159" stroke="#CECECE" stroke-width="1.667" stroke-miterlimit="10" stroke-linecap="round" stroke-linejoin="round"/>
</g>
</g>
<path fill-rule="evenodd" clip-rule="evenodd" d="M741.07 772.167C727.211 761.871 663.52 780.774 679.551 748.692C692 723.787 733.539 738.423 745.828 724.755C756.66 712.721 763.43 655.745 823.23 680.124C826.68 681.53 792 639.889 810 596.257C814 583.401 839.752 557.997 860 551.456C880.5 544.833 893.74 549.426 902 554.183C913.5 560.805 923 580.674 938.5 586.517C966 591.582 1020.24 527.122 1154.73 538.015C1279.16 548.105 1338.97 654.221 1351.46 668.099C1363.77 681.786 1413.17 676.855 1413.17 711.497C1413.17 738.758 1399.09 734.768 1399.09 734.768C1399.09 734.768 1443.69 756.779 1382.61 783.002C1358.78 793.237 1307.83 794.446 1304.62 795.821C1223.47 830.667 1178.7 869.67 1077.11 860.052C1017.09 854.373 968.422 806.632 932.57 799.659C931.672 799.483 930.711 799.623 929.789 799.504C917.371 797.891 903.531 811.843 890.898 814.947C846.039 825.971 844.711 804.328 819.852 800.122C802.43 797.173 782.66 811.818 762.699 810.47C739.98 808.933 754.031 781.794 741.07 772.167Z" fill="white"/>
<mask id="mask28_81_1250" style="mask-type:luminance" maskUnits="userSpaceOnUse" x="676" y="701" width="739" height="161">
<path d="M676 701.441H1415V861.945H676V701.441Z" fill="white"/>
</mask>
<g mask="url(#mask28_81_1250)">
<mask id="mask29_81_1250" style="mask-type:luminance" maskUnits="userSpaceOnUse" x="676" y="537" width="739" height="325">
<path fill-rule="evenodd" clip-rule="evenodd" d="M741.07 772.167C727.211 761.871 663.52 780.774 679.551 748.692C692 723.787 733.539 738.423 745.828 724.755C756.66 712.72 763.43 655.745 823.23 680.124C826.68 681.53 834.281 687.426 837.52 686.455C852.141 682.078 855.109 665.856 876.809 663.443C883.762 662.669 908.941 667.977 913.121 665.607C917.672 663.032 920.129 636.48 924.039 630.548C939.59 606.954 1020.24 527.122 1154.73 538.015C1279.16 548.105 1338.97 654.221 1351.46 668.099C1363.77 681.786 1413.17 676.855 1413.17 711.497C1413.17 738.758 1399.09 734.768 1399.09 734.768C1399.09 734.768 1443.69 756.779 1382.61 783.002C1358.78 793.237 1307.83 794.446 1304.62 795.821C1223.47 830.667 1178.7 869.67 1077.11 860.052C1017.09 854.373 968.422 806.632 932.57 799.659C931.672 799.483 930.711 799.623 929.789 799.504C917.371 797.891 903.531 811.842 890.898 814.947C846.039 825.971 844.711 804.328 819.852 800.122C802.43 797.173 782.66 811.818 762.699 810.47C739.98 808.933 754.031 781.794 741.07 772.167Z" fill="white"/>
</mask>
<g mask="url(#mask29_81_1250)">
<path fill-rule="evenodd" clip-rule="evenodd" d="M682.09 755.945C687.199 752.503 696.32 756.401 702.328 756.648C722.711 757.482 737.371 749.121 757.82 755.945C769.828 759.95 769.391 776.534 785.738 779.505C812.16 784.302 834.84 765.919 854.059 769.659C874.75 773.683 883.051 788.912 906.84 782.74C985.719 762.278 1049.09 818.462 1131.32 810.659C1161.44 807.801 1205.74 795.636 1227.38 778.029C1242.93 765.377 1255.96 749.185 1276.36 741.035C1299.01 731.983 1329.36 740.061 1354.08 733.651C1368.69 729.859 1357.2 719.587 1366 714.449C1380.1 706.226 1417.82 694.538 1429.62 708.895C1440.39 721.982 1443.41 739.412 1444.72 754.609C1450.94 827.328 1290.94 883.67 1221.05 899.907C1074.58 933.934 922.801 924.414 784.211 875.434C739.469 859.62 663.75 834.441 648.66 792.796C638.961 766.034 673.141 761.968 682.09 755.945Z" fill="#EDEDED"/>
</g>
</g>
<mask id="mask30_81_1250" style="mask-type:luminance" maskUnits="userSpaceOnUse" x="1026" y="705" width="131" height="26">
<path d="M1026 705.337H1157V730.27H1026V705.337Z" fill="white"/>
</mask>
<g mask="url(#mask30_81_1250)">
<mask id="mask31_81_1250" style="mask-type:luminance" maskUnits="userSpaceOnUse" x="676" y="537" width="739" height="325">
<path fill-rule="evenodd" clip-rule="evenodd" d="M741.07 772.167C727.211 761.871 663.52 780.774 679.551 748.692C692 723.787 733.539 738.423 745.828 724.755C756.66 712.72 763.43 655.745 823.23 680.124C826.68 681.53 834.281 687.426 837.52 686.455C852.141 682.078 855.109 665.856 876.809 663.443C883.762 662.669 908.941 667.977 913.121 665.607C917.672 663.032 920.129 636.48 924.039 630.548C939.59 606.954 1020.24 527.122 1154.73 538.015C1279.16 548.105 1338.97 654.221 1351.46 668.099C1363.77 681.786 1413.17 676.855 1413.17 711.497C1413.17 738.758 1399.09 734.768 1399.09 734.768C1399.09 734.768 1443.69 756.779 1382.61 783.002C1358.78 793.237 1307.83 794.446 1304.62 795.821C1223.47 830.667 1178.7 869.67 1077.11 860.052C1017.09 854.373 968.422 806.632 932.57 799.659C931.672 799.483 930.711 799.623 929.789 799.504C917.371 797.891 903.531 811.842 890.898 814.947C846.039 825.971 844.711 804.328 819.852 800.122C802.43 797.173 782.66 811.818 762.699 810.47C739.98 808.933 754.031 781.794 741.07 772.167Z" fill="white"/>
</mask>
<g mask="url(#mask31_81_1250)">
<path d="M1027.68 706.545C1039.66 736.067 1140.44 735.307 1155.4 712.02" stroke="#D4D4D4" stroke-width="1.667" stroke-miterlimit="10" stroke-linecap="round" stroke-linejoin="round"/>
</g>
</g>
<mask id="mask32_81_1250" style="mask-type:luminance" maskUnits="userSpaceOnUse" x="858" y="715" width="82" height="24">
<path d="M858 715.466H940V738.84H858V715.466Z" fill="white"/>
</mask>
<g mask="url(#mask32_81_1250)">
<mask id="mask33_81_1250" style="mask-type:luminance" maskUnits="userSpaceOnUse" x="676" y="537" width="739" height="325">
<path fill-rule="evenodd" clip-rule="evenodd" d="M741.07 772.167C727.211 761.871 663.52 780.774 679.551 748.692C692 723.787 733.539 738.423 745.828 724.755C756.66 712.72 763.43 655.745 823.23 680.124C826.68 681.53 834.281 687.426 837.52 686.455C852.141 682.078 855.109 665.856 876.809 663.443C883.762 662.669 908.941 667.977 913.121 665.607C917.672 663.032 920.129 636.48 924.039 630.548C939.59 606.954 1020.24 527.122 1154.73 538.015C1279.16 548.105 1338.97 654.221 1351.46 668.099C1363.77 681.786 1413.17 676.855 1413.17 711.497C1413.17 738.758 1399.09 734.768 1399.09 734.768C1399.09 734.768 1443.69 756.779 1382.61 783.002C1358.78 793.237 1307.83 794.446 1304.62 795.821C1223.47 830.667 1178.7 869.67 1077.11 860.052C1017.09 854.373 968.422 806.632 932.57 799.659C931.672 799.483 930.711 799.623 929.789 799.504C917.371 797.891 903.531 811.842 890.898 814.947C846.039 825.971 844.711 804.328 819.852 800.122C802.43 797.173 782.66 811.818 762.699 810.47C739.98 808.933 754.031 781.794 741.07 772.167Z" fill="white"/>
</mask>
<g mask="url(#mask33_81_1250)">
<path d="M859.672 716.674C870.84 742.754 910.879 737.376 938.32 737.376" stroke="#D4D4D4" stroke-width="1.667" stroke-miterlimit="10" stroke-linecap="round" stroke-linejoin="round"/>
</g>
</g>
<path fill-rule="evenodd" clip-rule="evenodd" d="M158.54 835.124C133.069 846.77 95.2051 854.135 95.2673 821.365C95.2854 811.84 95.0905 804.637 97.7232 795.311C104.873 772.846 114.453 774.019 104.986 713.295C111.538 664.459 144.718 690.753 148.156 688.067C158.572 610.153 197.587 610.227 213.327 611.988C300.931 617.35 217.339 661.963 245.422 651.882C265.286 644.752 253.103 572.231 298.967 570.586C328.887 567.621 320.165 581.595 307.811 598.89C305.066 602.734 319.354 616.808 328.359 592.002C337.992 565.465 349.651 553.364 392.093 551.712C437.269 551.798 491.781 574.993 520.661 612.572C521.728 613.972 515.958 565.803 531.728 551.978C548.811 537 606.957 521.073 793.295 581.717C834.558 595.154 854.457 634.046 862.027 663.642C866.215 679.972 845.143 709.64 864.354 713.717C900.029 721.303 935.224 714.213 950.327 755.815C972.936 818.147 889.047 816.359 882.266 827.743C869.192 849.669 917.137 898.595 825.964 953.219C765.527 989.442 690.509 1001.87 625.381 968.312C615.246 963.097 609.987 944.483 602.245 941.203C598.088 939.441 587.719 956.118 585.539 958.269C547.297 995.698 437.811 987.237 392.224 967.256C378.775 961.377 354.75 923.785 349.292 923.012C344.571 922.331 281.918 911.893 255.538 911.843C219.892 911.776 229.662 863.703 203.416 872.259C174.195 881.76 150.842 881.716 158.54 835.124Z" fill="white"/>
<mask id="mask34_81_1250" style="mask-type:luminance" maskUnits="userSpaceOnUse" x="94" y="767" width="862" height="223">
<path d="M95.3009 767.055L955.014 768.687L954.595 989.21L94.8823 987.578L95.3009 767.055Z" fill="white"/>
</mask>
<g mask="url(#mask34_81_1250)">
<mask id="mask35_81_1250" style="mask-type:luminance" maskUnits="userSpaceOnUse" x="95" y="567" width="860" height="421">
<path fill-rule="evenodd" clip-rule="evenodd" d="M158.54 835.124C133.069 846.77 95.2051 854.135 95.2673 821.365C95.2854 811.84 95.0905 804.637 97.7231 795.311C98.7029 791.871 99.5593 788.644 101.127 785.341C102.926 781.583 106.888 778.889 110.326 776.203C143.166 750.625 171.178 778.154 181.858 774.71C183.57 774.163 214.773 723.638 242.856 713.557C244.306 713.037 247.194 712.699 248.66 712.549C278.58 709.584 292.269 737.974 312.164 736.893C316.94 736.636 341.848 734.261 343.857 729.426C359.641 691.377 379.37 661.833 428.09 648.567C472.182 636.564 531.104 635.462 559.984 673.041C561.051 674.441 571.623 685.605 573.245 685.076C601.583 675.952 606.957 521.073 793.295 581.717C834.558 595.155 854.457 634.046 862.027 663.642C866.215 679.972 845.143 709.64 864.354 713.718C900.029 721.304 935.224 714.213 950.327 755.815C972.936 818.147 889.047 816.359 882.266 827.743C869.192 849.669 917.136 898.595 825.964 953.219C765.527 989.442 690.509 1001.87 625.38 968.312C615.246 963.098 609.987 944.484 602.245 941.204C598.088 939.441 587.719 956.118 585.539 958.27C547.297 995.698 437.811 987.237 392.224 967.257C378.775 961.377 354.75 923.785 349.292 923.013C344.571 922.332 281.918 911.894 255.538 911.844C219.892 911.776 229.662 863.704 203.416 872.259C174.195 881.76 150.842 881.716 158.54 835.124Z" fill="white"/>
</mask>
<g mask="url(#mask35_81_1250)">
<path fill-rule="evenodd" clip-rule="evenodd" d="M85.3301 819.339C109.907 783.211 190.648 812.287 204.985 823.468C212.845 829.612 215.647 846.07 224.653 848.919C260.412 860.195 298.281 844.693 337.706 859.868C358.872 868.017 368.931 890.654 393.315 896.784C435.717 907.45 469.974 867.394 509.93 865.417C535.365 864.149 565.397 886.779 583.733 884.446C622.485 879.495 615.088 916.946 735.773 899.374C835.035 884.923 833.639 820.214 857.575 817.224C883.811 813.937 912.137 810.955 954.172 778.256C1040.82 710.877 901.073 1044.86 828.667 1081.29C704.973 1143.52 390.282 1131.05 261.908 1075.01C210.299 1052.47 174.701 1012.49 136.849 976.572C92.9716 934.96 64.7094 887.258 76.9963 831.861C79.1376 822.2 82.5148 823.488 85.3301 819.339Z" fill="#E0E0E0"/>
</g>
</g>
<mask id="mask36_81_1250" style="mask-type:luminance" maskUnits="userSpaceOnUse" x="575" y="702" width="78" height="76">
<path d="M575.934 702.156L652.597 702.302L652.454 777.349L575.792 777.203L575.934 702.156Z" fill="white"/>
</mask>
<g mask="url(#mask36_81_1250)">
<mask id="mask37_81_1250" style="mask-type:luminance" maskUnits="userSpaceOnUse" x="95" y="567" width="860" height="421">
<path fill-rule="evenodd" clip-rule="evenodd" d="M158.54 835.123C133.069 846.77 95.2051 854.135 95.2673 821.365C95.2854 811.84 95.0905 804.637 97.7232 795.31C98.703 791.871 99.5593 788.643 101.127 785.341C102.926 781.583 106.888 778.889 110.326 776.203C143.166 750.625 171.178 778.154 181.858 774.71C183.57 774.163 214.773 723.638 242.856 713.557C244.306 713.036 247.194 712.699 248.66 712.549C278.58 709.584 292.269 737.973 312.164 736.893C316.94 736.636 341.848 734.261 343.857 729.426C359.641 691.377 379.37 661.833 428.09 648.567C472.182 636.563 531.104 635.462 559.984 673.041C561.051 674.441 571.623 685.605 573.245 685.076C601.583 675.952 606.957 521.073 793.295 581.717C834.558 595.154 854.457 634.046 862.027 663.642C866.215 679.972 845.143 709.64 864.354 713.717C900.029 721.303 935.224 714.213 950.327 755.815C972.936 818.146 889.047 816.359 882.266 827.743C869.192 849.669 917.137 898.595 825.964 953.219C765.527 989.442 690.509 1001.87 625.38 968.312C615.246 963.097 609.987 944.483 602.245 941.203C598.088 939.441 587.719 956.118 585.539 958.269C547.297 995.698 437.811 987.237 392.224 967.256C378.775 961.377 354.75 923.785 349.292 923.012C344.571 922.331 281.918 911.893 255.538 911.843C219.892 911.776 229.662 863.703 203.416 872.259C174.195 881.76 150.842 881.716 158.54 835.123Z" fill="white"/>
</mask>
<g mask="url(#mask37_81_1250)">
<path d="M577.573 703.648C579.64 733.359 611.168 776.287 650.675 776.362" stroke="#E3E3E3" stroke-width="1.667" stroke-miterlimit="10" stroke-linecap="round" stroke-linejoin="round"/>
</g>
</g>
</svg>
