<svg width="406" height="521" viewBox="0 0 406 521" fill="none" xmlns="http://www.w3.org/2000/svg">
<path d="M282.968 328.578C270.859 329.929 259.963 329.765 250.229 328.338C210.122 322.456 189.756 295.126 185.711 264.007C184.283 253.018 184.891 241.556 187.382 230.4C191.171 213.436 199.318 197.178 211.292 184.357C219.434 175.64 229.345 168.513 240.859 163.834C248.074 160.902 255.919 158.931 264.353 158.133C295.591 155.177 321.995 169.092 339.581 190.12C348.471 200.751 355.107 213.2 358.975 226.206C359.004 226.303 359.032 226.4 359.061 226.496C366.829 252.919 363.17 281.601 343.775 301.994C330.882 315.551 311.034 325.445 282.968 328.578Z" fill="#F26A1B"/>
<path d="M148.225 211.992C100.371 186.062 48.2711 147.734 65.5405 145.008C100.472 139.495 144.377 152.929 176.97 167.072C191.079 173.194 203.068 179.449 211.292 184.357C199.318 197.178 191.171 213.436 187.382 230.4C175.934 226.138 162.262 219.599 148.225 211.992Z" fill="#F2B035"/>
<path d="M148.225 211.992C162.262 219.599 175.934 226.138 187.382 230.4C184.891 241.556 184.283 253.018 185.711 264.007C167.911 269.108 152.48 274.048 139.104 278.786C138.82 278.887 138.536 278.987 138.254 279.088C127.883 281.124 46.1726 264.9 40.5209 253.852C33.99 241.084 107.874 214.981 148.225 211.992Z" fill="#F8B31D"/>
<path d="M207.409 308.695C206.241 309.613 204.991 310.641 203.673 311.771C178.092 326.828 52.5798 338.736 52.6542 333.081C52.7219 327.935 59.6548 307.061 138.254 279.088C138.637 279.013 138.923 278.912 139.104 278.786C152.48 274.048 167.911 269.108 185.711 264.007C189.756 295.126 210.122 322.456 250.229 328.338C228.784 350.625 141.318 436.585 148.193 398.645C154.857 361.878 185.64 327.229 203.673 311.771C205.393 310.758 206.661 309.732 207.409 308.695Z" fill="#F8B31D"/>
<path d="M259.368 434.74C201.384 508.996 239.079 348.108 250.229 328.338C259.963 329.765 270.859 329.929 282.968 328.578C311.034 325.445 330.882 315.551 343.775 301.994C367.056 340.667 406.098 418.417 377.706 418.389C359.335 418.372 335.779 392.996 316.877 366.878C307.633 354.106 299.502 341.156 293.635 330.908C292.571 328.597 291.694 327.467 291.694 327.467C292.31 328.575 292.957 329.723 293.635 330.908C296.522 337.178 300.779 352.147 292.593 376.852C287.484 392.271 277.528 411.483 259.368 434.74Z" fill="#F8B31D"/>
<path d="M359.061 226.496C362.709 223.566 361.524 224.385 365.725 220.426C384.01 208.031 418.894 196.874 452.916 216.987C505.57 248.113 363.424 259.073 361.479 267.181C378.21 254.013 414.453 314.038 413.305 327.419C412.157 340.801 358.851 308.482 343.775 301.994C363.17 281.601 366.829 252.919 359.061 226.496Z" fill="#F8B31D"/>
<path d="M428.525 132.786C425.42 156.289 389.773 197.761 365.725 220.426C360.983 223.641 362.189 222.895 359.061 226.496C359.032 226.4 359.004 226.303 358.975 226.206C355.107 213.2 348.471 200.751 339.581 190.12C346.507 182.327 352.71 172.935 358.115 162.897C386.146 145.685 430.871 115.031 428.525 132.786Z" fill="#F8B31D"/>
<path d="M240.859 163.834C241.337 153.962 242.006 143.416 243.33 129.703C246.956 92.1631 254.114 45.3479 265.198 33.9095C267.759 31.2666 270.302 30.89 272.791 32.2664C299.215 75.1801 305.795 135.699 305.251 143.666C331.501 109.373 370.369 64.428 381.753 73.4836C386.978 80.8334 377.883 126.186 358.115 162.897C352.71 172.935 346.507 182.327 339.581 190.12C321.995 169.092 295.591 155.177 264.353 158.133C255.919 158.931 248.074 160.902 240.859 163.834Z" fill="#F8B31D"/>
<path d="M262.417 549.826C318.015 504.472 305.239 416.284 292.593 376.852C300.779 352.147 296.522 337.178 293.635 330.908C299.502 341.156 307.633 354.106 316.877 366.878C327.4 415.511 313.508 531.365 282.851 551.575L262.417 549.826Z" fill="#6E9E6E"/>
<path d="M176.97 167.072C168.719 131.317 151.912 59.3486 158.572 61.61C166.898 64.4367 206.478 80.5962 243.33 129.703C242.006 143.416 241.337 153.962 240.859 163.834C229.345 168.513 219.434 175.64 211.292 184.357C203.068 179.449 191.079 173.194 176.97 167.072Z" fill="#F8B31D"/>
<path d="M359.061 226.497C362.709 223.566 361.524 224.385 365.725 220.426M359.061 226.497C362.189 222.895 360.983 223.641 365.725 220.426M359.061 226.497C366.829 252.919 363.17 281.6 343.775 301.994M359.061 226.497C359.032 226.4 359.004 226.303 358.975 226.206M365.725 220.426C389.773 197.761 425.42 156.289 428.525 132.786C430.871 115.031 386.146 145.685 358.115 162.897M365.725 220.426C384.01 208.031 418.894 196.874 452.916 216.987C505.57 248.113 363.424 259.073 361.479 267.181C378.21 254.013 414.453 314.038 413.305 327.419C412.157 340.801 358.851 308.482 343.775 301.994M357.929 163.012C357.991 162.974 358.053 162.936 358.115 162.897M176.97 167.072C168.719 131.317 151.912 59.3486 158.572 61.61C166.898 64.4367 206.478 80.5963 243.33 129.703M176.97 167.072C191.079 173.194 203.068 179.449 211.292 184.357M176.97 167.072C144.377 152.929 100.472 139.495 65.5405 145.008M243.33 129.703C242.006 143.416 241.337 153.962 240.859 163.834M243.33 129.703C246.956 92.1631 254.114 45.3479 265.198 33.9095M240.859 163.834C242.645 126.936 250.065 49.5261 265.198 33.9095M240.859 163.834C229.345 168.513 219.434 175.64 211.292 184.357M240.859 163.834C248.074 160.902 255.919 158.931 264.353 158.133M265.198 33.9095C267.759 31.2666 270.302 30.89 272.791 32.2664C299.215 75.1801 305.795 135.699 305.251 143.666M305.251 143.666C300.563 149.79 296.588 155.133 292.934 160.21M305.251 143.666C331.501 109.373 370.369 64.428 381.753 73.4836C386.978 80.8334 377.883 126.186 358.115 162.897M339.581 190.12C321.995 169.092 295.591 155.177 264.353 158.133M339.581 190.12C348.471 200.751 355.107 213.2 358.975 226.206M339.581 190.12C346.507 182.327 352.71 172.935 358.115 162.897M211.37 184.403C211.344 184.388 211.318 184.372 211.292 184.357M65.5405 145.008C43.2056 148.534 136.904 211.61 187.382 230.4M65.5405 145.008C48.2711 147.734 100.371 186.062 148.225 211.992M187.382 230.4C184.891 241.556 184.283 253.018 185.711 264.007M187.382 230.4C191.171 213.436 199.318 197.178 211.292 184.357M187.382 230.4C175.934 226.138 162.262 219.599 148.225 211.992M148.225 211.992C107.874 214.981 33.99 241.084 40.5209 253.852C46.1726 264.9 127.883 281.124 138.254 279.088M139.209 278.698C139.179 278.728 139.144 278.758 139.104 278.786M250.229 328.338C228.785 350.625 141.318 436.585 148.193 398.645C154.857 361.878 185.64 327.229 203.673 311.771M250.229 328.338C239.079 348.108 201.384 508.996 259.368 434.74C277.528 411.483 287.484 392.271 292.593 376.852M250.229 328.338C259.963 329.765 270.859 329.929 282.968 328.578C311.034 325.445 330.882 315.551 343.775 301.994M250.229 328.338C210.122 322.456 189.756 295.126 185.711 264.007M250.229 328.338C174.425 317.221 169.14 229.488 211.292 184.357M293.635 330.908C292.571 328.597 291.694 327.467 291.694 327.467C292.31 328.575 292.957 329.723 293.635 330.908ZM293.635 330.908C296.522 337.178 300.779 352.147 292.593 376.852M293.635 330.908C299.502 341.156 307.633 354.106 316.877 366.878M343.775 301.994C367.056 340.667 406.098 418.417 377.706 418.389C359.335 418.372 335.779 392.996 316.877 366.878M343.775 301.994C363.241 281.526 366.856 252.708 358.975 226.206M264.353 158.133C242.461 160.204 224.535 170.178 211.292 184.357M264.353 158.133C311.383 153.683 347.457 187.472 358.975 226.206M185.711 264.007C167.911 269.108 152.48 274.048 139.104 278.786M292.593 376.852C305.239 416.284 318.015 504.472 262.417 549.826L282.851 551.575C313.508 531.365 327.4 415.511 316.877 366.878M139.104 278.786C138.82 278.887 138.536 278.987 138.254 279.088M139.104 278.786C138.923 278.912 138.637 279.013 138.254 279.088M138.254 279.088C59.6548 307.061 52.7219 327.935 52.6542 333.081C52.5798 338.736 178.092 326.828 203.673 311.771M203.673 311.771C204.991 310.641 206.241 309.613 207.409 308.695C206.661 309.732 205.393 310.758 203.673 311.771Z" stroke="black"/>
</svg>
