<svg width="1382" height="1321" viewBox="0 0 1382 1321" fill="none" xmlns="http://www.w3.org/2000/svg">
<g filter="url(#filter0_dd_190_1970)">
<g filter="url(#filter1_d_190_1970)">
<path fill-rule="evenodd" clip-rule="evenodd" d="M76.2366 423.393C33.0465 427.129 3.70655 413.917 38.8345 373.041C54.9758 354.261 83.6415 366.55 97.8744 356.625C111.347 347.209 106.056 317.25 126.569 304.523C128.706 303.187 131.237 302.295 133.625 301.45C135.042 300.953 136.436 300.391 137.865 299.918C150.566 295.698 165.982 321.075 175.97 312.616C181.518 307.928 181.929 290.508 184.906 283.94C217.771 211.291 237.455 180.629 322.978 147.112C384.143 123.142 498.629 134.427 536.786 190.241C545.739 203.346 553.778 238.317 564.777 246.504C567.474 248.514 597.779 228.558 601.939 227.677C627.942 222.185 649.34 235.107 670.15 246.942C681.805 253.568 688.176 296.378 691.319 297.288C717.488 304.902 746.793 262.908 781.407 281.31C810.867 296.986 792.2 339.69 792.697 339.991C800.165 344.324 861.805 327.465 869.85 325.751C898.978 319.562 948.276 315.465 975.931 325.751C989.01 330.628 987.535 355.928 1001.57 357.063C1039.64 360.137 1085.87 327.719 1092.83 389.238C1098.06 435.434 899.761 471.576 852.68 449.663C843.355 445.336 833.613 432.018 824.214 430.185C806.947 426.798 788.212 450.148 771.997 454.262C731.355 464.583 707.42 443.852 676.035 445.939C663.047 446.802 651.717 462.963 635.81 463.903C601.728 465.883 572.913 417.653 546.665 425.799C485.882 444.65 465.335 528.578 377.778 537.883C340.919 541.808 248.545 544.953 223.011 512.281C218.663 506.712 212.166 480.212 207.955 478.563C189.351 471.269 161.525 509.438 132.922 501.115C128.843 499.915 53.9702 463.903 76.2366 423.393Z" fill="white"/>
<mask id="mask0_190_1970" style="mask-type:luminance" maskUnits="userSpaceOnUse" x="31" y="376" width="1063" height="166">
<path d="M31.2635 376.599H1093.19V541.548H31.2635V376.599Z" fill="white"/>
</mask>
<g mask="url(#mask0_190_1970)">
<mask id="mask1_190_1970" style="mask-type:luminance" maskUnits="userSpaceOnUse" x="23" y="135" width="1070" height="406">
<path fill-rule="evenodd" clip-rule="evenodd" d="M76.2363 423.393C33.0463 427.129 3.70631 413.917 38.8343 373.041C54.9755 354.261 83.6413 366.55 97.8742 356.625C111.347 347.209 106.056 317.25 126.568 304.523C128.705 303.187 131.237 302.295 133.625 301.45C135.042 300.953 136.436 300.391 137.865 299.918C150.566 295.698 165.982 321.075 175.969 312.616C181.517 307.928 181.929 290.508 184.906 283.94C217.771 211.291 237.455 180.629 322.978 147.112C384.143 123.142 498.629 134.427 536.785 190.241C545.739 203.346 553.778 238.317 564.777 246.504C567.474 248.514 597.779 228.558 601.939 227.677C627.942 222.185 649.34 235.107 670.149 246.942C681.805 253.568 688.176 296.378 691.318 297.288C717.487 304.902 746.793 262.908 781.407 281.31C810.867 296.986 792.2 339.69 792.697 339.991C800.165 344.324 861.805 327.465 869.849 325.751C898.978 319.562 948.276 315.465 975.93 325.751C989.009 330.628 987.535 355.928 1001.57 357.063C1039.64 360.137 1085.87 327.719 1092.83 389.238C1098.06 435.434 899.761 471.576 852.68 449.663C843.355 445.336 833.613 432.018 824.214 430.185C806.947 426.798 788.212 450.148 771.996 454.262C731.355 464.583 707.42 443.852 676.034 445.939C663.047 446.802 651.717 462.963 635.81 463.903C601.727 465.883 572.913 417.653 546.664 425.799C485.882 444.65 465.335 528.578 377.778 537.883C340.919 541.808 248.545 544.953 223.01 512.281C218.662 506.712 212.166 480.212 207.955 478.563C189.351 471.269 161.525 509.438 132.922 501.115C128.843 499.915 53.9699 463.903 76.2363 423.393Z" fill="white"/>
</mask>
<g mask="url(#mask1_190_1970)">
<path fill-rule="evenodd" clip-rule="evenodd" d="M81.4415 427.596C98.1656 433.058 125.791 469.377 155.783 466.279C180.917 463.672 195.579 437.101 223.245 443.988C275.251 456.922 322.269 499.737 376.79 481.471C399.347 473.905 481.882 423.831 479.682 396.562C478.917 387.027 444.72 395.563 439.926 389.9C436.949 386.377 457.553 382.623 459.696 382.138C469.146 379.987 479.665 378.733 489.413 378.201C538.339 375.541 573.204 412.434 619.48 418.41C648.814 422.211 669.629 404.128 697.946 401.037C720.544 398.589 737.96 413.143 760.335 411.316C779.687 409.738 805.85 389.539 825.162 396.012C826.351 396.408 827.465 397.029 828.648 397.437C882.654 416.034 952.853 424.782 1009.05 413.722C1031.45 409.301 1052.44 399.724 1074.73 394.924C1093.36 390.917 1126.51 395.119 1128.13 420.166C1130.74 460.616 1022.34 508.409 994.146 516.111C968.263 523.175 941.831 523.962 915.468 527.473C854.72 535.542 794.428 543.179 734.537 557.195C562.497 597.433 344.804 678.411 166.673 626.593C123.209 613.943 55.9412 569.407 41.1484 520.149C29.8238 482.441 25.3728 457.891 55.427 433.501C63.9061 426.615 72.9738 424.83 81.4415 427.596Z" fill="#D2D2D2"/>
</g>
</g>
<path d="M187.797 333.181C203.441 367.201 238.403 383.563 273.205 389.687C281.862 391.218 292.764 388.647 300.888 391.431" stroke="#BEBEBE" stroke-width="1.667" stroke-miterlimit="10" stroke-linecap="round" stroke-linejoin="round"/>
<path d="M515.97 308.986C540.682 296.413 554.298 282.185 571.599 260.727" stroke="#BEBEBE" stroke-width="1.667" stroke-miterlimit="10" stroke-linecap="round" stroke-linejoin="round"/>
<path fill-rule="evenodd" clip-rule="evenodd" d="M455.055 535.014C426.544 550.446 384.141 560.261 384.141 517.016C384.141 504.446 383.907 494.942 386.837 482.628C394.799 452.965 405.534 454.489 394.799 374.38C402.036 309.918 439.263 344.532 443.109 340.979C454.612 238.135 498.322 238.135 515.959 240.421C614.114 247.277 520.56 306.359 552 292.986C574.238 283.526 560.435 187.856 611.814 185.571C645.327 181.583 635.585 200.045 621.782 222.899C618.715 227.978 634.752 246.515 644.788 213.758C655.523 178.715 668.559 162.717 716.103 160.431C766.715 160.431 827.834 190.903 860.269 240.421C861.467 242.266 854.901 178.715 872.538 160.431C891.645 140.624 956.752 119.46 1165.64 199.021C1211.89 216.65 1234.27 267.923 1242.81 306.96C1247.54 328.499 1223.99 367.702 1245.53 373.035C1285.51 382.956 1324.92 373.511 1341.93 428.373C1367.39 510.571 1273.41 508.422 1265.84 523.462C1251.24 552.428 1305.05 616.872 1203.03 689.184C1135.4 737.136 1051.38 753.724 978.343 709.604C966.979 702.748 961.048 678.198 952.367 673.889C947.706 671.573 936.125 693.606 933.687 696.451C890.924 745.939 768.248 735.047 717.134 708.795C702.055 701.07 675.06 651.523 668.943 650.517C663.653 649.63 593.439 636.013 563.886 636.013C523.951 636.013 534.794 572.551 505.409 583.906C472.692 596.518 446.53 596.518 455.055 535.014Z" fill="white"/>
<mask id="mask2_190_1970" style="mask-type:luminance" maskUnits="userSpaceOnUse" x="384" y="445" width="964" height="292">
<path d="M384.063 445.347H1347.21V736.357H384.063V445.347Z" fill="white"/>
</mask>
<g mask="url(#mask2_190_1970)">
<mask id="mask3_190_1970" style="mask-type:luminance" maskUnits="userSpaceOnUse" x="384" y="180" width="963" height="556">
<path fill-rule="evenodd" clip-rule="evenodd" d="M455.055 535.014C426.544 550.446 384.141 560.261 384.141 517.016C384.141 504.446 383.907 494.942 386.837 482.628C387.927 478.087 388.88 473.825 390.629 469.463C392.636 464.499 397.069 460.934 400.915 457.381C437.652 423.546 469.092 459.803 481.05 455.232C482.967 454.506 517.816 387.753 549.256 374.38C550.88 373.689 554.115 373.237 555.756 373.035C589.27 369.047 604.666 406.477 626.952 405.001C632.302 404.65 660.202 401.454 662.443 395.068C680.044 344.818 702.085 305.781 756.638 288.153C806.009 272.202 872.017 270.601 904.452 320.119C905.65 321.964 917.518 336.67 919.333 335.968C951.061 323.856 956.752 119.46 1165.64 199.021C1211.89 216.65 1234.27 267.923 1242.81 306.96C1247.54 328.499 1223.99 367.702 1245.53 373.035C1285.51 382.956 1324.92 373.511 1341.93 428.373C1367.39 510.571 1273.41 508.422 1265.84 523.462C1251.24 552.428 1305.05 616.872 1203.03 689.184C1135.4 737.137 1051.38 753.724 978.344 709.604C966.979 702.748 961.048 678.198 952.367 673.889C947.706 671.574 936.125 693.607 933.687 696.451C890.924 745.939 768.248 735.048 717.134 708.795C702.055 701.07 675.06 651.523 668.943 650.517C663.653 649.63 593.439 636.013 563.886 636.013C523.951 636.013 534.794 572.551 505.409 583.906C472.692 596.518 446.53 596.518 455.055 535.014Z" fill="white"/>
</mask>
<g mask="url(#mask3_190_1970)">
<path fill-rule="evenodd" clip-rule="evenodd" d="M373.004 514.368C400.46 466.63 490.977 504.797 507.062 519.516C515.881 527.604 519.056 549.316 529.151 553.053C569.236 567.843 611.628 547.292 655.829 567.218C679.559 577.919 690.876 607.766 718.206 615.795C765.732 629.764 804.026 576.818 848.784 574.11C877.277 572.372 910.97 602.16 931.507 599.035C974.911 592.405 966.703 641.845 1101.87 618.354C1213.04 599.035 1211.34 513.648 1238.15 509.642C1267.54 505.238 1299.26 501.232 1346.29 457.976C1443.22 368.845 1287.37 809.931 1206.33 858.187C1067.88 940.611 715.307 924.952 571.369 851.312C513.503 821.697 473.537 769.025 431.056 721.728C381.81 666.925 350.047 604.047 363.694 530.913C366.072 518.159 369.859 519.849 373.004 514.368Z" fill="#E1DFDF"/>
</g>
</g>
<mask id="mask4_190_1970" style="mask-type:luminance" maskUnits="userSpaceOnUse" x="922" y="358" width="87" height="100">
<path d="M922.383 358.501H1008.27V457.536H922.383V358.501Z" fill="white"/>
</mask>
<g mask="url(#mask4_190_1970)">
<mask id="mask5_190_1970" style="mask-type:luminance" maskUnits="userSpaceOnUse" x="384" y="180" width="963" height="556">
<path fill-rule="evenodd" clip-rule="evenodd" d="M455.055 535.014C426.545 550.446 384.141 560.261 384.141 517.016C384.141 504.446 383.907 494.942 386.837 482.628C387.927 478.087 388.88 473.825 390.629 469.463C392.636 464.499 397.069 460.934 400.915 457.381C437.652 423.546 469.092 459.803 481.05 455.232C482.967 454.506 517.816 387.753 549.256 374.38C550.88 373.689 554.115 373.237 555.757 373.035C589.27 369.047 604.666 406.477 626.953 405.001C632.302 404.65 660.202 401.454 662.443 395.068C680.044 344.818 702.085 305.781 756.638 288.153C806.009 272.202 872.017 270.601 904.452 320.119C905.65 321.964 917.518 336.67 919.333 335.968C951.061 323.856 956.752 119.46 1165.64 199.021C1211.89 216.65 1234.27 267.923 1242.81 306.96C1247.54 328.499 1223.99 367.702 1245.53 373.035C1285.51 382.956 1324.92 373.511 1341.93 428.373C1367.39 510.571 1273.41 508.422 1265.84 523.462C1251.24 552.428 1305.05 616.872 1203.03 689.184C1135.4 737.137 1051.38 753.724 978.344 709.604C966.979 702.748 961.048 678.198 952.367 673.889C947.706 671.574 936.126 693.607 933.687 696.451C890.924 745.939 768.248 735.048 717.134 708.795C702.055 701.07 675.06 651.523 668.943 650.517C663.653 649.63 593.439 636.013 563.886 636.013C523.951 636.013 534.794 572.551 505.409 583.906C472.693 596.518 446.53 596.518 455.055 535.014Z" fill="white"/>
</mask>
<g mask="url(#mask5_190_1970)">
<path d="M924.222 360.465C926.6 399.668 962.012 456.238 1006.27 456.238" stroke="#B4B4B4" stroke-width="1.667" stroke-miterlimit="10" stroke-linecap="round" stroke-linejoin="round"/>
</g>
</g>
<path fill-rule="evenodd" clip-rule="evenodd" d="M290.411 951.103C255.951 938.275 187.028 912.645 240.169 821.715C270.225 770.306 288.946 759.785 311.08 748.019C334.956 735.305 370.279 761.9 388.908 749.528C440.702 715.044 431.656 632.108 507.429 659.248C518.329 663.152 527.18 694.96 536.494 685.325C559.179 661.854 555.225 569.125 619.96 564.475C655.005 561.965 700.668 676.095 704.647 672.295C733.595 644.621 750.163 451.337 865.15 421.574C888.45 415.529 916.588 405.438 940.395 408.544C1105.05 429.84 1054.64 548.69 1100.89 596.581C1117.7 613.963 1175.64 529.167 1206.5 564.475C1227.8 588.85 1211.77 647.411 1226.52 663.266C1245.15 683.281 1302.26 653.272 1330.83 672.795C1397.21 718.142 1333.42 752.985 1333.42 787.618C1333.42 813.362 1377.11 796.024 1377.98 821.715C1378.92 849.732 1346.01 879.179 1332.12 893.938C1287.41 941.425 1195.61 948.725 1143.85 934.546C1131.56 931.176 1117.9 900.273 1108.65 901.957C1069.7 909.074 1024.77 980.866 978.179 991.22C926.683 1002.64 839.892 1010.45 788.611 991.711C773.605 986.236 759.228 949.331 749.533 951.103C695.518 960.966 623.831 951.779 565.881 964.625C532.979 971.925 542.489 927.026 517.441 927.026C498.08 927.026 479.691 953.779 459.633 956.605C404.978 964.335 328.6 955.508 290.411 951.103Z" fill="white"/>
<mask id="mask6_190_1970" style="mask-type:luminance" maskUnits="userSpaceOnUse" x="219" y="840" width="1159" height="165">
<path d="M219.529 840.475H1378V1004.45H219.529V840.475Z" fill="white"/>
</mask>
<g mask="url(#mask6_190_1970)">
<mask id="mask7_190_1970" style="mask-type:luminance" maskUnits="userSpaceOnUse" x="220" y="407" width="1158" height="596">
<path fill-rule="evenodd" clip-rule="evenodd" d="M290.411 951.103C255.951 938.275 187.027 912.645 240.169 821.715C270.225 770.306 288.946 759.785 311.08 748.019C334.956 735.305 370.279 761.9 388.907 749.528C440.702 715.044 431.656 632.108 507.429 659.248C518.329 663.152 527.18 694.96 536.494 685.325C559.179 661.854 555.225 569.125 619.96 564.475C655.005 561.965 700.668 676.095 704.647 672.295C733.595 644.621 750.163 451.337 865.15 421.574C888.45 415.529 916.588 405.438 940.395 408.544C1105.05 429.84 1054.64 548.69 1100.89 596.581C1117.7 613.963 1175.64 529.167 1206.5 564.475C1227.8 588.85 1211.77 647.411 1226.52 663.266C1245.15 683.281 1302.26 653.272 1330.83 672.795C1397.21 718.142 1333.42 752.985 1333.42 787.618C1333.42 813.362 1377.11 796.024 1377.98 821.715C1378.92 849.732 1346.01 879.179 1332.12 893.938C1287.41 941.425 1195.61 948.725 1143.85 934.546C1131.56 931.176 1117.9 900.273 1108.65 901.957C1069.7 909.074 1024.77 980.866 978.179 991.22C926.683 1002.64 839.892 1010.45 788.611 991.711C773.605 986.236 759.228 949.331 749.533 951.103C695.518 960.966 623.831 951.779 565.881 964.625C532.979 971.925 542.489 927.026 517.441 927.026C498.08 927.026 479.691 953.779 459.633 956.605C404.978 964.335 328.6 955.508 290.411 951.103Z" fill="white"/>
</mask>
<g mask="url(#mask7_190_1970)">
<path fill-rule="evenodd" clip-rule="evenodd" d="M220.813 901.773C237.757 895.061 252.71 880.144 269.063 873.221C328.487 848.021 399.486 830.928 460.145 847.258C519.12 863.139 559.125 931.404 620.966 925.113C655.528 921.612 716.016 875.046 739.501 878.574C781.093 884.795 819.091 919.989 859.663 934.212C897.315 947.4 936.236 929.29 973.41 920.577C1012.94 911.32 1046.47 859.121 1085.53 846.134C1141.69 827.445 1196.48 895.35 1252.04 885.374C1276.3 881.022 1377.06 833.894 1391.27 843.037C1412.52 856.734 1403.38 892.165 1391.45 914.575C1351.15 990.211 1175.33 1034.33 1124.29 1044.35C992.756 1070.15 861.928 1116.07 729.65 1129.35C647.619 1137.57 566.145 1118.52 484.451 1120.58C403.23 1122.63 280.774 1161.85 227.862 1017.1C210.054 968.38 211.421 945.514 222.17 902.089" fill="#D2D1D1"/>
</g>
</g>
<mask id="mask8_190_1970" style="mask-type:luminance" maskUnits="userSpaceOnUse" x="1009" y="674" width="116" height="66">
<path d="M1009.34 674.252H1124.31V739.393H1009.34V674.252Z" fill="white"/>
</mask>
<g mask="url(#mask8_190_1970)">
<mask id="mask9_190_1970" style="mask-type:luminance" maskUnits="userSpaceOnUse" x="220" y="407" width="1158" height="596">
<path fill-rule="evenodd" clip-rule="evenodd" d="M290.411 951.103C255.951 938.275 187.028 912.645 240.169 821.715C270.225 770.306 288.946 759.785 311.08 748.019C334.956 735.305 370.279 761.9 388.908 749.528C440.702 715.044 431.656 632.108 507.429 659.248C518.33 663.152 527.18 694.96 536.494 685.325C559.179 661.854 555.225 569.125 619.96 564.475C655.005 561.965 700.668 676.095 704.647 672.295C733.595 644.621 750.163 451.337 865.15 421.574C888.45 415.529 916.588 405.438 940.396 408.544C1105.05 429.84 1054.64 548.69 1100.89 596.581C1117.7 613.963 1175.64 529.167 1206.5 564.475C1227.8 588.85 1211.77 647.411 1226.52 663.266C1245.15 683.281 1302.26 653.272 1330.83 672.795C1397.21 718.142 1333.42 752.985 1333.42 787.618C1333.42 813.362 1377.11 796.024 1377.98 821.715C1378.92 849.732 1346.01 879.179 1332.12 893.938C1287.41 941.425 1195.61 948.725 1143.85 934.546C1131.56 931.176 1117.9 900.273 1108.65 901.957C1069.71 909.074 1024.77 980.866 978.179 991.22C926.683 1002.64 839.892 1010.45 788.611 991.711C773.605 986.236 759.228 949.331 749.533 951.103C695.518 960.966 623.831 951.779 565.882 964.625C532.979 971.925 542.489 927.026 517.441 927.026C498.081 927.026 479.691 953.779 459.633 956.605C404.978 964.335 328.6 955.508 290.411 951.103Z" fill="white"/>
</mask>
<g mask="url(#mask9_190_1970)">
<path d="M1011.61 735.866C1048.8 735.866 1054.42 686.852 1068.35 677.218C1070.18 675.963 1072.64 686.606 1073.63 688.765C1077.01 696.179 1081.32 702.102 1086.28 705.77C1097.41 713.992 1110.87 702.128 1122.06 702.128" stroke="#C9C7C7" stroke-width="1.667" stroke-miterlimit="10" stroke-linecap="round" stroke-linejoin="round"/>
</g>
</g>
<mask id="mask10_190_1970" style="mask-type:luminance" maskUnits="userSpaceOnUse" x="731" y="669" width="53" height="87">
<path d="M731.906 669.76H783.143V755.117H731.906V669.76Z" fill="white"/>
</mask>
<g mask="url(#mask10_190_1970)">
<mask id="mask11_190_1970" style="mask-type:luminance" maskUnits="userSpaceOnUse" x="220" y="407" width="1158" height="596">
<path fill-rule="evenodd" clip-rule="evenodd" d="M290.411 951.103C255.951 938.275 187.028 912.645 240.169 821.715C270.225 770.306 288.946 759.785 311.08 748.019C334.956 735.305 370.279 761.9 388.908 749.528C440.702 715.044 431.656 632.108 507.429 659.248C518.329 663.152 527.18 694.96 536.494 685.325C559.179 661.854 555.225 569.125 619.96 564.475C655.005 561.966 700.668 676.095 704.647 672.295C733.595 644.621 750.163 451.337 865.15 421.574C888.45 415.529 916.588 405.438 940.395 408.544C1105.05 429.84 1054.64 548.69 1100.89 596.581C1117.7 613.963 1175.64 529.167 1206.5 564.475C1227.8 588.85 1211.77 647.411 1226.52 663.266C1245.15 683.281 1302.26 653.272 1330.83 672.796C1397.21 718.142 1333.42 752.985 1333.42 787.618C1333.42 813.362 1377.11 796.024 1377.98 821.715C1378.92 849.732 1346.01 879.179 1332.12 893.938C1287.41 941.425 1195.61 948.725 1143.85 934.546C1131.56 931.177 1117.9 900.273 1108.65 901.958C1069.71 909.074 1024.77 980.866 978.179 991.22C926.683 1002.64 839.892 1010.45 788.611 991.711C773.605 986.236 759.228 949.331 749.533 951.103C695.518 960.966 623.831 951.779 565.881 964.625C532.979 971.925 542.489 927.026 517.441 927.026C498.08 927.026 479.691 953.779 459.633 956.605C404.978 964.335 328.6 955.508 290.411 951.103Z" fill="white"/>
</mask>
<g mask="url(#mask11_190_1970)">
<path d="M733.058 673.848C747.136 709.227 756.324 738.156 781.122 753.003" stroke="#C9C7C7" stroke-width="1.667" stroke-miterlimit="10" stroke-linecap="round" stroke-linejoin="round"/>
</g>
</g>
<path fill-rule="evenodd" clip-rule="evenodd" d="M143.906 1014.72C122.919 986 26.4756 1038.72 50.7507 949.243C69.6018 879.778 132.502 920.601 151.11 882.477C167.513 848.912 177.763 689.999 268.316 757.995C273.539 761.917 221.025 645.772 248.282 524.074C254.339 488.217 293.334 417.361 323.994 399.117C355.035 380.645 375.084 393.455 387.591 406.723C405.005 425.195 419.39 480.611 442.861 496.909C484.503 511.035 566.632 331.247 770.285 361.629C958.701 389.77 1049.27 685.746 1068.18 724.455C1086.82 762.63 1161.63 748.878 1161.63 845.499C1161.63 921.535 1140.3 910.406 1140.3 910.406C1140.3 910.406 1207.84 971.798 1115.35 1044.94C1079.27 1073.49 1002.11 1076.86 997.255 1080.69C874.371 1177.88 806.58 1286.67 652.749 1259.84C561.865 1244 488.17 1110.85 433.882 1091.4C432.522 1090.91 431.067 1091.3 429.671 1090.97C410.867 1086.47 389.91 1125.38 370.781 1134.04C302.853 1164.79 300.842 1104.42 263.199 1092.69C236.818 1084.46 206.883 1125.31 176.657 1121.55C142.256 1117.26 163.532 1041.57 143.906 1014.72Z" fill="white"/>
<mask id="mask12_190_1970" style="mask-type:luminance" maskUnits="userSpaceOnUse" x="45" y="817" width="1120" height="449">
<path d="M45.3739 817.452H1164.39V1265.13H45.3739V817.452Z" fill="white"/>
</mask>
<g mask="url(#mask12_190_1970)">
<mask id="mask13_190_1970" style="mask-type:luminance" maskUnits="userSpaceOnUse" x="46" y="358" width="1119" height="906">
<path fill-rule="evenodd" clip-rule="evenodd" d="M143.906 1014.72C122.919 986 26.4756 1038.73 50.7507 949.243C69.6018 879.778 132.502 920.601 151.11 882.477C167.513 848.912 177.763 689.999 268.316 757.996C273.539 761.917 285.049 778.361 289.953 775.653C312.093 763.445 316.588 718.199 349.446 711.468C359.974 709.311 398.102 724.116 404.431 717.503C411.322 710.322 415.043 636.264 420.964 619.719C444.511 553.913 566.632 331.248 770.285 361.63C958.701 389.77 1049.27 685.746 1068.18 724.456C1086.82 762.63 1161.63 748.878 1161.63 845.5C1161.63 921.535 1140.3 910.406 1140.3 910.406C1140.3 910.406 1207.84 971.798 1115.35 1044.94C1079.27 1073.49 1002.11 1076.86 997.255 1080.69C874.371 1177.88 806.58 1286.67 652.749 1259.85C561.865 1244 488.17 1110.85 433.882 1091.4C432.522 1090.91 431.067 1091.3 429.671 1090.97C410.867 1086.47 389.91 1125.38 370.781 1134.04C302.853 1164.79 300.842 1104.42 263.199 1092.69C236.818 1084.46 206.883 1125.31 176.657 1121.55C142.256 1117.26 163.532 1041.57 143.906 1014.72Z" fill="white"/>
</mask>
<g mask="url(#mask13_190_1970)">
<path fill-rule="evenodd" clip-rule="evenodd" d="M54.5953 969.472C62.3321 959.871 76.1436 970.746 85.2409 971.433C116.105 973.759 138.304 950.44 169.269 969.472C187.452 980.644 186.789 1026.9 211.544 1035.19C251.553 1048.56 285.895 997.291 314.997 1007.72C346.328 1018.95 358.898 1061.42 394.92 1044.21C514.361 987.138 610.32 1143.84 734.837 1122.08C780.447 1114.11 847.523 1080.18 880.292 1031.07C903.84 995.779 923.572 950.618 954.46 927.885C988.761 902.639 1034.71 925.168 1072.14 907.291C1094.27 896.713 1076.87 868.063 1090.2 853.734C1111.55 830.797 1168.67 798.199 1186.53 838.242C1202.84 874.744 1207.41 923.36 1209.4 965.746C1218.82 1168.57 976.541 1325.72 870.71 1371.01C648.916 1465.91 419.089 1439.36 209.231 1302.75C141.481 1258.64 26.8245 1188.41 3.97486 1072.26C-10.7121 997.613 41.0441 986.272 54.5953 969.472Z" fill="#E0E0E0"/>
</g>
</g>
<mask id="mask14_190_1970" style="mask-type:luminance" maskUnits="userSpaceOnUse" x="575" y="828" width="199" height="70">
<path d="M575.357 828.318H773.722V897.859H575.357V828.318Z" fill="white"/>
</mask>
<g mask="url(#mask14_190_1970)">
<mask id="mask15_190_1970" style="mask-type:luminance" maskUnits="userSpaceOnUse" x="46" y="358" width="1119" height="906">
<path fill-rule="evenodd" clip-rule="evenodd" d="M143.906 1014.72C122.919 986 26.4755 1038.73 50.7506 949.243C69.6016 879.778 132.502 920.601 151.11 882.477C167.512 848.912 177.763 689.999 268.316 757.996C273.539 761.917 285.049 778.361 289.953 775.653C312.092 763.445 316.588 718.199 349.446 711.468C359.974 709.311 398.102 724.116 404.431 717.503C411.322 710.322 415.043 636.264 420.964 619.719C444.511 553.913 566.632 331.248 770.285 361.63C958.701 389.77 1049.27 685.746 1068.18 724.456C1086.82 762.63 1161.63 748.878 1161.63 845.5C1161.63 921.535 1140.3 910.406 1140.3 910.406C1140.3 910.406 1207.84 971.798 1115.35 1044.94C1079.27 1073.49 1002.11 1076.86 997.255 1080.69C874.371 1177.88 806.58 1286.67 652.748 1259.85C561.865 1244 488.17 1110.85 433.882 1091.4C432.522 1090.91 431.067 1091.3 429.671 1090.97C410.867 1086.47 389.91 1125.38 370.781 1134.04C302.853 1164.79 300.842 1104.42 263.199 1092.69C236.818 1084.46 206.883 1125.31 176.657 1121.55C142.255 1117.26 163.532 1041.57 143.906 1014.72Z" fill="white"/>
</mask>
<g mask="url(#mask15_190_1970)">
<path d="M577.9 831.688C596.041 914.031 748.648 911.909 771.297 846.96" stroke="#D4D4D4" stroke-width="1.667" stroke-miterlimit="10" stroke-linecap="round" stroke-linejoin="round"/>
</g>
</g>
<mask id="mask16_190_1970" style="mask-type:luminance" maskUnits="userSpaceOnUse" x="320" y="856" width="126" height="66">
<path d="M320.965 856.569H445.132V921.764H320.965V856.569Z" fill="white"/>
</mask>
<g mask="url(#mask16_190_1970)">
<mask id="mask17_190_1970" style="mask-type:luminance" maskUnits="userSpaceOnUse" x="46" y="358" width="1119" height="906">
<path fill-rule="evenodd" clip-rule="evenodd" d="M143.906 1014.72C122.919 986 26.4755 1038.73 50.7506 949.243C69.6016 879.778 132.502 920.601 151.11 882.477C167.512 848.912 177.763 689.999 268.316 757.996C273.539 761.917 285.049 778.361 289.953 775.653C312.092 763.445 316.588 718.199 349.446 711.468C359.974 709.311 398.102 724.116 404.431 717.503C411.322 710.322 415.043 636.264 420.964 619.719C444.511 553.913 566.632 331.248 770.285 361.63C958.701 389.77 1049.27 685.746 1068.18 724.456C1086.82 762.63 1161.63 748.878 1161.63 845.5C1161.63 921.535 1140.3 910.406 1140.3 910.406C1140.3 910.406 1207.84 971.798 1115.35 1044.94C1079.27 1073.49 1002.11 1076.86 997.255 1080.69C874.371 1177.88 806.579 1286.67 652.748 1259.85C561.865 1244 488.17 1110.85 433.882 1091.4C432.522 1090.91 431.067 1091.3 429.671 1090.97C410.867 1086.47 389.91 1125.38 370.781 1134.04C302.853 1164.79 300.842 1104.42 263.199 1092.69C236.818 1084.46 206.883 1125.31 176.657 1121.55C142.255 1117.26 163.532 1041.57 143.906 1014.72Z" fill="white"/>
</mask>
<g mask="url(#mask17_190_1970)">
<path d="M323.497 859.939C340.408 932.681 401.036 917.681 442.589 917.681" stroke="#D4D4D4" stroke-width="1.667" stroke-miterlimit="10" stroke-linecap="round" stroke-linejoin="round"/>
</g>
</g>
<path fill-rule="evenodd" clip-rule="evenodd" d="M49.0689 711.414C51.9732 696.498 26.2972 694.023 26.7718 675.435C28.1613 621.227 77.3228 599.333 112.543 609.249C117.152 610.543 128.386 624.347 130.387 624.347C135.528 624.347 130.892 611.026 130.892 604.362C130.892 582.522 133.584 562.96 136.898 541.503C144.723 490.883 181.375 453.624 218.725 441.779C251.907 431.257 311.456 426.857 340.01 457.989C376.961 498.28 385.732 546.715 408.461 576.154C410.185 578.388 424.783 579.067 427.843 579.485C500.816 589.431 498.151 634.913 514.131 638.565C536.728 643.727 556.409 615.775 583.437 628.127C596.907 634.279 605.031 661.05 617.067 662.994C651.422 668.555 693.594 647.773 730.8 664.776C751.628 674.293 769.49 680.907 772.486 711.862C776.294 751.311 698.552 772.659 676.927 771.385C664.406 770.647 640.469 752.728 630.1 755.169C603.069 761.532 584.488 785.125 552.218 778.939C543.706 777.305 526.394 758.934 520.137 759.835C497.304 763.122 490.763 792.95 463.181 788.486C446.135 785.725 430.884 762.28 414.118 762.28C386.438 762.28 357.789 784.48 330.575 791.818C271.178 807.841 34.5091 871.778 7.0411 776.936C-6.72897 729.397 45.7811 728.334 49.0689 711.414Z" fill="white"/>
<mask id="mask18_190_1970" style="mask-type:luminance" maskUnits="userSpaceOnUse" x="4" y="648" width="769" height="181">
<path d="M4 648.038H772.786V828.196H4V648.038Z" fill="white"/>
</mask>
<g mask="url(#mask18_190_1970)">
<mask id="mask19_190_1970" style="mask-type:luminance" maskUnits="userSpaceOnUse" x="4" y="433" width="769" height="395">
<path fill-rule="evenodd" clip-rule="evenodd" d="M49.0689 711.414C51.9732 696.498 26.2972 694.023 26.7718 675.435C28.1613 621.227 77.3228 599.333 112.543 609.249C117.152 610.543 128.386 624.347 130.387 624.347C135.528 624.347 130.892 611.026 130.892 604.362C130.892 582.522 133.584 562.96 136.898 541.503C144.723 490.883 181.375 453.624 218.725 441.779C251.907 431.257 311.456 426.857 340.01 457.989C376.961 498.28 385.732 546.715 408.461 576.154C410.185 578.388 424.783 579.067 427.843 579.485C500.816 589.431 498.151 634.913 514.131 638.565C536.728 643.727 556.409 615.775 583.437 628.127C596.907 634.279 605.031 661.05 617.067 662.994C651.422 668.555 693.594 647.773 730.8 664.776C751.628 674.293 769.49 680.907 772.486 711.862C776.294 751.311 698.552 772.659 676.927 771.385C664.406 770.647 640.469 752.728 630.1 755.169C603.069 761.532 584.488 785.125 552.218 778.939C543.706 777.305 526.394 758.934 520.137 759.835C497.304 763.122 490.763 792.95 463.181 788.486C446.135 785.725 430.884 762.28 414.118 762.28C386.438 762.28 357.789 784.48 330.575 791.818C271.178 807.841 34.5091 871.778 7.0411 776.936C-6.72897 729.397 45.7811 728.334 49.0689 711.414Z" fill="white"/>
</mask>
<g mask="url(#mask19_190_1970)">
<path fill-rule="evenodd" clip-rule="evenodd" d="M44.9078 723.407C52.6338 730.858 34.8887 752.876 41.4377 770.218C51.4986 796.862 92.7177 790.277 110.269 788.772C174.689 783.255 239.321 774.323 301.661 750.735C336.164 737.674 365.154 725.602 401.969 731.557C425.667 735.396 449.031 751.71 472.357 752.984C487.274 753.801 498.424 738.634 512.711 736.916C535.87 734.126 556.329 753.156 579.629 751.119C601.41 749.219 618.68 736.365 640.07 732.723C672.435 727.207 702.865 772.792 727.144 728.688C737.387 710.061 745.124 687.645 730.097 673.752C726.893 670.784 703.837 658.609 708.658 653.929C732.208 631.06 799.563 687.197 799.563 728.688C799.563 821.537 670.966 853.767 620.457 866.404C476.682 902.384 325.811 899.485 180.004 897.689C116.169 896.906 35.2076 905.179 -21.7672 860.735C-74.376 819.697 -48.5329 754.337 -4.91431 725.504C8.98484 716.311 37.1818 715.952 44.9078 723.407Z" fill="#EBEBEB"/>
</g>
</g>
<mask id="mask20_190_1970" style="mask-type:luminance" maskUnits="userSpaceOnUse" x="339" y="601" width="96" height="44">
<path d="M339.311 601.424H434.559V644.259H339.311V601.424Z" fill="white"/>
</mask>
<g mask="url(#mask20_190_1970)">
<mask id="mask21_190_1970" style="mask-type:luminance" maskUnits="userSpaceOnUse" x="4" y="433" width="769" height="395">
<path fill-rule="evenodd" clip-rule="evenodd" d="M49.0688 711.414C51.9731 696.498 26.2971 694.023 26.7716 675.435C28.1612 621.227 77.3227 599.333 112.543 609.249C117.152 610.543 128.386 624.347 130.387 624.347C135.528 624.347 130.892 611.026 130.892 604.362C130.892 582.522 133.584 562.96 136.898 541.503C144.723 490.883 181.375 453.624 218.725 441.779C251.907 431.257 311.456 426.857 340.01 457.989C376.961 498.28 385.731 546.715 408.461 576.154C410.185 578.388 424.783 579.067 427.843 579.485C500.816 589.431 498.151 634.913 514.131 638.565C536.728 643.727 556.409 615.775 583.437 628.127C596.907 634.279 605.031 661.05 617.066 662.994C651.421 668.555 693.593 647.773 730.8 664.776C751.627 674.293 769.49 680.907 772.486 711.862C776.294 751.311 698.552 772.659 676.927 771.385C664.406 770.647 640.468 752.728 630.1 755.169C603.069 761.532 584.488 785.125 552.218 778.939C543.706 777.305 526.393 758.934 520.137 759.835C497.304 763.122 490.763 792.95 463.181 788.486C446.134 785.725 430.884 762.28 414.118 762.28C386.438 762.28 357.789 784.48 330.575 791.818C271.178 807.841 34.509 871.778 7.04098 776.936C-6.7291 729.397 45.7809 728.334 49.0688 711.414Z" fill="white"/>
</mask>
<g mask="url(#mask21_190_1970)">
<path d="M341.061 642.581C364.611 634.323 373.522 610.09 387.975 602.896C388.492 602.64 390.492 608.914 390.754 609.79C392.28 614.923 396.354 617.487 399.289 620.907C405.975 628.698 424.46 632.9 433.112 629.165" stroke="#DAD6D6" stroke-width="1.667" stroke-miterlimit="10" stroke-linecap="round" stroke-linejoin="round"/>
</g>
</g>
<mask id="mask22_190_1970" style="mask-type:luminance" maskUnits="userSpaceOnUse" x="140" y="624" width="72" height="47">
<path d="M140.068 624.101H211.99V670.715H140.068V624.101Z" fill="white"/>
</mask>
<g mask="url(#mask22_190_1970)">
<mask id="mask23_190_1970" style="mask-type:luminance" maskUnits="userSpaceOnUse" x="4" y="433" width="769" height="395">
<path fill-rule="evenodd" clip-rule="evenodd" d="M49.0689 711.414C51.9732 696.498 26.2972 694.023 26.7718 675.435C28.1613 621.227 77.3228 599.333 112.543 609.249C117.152 610.543 128.386 624.347 130.387 624.347C135.528 624.347 130.892 611.026 130.892 604.362C130.892 582.522 133.584 562.96 136.898 541.503C144.723 490.883 181.375 453.624 218.725 441.779C251.907 431.257 311.456 426.857 340.01 457.989C376.961 498.28 385.732 546.715 408.461 576.154C410.185 578.388 424.783 579.067 427.843 579.485C500.816 589.431 498.151 634.913 514.131 638.565C536.728 643.727 556.409 615.775 583.437 628.127C596.907 634.279 605.031 661.05 617.067 662.994C651.422 668.555 693.594 647.773 730.8 664.776C751.628 674.293 769.49 680.907 772.486 711.862C776.294 751.311 698.552 772.659 676.927 771.385C664.406 770.647 640.469 752.728 630.1 755.169C603.069 761.532 584.488 785.125 552.218 778.939C543.706 777.305 526.394 758.934 520.137 759.835C497.304 763.122 490.763 792.95 463.181 788.486C446.135 785.725 430.884 762.28 414.118 762.28C386.438 762.28 357.789 784.48 330.575 791.818C271.178 807.841 34.5091 871.778 7.0411 776.936C-6.72897 729.397 45.7811 728.334 49.0689 711.414Z" fill="white"/>
</mask>
<g mask="url(#mask23_190_1970)">
<path d="M141.614 625.814C153.842 655.725 186.595 669.101 210.787 669.101" stroke="#DAD6D6" stroke-width="1.667" stroke-miterlimit="10" stroke-linecap="round" stroke-linejoin="round"/>
</g>
</g>
<path fill-rule="evenodd" clip-rule="evenodd" d="M632.9 474.48C609.097 477.97 586.14 479.234 596.281 455.572C603.121 439.613 618.411 448.701 627.77 442.965C649.017 429.945 646.337 393.077 708.616 388.28C731.363 386.526 733.467 411.732 747.178 413.493C752.895 414.225 782.576 388.214 797.423 386.917C812.573 385.591 839.206 409.866 849.253 405.315C870.594 395.647 914.196 327.55 928.426 311.106C973.066 259.523 1083.11 244.245 1141.07 279.761C1164.03 293.832 1167.6 318.857 1182.82 337.171C1187.33 342.599 1219.96 325.876 1232 330.018C1254.6 337.794 1247.02 375.216 1259.55 388.791C1277.3 408.022 1313.98 388.791 1338.56 430.869C1369.05 483.072 1306.32 474.48 1274.63 474.48C1256.43 474.48 1242.74 503.676 1216.6 500.715C1210.3 500.002 1194.01 483.829 1189.54 485.554C1126.31 509.909 1107.56 553.049 1024.49 551.143C930.14 548.979 935.007 492.25 919.229 488.449C900.444 483.927 851.35 517.116 831.388 514.855C820.199 513.59 808.048 494.49 799.723 496.628C787.004 499.893 772.233 512.01 758.68 510.768C746.536 509.655 733.546 491.406 727.72 492.029C720.342 492.816 712.31 504.314 706.139 508.383C669.978 532.209 653.125 471.516 632.9 474.48Z" fill="white"/>
<mask id="mask24_190_1970" style="mask-type:luminance" maskUnits="userSpaceOnUse" x="604" y="403" width="744" height="149">
<path d="M604.219 403.919H1347.03V551.418H604.219V403.919Z" fill="white"/>
</mask>
<g mask="url(#mask24_190_1970)">
<mask id="mask25_190_1970" style="mask-type:luminance" maskUnits="userSpaceOnUse" x="593" y="260" width="754" height="292">
<path fill-rule="evenodd" clip-rule="evenodd" d="M632.9 474.48C609.097 477.969 586.14 479.234 596.281 455.571C603.121 439.613 618.411 448.701 627.77 442.965C649.017 429.945 646.337 393.077 708.616 388.28C731.363 386.526 733.467 411.732 747.178 413.493C752.895 414.225 782.576 388.214 797.423 386.917C812.573 385.591 839.206 409.866 849.253 405.314C870.594 395.646 914.196 327.55 928.426 311.106C973.066 259.523 1083.11 244.245 1141.07 279.761C1164.03 293.832 1167.6 318.857 1182.82 337.171C1187.33 342.599 1219.96 325.876 1232 330.018C1254.6 337.794 1247.02 375.216 1259.55 388.79C1277.3 408.021 1313.98 388.79 1338.56 430.869C1369.05 483.072 1306.32 474.48 1274.63 474.48C1256.43 474.48 1242.74 503.676 1216.6 500.715C1210.3 500.001 1194.01 483.829 1189.54 485.554C1126.31 509.909 1107.56 553.049 1024.49 551.143C930.14 548.979 935.007 492.25 919.229 488.449C900.444 483.927 851.35 517.116 831.388 514.855C820.199 513.59 808.048 494.49 799.723 496.628C787.004 499.893 772.233 512.01 758.68 510.767C746.536 509.655 733.546 491.406 727.72 492.029C720.342 492.816 712.31 504.314 706.139 508.383C669.978 532.209 653.125 471.516 632.9 474.48Z" fill="white"/>
</mask>
<g mask="url(#mask25_190_1970)">
<path fill-rule="evenodd" clip-rule="evenodd" d="M639.526 472.121C652.313 467.961 665.577 484.282 681.6 485.268C700.742 486.445 718.031 471.932 735.613 474.049C747.107 475.433 760.807 483.409 771.748 482.909C788.045 482.162 801.831 470.874 818.79 471.835C841.217 473.103 856.92 481.274 880.745 478.977C901.895 476.944 928.095 447.936 939.736 448.683C943.761 448.94 948.715 454.872 951.831 456.97C981.801 477.176 1023.37 509.938 1063.94 493.482C1088.86 483.38 1109.43 470.378 1120.63 445.969C1124.81 436.859 1125.7 424.292 1123.67 414.526C1122.96 411.116 1117.01 405.963 1120.33 404.597C1123.1 403.456 1129.46 412.254 1130.94 413.457C1137.08 418.418 1146.26 419.878 1153.21 423.531C1165.7 430.097 1177.94 437.761 1189.86 444.251C1207.7 453.963 1235.8 452.868 1255.67 458.757C1275.62 464.667 1374.29 460.63 1372.76 478.263C1369.26 518.674 1223.02 553.208 1195.27 557.078C1132.56 565.826 1070.57 580.418 1007.7 587.872C919.759 598.301 829.261 601.305 740.958 594.232C700.648 591.003 597.468 566.373 604.877 510.202C609.003 478.897 626.74 476.274 639.526 472.121Z" fill="#F0EDED"/>
</g>
</g>
<mask id="mask26_190_1970" style="mask-type:luminance" maskUnits="userSpaceOnUse" x="933" y="375" width="113" height="29">
<path d="M933.286 375.162H1045.86V403.919H933.286V375.162Z" fill="white"/>
</mask>
<g mask="url(#mask26_190_1970)">
<mask id="mask27_190_1970" style="mask-type:luminance" maskUnits="userSpaceOnUse" x="593" y="260" width="754" height="292">
<path fill-rule="evenodd" clip-rule="evenodd" d="M632.9 474.48C609.097 477.969 586.14 479.234 596.281 455.571C603.121 439.613 618.411 448.701 627.77 442.965C649.017 429.945 646.337 393.077 708.616 388.28C731.362 386.526 733.467 411.732 747.178 413.493C752.895 414.225 782.576 388.214 797.422 386.917C812.573 385.591 839.206 409.866 849.253 405.314C870.594 395.646 914.196 327.55 928.426 311.106C973.066 259.523 1083.11 244.245 1141.07 279.761C1164.03 293.832 1167.6 318.857 1182.81 337.171C1187.33 342.599 1219.96 325.876 1232 330.018C1254.6 337.794 1247.02 375.216 1259.55 388.79C1277.3 408.021 1313.98 388.79 1338.56 430.869C1369.05 483.072 1306.32 474.48 1274.63 474.48C1256.43 474.48 1242.74 503.676 1216.6 500.715C1210.3 500.001 1194.01 483.829 1189.54 485.554C1126.31 509.909 1107.56 553.049 1024.49 551.143C930.14 548.979 935.007 492.25 919.229 488.449C900.444 483.927 851.35 517.116 831.388 514.855C820.199 513.59 808.048 494.49 799.723 496.628C787.004 499.893 772.233 512.01 758.679 510.767C746.536 509.655 733.546 491.406 727.72 492.029C720.342 492.816 712.31 504.314 706.139 508.383C669.978 532.209 653.125 471.516 632.9 474.48Z" fill="white"/>
</mask>
<g mask="url(#mask27_190_1970)">
<path d="M934.271 376.35C934.947 376.35 935.026 377.597 935.233 378.137C938.131 385.743 959.558 397.745 967.214 399.361C997.733 405.8 1016.55 402.861 1044.82 393.784" stroke="#CECECE" stroke-width="1.667" stroke-miterlimit="10" stroke-linecap="round" stroke-linejoin="round"/>
</g>
</g>
<path fill-rule="evenodd" clip-rule="evenodd" d="M717.047 1054.59C703.711 1042.33 642.429 1064.83 657.854 1026.64C669.832 996.983 709.8 1014.41 721.625 998.135C732.047 983.807 738.561 915.972 796.1 944.997C799.419 946.672 766.05 897.092 783.37 845.143C787.219 829.837 811.997 799.591 831.479 791.803C851.204 783.917 863.943 789.386 871.891 795.049C882.956 802.935 892.097 826.59 907.011 833.547C933.471 839.577 985.658 762.831 1115.06 775.8C1234.79 787.813 1292.34 914.156 1304.36 930.68C1316.2 946.976 1363.73 941.106 1363.73 982.35C1363.73 1014.81 1350.18 1010.06 1350.18 1010.06C1350.18 1010.06 1393.1 1036.26 1334.33 1067.49C1311.4 1079.67 1262.37 1081.11 1259.29 1082.75C1181.2 1124.24 1138.13 1170.67 1040.38 1159.22C982.629 1152.46 935.801 1095.62 901.305 1087.32C900.441 1087.11 899.516 1087.27 898.629 1087.13C886.681 1085.21 873.364 1101.82 861.209 1105.52C818.046 1118.64 816.768 1092.88 792.849 1087.87C776.086 1084.36 757.064 1101.79 737.858 1100.19C715.998 1098.36 729.518 1066.05 717.047 1054.59Z" fill="white"/>
<mask id="mask28_190_1970" style="mask-type:luminance" maskUnits="userSpaceOnUse" x="654" y="970" width="712" height="192">
<path d="M654.437 970.378H1365.49V1161.48H654.437V970.378Z" fill="white"/>
</mask>
<g mask="url(#mask28_190_1970)">
<mask id="mask29_190_1970" style="mask-type:luminance" maskUnits="userSpaceOnUse" x="655" y="774" width="711" height="387">
<path fill-rule="evenodd" clip-rule="evenodd" d="M717.047 1054.59C703.711 1042.33 642.429 1064.83 657.854 1026.64C669.832 996.983 709.8 1014.41 721.625 998.135C732.047 983.807 738.561 915.972 796.1 944.997C799.419 946.672 806.733 953.691 809.849 952.535C823.917 947.324 826.773 928.01 847.652 925.136C854.342 924.216 878.57 930.535 882.591 927.713C886.97 924.647 889.334 893.034 893.096 885.971C908.059 857.88 985.658 762.831 1115.06 775.8C1234.79 787.813 1292.34 914.156 1304.36 930.68C1316.2 946.976 1363.73 941.106 1363.73 982.35C1363.73 1014.81 1350.18 1010.06 1350.18 1010.06C1350.18 1010.06 1393.1 1036.26 1334.33 1067.49C1311.4 1079.67 1262.37 1081.11 1259.29 1082.75C1181.2 1124.24 1138.13 1170.67 1040.38 1159.22C982.629 1152.46 935.801 1095.62 901.305 1087.32C900.441 1087.11 899.516 1087.27 898.629 1087.13C886.681 1085.21 873.364 1101.82 861.209 1105.52C818.046 1118.64 816.768 1092.88 792.849 1087.87C776.086 1084.36 757.064 1101.79 737.858 1100.19C715.998 1098.36 729.518 1066.05 717.047 1054.59Z" fill="white"/>
</mask>
<g mask="url(#mask29_190_1970)">
<path fill-rule="evenodd" clip-rule="evenodd" d="M660.297 1035.27C665.213 1031.17 673.989 1035.81 679.769 1036.11C699.382 1037.1 713.487 1027.15 733.163 1035.27C744.717 1040.04 744.296 1059.79 760.025 1063.32C785.448 1069.03 807.27 1047.15 825.762 1051.6C845.671 1056.39 853.658 1074.52 876.548 1067.17C952.444 1042.81 1013.42 1109.7 1092.54 1100.41C1121.52 1097.01 1164.14 1082.53 1184.97 1061.56C1199.93 1046.5 1212.47 1027.22 1232.09 1017.52C1253.89 1006.74 1283.09 1016.36 1306.87 1008.73C1320.93 1004.21 1309.88 991.982 1318.34 985.865C1331.91 976.074 1368.21 962.159 1379.56 979.252C1389.92 994.834 1392.83 1015.59 1394.09 1033.68C1400.07 1120.26 1246.12 1187.34 1178.88 1206.67C1037.94 1247.19 891.905 1235.85 758.556 1177.54C715.506 1158.71 642.65 1128.73 628.131 1079.15C618.799 1047.28 651.686 1042.44 660.297 1035.27Z" fill="#EDEDED"/>
</g>
</g>
<mask id="mask30_190_1970" style="mask-type:luminance" maskUnits="userSpaceOnUse" x="991" y="975" width="127" height="30">
<path d="M991.202 975.016H1117.25V1004.7H991.202V975.016Z" fill="white"/>
</mask>
<g mask="url(#mask30_190_1970)">
<mask id="mask31_190_1970" style="mask-type:luminance" maskUnits="userSpaceOnUse" x="655" y="774" width="711" height="387">
<path fill-rule="evenodd" clip-rule="evenodd" d="M717.047 1054.59C703.711 1042.33 642.428 1064.83 657.853 1026.64C669.832 996.983 709.8 1014.41 721.624 998.135C732.047 983.807 738.56 915.972 796.1 944.997C799.419 946.672 806.733 953.691 809.849 952.535C823.917 947.324 826.773 928.01 847.652 925.136C854.342 924.216 878.57 930.535 882.591 927.713C886.97 924.647 889.334 893.034 893.096 885.971C908.059 857.88 985.658 762.831 1115.06 775.8C1234.79 787.813 1292.34 914.156 1304.36 930.68C1316.2 946.976 1363.73 941.106 1363.73 982.35C1363.73 1014.81 1350.18 1010.06 1350.18 1010.06C1350.18 1010.06 1393.1 1036.26 1334.33 1067.49C1311.4 1079.67 1262.37 1081.11 1259.29 1082.75C1181.2 1124.24 1138.13 1170.67 1040.38 1159.22C982.628 1152.46 935.801 1095.62 901.305 1087.32C900.441 1087.11 899.516 1087.27 898.629 1087.13C886.681 1085.21 873.364 1101.82 861.209 1105.52C818.046 1118.64 816.768 1092.88 792.849 1087.87C776.086 1084.36 757.064 1101.79 737.858 1100.19C715.998 1098.36 729.517 1066.05 717.047 1054.59Z" fill="white"/>
</mask>
<g mask="url(#mask31_190_1970)">
<path d="M992.818 976.455C1004.35 1011.6 1101.32 1010.7 1115.71 982.974" stroke="#D4D4D4" stroke-width="1.667" stroke-miterlimit="10" stroke-linecap="round" stroke-linejoin="round"/>
</g>
</g>
<mask id="mask32_190_1970" style="mask-type:luminance" maskUnits="userSpaceOnUse" x="829" y="987" width="80" height="28">
<path d="M829.555 987.076H908.454V1014.91H829.555V987.076Z" fill="white"/>
</mask>
<g mask="url(#mask32_190_1970)">
<mask id="mask33_190_1970" style="mask-type:luminance" maskUnits="userSpaceOnUse" x="655" y="774" width="711" height="387">
<path fill-rule="evenodd" clip-rule="evenodd" d="M717.047 1054.59C703.711 1042.33 642.429 1064.83 657.854 1026.64C669.832 996.983 709.8 1014.41 721.625 998.135C732.047 983.807 738.561 915.972 796.1 944.997C799.419 946.672 806.733 953.691 809.849 952.535C823.917 947.324 826.773 928.01 847.652 925.136C854.342 924.216 878.57 930.535 882.591 927.713C886.97 924.647 889.334 893.034 893.096 885.971C908.059 857.88 985.658 762.831 1115.06 775.8C1234.79 787.813 1292.34 914.156 1304.36 930.68C1316.2 946.976 1363.73 941.106 1363.73 982.35C1363.73 1014.81 1350.18 1010.06 1350.18 1010.06C1350.18 1010.06 1393.1 1036.26 1334.33 1067.49C1311.4 1079.67 1262.37 1081.11 1259.29 1082.75C1181.2 1124.24 1138.13 1170.67 1040.38 1159.22C982.629 1152.46 935.801 1095.62 901.305 1087.32C900.441 1087.11 899.516 1087.27 898.629 1087.13C886.681 1085.21 873.364 1101.82 861.209 1105.52C818.046 1118.64 816.768 1092.88 792.849 1087.87C776.086 1084.36 757.064 1101.79 737.858 1100.19C715.998 1098.36 729.518 1066.05 717.047 1054.59Z" fill="white"/>
</mask>
<g mask="url(#mask33_190_1970)">
<path d="M831.163 988.514C841.909 1019.57 880.434 1013.16 906.838 1013.16" stroke="#D4D4D4" stroke-width="1.667" stroke-miterlimit="10" stroke-linecap="round" stroke-linejoin="round"/>
</g>
</g>
<path fill-rule="evenodd" clip-rule="evenodd" d="M156.545 1129.54C132.037 1143.41 95.6049 1152.18 95.6648 1113.16C95.6822 1101.82 95.4947 1093.24 98.0278 1082.14C104.907 1055.39 114.125 1056.79 105.016 984.491C111.321 926.346 143.246 957.652 146.554 954.454C156.575 861.688 194.115 861.776 209.26 863.874C293.552 870.258 213.121 923.374 240.142 911.372C259.254 902.883 247.532 816.538 291.661 814.58C320.45 811.05 312.058 827.687 300.171 848.279C297.53 852.855 311.278 869.612 319.942 840.077C329.211 808.482 340.429 794.075 381.266 792.108C424.733 792.211 477.184 819.827 504.972 864.568C505.999 866.236 500.447 808.884 515.62 792.424C532.058 774.592 588.005 755.629 767.297 827.833C806.999 843.831 826.146 890.137 833.429 925.374C837.459 944.816 817.184 980.139 835.669 984.994C869.995 994.026 903.859 985.584 918.39 1035.12C940.144 1109.33 859.427 1107.2 852.903 1120.76C840.324 1146.86 886.455 1205.11 798.73 1270.15C740.578 1313.28 668.397 1328.07 605.732 1288.12C595.981 1281.91 590.921 1259.75 583.471 1255.84C579.471 1253.74 569.495 1273.6 567.397 1276.16C530.601 1320.72 425.255 1310.65 381.392 1286.86C368.452 1279.86 345.335 1235.1 340.083 1234.18C335.541 1233.37 275.257 1220.95 249.875 1220.89C215.576 1220.81 224.977 1163.57 199.724 1173.76C171.608 1185.07 149.138 1185.02 156.545 1129.54Z" fill="white"/>
<mask id="mask34_190_1970" style="mask-type:luminance" maskUnits="userSpaceOnUse" x="95" y="1048" width="828" height="265">
<path d="M95.6971 1048.5L922.9 1050.44L922.497 1313L95.2944 1311.06L95.6971 1048.5Z" fill="white"/>
</mask>
<g mask="url(#mask34_190_1970)">
<mask id="mask35_190_1970" style="mask-type:luminance" maskUnits="userSpaceOnUse" x="95" y="811" width="828" height="501">
<path fill-rule="evenodd" clip-rule="evenodd" d="M156.545 1129.54C132.037 1143.41 95.6049 1152.18 95.6648 1113.16C95.6822 1101.82 95.4946 1093.24 98.0278 1082.14C98.9705 1078.05 99.7945 1074.2 101.303 1070.27C103.034 1065.8 106.846 1062.59 110.154 1059.39C141.752 1028.94 168.705 1061.71 178.981 1057.61C180.628 1056.96 210.651 996.805 237.672 984.803C239.068 984.183 241.847 983.782 243.257 983.603C272.045 980.072 285.217 1013.87 304.36 1012.59C308.955 1012.28 332.921 1009.45 334.854 1003.7C350.041 958.395 369.024 923.22 415.902 907.425C458.327 893.133 515.02 891.822 542.808 936.564C543.835 938.231 554.007 951.523 555.567 950.893C582.834 940.03 588.005 755.629 767.297 827.833C806.999 843.831 826.146 890.137 833.429 925.374C837.459 944.816 817.184 980.139 835.669 984.994C869.995 994.026 903.859 985.584 918.39 1035.12C940.144 1109.33 859.427 1107.2 852.903 1120.76C840.324 1146.86 886.455 1205.11 798.73 1270.15C740.578 1313.28 668.397 1328.07 605.732 1288.12C595.98 1281.91 590.921 1259.75 583.471 1255.84C579.471 1253.74 569.495 1273.6 567.397 1276.16C530.601 1320.72 425.255 1310.65 381.392 1286.86C368.452 1279.86 345.335 1235.1 340.083 1234.18C335.541 1233.37 275.257 1220.95 249.875 1220.89C215.576 1220.81 224.977 1163.57 199.724 1173.76C171.608 1185.07 149.138 1185.02 156.545 1129.54Z" fill="white"/>
</mask>
<g mask="url(#mask35_190_1970)">
<path fill-rule="evenodd" clip-rule="evenodd" d="M86.1034 1110.75C109.75 1067.73 187.438 1102.35 201.233 1115.66C208.796 1122.98 211.493 1142.57 220.157 1145.97C254.564 1159.39 291.001 1140.94 328.936 1159C349.301 1168.71 358.98 1195.66 382.442 1202.96C423.24 1215.66 456.202 1167.96 494.647 1165.61C519.12 1164.1 548.016 1191.04 565.659 1188.27C602.946 1182.37 595.828 1226.96 711.949 1206.04C807.458 1188.83 806.115 1111.79 829.146 1108.23C854.39 1104.32 881.645 1100.77 922.09 1061.83C1005.46 981.613 870.999 1379.26 801.331 1422.63C682.314 1496.72 379.523 1481.88 256.004 1415.15C206.346 1388.31 172.095 1340.71 135.675 1297.95C93.4559 1248.41 66.2624 1191.61 78.0847 1125.66C80.145 1114.16 83.3945 1115.69 86.1034 1110.75Z" fill="#E0E0E0"/>
</g>
</g>
<mask id="mask36_190_1970" style="mask-type:luminance" maskUnits="userSpaceOnUse" x="558" y="971" width="74" height="90">
<path d="M558.155 971.229L631.919 971.403L631.782 1060.75L558.018 1060.58L558.155 971.229Z" fill="white"/>
</mask>
<g mask="url(#mask36_190_1970)">
<mask id="mask37_190_1970" style="mask-type:luminance" maskUnits="userSpaceOnUse" x="95" y="811" width="828" height="501">
<path fill-rule="evenodd" clip-rule="evenodd" d="M156.545 1129.54C132.037 1143.41 95.6049 1152.18 95.6648 1113.16C95.6822 1101.82 95.4946 1093.24 98.0278 1082.14C98.9705 1078.05 99.7945 1074.2 101.303 1070.27C103.034 1065.8 106.846 1062.59 110.154 1059.39C141.752 1028.94 168.705 1061.71 178.981 1057.61C180.628 1056.96 210.651 996.805 237.672 984.803C239.068 984.183 241.847 983.782 243.257 983.603C272.045 980.072 285.217 1013.87 304.36 1012.59C308.955 1012.28 332.921 1009.45 334.854 1003.7C350.041 958.395 369.024 923.22 415.902 907.425C458.327 893.133 515.02 891.822 542.808 936.564C543.835 938.231 554.007 951.523 555.567 950.893C582.834 940.03 588.005 755.629 767.297 827.833C806.999 843.831 826.146 890.137 833.429 925.374C837.459 944.816 817.184 980.139 835.669 984.994C869.995 994.026 903.859 985.584 918.39 1035.12C940.144 1109.33 859.427 1107.2 852.903 1120.76C840.324 1146.86 886.455 1205.11 798.73 1270.15C740.578 1313.28 668.397 1328.07 605.732 1288.12C595.98 1281.91 590.921 1259.75 583.471 1255.84C579.471 1253.74 569.495 1273.6 567.397 1276.16C530.601 1320.72 425.255 1310.65 381.392 1286.86C368.452 1279.86 345.335 1235.1 340.083 1234.18C335.541 1233.37 275.257 1220.95 249.875 1220.89C215.576 1220.81 224.977 1163.57 199.724 1173.76C171.608 1185.07 149.138 1185.02 156.545 1129.54Z" fill="white"/>
</mask>
<g mask="url(#mask37_190_1970)">
<path d="M559.732 973.005C561.72 1008.38 592.056 1059.49 630.07 1059.58" stroke="#E3E3E3" stroke-width="1.667" stroke-miterlimit="10" stroke-linecap="round" stroke-linejoin="round"/>
</g>
</g>
</g>
<path d="M1020.25 96.9856C1016.08 107.724 1016.87 123.772 1018.59 130.83C1020.94 127.028 1029.73 121.115 1032.77 122.29C1021.07 117.257 1018.12 111.396 1020.25 96.9856Z" fill="black"/>
<path d="M1043.62 89.4611C1039.85 95.873 1034.7 109.116 1044.27 110.791C1056.23 112.885 1064.89 105.394 1067.85 102.712C1070.8 100.03 1075.36 91.5832 1069.78 86.2207C1064.21 80.8582 1055.91 80.8286 1051.29 82.8637C1050.52 83.2028 1047.65 84.0047 1043.62 89.4611Z" fill="black"/>
<path d="M1107.01 188.193C1107.19 188.494 1107.42 188.798 1107.71 189.105C1109.65 191.127 1112.63 191.499 1115.94 190.941C1114.04 193.2 1105.68 197.625 1101.74 199.555C1101.58 199.633 1105.26 196.197 1107.01 188.193Z" fill="black"/>
<path d="M1083.82 165.127C1083.58 164.624 1083.39 164.123 1083.24 163.624C1071.26 171.74 1077.44 179.893 1077.44 179.893C1077.44 179.893 1079.45 169.813 1086.76 165.784C1085.37 166.257 1084.3 166.115 1083.82 165.127Z" fill="black"/>
<path d="M1039 171.977C1037.75 169.966 1037.47 161.253 1040.89 155.579C1038.98 158.632 1033.51 160.26 1032.81 159.988C1033.86 165.505 1040.58 174.504 1039 171.977Z" fill="black"/>
<path d="M1031.69 136.579C1032.6 140.237 1034.21 147.61 1033.95 150.205C1034.5 148.413 1035.86 144.284 1036.72 141.708C1035.98 141.432 1033.93 140.02 1031.69 136.579Z" fill="black"/>
<path d="M1134.81 139.103C1135.03 138.543 1135.23 137.981 1135.4 137.423C1136.77 133.01 1136.82 128.818 1136.73 127.085C1127.5 124.566 1116.99 121.547 1108.25 118.991C1107.52 119.772 1105.93 121.73 1105.85 123.235C1111 129.707 1107.03 141.575 1105.52 145.459C1104.51 148.058 1102.56 151.071 1100.9 151.328C1100.72 151.709 1100.52 152.092 1100.31 152.477C1104.86 152.863 1113.36 152.704 1120.67 150.492C1124.62 149.297 1128.23 147.504 1130.68 144.876C1124.32 142.219 1118.2 139.484 1113.22 137.153C1119.16 137.4 1126.93 138.009 1134.81 139.103Z" fill="black"/>
<path fill-rule="evenodd" clip-rule="evenodd" d="M1030.78 78.8483C1026.35 83.6861 1023.17 89.4732 1020.25 96.9856C1018.12 111.396 1021.07 117.257 1032.77 122.29C1035.45 123.327 1049.24 120.797 1057.71 118.299C1058.9 117.95 1059.98 117.6 1060.91 117.262L1060.96 117.244C1067.89 114.727 1084.5 108.692 1088.9 96.2048C1090.97 90.3333 1090.17 84.5986 1088.24 79.8164C1088.13 79.5503 1088.02 79.2871 1087.91 79.0271C1085.71 74.0085 1082.32 70.1407 1079.89 68.4339C1073.95 64.258 1061.21 60.2863 1047.16 67.2058C1041.19 70.1459 1036.55 73.227 1032.77 76.8251C1032.08 77.4815 1031.42 78.1552 1030.78 78.8483ZM1044.27 110.791C1034.7 109.116 1039.85 95.873 1043.62 89.4611C1047.65 84.0047 1050.52 83.2028 1051.29 82.8637C1055.91 80.8286 1064.21 80.8582 1069.78 86.2207C1075.36 91.5832 1070.8 100.03 1067.85 102.712C1064.89 105.394 1056.23 112.885 1044.27 110.791Z" fill="#F8B31D"/>
<path d="M1065.03 131.664C1067.61 135.434 1076.23 144.317 1089.99 149.666C1092.35 147.765 1094.89 146.257 1096.89 145.298C1096.13 142.363 1095.85 138.356 1096.89 133.161C1098.49 125.098 1102.53 121.941 1105.85 123.235C1105.93 121.73 1107.52 119.772 1108.25 118.991C1102.32 117.257 1097.19 115.736 1093.83 114.729C1100.07 109.849 1111.11 102.066 1124.02 94.5278C1121.45 91.4781 1116.41 86.9617 1109.78 83.5592C1103.63 80.4016 1096.1 78.2034 1087.91 79.0271C1088.02 79.2871 1088.13 79.5503 1088.24 79.8164C1090.17 84.5986 1090.97 90.3333 1088.9 96.2048C1084.5 108.692 1067.89 114.727 1060.96 117.244L1060.91 117.262C1059.98 117.6 1058.9 117.95 1057.71 118.299L1060.08 122.687C1070.8 118.351 1073 120.681 1073.89 121.667C1074.76 122.623 1076.17 125.532 1065.03 131.664Z" fill="#F8B31D"/>
<path d="M1105.85 123.235C1102.53 121.941 1098.49 125.098 1096.89 133.161C1095.85 138.356 1096.13 142.363 1096.89 145.298C1097.6 148.057 1098.73 149.867 1099.6 150.823C1099.99 151.255 1100.44 151.4 1100.9 151.328C1102.56 151.071 1104.51 148.058 1105.52 145.459C1107.03 141.575 1111 129.707 1105.85 123.235Z" fill="#F8B31D"/>
<path d="M1099.6 150.823C1098.73 149.867 1097.6 148.057 1096.89 145.298C1094.89 146.257 1092.35 147.765 1089.99 149.666C1085.52 153.258 1081.67 158.257 1083.24 163.624C1083.39 164.123 1083.58 164.624 1083.82 165.127C1084.3 166.115 1085.37 166.257 1086.76 165.784C1090.66 164.463 1097.11 158.341 1100.31 152.477C1100.52 152.092 1100.72 151.709 1100.9 151.328C1100.44 151.4 1099.99 151.255 1099.6 150.823Z" fill="#F8B31D"/>
<path d="M1073.89 121.667C1073 120.681 1070.8 118.351 1060.08 122.687C1058.75 123.39 1057.47 124.128 1056.25 124.885C1047.89 130.069 1042.29 136.179 1041.93 138.624C1043.83 139.362 1046.35 139.134 1047.38 138.928C1050.82 138.015 1055.09 136.382 1057.77 135.201C1060.63 133.948 1063.03 132.767 1065.03 131.664C1076.17 125.532 1074.76 122.623 1073.89 121.667Z" fill="#F8B31D"/>
<path d="M1057.71 118.299C1046.15 122.381 1037.7 124.718 1032.65 132.462C1031.05 134.91 1030.93 136.141 1031.69 136.579C1032.61 137.114 1034.85 136.463 1037.3 135.403C1039.18 134.588 1041.19 133.53 1042.82 132.584L1056.25 124.885C1057.47 124.128 1058.75 123.39 1060.08 122.687L1057.71 118.299Z" fill="#F8B31D"/>
<path d="M1031.69 136.579C1033.93 140.02 1035.98 141.432 1036.72 141.708C1037.29 140.229 1038.29 136.808 1037.3 135.403C1034.85 136.463 1032.61 137.114 1031.69 136.579Z" fill="#F8B31D"/>
<path d="M1041.93 138.624C1040.16 140.279 1036.07 145.031 1033.82 150.802C1031.02 158.015 1032.1 159.712 1032.81 159.988C1033.51 160.26 1038.98 158.632 1040.89 155.579C1040.91 155.548 1040.93 155.517 1040.94 155.486C1042.79 152.373 1048.8 140.217 1047.38 138.928C1044.89 139.589 1042.64 139.162 1041.93 138.624Z" fill="#F8B31D"/>
<path d="M1160.45 155.311C1167.31 156.852 1171.4 156.457 1169.82 152.569C1169.18 151.011 1167.91 149.594 1166.14 148.31C1159.81 143.727 1147.17 140.818 1134.81 139.103C1126.93 138.009 1119.16 137.4 1113.22 137.153C1118.2 139.484 1124.32 142.219 1130.68 144.876C1136.63 147.362 1142.79 149.78 1148.43 151.735C1152.89 153.282 1157.01 154.539 1160.45 155.311Z" fill="#F8B31D"/>
<path d="M1160.45 155.311C1157.01 154.539 1152.89 153.282 1148.43 151.735C1148.23 151.877 1148.02 152.028 1147.8 152.187C1146.64 153.021 1145.15 154.094 1143.5 155.381C1139.22 158.707 1133.84 163.455 1130.24 169.152C1128.66 171.648 1127.43 174.327 1126.78 177.148C1126.68 177.604 1126.59 178.065 1126.51 178.529C1125.68 183.859 1128.99 184.373 1133.72 182.54C1135.46 181.864 1137.4 180.87 1139.39 179.68C1144.49 176.626 1149.97 172.286 1153.48 168.752C1155.02 167.203 1156.19 165.809 1156.78 164.747C1158.26 162.097 1159.92 158.304 1160.45 155.311Z" fill="#F8B31D"/>
<path d="M1126.78 177.148C1118.74 178.655 1103.93 182.921 1107.01 188.193C1107.19 188.494 1107.42 188.798 1107.71 189.105C1109.65 191.127 1112.63 191.499 1115.94 190.941C1121.96 189.927 1129.73 185.384 1133.72 182.54C1128.99 184.373 1125.68 183.859 1126.51 178.529C1126.59 178.065 1126.68 177.604 1126.78 177.148Z" fill="#F8B31D"/>
<path d="M1166.14 148.31C1172.37 144.092 1177.96 136.556 1179.74 133.627C1169.62 133.698 1159.23 132.611 1147.88 129.977C1146.34 131.724 1141.66 135.77 1135.4 137.423C1135.23 137.981 1135.03 138.543 1134.81 139.103C1147.17 140.818 1159.81 143.727 1166.14 148.31Z" fill="black"/>
<path d="M1148.43 151.735C1142.79 149.78 1136.63 147.362 1130.68 144.876C1128.23 147.504 1124.62 149.297 1120.67 150.492C1120.96 152.031 1121.69 154.715 1122.82 157.472C1128.79 157.169 1140.72 156.177 1143.5 155.381C1145.15 154.094 1146.64 153.021 1147.8 152.187C1148.02 152.028 1148.23 151.877 1148.43 151.735Z" fill="black"/>
<path d="M1195.6 137.043C1190.73 147.924 1174.98 169.957 1153.48 168.752C1149.97 172.286 1144.49 176.626 1139.39 179.68C1140.77 181.045 1142.88 182.974 1145.35 185.094C1162.04 188.173 1197.65 185.583 1207.41 152.587C1204.57 147.788 1200.71 142.606 1195.6 137.043Z" fill="black"/>
<path d="M1212.68 164.12C1211.05 178.176 1197.47 204.285 1162.65 197.904C1166.61 200.329 1170.67 202.38 1174.3 203.49C1182 205.846 1188.65 204.759 1193.81 202.774C1198.98 200.789 1202.65 197.906 1204.41 196.673C1204.87 196.348 1205.68 195.69 1206.64 194.703C1210.76 190.481 1217.72 180.226 1212.68 164.12Z" fill="black"/>
<path d="M1193.81 202.774C1200.32 212.328 1197.57 220.84 1197.57 220.84C1197.57 220.84 1211.98 208.912 1206.64 194.703C1205.68 195.69 1204.87 196.348 1204.41 196.673C1202.65 197.906 1198.98 200.789 1193.81 202.774Z" fill="black"/>
<path d="M1207.41 152.587C1197.65 185.583 1162.04 188.173 1145.35 185.094C1150.06 189.135 1156.34 194.045 1162.65 197.904C1197.47 204.285 1211.05 178.176 1212.68 164.12C1211.56 160.561 1209.86 156.716 1207.41 152.587Z" fill="#F8B31D"/>
<path d="M1179.74 133.627C1177.96 136.556 1172.37 144.092 1166.14 148.31C1167.91 149.594 1169.18 151.011 1169.82 152.569C1171.4 156.457 1167.31 156.852 1160.45 155.311C1159.92 158.304 1158.26 162.097 1156.78 164.747C1156.19 165.809 1155.02 167.203 1153.48 168.752C1174.98 169.957 1190.73 147.924 1195.6 137.043C1194.38 135.721 1193.1 134.379 1191.74 133.014C1187.75 133.386 1183.77 133.599 1179.74 133.627Z" fill="#F8B31D"/>
<path d="M1122.82 157.472C1124.38 161.307 1126.81 165.739 1130.24 169.152C1133.84 163.455 1139.22 158.707 1143.5 155.381C1140.72 156.177 1128.79 157.169 1122.82 157.472Z" fill="#F8B31D"/>
<path d="M1135.4 137.423C1141.66 135.77 1146.34 131.724 1147.88 129.977C1146.36 129.626 1144.83 129.247 1143.28 128.839C1141.2 128.294 1139.01 127.705 1136.73 127.085C1136.82 128.818 1136.77 133.01 1135.4 137.423Z" fill="#F8B31D"/>
<path d="M1198.14 132.283C1215.63 129.936 1232.71 104.911 1227.66 87.5534C1225.83 81.2497 1221.09 76.5485 1213.85 73.7904C1202.99 69.6483 1186.51 69.8886 1165.86 75.6646C1152.03 79.5346 1137.07 86.9063 1124.02 94.5278C1111.11 102.066 1100.07 109.849 1093.83 114.729C1097.19 115.736 1102.32 117.257 1108.25 118.991C1116.99 121.547 1127.5 124.566 1136.73 127.085C1139.01 127.705 1141.2 128.294 1143.28 128.839C1144.83 129.247 1146.36 129.626 1147.88 129.977C1159.23 132.611 1169.62 133.698 1179.74 133.627C1183.77 133.599 1187.75 133.386 1191.74 133.014C1193.87 132.815 1196 132.57 1198.14 132.283Z" fill="#CAE5FF"/>
<path d="M1165.86 75.6646C1186.51 69.8886 1202.99 69.6483 1213.85 73.7904C1213.51 70.2824 1209.44 62.4594 1195.88 59.2311C1178.93 55.1957 1164.44 54.6739 1141.32 64.8491C1118.21 75.0244 1110.98 82.1103 1109.78 83.5592C1116.41 86.9617 1121.45 91.4781 1124.02 94.5278C1137.07 86.9063 1152.03 79.5346 1165.86 75.6646Z" fill="#A8C6E2"/>
<path d="M1033.07 85.3631L1030.78 78.8483M1011.87 87.339C1020.77 74.9588 1026.07 70.5071 1027.62 69.8287L1030.78 78.8483M1034.28 83.9142L1032.77 76.8251M1013.56 79.6944C1020.02 70.9642 1027.2 65.4107 1029.99 63.7253L1032.77 76.8251M1179.74 133.627C1177.96 136.556 1172.37 144.092 1166.14 148.31M1179.74 133.627C1169.62 133.698 1159.23 132.611 1147.88 129.977M1179.74 133.627C1183.77 133.599 1187.75 133.386 1191.74 133.014M1166.14 148.31C1159.81 143.727 1147.17 140.818 1134.81 139.103M1166.14 148.31C1167.91 149.594 1169.18 151.011 1169.82 152.569C1171.4 156.457 1167.31 156.852 1160.45 155.311M1122.82 157.472C1121.69 154.715 1120.96 152.031 1120.67 150.492M1122.82 157.472C1124.38 161.307 1126.81 165.739 1130.24 169.152M1122.82 157.472C1128.79 157.169 1140.72 156.177 1143.5 155.381M1143.86 155.255C1143.77 155.296 1143.65 155.339 1143.5 155.381M1147.88 129.977C1146.34 131.724 1141.66 135.77 1135.4 137.423M1147.88 129.977C1146.36 129.626 1144.83 129.247 1143.28 128.839C1141.2 128.294 1139.01 127.705 1136.73 127.085M1135.4 137.423C1136.77 133.01 1136.82 128.818 1136.73 127.085M1135.4 137.423C1135.23 137.981 1135.03 138.543 1134.81 139.103M1195.6 137.043C1190.73 147.924 1174.98 169.957 1153.48 168.752M1195.6 137.043C1194.38 135.721 1193.1 134.379 1191.74 133.014M1195.6 137.043C1200.71 142.606 1204.57 147.788 1207.41 152.587M1153.48 168.752C1149.97 172.286 1144.5 176.626 1139.39 179.68M1153.48 168.752C1155.02 167.203 1156.19 165.809 1156.78 164.747C1158.26 162.097 1159.92 158.304 1160.45 155.311M1145.35 185.094C1162.04 188.173 1197.65 185.583 1207.41 152.587M1145.35 185.094C1150.06 189.135 1156.34 194.045 1162.65 197.904M1145.35 185.094C1142.88 182.974 1140.77 181.045 1139.39 179.68M1207.41 152.587C1209.86 156.716 1211.56 160.561 1212.68 164.12M1212.68 164.12C1211.05 178.176 1197.47 204.285 1162.65 197.904M1212.68 164.12C1217.72 180.226 1210.76 190.481 1206.64 194.703M1162.65 197.904C1166.61 200.329 1170.67 202.38 1174.3 203.49C1182 205.846 1188.65 204.759 1193.81 202.774M1136.73 127.085C1127.5 124.566 1116.99 121.547 1108.25 118.991M1134.81 139.103C1126.93 138.009 1119.16 137.4 1113.22 137.153C1118.2 139.484 1124.32 142.219 1130.68 144.876M1100.31 152.477C1097.11 158.341 1090.66 164.463 1086.76 165.784M1100.31 152.477C1100.52 152.092 1100.72 151.709 1100.9 151.328M1100.31 152.477C1104.86 152.863 1113.36 152.704 1120.67 150.492M1130.68 144.876C1136.63 147.362 1142.79 149.78 1148.43 151.735M1130.68 144.876C1128.23 147.504 1124.62 149.297 1120.67 150.492M1130.24 169.152C1128.66 171.648 1127.43 174.327 1126.78 177.148M1130.24 169.152C1133.84 163.455 1139.22 158.707 1143.5 155.381M1065.03 131.664C1067.61 135.434 1076.23 144.317 1089.99 149.666M1065.03 131.664C1063.03 132.767 1060.63 133.948 1057.77 135.201C1055.09 136.382 1050.82 138.015 1047.38 138.928M1065.03 131.664C1076.17 125.532 1074.76 122.623 1073.89 121.667C1073 120.681 1070.8 118.351 1060.08 122.687M1089.99 149.666C1092.35 147.765 1094.89 146.257 1096.89 145.298M1089.99 149.666C1085.52 153.258 1081.67 158.257 1083.24 163.624M1193.81 202.774C1200.32 212.328 1197.57 220.84 1197.57 220.84C1197.57 220.84 1211.98 208.912 1206.64 194.703M1193.81 202.774C1198.98 200.789 1202.65 197.906 1204.41 196.673C1204.87 196.348 1205.68 195.69 1206.64 194.703M1032.81 159.988C1033.86 165.505 1040.58 174.504 1039 171.977C1037.75 169.966 1037.47 161.253 1040.89 155.579M1032.81 159.988C1032.1 159.712 1031.02 158.015 1033.82 150.802M1032.81 159.988C1033.51 160.26 1038.98 158.632 1040.89 155.579M1057.71 118.299C1046.15 122.381 1037.7 124.718 1032.65 132.462C1031.05 134.91 1030.93 136.141 1031.69 136.579M1057.71 118.299L1060.08 122.687M1057.71 118.299C1058.9 117.95 1059.98 117.6 1060.91 117.262M1057.71 118.299C1049.24 120.797 1035.45 123.327 1032.77 122.29M1060.08 122.687C1058.75 123.39 1057.47 124.128 1056.25 124.885M1060.08 122.687L1056.25 124.885M1031.69 136.579C1032.6 140.237 1034.21 147.61 1033.95 150.205M1031.69 136.579C1033.93 140.02 1035.98 141.432 1036.72 141.708M1031.69 136.579C1032.61 137.114 1034.85 136.463 1037.3 135.403M1033.95 150.205C1033.92 150.448 1033.88 150.65 1033.82 150.802M1033.95 150.205C1033.69 151.036 1033.6 151.365 1033.82 150.802M1033.95 150.205C1034.5 148.413 1035.86 144.284 1036.72 141.708M1033.82 150.802C1036.07 145.031 1040.16 140.279 1041.93 138.624M1036.72 141.708C1037.29 140.229 1038.29 136.808 1037.3 135.403M1037.3 135.403C1039.18 134.588 1041.19 133.53 1042.82 132.584L1056.25 124.885M1105.85 123.235C1102.53 121.941 1098.49 125.098 1096.89 133.161C1095.85 138.356 1096.13 142.363 1096.89 145.298M1105.85 123.235C1111 129.707 1107.03 141.575 1105.52 145.459C1104.51 148.058 1102.56 151.071 1100.9 151.328M1105.85 123.235C1105.93 121.73 1107.52 119.772 1108.25 118.991M1096.89 145.298C1097.6 148.057 1098.73 149.867 1099.6 150.823C1099.99 151.255 1100.44 151.4 1100.9 151.328M1083.24 163.624C1083.39 164.123 1083.58 164.624 1083.82 165.127C1084.3 166.115 1085.37 166.257 1086.76 165.784M1083.24 163.624C1071.26 171.74 1077.44 179.893 1077.44 179.893C1077.44 179.893 1079.45 169.813 1086.76 165.784M1148.43 151.735C1152.89 153.282 1157.01 154.539 1160.45 155.311M1148.43 151.735C1148.23 151.877 1148.02 152.028 1147.8 152.187C1146.64 153.021 1145.15 154.094 1143.5 155.381M1191.74 133.014C1193.87 132.815 1196 132.57 1198.14 132.283C1215.63 129.936 1232.71 104.911 1227.66 87.5534C1225.83 81.2497 1221.09 76.5485 1213.85 73.7904M1139.39 179.68C1137.4 180.87 1135.46 181.864 1133.72 182.54M1041.93 138.624C1042.64 139.162 1044.89 139.589 1047.38 138.928M1041.93 138.624C1043.83 139.362 1046.35 139.134 1047.38 138.928M1041.93 138.624C1042.29 136.179 1047.89 130.069 1056.25 124.885M1047.38 138.928C1048.8 140.217 1042.79 152.373 1040.94 155.486C1040.93 155.517 1040.91 155.548 1040.89 155.579M1126.78 177.148C1118.74 178.655 1103.93 182.921 1107.01 188.193M1126.78 177.148C1126.68 177.604 1126.59 178.065 1126.51 178.529C1125.68 183.859 1128.99 184.373 1133.72 182.54M1107.01 188.193C1107.19 188.494 1107.42 188.798 1107.71 189.105C1109.65 191.127 1112.63 191.499 1115.94 190.941M1107.01 188.193C1105.26 196.197 1101.58 199.633 1101.74 199.555C1105.68 197.625 1114.04 193.2 1115.94 190.941M1115.94 190.941C1121.96 189.927 1129.73 185.384 1133.72 182.54M1108.25 118.991C1102.32 117.257 1097.19 115.736 1093.83 114.729C1100.07 109.849 1111.11 102.066 1124.02 94.5278M1020.25 96.9856C1016.08 107.724 1016.87 123.772 1018.59 130.83C1020.94 127.028 1029.73 121.115 1032.77 122.29M1020.25 96.9856C1018.12 111.396 1021.07 117.257 1032.77 122.29M1020.25 96.9856C1023.17 89.4732 1026.35 83.6861 1030.78 78.8483M1060.91 117.262L1060.96 117.243M1060.91 117.262C1060.93 117.256 1060.95 117.25 1060.96 117.243M1213.85 73.7904C1202.99 69.6483 1186.51 69.8886 1165.86 75.6646C1152.03 79.5346 1137.07 86.9063 1124.02 94.5278M1213.85 73.7904C1213.51 70.2824 1209.44 62.4594 1195.88 59.2311C1178.93 55.1957 1164.44 54.6738 1141.32 64.8491C1118.21 75.0244 1110.98 82.1103 1109.78 83.5592M1109.78 83.5592C1116.41 86.9617 1121.45 91.4781 1124.02 94.5278M1109.78 83.5592C1103.63 80.4016 1096.1 78.2034 1087.91 79.0271M1087.91 79.0271C1085.71 74.0085 1082.32 70.1407 1079.89 68.4339C1073.95 64.258 1061.21 60.2863 1047.16 67.2058C1041.19 70.1459 1036.55 73.227 1032.77 76.8251M1087.91 79.0271C1088.02 79.2871 1088.13 79.5503 1088.24 79.8164C1090.17 84.5986 1090.97 90.3333 1088.9 96.2048C1084.5 108.692 1067.89 114.727 1060.96 117.243M1030.78 78.8483C1031.42 78.1552 1032.08 77.4815 1032.77 76.8251M1043.62 89.4611C1039.85 95.873 1034.7 109.116 1044.27 110.791C1056.23 112.885 1064.89 105.394 1067.85 102.712C1070.8 100.03 1075.36 91.5832 1069.78 86.2207C1064.21 80.8582 1055.91 80.8286 1051.29 82.8637C1050.52 83.2028 1047.65 84.0047 1043.62 89.4611Z" stroke="black"/>
</g>
<defs>
<filter id="filter0_dd_190_1970" x="0" y="0" width="1382" height="1321" filterUnits="userSpaceOnUse" color-interpolation-filters="sRGB">
<feFlood flood-opacity="0" result="BackgroundImageFix"/>
<feColorMatrix in="SourceAlpha" type="matrix" values="0 0 0 0 0 0 0 0 0 0 0 0 0 0 0 0 0 0 127 0" result="hardAlpha"/>
<feOffset dy="4"/>
<feGaussianBlur stdDeviation="2"/>
<feComposite in2="hardAlpha" operator="out"/>
<feColorMatrix type="matrix" values="0 0 0 0 0 0 0 0 0 0 0 0 0 0 0 0 0 0 0.25 0"/>
<feBlend mode="normal" in2="BackgroundImageFix" result="effect1_dropShadow_190_1970"/>
<feColorMatrix in="SourceAlpha" type="matrix" values="0 0 0 0 0 0 0 0 0 0 0 0 0 0 0 0 0 0 127 0" result="hardAlpha"/>
<feOffset dy="4"/>
<feGaussianBlur stdDeviation="2"/>
<feComposite in2="hardAlpha" operator="out"/>
<feColorMatrix type="matrix" values="0 0 0 0 0 0 0 0 0 0 0 0 0 0 0 0 0 0 0.25 0"/>
<feBlend mode="normal" in2="effect1_dropShadow_190_1970" result="effect2_dropShadow_190_1970"/>
<feBlend mode="normal" in="SourceGraphic" in2="effect2_dropShadow_190_1970" result="shape"/>
</filter>
<filter id="filter1_d_190_1970" x="0" y="135.231" width="1382" height="1185.77" filterUnits="userSpaceOnUse" color-interpolation-filters="sRGB">
<feFlood flood-opacity="0" result="BackgroundImageFix"/>
<feColorMatrix in="SourceAlpha" type="matrix" values="0 0 0 0 0 0 0 0 0 0 0 0 0 0 0 0 0 0 127 0" result="hardAlpha"/>
<feOffset dy="4"/>
<feGaussianBlur stdDeviation="2"/>
<feComposite in2="hardAlpha" operator="out"/>
<feColorMatrix type="matrix" values="0 0 0 0 0 0 0 0 0 0 0 0 0 0 0 0 0 0 0.25 0"/>
<feBlend mode="normal" in2="BackgroundImageFix" result="effect1_dropShadow_190_1970"/>
<feBlend mode="normal" in="SourceGraphic" in2="effect1_dropShadow_190_1970" result="shape"/>
</filter>
</defs>
</svg>
