<svg width="575" height="601" viewBox="0 0 575 601" fill="none" xmlns="http://www.w3.org/2000/svg">
<path fill-rule="evenodd" clip-rule="evenodd" d="M187.056 254.229L176.367 251.624L193.937 277.151C192.307 309.301 209.711 307.398 236.225 308.928C262.739 310.459 281.736 308.884 281.653 286.528C289.549 281.706 294.141 281.854 302.497 284.965C309.417 310.564 322.733 310.185 346.856 308.928C379.025 307.016 390.059 301.194 389.612 277.151L400.301 271.941L405.111 259.96L394.69 265.95C390.365 267.803 388.813 267.507 385.592 270.378C379.014 262.142 333.432 259.804 331.612 260.827C331.612 260.827 303.533 266.415 302.497 274.546C290.444 271.68 285.786 272.723 279.516 277.151C273.253 255.679 233.111 260.666 199.348 268.295L187.056 254.229ZM343.65 274.546C362.258 274.765 369.76 276.668 373.579 283.402C373.609 288.969 372.191 292.613 367.7 294.868C364.914 296.266 360.946 297.13 355.408 297.587C352.48 297.828 349.115 297.956 345.253 297.989C328.228 299.748 318.91 300.512 317.996 286.528C317.703 280.434 320.773 277.356 329.754 275.794C333.371 275.165 337.948 274.782 343.65 274.546ZM257.297 297.587C252.854 300.397 203.116 301.197 211.106 286.528C213.034 280.864 217.358 278.738 225.536 277.808C228.551 277.466 232.09 277.286 236.225 277.151C264.175 276.353 270.121 280.1 265.62 293.3C263.747 295.865 261.543 296.557 257.297 297.587Z" fill="#EC92C8"/>
<path d="M211.106 286.528C203.116 301.197 252.854 300.397 257.297 297.587L225.536 277.808C217.358 278.738 213.034 280.864 211.106 286.528Z" fill="black"/>
<path d="M236.225 277.151C264.175 276.353 270.121 280.1 265.62 293.3L236.225 277.151Z" fill="black"/>
<path d="M317.996 286.528C318.91 300.512 328.228 299.748 345.253 297.989C349.115 297.956 352.48 297.828 355.408 297.587L329.754 275.794C320.773 277.356 317.703 280.434 317.996 286.528Z" fill="black"/>
<path d="M373.579 283.402C369.76 276.668 362.258 274.765 343.65 274.546L367.7 294.868C372.191 292.613 373.609 288.969 373.579 283.402Z" fill="black"/>
<path d="M257.297 297.587C261.543 296.557 263.747 295.865 265.62 293.3L236.225 277.151C232.09 277.286 228.551 277.466 225.536 277.808L257.297 297.587Z" fill="white"/>
<path d="M343.65 274.546C337.948 274.782 333.371 275.165 329.754 275.794L355.408 297.587C360.946 297.13 364.914 296.266 367.7 294.868L343.65 274.546Z" fill="white"/>
<path d="M371.441 246.415C348.104 242.907 315.258 237.47 313.72 251.624C313.562 261.483 320.003 261.006 331.612 260.827C333.432 259.804 379.014 262.142 385.592 270.378C388.813 267.507 390.365 267.803 394.69 265.95L371.441 246.415Z" fill="#261D14"/>
<path d="M276.309 254.229C279.516 239.643 233.918 238.82 211.106 247.978L199.348 268.295C221.603 254.84 273.102 268.816 276.309 254.229Z" fill="#261D14"/>
<path d="M176.367 242.247V251.624L187.056 254.229L190.356 230.787C185.794 234.196 181.159 238.001 176.367 242.247Z" fill="#261D14"/>
<path d="M416.869 254.229V244.852C412.547 240.183 406.065 235.394 398.141 230.787L405.111 259.96L416.869 254.229Z" fill="#261D14"/>
<path d="M409.387 179.213C390.147 168.273 234.656 149.479 176.367 179.213C171.022 179.213 158.985 186.807 155.523 193.8C154.121 200.516 154.073 204.274 155.523 210.991C159.59 223.271 165.357 230.094 176.367 242.247C181.159 238.001 185.794 234.196 190.356 230.787C219.376 209.105 245.481 203.45 290.739 202.135C323.074 200.165 369.816 214.315 398.141 230.787C406.065 235.394 412.547 240.183 416.869 244.852L428.627 230.787C428.627 230.787 438.247 206.823 428.627 196.404C422.376 189.634 420.271 187.765 416.869 185.102C415.036 183.667 412.826 182.001 409.387 179.213Z" fill="#013C38"/>
<path d="M302.497 284.965C294.141 281.854 289.549 281.706 281.653 286.528C281.975 298.449 280.705 304.077 276.309 312.575C265.27 322.662 261.345 327.555 259.741 334.455C260.096 340.4 264.925 340.987 275.774 340.706L276.222 340.924C281.732 343.612 284.957 345.185 292.877 345.395C298.846 344.472 302.253 342.403 308.376 337.58C314.793 337.416 318.418 337.452 323.875 332.892C325.063 327.591 322.597 323.035 310.514 311.012C304.675 301.704 303.011 295.97 302.497 284.965Z" fill="#BE5D44"/>
<path d="M290.739 202.135C245.481 203.45 219.376 209.105 190.356 230.787L187.056 254.229L199.348 268.295L211.106 247.978C233.918 238.82 279.516 239.643 276.309 254.229C273.102 268.816 221.603 254.84 199.348 268.295C233.111 260.666 273.253 255.679 279.516 277.151C285.786 272.723 290.444 271.68 302.497 274.546C303.533 266.415 331.612 260.827 331.612 260.827C320.003 261.006 313.562 261.483 313.72 251.624C315.258 237.47 348.104 242.907 371.441 246.415L394.69 265.95L405.111 259.96L398.141 230.787C369.816 214.315 323.074 200.165 290.739 202.135Z" fill="#A36A45"/>
<path d="M281.653 286.528C281.736 308.884 262.739 310.459 236.225 308.928C209.711 307.398 192.307 309.301 193.937 277.151C192.246 286.791 192.409 299.685 192.578 312.575C210.67 352.685 226.828 351.842 259.741 334.455C261.345 327.555 265.27 322.662 276.309 312.575C280.705 304.077 281.975 298.449 281.653 286.528Z" fill="#BD5E42"/>
<path d="M400.301 271.941L389.612 277.151C390.059 301.194 379.025 307.016 346.856 308.928C322.733 310.185 309.417 310.564 302.497 284.965C303.011 295.97 304.675 301.704 310.514 311.012C322.597 323.035 325.063 327.591 323.875 332.892C360.377 350.062 377.4 352.949 391.957 327.161C392.689 311.326 395.943 291.25 400.301 271.941Z" fill="#BD5E42"/>
<path fill-rule="evenodd" clip-rule="evenodd" d="M293.946 482.403C335.066 478.46 352.795 435.225 392.285 380.819L397.629 356.334C392.782 353.003 391.274 341.926 391.957 327.161C377.4 352.949 360.377 350.062 323.875 332.892C318.418 337.452 314.793 337.416 308.376 337.58C302.253 342.403 298.846 344.472 292.877 345.395C284.957 345.185 281.732 343.612 276.222 340.924L275.774 340.706C264.925 340.987 260.096 340.4 259.741 334.455C226.828 351.842 210.67 352.685 192.578 312.575L192.58 312.716C192.775 327.536 192.97 342.336 190.356 352.167L203.624 387.07C203.624 387.07 242.862 452.95 275.774 475.186C282.184 479.516 288.353 482.192 293.946 482.403ZM349.529 380.819C345.943 372.263 313.85 362.199 292.877 375.609C266.474 361.076 243.707 380.819 242.104 387.07C240.501 393.321 253.307 428.536 277.912 436.56C292.149 439.5 299.853 439.928 312.651 436.56C332.488 434.659 353.114 389.375 349.529 380.819Z" fill="#A36945"/>
<path fill-rule="evenodd" clip-rule="evenodd" d="M292.877 375.609C313.85 362.199 345.943 372.263 349.529 380.819C353.114 389.375 332.488 434.659 312.651 436.56C299.853 439.928 292.149 439.5 277.912 436.56C253.307 428.536 240.501 393.321 242.104 387.07C243.707 380.819 266.474 361.076 292.877 375.609ZM292.877 385.507C296.634 385.507 297.687 384.465 302.497 385.507C307.307 386.549 307.057 385.507 309.979 385.507C312.663 383.717 314.52 383.483 317.996 383.423C319.35 381.564 320.776 381.117 323.875 380.819C327.006 380.819 328.151 379.256 331.892 380.819C335.57 382.355 331.068 392.486 328.292 398.734L328.151 399.052C311.673 414.972 300.031 419.057 268.826 405.303C264.717 402.814 258.672 397.489 258.672 396.447C258.672 395.405 258.15 392.954 258.672 390.717C258.137 388.633 258.672 383.423 258.672 383.423H263.482C265.569 384.237 266.154 383.423 268.826 385.507C271.54 385.507 272.033 384.465 275.774 385.507C278.981 384.465 280.335 385.507 283.257 385.507C287.532 384.465 289.12 385.507 292.877 385.507Z" fill="#B55F50"/>
<path d="M302.497 399.052C297.687 400.615 296.083 400.441 292.877 399.052C289.12 400.695 287.014 400.908 283.257 399.052C278.447 399.052 278.696 397.464 275.774 396.447C270.964 396.968 271.54 395.495 268.826 394.884C265.085 394.884 265.569 393.297 263.482 392.279C259.741 393.321 259.206 392.8 258.672 390.717C258.15 392.954 258.672 395.405 258.672 396.447C258.672 397.489 264.717 402.814 268.826 405.303C277.941 405.841 283.354 406.821 293.411 409.471C295.984 406.668 297.846 405.953 302.497 407.387C304.396 404.041 306.254 403.665 310.514 404.782C311.128 402.923 311.634 401.948 314.789 401.136C315.968 397.131 317.501 395.997 320.134 393.842L323.875 389.675C321.203 392.279 320.292 391.262 317.996 392.279C314.255 396.447 313.11 394.82 309.979 396.447C307.546 398.406 307.307 397.489 302.497 399.052Z" fill="#A43734"/>
<path d="M150.713 286.528C155.002 306.361 158.384 314.987 165.678 327.161C173.622 344.38 177.707 355.659 190.356 352.167C192.97 342.336 192.775 327.536 192.58 312.716L192.578 312.575C192.409 299.685 192.246 286.791 193.937 277.151L176.367 251.624C162.144 247.23 156.219 251.928 153.212 265.95C152.044 271.398 151.316 278.252 150.713 286.528Z" fill="#B46345"/>
<path d="M416.869 254.229L405.111 259.96L400.301 271.941C395.943 291.25 392.689 311.326 391.957 327.161C391.274 341.926 392.782 353.003 397.629 356.334C404.194 359.88 412.102 344.624 423.817 327.161C425.141 318.3 428.343 307.326 431.695 297.587C435.327 287.034 439.135 277.933 440.92 274.546C444.351 268.034 433.368 248.601 416.869 254.229Z" fill="#B36445"/>
<path d="M292.877 391.474L292.877 385.507C289.12 385.507 287.532 384.465 283.257 385.507C282.893 391.154 282.907 394.1 283.257 399.052C287.014 400.908 289.12 400.695 292.877 399.052C292.877 396.064 292.877 393.817 292.877 391.474Z" fill="white"/>
<path d="M283.257 399.052C282.907 394.1 282.893 391.154 283.257 385.507C280.335 385.507 278.981 384.465 275.774 385.507V396.447C278.696 397.464 278.447 399.052 283.257 399.052Z" fill="white"/>
<path d="M292.877 399.052C296.083 400.441 297.687 400.615 302.497 399.052C302.497 393.762 303.031 391.238 302.497 385.507C297.687 384.465 296.634 385.507 292.877 385.507L292.877 391.474L292.877 399.052Z" fill="white"/>
<path d="M302.497 385.507C303.031 391.238 302.497 393.762 302.497 399.052C307.307 397.489 307.546 398.406 309.979 396.447V385.507C307.057 385.507 307.307 386.549 302.497 385.507Z" fill="white"/>
<path d="M309.979 385.507V396.447C313.11 394.82 314.255 396.447 317.996 392.279V383.423C314.52 383.483 312.663 383.717 309.979 385.507Z" fill="white"/>
<path d="M317.996 383.423V392.279C320.292 391.262 321.203 392.279 323.875 389.675C326.547 387.07 323.875 380.819 323.875 380.819C320.776 381.117 319.35 381.564 317.996 383.423Z" fill="white"/>
<path d="M323.875 380.819C323.875 380.819 326.547 387.07 323.875 389.675L320.134 393.842C317.501 395.997 315.968 397.131 314.789 401.136C311.634 401.948 311.128 402.923 310.514 404.782C306.254 403.665 304.396 404.041 302.497 407.387C297.846 405.953 295.984 406.668 293.411 409.471C283.354 406.821 277.941 405.841 268.826 405.303C300.031 419.057 311.673 414.972 328.151 399.052L328.292 398.734C331.068 392.486 335.57 382.355 331.892 380.819C328.151 379.256 327.006 380.819 323.875 380.819Z" fill="white"/>
<path d="M275.774 396.447V385.507C272.033 384.465 271.54 385.507 268.826 385.507V394.884C271.54 395.495 270.964 396.968 275.774 396.447Z" fill="white"/>
<path d="M268.826 394.884V385.507C266.154 383.423 265.569 384.237 263.482 383.423V392.279C265.569 393.297 265.085 394.884 268.826 394.884Z" fill="white"/>
<path d="M258.672 390.717C259.206 392.8 259.741 393.321 263.482 392.279V383.423H258.672C258.672 383.423 258.137 388.633 258.672 390.717Z" fill="white"/>
<path d="M293.946 482.403C288.353 482.192 282.184 479.516 275.774 475.186C263.134 524.523 256.151 554.788 242.104 568.879C258.894 589.352 271.972 595.097 299.29 599.094C332.579 603.111 341.22 593.723 352.201 571.834C334.125 559.545 319.006 531.512 293.946 482.403Z" fill="#F26A1B"/>
<path d="M392.285 380.819C424.172 436.073 443.207 467.124 444.126 520.432C481.699 531.15 495.261 523.563 512.536 497.51C524.16 475.268 525.235 459.992 512.536 425.197C490.392 427.869 462.394 418.727 392.285 380.819Z" fill="#F26A1B"/>
<path d="M440.92 274.546C439.135 277.933 435.327 287.034 431.695 297.587L432.529 297.8C480.832 310.143 510.873 317.82 532.311 331.167C550.597 326.634 559.335 321.39 567.05 297.989C572.389 274.68 567.781 264.769 557.43 247.978C524.261 267.654 498.391 273.202 440.92 274.546Z" fill="#F26A1B"/>
<path d="M498.106 88.5689C482.845 68.4761 471.542 62.5655 445.73 63.0427C454.197 95.3191 439.395 118.886 416.595 155.186C414.27 158.888 411.862 162.721 409.387 166.71L409.164 171.87C409.53 176.374 409.387 179.213 409.387 179.213C412.826 182.001 415.036 183.667 416.869 185.102L517.346 143.789C521.79 119.219 518.742 106.837 498.106 88.5689Z" fill="#F26A1B"/>
<path d="M190.356 352.167C139.973 395.007 112.063 405.06 63.0631 390.717C54.3949 414.599 52.9977 427.469 63.0631 448.541C81.2358 471.923 103.495 473.814 154.408 466.775C165.563 447.198 181.679 421.32 203.624 387.07L190.356 352.167Z" fill="#F26A1B"/>
<path d="M35.2717 305.803C61.0567 285.501 92.289 284.753 150.713 286.528C151.316 278.252 152.044 271.398 153.212 265.95L59.8564 230.787C32.6203 241.782 8.29984 241.205 2.67021 268.295C-2.93432 291.735 5.74566 301.736 26.0061 318.305C28.4558 314.502 31.5203 310.393 35.2717 305.803Z" fill="#F26A1B"/>
<path d="M176.367 179.213C179.009 137.789 183.252 125.364 194.538 117.742L183.314 70.3359C160.804 55.7882 148.16 47.3902 127.197 48.9772C108.544 51.9323 101.824 56.8698 95.1301 70.3359C88.7008 86.499 89.9114 97.3214 95.1301 117.742L114.37 151.932C138.6 157.245 154.122 166.504 176.367 179.213Z" fill="#F26A1B"/>
<path d="M271.499 27.6185C286.851 48.8778 295.942 58.2538 308.376 94.8418L349.529 41.684C337.937 19.2124 329.456 10.6366 309.979 4.17592C288.674 -1.61489 276.435 0.145157 254.055 12.511C259.676 16.4755 264.927 21.7518 271.499 27.6185Z" fill="#F26A1B"/>
<path d="M275.774 475.186C242.862 452.95 203.624 387.07 203.624 387.07C181.679 421.32 165.563 447.198 154.408 466.775C136.857 497.576 131.587 512.776 135.214 520.432C139.506 544.708 150.301 558.749 165.678 568.879C200.076 594.763 216.313 591.941 242.104 568.879C256.151 554.788 263.134 524.523 275.774 475.186Z" fill="#F8B31D"/>
<path d="M165.678 327.161C158.384 314.987 155.002 306.361 150.713 286.528C92.289 284.753 61.0567 285.501 35.2717 305.803C31.5203 310.393 28.4558 314.502 26.0061 318.305C17.026 332.247 16.308 342.069 20.3071 356.334C25.8179 370.213 38.9454 377.589 63.0631 390.717C112.063 405.06 139.973 395.007 190.356 352.167C177.707 355.659 173.622 344.38 165.678 327.161Z" fill="#F8B31D"/>
<path d="M155.523 210.991C154.073 204.274 154.121 200.516 155.523 193.8C158.985 186.807 171.022 179.213 176.367 179.213C154.122 166.504 138.6 157.245 114.37 151.932C101.771 149.169 86.8167 147.473 67.3387 146.915C53.4986 150.243 46.0147 153.328 35.2717 170.357C25.1829 203.592 35.2161 214.548 59.8564 230.787L153.212 265.95C156.219 251.928 162.144 247.23 176.367 251.624V242.247C165.357 230.094 159.59 223.271 155.523 210.991Z" fill="#F8B31D"/>
<path d="M194.538 117.742C229.06 108.402 253.543 97.6378 290.739 88.5689C296.706 90.7113 302.604 92.8027 308.376 94.8418C295.942 58.2538 286.851 48.8778 271.499 27.6185C264.927 21.7518 259.676 16.4755 254.055 12.511C244.831 6.00487 234.609 3.03181 215.916 6.78069C194.641 17.3442 185.275 27.5405 183.314 70.3359L194.538 117.742Z" fill="#F8B31D"/>
<path d="M349.529 41.684L308.376 94.8418C310.816 95.7038 313.233 96.5564 315.624 97.3996C350.825 109.816 380.209 120.18 390.147 128.161C404.708 141.898 408.313 161.391 409.164 171.87L409.387 166.71C411.862 162.721 414.27 158.888 416.595 155.186C439.395 118.886 454.197 95.3191 445.73 63.0427C442.983 51.6859 437.695 44.5881 419.542 30.2232C389.79 20.5994 373.708 18.7049 349.529 41.684Z" fill="#F8B31D"/>
<path d="M428.627 196.404C438.247 206.823 428.627 230.787 428.627 230.787L416.869 244.852V254.229C433.368 248.601 444.351 268.034 440.92 274.546C498.391 273.202 524.261 267.654 557.43 247.978C576.572 224.501 578.212 211.384 567.05 188.069C560.639 156.222 550.448 145.747 517.346 143.789L416.869 185.102C420.271 187.765 422.376 189.634 428.627 196.404Z" fill="#F8B31D"/>
<path d="M397.629 356.334L392.285 380.819C462.394 418.727 490.392 427.869 512.536 425.197C516.763 424.687 520.776 423.747 524.828 422.494C542.974 417.973 549.306 409.551 557.43 389.675C561.768 363.777 558.047 352.478 541.396 337.58C538.539 335.292 535.521 333.166 532.311 331.167C510.873 317.82 480.832 310.143 432.529 297.8L431.695 297.587C428.343 307.326 425.141 318.3 423.817 327.161C412.102 344.624 404.194 359.88 397.629 356.334Z" fill="#F8B31D"/>
<path d="M392.285 380.819C352.795 435.225 335.066 478.46 293.946 482.403C319.006 531.512 334.125 559.545 352.201 571.834C354.799 573.6 357.459 575.041 360.218 576.173C382.601 584.671 394.536 581.566 415.266 568.879C433.465 555.725 437.621 543.318 444.126 520.432C443.207 467.124 424.172 436.073 392.285 380.819Z" fill="#F8B31D"/>
<path d="M290.739 88.5689C253.543 97.6378 229.06 108.402 194.538 117.742C183.252 125.364 179.009 137.789 176.367 179.213C234.656 149.479 390.147 168.273 409.387 179.213C409.387 179.213 409.53 176.374 409.164 171.87C408.313 161.391 404.708 141.898 390.147 128.161C380.209 120.18 350.825 109.816 315.624 97.3996C313.233 96.5564 310.816 95.7038 308.376 94.8418C302.604 92.8027 296.706 90.7113 290.739 88.5689Z" fill="#7EAF7D"/>
<path d="M194.538 117.742C229.06 108.402 253.543 97.6378 290.739 88.5689C296.706 90.7113 302.604 92.8027 308.376 94.8418M194.538 117.742C183.252 125.364 179.009 137.789 176.367 179.213M194.538 117.742L183.314 70.3359M409.387 179.213C390.147 168.273 234.656 149.479 176.367 179.213M409.387 179.213C412.826 182.001 415.036 183.667 416.869 185.102M409.387 179.213C409.387 179.213 409.53 176.374 409.164 171.87M176.367 179.213C171.022 179.213 158.985 186.807 155.523 193.8C154.121 200.516 154.073 204.274 155.523 210.991C159.59 223.271 165.357 230.094 176.367 242.247M176.367 179.213C154.122 166.504 138.6 157.245 114.37 151.932M176.367 242.247V251.624M176.367 242.247C181.159 238.001 185.794 234.196 190.356 230.787M176.367 251.624L187.056 254.229M176.367 251.624C162.144 247.23 156.219 251.928 153.212 265.95M176.367 251.624L193.937 277.151M416.869 244.852L428.627 230.787C428.627 230.787 438.247 206.823 428.627 196.404C422.376 189.634 420.271 187.765 416.869 185.102M416.869 244.852V254.229M416.869 244.852C412.547 240.183 406.065 235.394 398.141 230.787M416.869 254.229L405.111 259.96M416.869 254.229C433.368 248.601 444.351 268.034 440.92 274.546M190.356 230.787C219.376 209.105 245.481 203.45 290.739 202.135C323.074 200.165 369.816 214.315 398.141 230.787M190.356 230.787L187.056 254.229M187.056 254.229L199.348 268.295M398.141 230.787L405.111 259.96M405.111 259.96L394.69 265.95M405.111 259.96L400.301 271.941M199.348 268.295L211.106 247.978C233.918 238.82 279.516 239.643 276.309 254.229C273.102 268.816 221.603 254.84 199.348 268.295ZM199.348 268.295C233.111 260.666 273.253 255.679 279.516 277.151C285.786 272.723 290.444 271.68 302.497 274.546C303.533 266.415 331.612 260.827 331.612 260.827M394.69 265.95L371.441 246.415C348.104 242.907 315.258 237.47 313.72 251.624C313.562 261.483 320.003 261.006 331.612 260.827M394.69 265.95C390.365 267.803 388.813 267.507 385.592 270.378C379.014 262.142 333.432 259.804 331.612 260.827M400.301 271.941L389.612 277.151C390.059 301.194 379.025 307.016 346.856 308.928C322.733 310.185 309.417 310.564 302.497 284.965M400.301 271.941C395.943 291.25 392.689 311.326 391.957 327.161M281.653 286.528C289.549 281.706 294.141 281.854 302.497 284.965M281.653 286.528C281.736 308.884 262.739 310.459 236.225 308.928C209.711 307.398 192.307 309.301 193.937 277.151M281.653 286.528C281.975 298.449 280.705 304.077 276.309 312.575C265.27 322.662 261.345 327.555 259.741 334.455M302.497 284.965C303.011 295.97 304.675 301.704 310.514 311.012C322.597 323.035 325.063 327.591 323.875 332.892M343.65 274.546C362.258 274.765 369.76 276.668 373.579 283.402C373.609 288.969 372.191 292.613 367.7 294.868M343.65 274.546C337.948 274.782 333.371 275.165 329.754 275.794M343.65 274.546L367.7 294.868M329.754 275.794C320.773 277.356 317.703 280.434 317.996 286.528C318.91 300.512 328.228 299.748 345.253 297.989C349.115 297.956 352.48 297.828 355.408 297.587M329.754 275.794L355.408 297.587M355.408 297.587C360.946 297.13 364.914 296.266 367.7 294.868M257.297 297.587C252.854 300.397 203.116 301.197 211.106 286.528C213.034 280.864 217.358 278.738 225.536 277.808M257.297 297.587C261.543 296.557 263.747 295.865 265.62 293.3M257.297 297.587L225.536 277.808M236.225 277.151C264.175 276.353 270.121 280.1 265.62 293.3M236.225 277.151C232.09 277.286 228.551 277.466 225.536 277.808M236.225 277.151L265.62 293.3M150.713 286.528C155.002 306.361 158.384 314.987 165.678 327.161C173.622 344.38 177.707 355.659 190.356 352.167M150.713 286.528C92.289 284.753 61.0567 285.501 35.2717 305.803C31.5203 310.393 28.4558 314.502 26.0061 318.305M150.713 286.528C151.316 278.252 152.044 271.398 153.212 265.95M203.624 387.07C203.624 387.07 242.862 452.95 275.774 475.186M203.624 387.07C181.679 421.32 165.563 447.198 154.408 466.775M203.624 387.07L190.356 352.167M293.946 482.403C335.066 478.46 352.795 435.225 392.285 380.819M293.946 482.403C288.353 482.192 282.184 479.516 275.774 475.186M293.946 482.403C319.006 531.512 334.125 559.545 352.201 571.834M392.285 380.819L397.629 356.334M392.285 380.819C424.172 436.073 443.207 467.124 444.126 520.432M392.285 380.819C462.394 418.727 490.392 427.869 512.536 425.197M397.629 356.334C404.194 359.88 412.102 344.624 423.817 327.161C425.141 318.3 428.343 307.326 431.695 297.587M397.629 356.334C392.782 353.003 391.274 341.926 391.957 327.161M440.92 274.546C439.135 277.933 435.327 287.034 431.695 297.587M440.92 274.546C498.391 273.201 524.261 267.654 557.43 247.978M292.877 385.507C296.634 385.507 297.687 384.465 302.497 385.507M292.877 385.507C289.12 385.507 287.532 384.465 283.257 385.507M292.877 385.507L292.877 391.474M292.877 385.507C292.877 387.808 292.877 389.669 292.877 391.474M292.877 399.052C296.084 400.441 297.687 400.615 302.497 399.052M292.877 399.052C289.12 400.695 287.014 400.908 283.257 399.052M292.877 399.052C292.877 396.064 292.877 393.817 292.877 391.474M292.877 399.052L292.877 391.474M302.497 399.052C302.497 393.762 303.031 391.238 302.497 385.507M302.497 399.052C307.307 397.489 307.546 398.406 309.979 396.447M302.497 385.507C307.307 386.549 307.057 385.507 309.979 385.507M283.257 385.507C282.893 391.154 282.907 394.1 283.257 399.052M283.257 385.507C280.335 385.507 278.981 384.465 275.774 385.507M283.257 399.052C278.447 399.052 278.696 397.464 275.774 396.447M309.979 396.447V385.507M309.979 396.447C313.11 394.82 314.255 396.447 317.996 392.279M309.979 385.507C312.663 383.717 314.52 383.483 317.996 383.423M317.996 383.423V392.279M317.996 383.423C319.35 381.564 320.776 381.117 323.875 380.819M317.996 392.279C320.292 391.262 321.203 392.279 323.875 389.675M323.875 380.819C323.875 380.819 326.547 387.07 323.875 389.675M323.875 380.819C327.006 380.819 328.151 379.256 331.892 380.819C335.57 382.355 331.068 392.486 328.292 398.734M323.875 389.675L320.134 393.842C317.501 395.997 315.968 397.131 314.789 401.136C311.634 401.948 311.128 402.923 310.514 404.782C306.254 403.665 304.396 404.041 302.497 407.387C297.846 405.953 295.984 406.668 293.411 409.471C283.354 406.821 277.941 405.84 268.826 405.303M275.774 385.507V396.447M275.774 385.507C272.033 384.465 271.54 385.507 268.826 385.507M275.774 396.447C270.964 396.968 271.54 395.495 268.826 394.884M268.826 394.884V385.507M268.826 394.884C265.085 394.884 265.569 393.297 263.482 392.279M268.826 385.507C266.154 383.423 265.569 384.237 263.482 383.423M263.482 392.279C259.741 393.321 259.206 392.8 258.672 390.717M263.482 392.279V383.423M258.672 390.717C258.137 388.633 258.672 383.423 258.672 383.423H263.482M258.672 390.717C258.15 392.954 258.672 395.405 258.672 396.447C258.672 397.489 264.717 402.813 268.826 405.303M268.826 405.303C300.031 419.057 311.673 414.972 328.151 399.052M328.151 399.052L328.292 398.734M328.151 399.052C328.197 398.947 328.244 398.841 328.292 398.734M323.875 332.892C318.418 337.452 314.793 337.416 308.376 337.58C302.253 342.403 298.846 344.472 292.877 345.395C284.957 345.185 281.732 343.612 276.222 340.924M323.875 332.892C360.377 350.062 377.4 352.949 391.957 327.161M259.741 334.455C260.096 340.4 264.925 340.987 275.774 340.706M259.741 334.455C226.828 351.842 210.67 352.685 192.578 312.575M275.774 340.706L276.222 340.924M275.774 340.706C275.925 340.779 276.074 340.852 276.222 340.924M431.695 297.587L432.529 297.8M431.695 297.587C431.974 297.658 432.252 297.729 432.529 297.8M444.126 520.432C481.699 531.15 495.261 523.563 512.536 497.51C524.16 475.268 525.235 459.992 512.536 425.197M444.126 520.432C437.621 543.318 433.465 555.725 415.266 568.879C394.536 581.566 382.601 584.671 360.218 576.173C357.459 575.041 354.799 573.6 352.201 571.834M512.536 425.197C516.763 424.687 520.776 423.747 524.828 422.494C542.974 417.973 549.306 409.551 557.43 389.675C561.768 363.777 558.047 352.478 541.396 337.58C538.539 335.292 535.521 333.166 532.311 331.167M275.774 475.186C263.134 524.523 256.151 554.788 242.104 568.879M242.104 568.879C258.894 589.352 271.972 595.097 299.29 599.094C332.579 603.111 341.22 593.723 352.201 571.834M242.104 568.879C216.313 591.941 200.076 594.763 165.678 568.879C150.301 558.749 139.506 544.708 135.214 520.432C131.587 512.776 136.857 497.576 154.408 466.775M190.356 352.167C139.973 395.007 112.063 405.06 63.0631 390.717M190.356 352.167C192.97 342.337 192.775 327.536 192.58 312.716M63.0631 390.717C54.3949 414.599 52.9977 427.469 63.0631 448.541C81.2358 471.923 103.495 473.814 154.408 466.775M63.0631 390.717C38.9454 377.589 25.8179 370.213 20.3071 356.334C16.308 342.069 17.026 332.247 26.0061 318.305M153.212 265.95L59.8564 230.787M59.8564 230.787C32.6203 241.782 8.29984 241.205 2.67021 268.295C-2.93432 291.735 5.74566 301.736 26.0061 318.305M59.8564 230.787C35.2161 214.548 25.1829 203.592 35.2717 170.357C46.0147 153.328 53.4986 150.243 67.3387 146.915C86.8167 147.473 101.771 149.169 114.37 151.932M183.314 70.3359C160.804 55.7882 148.16 47.3902 127.197 48.9772C108.544 51.9323 101.824 56.8698 95.1301 70.3359C88.7008 86.499 89.9114 97.3214 95.1301 117.742L114.37 151.932M183.314 70.3359C185.275 27.5405 194.641 17.3442 215.916 6.78069C234.609 3.03181 244.831 6.00487 254.055 12.511M308.376 94.8418C295.942 58.2538 286.851 48.8778 271.499 27.6185C264.927 21.7518 259.676 16.4755 254.055 12.511M308.376 94.8418L349.529 41.684M308.376 94.8418C310.816 95.7038 313.233 96.5564 315.624 97.3996C350.825 109.816 380.209 120.18 390.147 128.161C404.708 141.898 408.313 161.391 409.164 171.87M349.529 41.684C373.708 18.7049 389.79 20.5995 419.542 30.2232C437.695 44.5881 442.983 51.6859 445.73 63.0427M349.529 41.684C337.937 19.2124 329.456 10.6366 309.979 4.17592C288.674 -1.61489 276.435 0.145157 254.055 12.511M445.73 63.0427C471.542 62.5655 482.845 68.4761 498.106 88.5689C518.742 106.837 521.79 119.219 517.346 143.789M445.73 63.0427C454.197 95.3191 439.395 118.886 416.595 155.186C414.27 158.888 411.862 162.721 409.387 166.71L409.164 171.87M517.346 143.789L416.869 185.102M517.346 143.789C550.448 145.747 560.639 156.222 567.05 188.069C578.212 211.384 576.572 224.501 557.43 247.978M557.43 247.978C567.781 264.769 572.389 274.68 567.05 297.989C559.335 321.39 550.597 326.634 532.311 331.167M532.311 331.167C510.873 317.82 480.832 310.143 432.529 297.8M193.937 277.151C192.246 286.791 192.409 299.685 192.578 312.575M192.578 312.575L192.58 312.716M192.578 312.575C192.579 312.622 192.58 312.669 192.58 312.716M292.877 375.609C313.85 362.199 345.943 372.263 349.529 380.819C353.114 389.375 332.488 434.659 312.651 436.56C299.853 439.928 292.149 439.5 277.912 436.56C253.307 428.536 240.501 393.321 242.104 387.07C243.707 380.819 266.474 361.076 292.877 375.609Z" stroke="black"/>
<path d="M292.009 361.493H291.741" stroke="#544843" stroke-width="3" stroke-linecap="round"/>
<path d="M302.698 356.284C302.667 356.524 302.611 356.456 302.43 356.544" stroke="#544843" stroke-width="3" stroke-linecap="round"/>
<path d="M291.741 351.335V351.075" stroke="#544843" stroke-width="3" stroke-linecap="round"/>
<path d="M314.188 361.754V361.493" stroke="#544843" stroke-width="3" stroke-linecap="round"/>
<path d="M328.084 348.21V347.949" stroke="#544843" stroke-width="3" stroke-linecap="round"/>
<path d="M270.363 361.754V361.493" stroke="#544843" stroke-width="3" stroke-linecap="round"/>
<path d="M270.363 351.335V351.075" stroke="#544843" stroke-width="3" stroke-linecap="round"/>
<path d="M338.773 356.545V356.284" stroke="#544843" stroke-width="3" stroke-linecap="round"/>
<path d="M248.985 356.545V356.284" stroke="#544843" stroke-width="3" stroke-linecap="round"/>
<path d="M325.946 356.545V356.284" stroke="#544843" stroke-width="3" stroke-linecap="round"/>
<path d="M258.605 356.545V356.284" stroke="#544843" stroke-width="3" stroke-linecap="round"/>
<path d="M255.398 346.126V345.865" stroke="#544843" stroke-width="3" stroke-linecap="round"/>
<path d="M296.017 473.236V472.975" stroke="#544843" stroke-width="3" stroke-linecap="round"/>
<path d="M300.292 460.734V460.473" stroke="#544843" stroke-width="3" stroke-linecap="round"/>
<path d="M296.017 447.189V446.928" stroke="#544843" stroke-width="3" stroke-linecap="round"/>
<path d="M309.912 456.566V456.305" stroke="#544843" stroke-width="3" stroke-linecap="round"/>
<path d="M306.706 468.027V467.766" stroke="#544843" stroke-width="3" stroke-linecap="round"/>
<path d="M318.464 460.734V460.473" stroke="#544843" stroke-width="3" stroke-linecap="round"/>
<path d="M318.464 447.189V446.928" stroke="#544843" stroke-width="3" stroke-linecap="round"/>
<path d="M331.29 453.44V453.18" stroke="#544843" stroke-width="3" stroke-linecap="round"/>
<path d="M338.773 444.063V443.803" stroke="#544843" stroke-width="3" stroke-linecap="round"/>
<path d="M279.983 356.545V356.284" stroke="#544843" stroke-width="3" stroke-linecap="round"/>
<path d="M314.188 351.335V351.075" stroke="#544843" stroke-width="3" stroke-linecap="round"/>
<path d="M347.324 437.812V437.551" stroke="#544843" stroke-width="3" stroke-linecap="round"/>
<path d="M360.151 419.058V418.797" stroke="#544843" stroke-width="3" stroke-linecap="round"/>
<path d="M370.84 403.43V403.169" stroke="#544843" stroke-width="3" stroke-linecap="round"/>
<path d="M383.666 387.801V387.541" stroke="#544843" stroke-width="3" stroke-linecap="round"/>
<path d="M383.666 387.801V387.541" stroke="#544843" stroke-width="3" stroke-linecap="round"/>
<path d="M391.149 365.922V365.661" stroke="#544843" stroke-width="3" stroke-linecap="round"/>
<path d="M389.011 354.461V354.2" stroke="#544843" stroke-width="3" stroke-linecap="round"/>
<path d="M400.769 346.126V345.865" stroke="#544843" stroke-width="3" stroke-linecap="round"/>
<path d="M273.57 464.901V464.64" stroke="#544843" stroke-width="3" stroke-linecap="round"/>
<path d="M284.259 464.901V464.64" stroke="#544843" stroke-width="3" stroke-linecap="round"/>
<path d="M279.983 453.44V453.18" stroke="#544843" stroke-width="3" stroke-linecap="round"/>
<path d="M266.087 456.566V456.305" stroke="#544843" stroke-width="3" stroke-linecap="round"/>
<path d="M262.881 447.189V446.928" stroke="#544843" stroke-width="3" stroke-linecap="round"/>
<path d="M245.778 434.686V434.426" stroke="#544843" stroke-width="3" stroke-linecap="round"/>
<path d="M235.089 419.058V418.797" stroke="#544843" stroke-width="3" stroke-linecap="round"/>
<path d="M223.331 403.43V403.169" stroke="#544843" stroke-width="3" stroke-linecap="round"/>
<path d="M214.78 385.718V385.457" stroke="#544843" stroke-width="3" stroke-linecap="round"/>
<path d="M206.229 369.047V368.787" stroke="#544843" stroke-width="3" stroke-linecap="round"/>
<path d="M197.678 348.21V347.949" stroke="#544843" stroke-width="3" stroke-linecap="round"/>
<path d="M181.644 339.875V339.614" stroke="#544843" stroke-width="3" stroke-linecap="round"/>
<path d="M189.127 332.581V332.32" stroke="#544843" stroke-width="3" stroke-linecap="round"/>
<path d="M206.229 356.545V356.284" stroke="#544843" stroke-width="3" stroke-linecap="round"/>
<path d="M214.78 376.341V376.08" stroke="#544843" stroke-width="3" stroke-linecap="round"/>
<path d="M221.194 391.969V391.708" stroke="#544843" stroke-width="3" stroke-linecap="round"/>
<path d="M230.814 409.681V409.42" stroke="#544843" stroke-width="3" stroke-linecap="round"/>
<path d="M253.261 444.063V443.803" stroke="#544843" stroke-width="3" stroke-linecap="round"/>
<path d="M242.572 424.267V424.007" stroke="#544843" stroke-width="3" stroke-linecap="round"/>
<path d="M383.666 376.341V376.08" stroke="#544843" stroke-width="3" stroke-linecap="round"/>
<path d="M374.046 391.969V391.708" stroke="#544843" stroke-width="3" stroke-linecap="round"/>
<path d="M362.288 409.681V409.42" stroke="#544843" stroke-width="3" stroke-linecap="round"/>
<path d="M351.599 426.351V426.09" stroke="#544843" stroke-width="3" stroke-linecap="round"/>
<path d="M291.741 456.566V456.305" stroke="#544843" stroke-width="3" stroke-linecap="round"/>
<path d="M396.493 332.581V332.32" stroke="#544843" stroke-width="3" stroke-linecap="round"/>
</svg>
