<svg width="302" height="68" viewBox="0 0 302 68" fill="none" xmlns="http://www.w3.org/2000/svg">
<path fill-rule="evenodd" clip-rule="evenodd" d="M11.6844 57.1664C3.38021 52.5904 -26.7158 46.4248 -0.484605 31.429C14.5014 22.8622 25.4238 29.9526 39.6581 26.6656C50.4452 24.176 61.7473 5.71985 72.9229 1.06073C88.515 -5.43905 113.085 20.1216 119.058 18.5285C144.383 11.7705 141.262 -1.88857 175.535 1.92183C182.011 2.64147 196.448 16.4738 200.731 15.8161C211.589 14.1434 220.495 8.60196 232.409 9.59567C243.451 10.5169 245.608 18.3941 253.638 22.1002C264.255 27.0033 300.926 20.3037 301.981 40.3618C303.387 67.1035 226.32 54.9739 210.982 57.1664C204.928 58.0311 199.563 62.6796 193.39 63.9155C180.019 66.5908 166.638 66.8878 152.983 67.5544C141.134 68.1326 129.43 62.1456 118.529 63.0544C102.881 64.3593 80.1084 66.5607 63.2672 66.5607C46.3045 66.5607 22.3095 63.0226 11.6844 57.1664Z" fill="white"/>
<mask id="mask0_373_2445" style="mask-type:luminance" maskUnits="userSpaceOnUse" x="-2" y="39" width="297" height="29">
<path d="M-1.21851 39.483H294.563V68H-1.21851V39.483Z" fill="white"/>
</mask>
<g mask="url(#mask0_373_2445)">
<mask id="mask1_373_2445" style="mask-type:luminance" maskUnits="userSpaceOnUse" x="-11" y="0" width="313" height="68">
<path fill-rule="evenodd" clip-rule="evenodd" d="M11.6844 57.1664C3.38027 52.5904 -26.7157 46.4248 -0.484544 31.429C14.5014 22.8622 25.4239 29.9526 39.6582 26.6656C50.4452 24.176 61.7474 5.71985 72.9229 1.06073C88.5151 -5.43905 113.085 20.1216 119.058 18.5285C144.383 11.7705 141.262 -1.88857 175.535 1.92183C182.011 2.64147 196.448 16.4738 200.731 15.8161C211.589 14.1434 220.495 8.60196 232.409 9.59567C243.451 10.5169 245.608 18.3941 253.638 22.1002C264.255 27.0033 300.926 20.3037 301.981 40.3618C303.387 67.1035 226.32 54.9739 210.982 57.1664C204.928 58.0311 199.563 62.6796 193.39 63.9155C180.019 66.5908 166.638 66.8878 152.983 67.5544C141.134 68.1326 129.43 62.1456 118.529 63.0544C102.881 64.3593 80.1084 66.5607 63.2672 66.5607C46.3046 66.5607 22.3095 63.0226 11.6844 57.1664Z" fill="white"/>
</mask>
<g mask="url(#mask1_373_2445)">
<path fill-rule="evenodd" clip-rule="evenodd" d="M-0.951538 62.6035C1.67689 56.9348 9.51789 55.1295 13.6257 53.0325C33.1029 43.0883 52.5637 56.1374 72.5724 55.6476C81.3701 55.4319 89.7843 54.378 98.2606 50.5217C106.724 46.6724 114.313 40.291 123.368 39.7747C133.986 39.17 141.672 52.2368 151.754 53.2411C161.416 54.2048 172.702 47.9065 181.827 44.2199C184.503 43.1396 187.035 40.3865 189.885 40.1142C204.09 38.7634 216.553 48.6722 231.668 46.9128C248.446 44.9625 265.199 42.5437 281.6 49.2928C282.349 49.6004 293.882 53.5965 294.249 54.2613C296.577 58.4837 279.818 66.5024 277.594 67.3352C257.991 74.6819 237.044 75.6049 217.035 79.364C195.435 83.4237 173.828 86.907 152.186 90.4769C114.37 96.7168 74.4225 106.171 36.5033 97.2773C23.3978 94.2025 2.11855 84.0196 -0.951538 62.6035Z" fill="#D2ECED"/>
</g>
</g>
<mask id="mask2_373_2445" style="mask-type:luminance" maskUnits="userSpaceOnUse" x="47" y="28" width="14" height="13">
<path d="M47.7004 28.6194H60.659V40.841H47.7004V28.6194Z" fill="white"/>
</mask>
<g mask="url(#mask2_373_2445)">
<mask id="mask3_373_2445" style="mask-type:luminance" maskUnits="userSpaceOnUse" x="-11" y="0" width="313" height="68">
<path fill-rule="evenodd" clip-rule="evenodd" d="M11.6844 57.1664C3.38027 52.5904 -26.7157 46.4248 -0.484544 31.429C14.5014 22.8622 25.4239 29.9526 39.6582 26.6656C50.4452 24.176 61.7474 5.71985 72.9229 1.06073C88.5151 -5.43905 113.085 20.1216 119.058 18.5285C144.383 11.7705 141.262 -1.88857 175.535 1.92183C182.011 2.64147 196.448 16.4738 200.731 15.8161C211.589 14.1434 220.495 8.60196 232.409 9.59567C243.451 10.5169 245.608 18.3941 253.638 22.1002C264.255 27.0033 300.926 20.3037 301.981 40.3618C303.387 67.1035 226.32 54.9739 210.982 57.1664C204.928 58.0311 199.563 62.6796 193.39 63.9155C180.019 66.5908 166.638 66.8878 152.983 67.5544C141.134 68.1326 129.43 62.1456 118.529 63.0544C102.881 64.3593 80.1084 66.5607 63.2672 66.5607C46.3046 66.5607 22.3095 63.0226 11.6844 57.1664Z" fill="white"/>
</mask>
<g mask="url(#mask3_373_2445)">
<path d="M48.2078 29.392C50.1934 36.1942 54.7618 40.0612 60.125 40.0612" stroke="#B4B4B4" stroke-width="1.667" stroke-miterlimit="10" stroke-linecap="round" stroke-linejoin="round"/>
</g>
</g>
<mask id="mask4_373_2445" style="mask-type:luminance" maskUnits="userSpaceOnUse" x="176" y="17" width="13" height="12">
<path d="M176.963 17.7557H188.626V28.1667H176.963V17.7557Z" fill="white"/>
</mask>
<g mask="url(#mask4_373_2445)">
<mask id="mask5_373_2445" style="mask-type:luminance" maskUnits="userSpaceOnUse" x="-11" y="0" width="313" height="68">
<path fill-rule="evenodd" clip-rule="evenodd" d="M11.6844 57.1664C3.38027 52.5904 -26.7157 46.4248 -0.484544 31.429C14.5014 22.8622 25.4239 29.9526 39.6582 26.6656C50.4452 24.176 61.7474 5.71985 72.9229 1.06073C88.5151 -5.43905 113.085 20.1216 119.058 18.5285C144.383 11.7705 141.262 -1.88857 175.535 1.92183C182.011 2.64147 196.448 16.4738 200.731 15.8161C211.589 14.1434 220.495 8.60196 232.409 9.59567C243.451 10.5169 245.608 18.3941 253.638 22.1002C264.255 27.0033 300.926 20.3037 301.981 40.3618C303.387 67.1035 226.32 54.9739 210.982 57.1664C204.928 58.0311 199.563 62.6796 193.39 63.9155C180.019 66.5908 166.638 66.8878 152.983 67.5544C141.134 68.1326 129.43 62.1456 118.529 63.0544C102.881 64.3593 80.1084 66.5607 63.2672 66.5607C46.3046 66.5607 22.3095 63.0226 11.6844 57.1664Z" fill="white"/>
</mask>
<g mask="url(#mask5_373_2445)">
<path d="M177.4 27.4293C180.832 26.0272 186.664 23.5924 188.247 18.4347" stroke="#B4B4B4" stroke-width="1.667" stroke-miterlimit="10" stroke-linecap="round" stroke-linejoin="round"/>
</g>
</g>
</svg>
