<svg width="215" height="91" viewBox="0 0 215 91" fill="none" xmlns="http://www.w3.org/2000/svg">
<path fill-rule="evenodd" clip-rule="evenodd" d="M-3.42065 64.0452C-2.54556 60.6023 -10.2818 60.031 -10.1388 55.7407C-9.72014 43.2288 5.09229 38.1753 15.7043 40.4641C17.093 40.7628 20.4778 43.949 21.0807 43.949C22.6295 43.949 21.2328 40.8741 21.2328 39.3361C21.2328 34.295 22.0438 29.7799 23.0425 24.8274C25.4001 13.1436 36.4433 4.5437 47.6971 1.8096C57.6948 -0.618941 75.637 -1.63443 84.2403 5.55124C95.3739 14.8508 98.0163 26.0303 104.865 32.8252C105.384 33.3409 109.783 33.4976 110.705 33.5942C132.692 35.8898 131.889 46.3878 136.703 47.2306C143.512 48.4222 149.442 41.9703 157.585 44.8214C161.644 46.2412 164.092 52.4205 167.718 52.8692C178.069 54.1527 190.776 49.3559 201.986 53.2804C208.261 55.4772 213.644 57.0038 214.546 64.1486C215.693 73.2539 192.27 78.1814 185.754 77.8873C181.981 77.7169 174.769 73.5811 171.645 74.1445C163.5 75.6132 157.902 81.0587 148.179 79.6309C145.614 79.2537 140.398 75.0134 138.513 75.2213C131.633 75.9801 129.663 82.8647 121.352 81.8345C116.216 81.1973 111.621 75.7859 106.569 75.7859C98.2291 75.7859 89.5972 80.9099 81.3977 82.6035C63.5013 86.302 -7.80753 101.059 -16.0837 79.1685C-20.2326 68.1958 -4.41127 67.9504 -3.42065 64.0452Z" fill="white"/>
<mask id="mask0_373_2338" style="mask-type:luminance" maskUnits="userSpaceOnUse" x="-17" y="49" width="232" height="42">
<path d="M-17 49.4172H214.636V91H-17V49.4172Z" fill="white"/>
</mask>
<g mask="url(#mask0_373_2338)">
<mask id="mask1_373_2338" style="mask-type:luminance" maskUnits="userSpaceOnUse" x="-17" y="0" width="232" height="91">
<path fill-rule="evenodd" clip-rule="evenodd" d="M-3.42065 64.0452C-2.54556 60.6023 -10.2818 60.031 -10.1388 55.7407C-9.72014 43.2288 5.09229 38.1753 15.7043 40.4641C17.093 40.7628 20.4778 43.949 21.0807 43.949C22.6295 43.949 21.2328 40.8741 21.2328 39.3361C21.2328 34.295 22.0438 29.7799 23.0425 24.8274C25.4001 13.1436 36.4433 4.5437 47.6971 1.8096C57.6948 -0.618941 75.637 -1.63443 84.2403 5.55124C95.3739 14.8508 98.0163 26.0303 104.865 32.8252C105.384 33.3409 109.783 33.4976 110.705 33.5942C132.692 35.8898 131.889 46.3878 136.703 47.2306C143.512 48.4222 149.442 41.9703 157.585 44.8214C161.644 46.2412 164.092 52.4205 167.718 52.8692C178.069 54.1527 190.776 49.3559 201.986 53.2804C208.261 55.4772 213.644 57.0038 214.546 64.1486C215.693 73.2539 192.27 78.1814 185.754 77.8873C181.981 77.7169 174.769 73.5811 171.645 74.1445C163.5 75.6132 157.902 81.0587 148.179 79.6309C145.614 79.2537 140.398 75.0134 138.513 75.2213C131.633 75.9801 129.663 82.8647 121.352 81.8345C116.216 81.1973 111.621 75.7859 106.569 75.7859C98.2291 75.7859 89.5972 80.9099 81.3977 82.6035C63.5013 86.302 -7.80753 101.059 -16.0837 79.1685C-20.2326 68.1958 -4.41127 67.9504 -3.42065 64.0452Z" fill="white"/>
</mask>
<g mask="url(#mask1_373_2338)">
<path fill-rule="evenodd" clip-rule="evenodd" d="M-4.67442 66.8134C-2.34657 68.5331 -7.69319 73.6151 -5.71995 77.618C-2.6886 83.7677 9.73078 82.2479 15.0191 81.9003C34.4289 80.627 53.9027 78.5654 72.6856 73.121C83.0815 70.1063 91.8163 67.32 102.909 68.6944C110.049 69.5804 117.089 73.3459 124.117 73.6401C128.611 73.8287 131.971 70.3278 136.275 69.9314C143.253 69.2874 149.418 73.6799 156.438 73.2096C163 72.7712 168.204 69.8042 174.649 68.9636C184.401 67.6903 193.569 78.2121 200.884 68.0322C203.971 63.7328 206.302 58.5588 201.774 55.3522C200.809 54.6673 193.862 51.8571 195.315 50.7768C202.41 45.4983 222.704 58.4555 222.704 68.0322C222.704 89.4631 183.958 96.9021 168.739 99.8191C125.42 108.124 79.962 107.455 36.0303 107.04C16.7967 106.859 -7.5971 108.769 -24.7637 98.5105C-40.6148 89.0383 -32.8282 73.9525 -19.6859 67.2973C-15.4981 65.1754 -7.00227 65.0925 -4.67442 66.8134Z" fill="#D2ECED"/>
</g>
</g>
<mask id="mask2_373_2338" style="mask-type:luminance" maskUnits="userSpaceOnUse" x="84" y="38" width="29" height="11">
<path d="M84.0298 38.658H112.728V48.5448H84.0298V38.658Z" fill="white"/>
</mask>
<g mask="url(#mask2_373_2338)">
<mask id="mask3_373_2338" style="mask-type:luminance" maskUnits="userSpaceOnUse" x="-17" y="0" width="232" height="91">
<path fill-rule="evenodd" clip-rule="evenodd" d="M-3.42065 64.0452C-2.54556 60.6023 -10.2818 60.031 -10.1388 55.7407C-9.72014 43.2288 5.09229 38.1753 15.7043 40.4641C17.093 40.7628 20.4778 43.949 21.0807 43.949C22.6295 43.949 21.2328 40.8741 21.2328 39.3361C21.2328 34.295 22.0438 29.7799 23.0425 24.8274C25.4001 13.1436 36.4433 4.5437 47.6971 1.8096C57.6948 -0.618941 75.637 -1.63443 84.2403 5.55124C95.3739 14.8508 98.0163 26.0303 104.865 32.8252C105.384 33.3409 109.783 33.4976 110.705 33.5942C132.692 35.8898 131.889 46.3878 136.703 47.2306C143.512 48.4222 149.442 41.9703 157.585 44.8214C161.644 46.2412 164.092 52.4205 167.718 52.8692C178.069 54.1527 190.776 49.3559 201.986 53.2804C208.261 55.4772 213.644 57.0038 214.546 64.1486C215.693 73.2539 192.27 78.1814 185.754 77.8873C181.981 77.7169 174.769 73.5811 171.645 74.1445C163.5 75.6132 157.902 81.0587 148.179 79.6309C145.614 79.2537 140.398 75.0134 138.513 75.2213C131.633 75.9801 129.663 82.8647 121.352 81.8345C116.216 81.1973 111.621 75.7859 106.569 75.7859C98.2291 75.7859 89.5972 80.9099 81.3977 82.6035C63.5013 86.302 -7.80753 101.059 -16.0837 79.1685C-20.2326 68.1958 -4.41127 67.9504 -3.42065 64.0452Z" fill="white"/>
</mask>
<g mask="url(#mask3_373_2338)">
<path d="M84.5571 48.1575C91.6528 46.2514 94.3375 40.6583 98.6924 38.9976C98.8479 38.9386 99.4508 40.3868 99.5297 40.589C99.9896 41.7737 101.217 42.3655 102.101 43.155C104.116 44.9531 109.685 45.9232 112.292 45.061" stroke="#B4B4B4" stroke-width="1.667" stroke-miterlimit="10" stroke-linecap="round" stroke-linejoin="round"/>
</g>
</g>
<mask id="mask4_373_2338" style="mask-type:luminance" maskUnits="userSpaceOnUse" x="23" y="43" width="23" height="12">
<path d="M23.9976 43.8922H45.6677V54.6514H23.9976V43.8922Z" fill="white"/>
</mask>
<g mask="url(#mask4_373_2338)">
<mask id="mask5_373_2338" style="mask-type:luminance" maskUnits="userSpaceOnUse" x="-17" y="0" width="232" height="91">
<path fill-rule="evenodd" clip-rule="evenodd" d="M-3.42071 64.0452C-2.54563 60.6023 -10.2819 60.031 -10.1389 55.7407C-9.7202 43.2288 5.09223 38.1753 15.7043 40.4641C17.093 40.7628 20.4778 43.949 21.0806 43.949C22.6295 43.949 21.2327 40.8741 21.2327 39.3361C21.2327 34.295 22.0438 29.7799 23.0424 24.8274C25.4 13.1436 36.4433 4.5437 47.697 1.8096C57.6947 -0.618941 75.6369 -1.63443 84.2402 5.55124C95.3739 14.8508 98.0163 26.0303 104.865 32.8252C105.384 33.3409 109.783 33.4976 110.704 33.5942C132.691 35.8898 131.888 46.3878 136.703 47.2306C143.512 48.4222 149.442 41.9703 157.585 44.8214C161.644 46.2412 164.092 52.4205 167.718 52.8692C178.069 54.1527 190.776 49.3559 201.986 53.2804C208.261 55.4772 213.643 57.0038 214.546 64.1486C215.693 73.2539 192.27 78.1814 185.754 77.8873C181.981 77.7169 174.769 73.5811 171.645 74.1445C163.5 75.6132 157.902 81.0587 148.179 79.6309C145.614 79.2537 140.398 75.0134 138.513 75.2213C131.633 75.9801 129.662 82.8647 121.352 81.8345C116.216 81.1973 111.621 75.7859 106.569 75.7859C98.229 75.7859 89.5971 80.9099 81.3976 82.6035C63.5012 86.302 -7.80759 101.059 -16.0838 79.1685C-20.2327 68.1958 -4.41134 67.9504 -3.42071 64.0452Z" fill="white"/>
</mask>
<g mask="url(#mask5_373_2338)">
<path d="M24.4631 44.2875C28.1477 51.1914 38.0161 54.2788 45.3051 54.2788" stroke="#B4B4B4" stroke-width="1.667" stroke-miterlimit="10" stroke-linecap="round" stroke-linejoin="round"/>
</g>
</g>
</svg>
