<svg width="308" height="66" viewBox="0 0 308 66" fill="none" xmlns="http://www.w3.org/2000/svg">
<path fill-rule="evenodd" clip-rule="evenodd" d="M26.8811 44.6323C20.9058 40.3312 -9.26489 47.6391 -2.6047 31.856C1.45027 22.2403 15.1376 26.6754 22.0867 22.9464C26.3742 20.6475 28.0311 12.7264 34.5005 10.9423C56.6938 4.81787 56.3813 13.8473 69.6363 13.8473C75.399 13.8473 81.8648 4.02237 89.9947 3.77925C106.324 3.28586 107.942 6.26408 120.532 9.52295C122.783 10.1039 137.661 0.255805 142.795 0.0359244C154.446 -0.471767 158.395 4.51576 167.027 7.78C168.998 8.52545 182.351 2.29729 185.741 2.16501C197.355 1.70737 204.261 8.95091 212.736 10.2326C217.694 10.9835 224.11 6.31056 229.542 6.48932C242.394 6.90942 247.752 10.2005 256.863 16.1676C259.234 17.7247 304.632 7.67453 306.776 28.758C308.882 49.4518 269.736 41.5808 262.578 43.5347C253.211 46.0928 243.942 51.2269 233.943 53.8637C215.41 58.7511 207.284 48.2576 193.754 49.0853C178.332 50.0328 164.766 60.385 149.097 59.931C140.242 59.6753 132.368 49.2641 125.392 50.376C109.89 52.8483 97.0873 65.739 80.604 65.739C70.0414 65.739 64.1679 52.5998 57.0245 52.253C48.8891 51.849 41.8056 60.4762 33.2542 57.6714C26.0345 55.3045 30.8397 47.4836 26.8811 44.6323Z" fill="white"/>
<mask id="mask0_373_2382" style="mask-type:luminance" maskUnits="userSpaceOnUse" x="-4" y="36" width="312" height="30">
<path d="M-4 36.7112H307.143V66H-4V36.7112Z" fill="white"/>
</mask>
<g mask="url(#mask0_373_2382)">
<mask id="mask1_373_2382" style="mask-type:luminance" maskUnits="userSpaceOnUse" x="-4" y="0" width="311" height="66">
<path fill-rule="evenodd" clip-rule="evenodd" d="M26.8811 44.6323C20.9058 40.3312 -9.26489 47.6391 -2.6047 31.856C1.45027 22.2403 15.1376 26.6754 22.0867 22.9464C26.3742 20.6475 28.0311 12.7264 34.5005 10.9423C56.6938 4.81787 56.3813 13.8473 69.6363 13.8473C75.399 13.8473 81.8648 4.02237 89.9947 3.77925C106.324 3.28586 107.942 6.26408 120.532 9.52295C122.783 10.1039 137.661 0.255805 142.795 0.0359244C154.446 -0.471767 158.395 4.51576 167.027 7.78C168.998 8.52545 182.351 2.29729 185.741 2.16501C197.355 1.70737 204.261 8.95091 212.736 10.2326C217.694 10.9835 224.11 6.31056 229.542 6.48932C242.394 6.90942 247.752 10.2005 256.863 16.1676C259.234 17.7247 304.632 7.67453 306.776 28.758C308.882 49.4518 269.736 41.5808 262.578 43.5347C253.211 46.0928 243.942 51.2269 233.943 53.8637C215.41 58.7511 207.284 48.2576 193.754 49.0853C178.332 50.0328 164.766 60.385 149.097 59.931C140.242 59.6753 132.368 49.2641 125.392 50.376C109.89 52.8483 97.0873 65.739 80.604 65.739C70.0414 65.739 64.1679 52.5998 57.0245 52.253C48.8891 51.849 41.8056 60.4762 33.2542 57.6714C26.0345 55.3045 30.8397 47.4836 26.8811 44.6323Z" fill="white"/>
</mask>
<g mask="url(#mask1_373_2382)">
<path fill-rule="evenodd" clip-rule="evenodd" d="M-1.92531 42.5694C3.08709 38.5329 21.4816 33.7956 30.8724 39.2515C34.7093 41.4807 35.2435 48.0646 39.9506 48.4489C47.9134 49.1032 55.075 43.7993 62.8053 45.3188C73.3115 47.3835 75.5116 56.0286 89.446 54.7969C103.175 53.5795 115.089 46.5362 128.848 45.2562C139.828 44.2355 149.135 53.3238 159.967 51.3288C174.048 48.7332 187.672 41.7953 202.057 41.1321C207.722 40.8711 212.879 43.1968 218.344 44.0281C226.054 45.2044 234.044 45.0989 241.867 44.5787C252.928 43.8458 263.699 36.0427 274.727 37.2833C283.391 38.2576 292.069 38.4864 300.828 39.8003C302.11 39.9934 308.914 40.6888 309.287 42.6337C309.641 44.4911 296.377 52.1833 295.149 52.7429C277.717 60.7015 257.597 62.911 238.897 66.4076C204.651 72.8092 170.449 75.2725 135.711 76.8743C125.034 77.3677 114.463 78.9694 103.757 79.3502C83.3527 80.0777 62.996 79.4914 42.6194 78.6726C28.4307 78.1042 10.7192 74.4109 0.808889 63.4884C-1.62373 60.8105 -6.93408 46.6095 -1.92531 42.5694Z" fill="#D2ECED"/>
</g>
</g>
<mask id="mask2_373_2382" style="mask-type:luminance" maskUnits="userSpaceOnUse" x="145" y="22" width="79" height="7">
<path d="M145.758 22.0668H223.892V28.9314H145.758V22.0668Z" fill="white"/>
</mask>
<g mask="url(#mask2_373_2382)">
<mask id="mask3_373_2382" style="mask-type:luminance" maskUnits="userSpaceOnUse" x="-4" y="0" width="311" height="66">
<path fill-rule="evenodd" clip-rule="evenodd" d="M26.881 44.6323C20.9057 40.3312 -9.26495 47.6391 -2.60476 31.856C1.45021 22.2403 15.1376 26.6754 22.0866 22.9464C26.3741 20.6475 28.031 12.7264 34.5004 10.9423C56.6938 4.81787 56.3813 13.8473 69.6362 13.8473C75.399 13.8473 81.8648 4.02237 89.9947 3.77925C106.324 3.28586 107.942 6.26408 120.532 9.52295C122.783 10.1039 137.661 0.255805 142.795 0.0359244C154.445 -0.471767 158.395 4.51576 167.026 7.78C168.998 8.52545 182.351 2.29729 185.741 2.16501C197.355 1.70737 204.261 8.95091 212.736 10.2326C217.694 10.9835 224.11 6.31056 229.542 6.48932C242.394 6.90942 247.752 10.2005 256.863 16.1676C259.233 17.7247 304.632 7.67453 306.776 28.758C308.881 49.4518 269.736 41.5808 262.578 43.5347C253.211 46.0928 243.942 51.2269 233.943 53.8637C215.41 58.7511 207.284 48.2576 193.754 49.0853C178.332 50.0328 164.766 60.385 149.097 59.931C140.242 59.6753 132.368 49.2641 125.392 50.376C109.89 52.8483 97.0872 65.739 80.6039 65.739C70.0414 65.739 64.1678 52.5998 57.0244 52.253C48.889 51.849 41.8055 60.4762 33.2541 57.6714C26.0344 55.3045 30.8397 47.4836 26.881 44.6323Z" fill="white"/>
</mask>
<g mask="url(#mask3_373_2382)">
<path d="M146.274 23.5488C149.093 29.4892 160.432 28.2307 165.551 27.9893C172.184 27.6783 177.992 22.9231 184.384 22.5513C191.885 22.1223 199.917 25.0683 207.665 24.6893C211.391 24.5052 220.219 21.6271 223.484 23.6328" stroke="#B4B4B4" stroke-width="1.667" stroke-miterlimit="10" stroke-linecap="round" stroke-linejoin="round"/>
</g>
</g>
</svg>
