<svg width="186" height="82" viewBox="0 0 186 82" fill="none" xmlns="http://www.w3.org/2000/svg">
<path fill-rule="evenodd" clip-rule="evenodd" d="M11.342 58.1549C2.0981 58.9089 -4.1815 56.2426 3.33689 47.9932C6.79159 44.2031 12.9269 46.6833 15.9731 44.6803C18.8567 42.7799 17.7243 36.7339 22.1145 34.1654C22.5719 33.8958 23.1137 33.7157 23.6248 33.5451C23.9281 33.4449 24.2265 33.3315 24.5322 33.2361C27.2507 32.3843 30.5501 37.5058 32.6877 35.7986C33.8752 34.8526 33.9632 31.3369 34.6004 30.0115C41.6345 15.3499 45.8474 9.16195 64.1518 2.3978C77.2429 -2.4397 101.746 -0.162315 109.913 11.1017C111.829 13.7465 113.55 20.8042 115.904 22.4564C116.481 22.862 122.967 18.8346 123.857 18.6568C129.423 17.5485 134.003 20.1564 138.456 22.5447C140.951 23.882 142.315 32.5215 142.987 32.7052C148.588 34.2418 154.86 25.7669 162.269 29.4806C168.574 32.6444 164.579 41.2624 164.685 41.3233C166.284 42.1977 179.476 38.7954 181.198 38.4494C187.432 37.2004 197.984 36.3736 203.902 38.4494C206.702 39.4336 206.386 44.5395 209.39 44.7686C217.539 45.3889 227.434 38.8467 228.923 51.2619C230.041 60.585 187.6 67.8788 177.523 63.4565C175.527 62.5832 173.442 59.8954 171.431 59.5256C167.735 58.842 163.725 63.5543 160.255 64.3846C151.556 66.4675 146.433 62.2838 139.716 62.7049C136.936 62.8791 134.511 66.1406 131.107 66.3303C123.812 66.73 117.645 56.9965 112.027 58.6404C99.0179 62.4448 94.6204 79.3826 75.8806 81.2604C67.9917 82.0525 48.221 82.6872 42.7559 76.0936C41.8253 74.9698 40.4348 69.6217 39.5335 69.2889C35.5518 67.8168 29.5963 75.5198 23.4744 73.8401C22.6013 73.5979 6.57636 66.3303 11.342 58.1549Z" fill="white"/>
<mask id="mask0_373_2368" style="mask-type:luminance" maskUnits="userSpaceOnUse" x="1" y="48" width="229" height="34">
<path d="M1.71655 48.7113H229V82H1.71655V48.7113Z" fill="white"/>
</mask>
<g mask="url(#mask0_373_2368)">
<mask id="mask1_373_2368" style="mask-type:luminance" maskUnits="userSpaceOnUse" x="0" y="0" width="229" height="82">
<path fill-rule="evenodd" clip-rule="evenodd" d="M11.342 58.1549C2.0981 58.9089 -4.1815 56.2426 3.33689 47.9932C6.79159 44.2031 12.9269 46.6833 15.9731 44.6803C18.8567 42.7799 17.7243 36.7339 22.1145 34.1654C22.5719 33.8958 23.1137 33.7157 23.6248 33.5451C23.9281 33.4449 24.2265 33.3315 24.5322 33.2361C27.2507 32.3843 30.5501 37.5058 32.6877 35.7986C33.8752 34.8526 33.9632 31.3369 34.6004 30.0115C41.6345 15.3499 45.8474 9.16195 64.1518 2.3978C77.2429 -2.4397 101.746 -0.162315 109.913 11.1017C111.829 13.7465 113.55 20.8042 115.904 22.4564C116.481 22.862 122.967 18.8346 123.857 18.6568C129.423 17.5485 134.003 20.1564 138.456 22.5447C140.951 23.882 142.315 32.5215 142.987 32.7052C148.588 34.2418 154.86 25.7669 162.269 29.4806C168.574 32.6444 164.579 41.2624 164.685 41.3233C166.284 42.1977 179.476 38.7954 181.198 38.4494C187.432 37.2004 197.984 36.3736 203.902 38.4494C206.702 39.4336 206.386 44.5395 209.39 44.7686C217.539 45.3889 227.434 38.8467 228.923 51.2619C230.041 60.585 187.6 67.8788 177.523 63.4565C175.527 62.5832 173.442 59.8954 171.431 59.5256C167.735 58.842 163.725 63.5543 160.255 64.3846C151.556 66.4675 146.433 62.2838 139.716 62.7049C136.936 62.8791 134.511 66.1406 131.107 66.3303C123.812 66.73 117.645 56.9965 112.027 58.6404C99.0179 62.4448 94.6204 79.3826 75.8806 81.2604C67.9917 82.0525 48.221 82.6872 42.7559 76.0936C41.8253 74.9698 40.4348 69.6217 39.5335 69.2889C35.5518 67.8168 29.5963 75.5198 23.4744 73.8401C22.6013 73.5979 6.57636 66.3303 11.342 58.1549Z" fill="white"/>
</mask>
<g mask="url(#mask1_373_2368)">
<path fill-rule="evenodd" clip-rule="evenodd" d="M12.4561 59.0031C16.0355 60.1054 21.9483 67.435 28.3673 66.8099C33.7468 66.2838 36.8848 60.9214 42.8061 62.3112C53.9369 64.9214 64.0002 73.5621 75.6691 69.8758C80.4971 68.3488 98.1619 58.2431 97.6911 52.74C97.5272 50.8157 90.2081 52.5384 89.1821 51.3955C88.545 50.6845 92.9548 49.9269 93.4134 49.8291C95.436 49.3949 97.6874 49.142 99.7737 49.0346C110.245 48.4978 117.708 55.9431 127.612 57.1492C133.89 57.9163 138.345 54.267 144.406 53.6431C149.242 53.1492 152.97 56.0863 157.759 55.7176C161.901 55.3991 167.5 51.3227 171.634 52.629C171.888 52.709 172.127 52.8342 172.38 52.9165C183.939 56.6696 198.963 58.4352 210.992 56.2032C215.785 55.3108 220.278 53.3782 225.048 52.4095C229.036 51.6007 236.131 52.4489 236.477 57.5035C237.036 65.667 213.836 75.3122 207.801 76.8666C202.261 78.2922 196.604 78.4509 190.962 79.1595C177.96 80.7879 165.056 82.3292 152.237 85.1578C115.416 93.2783 68.8233 109.621 30.6981 99.1633C21.3955 96.6103 6.99829 87.6225 3.8322 77.6814C1.40841 70.0715 0.455768 65.1171 6.88823 60.1949C8.70301 58.805 10.6438 58.4448 12.4561 59.0031Z" fill="#D2ECED"/>
</g>
</g>
<path d="M35.2191 39.9489C38.5674 46.8145 46.0504 50.1166 53.499 51.3525C55.3517 51.6615 57.685 51.1426 59.424 51.7045" stroke="#B4B4B4" stroke-width="1.667" stroke-miterlimit="10" stroke-linecap="round" stroke-linejoin="round"/>
<path d="M105.458 35.0661C110.747 32.5287 113.661 29.6572 117.364 25.3267" stroke="#B4B4B4" stroke-width="1.667" stroke-miterlimit="10" stroke-linecap="round" stroke-linejoin="round"/>
</svg>
