<svg width="249" height="72" viewBox="0 0 249 72" fill="none" xmlns="http://www.w3.org/2000/svg">
<path fill-rule="evenodd" clip-rule="evenodd" d="M15.2351 65.5605C7.82842 64.012 -6.98596 60.9183 4.43619 49.9425C10.8964 43.737 14.9203 42.4671 19.6776 41.0468C24.8095 39.5121 32.4019 42.7224 36.4058 41.229C47.5384 37.0666 45.5941 27.0557 61.8806 30.3316C64.2236 30.8029 66.1259 34.6423 68.1278 33.4793C73.0037 30.6462 72.1538 19.4532 86.0679 18.8919C93.6005 18.589 103.415 32.3651 104.27 31.9065C110.492 28.566 114.054 5.23544 138.769 1.64286C143.777 0.913113 149.825 -0.304889 154.942 0.0700438C190.333 2.64056 179.496 16.9865 189.439 22.7673C193.052 24.8654 205.504 14.6299 212.138 18.8919C216.715 21.8342 213.27 28.9028 216.441 30.8167C220.446 33.2326 232.72 29.6103 238.861 31.9669C253.129 37.4405 239.417 41.6463 239.417 45.8267C239.417 48.9342 248.808 46.8414 248.996 49.9425C249.198 53.3243 242.124 56.8788 239.139 58.6602C229.529 64.3922 209.798 65.2734 198.671 63.5619C196.031 63.1552 193.094 59.4249 191.105 59.6283C182.735 60.4872 173.077 69.153 163.063 70.4028C151.994 71.7808 133.34 72.7244 122.317 70.4621C119.092 69.8012 116.002 65.3465 113.918 65.5605C102.308 66.7509 86.9 65.642 74.4443 67.1926C67.3724 68.0738 69.4163 62.6542 64.0326 62.6542C59.8713 62.6542 55.9188 65.8835 51.6074 66.2245C39.86 67.1576 23.4434 66.0921 15.2351 65.5605Z" fill="white"/>
<mask id="mask0_373_2403" style="mask-type:luminance" maskUnits="userSpaceOnUse" x="0" y="52" width="249" height="20">
<path d="M0 52.2069H249V72H0V52.2069Z" fill="white"/>
</mask>
<g mask="url(#mask0_373_2403)">
<mask id="mask1_373_2403" style="mask-type:luminance" maskUnits="userSpaceOnUse" x="0" y="0" width="249" height="72">
<path fill-rule="evenodd" clip-rule="evenodd" d="M15.2351 65.5605C7.82842 64.012 -6.98596 60.9183 4.43619 49.9425C10.8964 43.737 14.9203 42.4671 19.6776 41.0468C24.8095 39.5121 32.4019 42.7224 36.4058 41.229C47.5384 37.0666 45.5941 27.0557 61.8806 30.3316C64.2236 30.8029 66.1259 34.6423 68.1278 33.4793C73.0037 30.6462 72.1538 19.4532 86.0679 18.8919C93.6005 18.589 103.415 32.3651 104.27 31.9065C110.492 28.566 114.054 5.23544 138.769 1.64286C143.777 0.913113 149.825 -0.304889 154.942 0.0700438C190.333 2.64056 179.496 16.9865 189.439 22.7673C193.052 24.8654 205.504 14.6299 212.138 18.8919C216.715 21.8342 213.27 28.9028 216.441 30.8167C220.446 33.2326 232.72 29.6103 238.861 31.9669C253.129 37.4405 239.417 41.6463 239.417 45.8267C239.417 48.9342 248.808 46.8414 248.996 49.9425C249.198 53.3243 242.124 56.8788 239.139 58.6602C229.529 64.3922 209.798 65.2734 198.671 63.5619C196.031 63.1552 193.094 59.4249 191.105 59.6283C182.735 60.4872 173.077 69.153 163.063 70.4028C151.994 71.7808 133.34 72.7244 122.317 70.4621C119.092 69.8012 116.002 65.3465 113.918 65.5605C102.308 66.7509 86.9 65.642 74.4443 67.1926C67.3724 68.0738 69.4163 62.6542 64.0326 62.6542C59.8713 62.6542 55.9188 65.8835 51.6074 66.2245C39.86 67.1576 23.4434 66.0921 15.2351 65.5605Z" fill="white"/>
</mask>
<g mask="url(#mask1_373_2403)">
<path fill-rule="evenodd" clip-rule="evenodd" d="M0.275964 59.6061C3.91792 58.7958 7.13177 56.9953 10.6468 56.1597C23.4193 53.1178 38.6796 51.0546 51.7176 53.0257C64.3936 54.9427 72.9922 63.1828 86.2841 62.4234C93.7128 62.0008 106.714 56.38 111.762 56.8057C120.702 57.5566 128.869 61.8048 137.589 63.5217C145.682 65.1136 154.048 62.9275 162.038 61.8758C170.535 60.7584 177.742 54.4576 186.137 52.8901C198.208 50.6342 209.984 58.8308 221.926 57.6266C227.14 57.1012 248.797 51.4126 251.853 52.5162C256.419 54.1695 254.455 58.4463 251.891 61.1513C243.229 70.2811 205.438 75.6064 194.467 76.8159C166.196 79.9308 138.076 85.4733 109.645 87.0757C92.0131 88.0681 74.5011 85.7688 56.9418 86.0177C39.4844 86.2644 13.1639 90.9988 1.79108 73.5263C-2.03659 67.6459 -1.7428 64.8858 0.567656 59.6442" fill="#D2ECEE"/>
</g>
</g>
<mask id="mask2_373_2403" style="mask-type:luminance" maskUnits="userSpaceOnUse" x="169" y="32" width="26" height="9">
<path d="M169.76 32.1427H194.472V40.0057H169.76V32.1427Z" fill="white"/>
</mask>
<g mask="url(#mask2_373_2403)">
<mask id="mask3_373_2403" style="mask-type:luminance" maskUnits="userSpaceOnUse" x="0" y="0" width="249" height="72">
<path fill-rule="evenodd" clip-rule="evenodd" d="M15.2352 65.5605C7.82854 64.012 -6.98584 60.9183 4.43631 49.9425C10.8966 43.737 14.9204 42.4671 19.6777 41.0468C24.8096 39.5121 32.402 42.7224 36.4059 41.229C47.5385 37.0666 45.5942 27.0557 61.8807 30.3316C64.2237 30.8029 66.126 34.6423 68.128 33.4793C73.0038 30.6462 72.1539 19.4532 86.0681 18.8919C93.6006 18.589 103.415 32.3651 104.27 31.9065C110.493 28.566 114.054 5.23544 138.769 1.64286C143.777 0.913113 149.825 -0.304889 154.942 0.0700438C190.333 2.64056 179.497 16.9865 189.439 22.7673C193.052 24.8654 205.504 14.6299 212.138 18.8919C216.716 21.8342 213.27 28.9028 216.441 30.8167C220.446 33.2326 232.72 29.6103 238.861 31.9669C253.129 37.4405 239.417 41.6463 239.417 45.8267C239.417 48.9342 248.808 46.8414 248.996 49.9425C249.198 53.3243 242.124 56.8788 239.139 58.6602C229.529 64.3922 209.798 65.2734 198.672 63.5619C196.031 63.1552 193.094 59.4249 191.105 59.6283C182.736 60.4872 173.077 69.153 163.063 70.4028C151.995 71.7808 133.34 72.7244 122.318 70.4621C119.092 69.8012 116.002 65.3465 113.918 65.5605C102.308 66.7509 86.9001 65.642 74.4445 67.1926C67.3725 68.0738 69.4164 62.6542 64.0327 62.6542C59.8714 62.6542 55.9189 65.8835 51.6075 66.2245C39.8601 67.1576 23.4435 66.0921 15.2352 65.5605Z" fill="white"/>
</mask>
<g mask="url(#mask3_373_2403)">
<path d="M170.25 39.5798C178.242 39.5798 179.449 33.6635 182.445 32.5006C182.837 32.3491 183.367 33.6339 183.579 33.8944C184.305 34.7894 185.232 35.5043 186.298 35.947C188.691 36.9394 191.583 35.5075 193.988 35.5075" stroke="#878787" stroke-width="1.667" stroke-miterlimit="10" stroke-linecap="round" stroke-linejoin="round"/>
</g>
</g>
<mask id="mask4_373_2403" style="mask-type:luminance" maskUnits="userSpaceOnUse" x="110" y="31" width="12" height="11">
<path d="M110.129 31.6005H121.142V41.9037H110.129V31.6005Z" fill="white"/>
</mask>
<g mask="url(#mask4_373_2403)">
<mask id="mask5_373_2403" style="mask-type:luminance" maskUnits="userSpaceOnUse" x="0" y="0" width="249" height="72">
<path fill-rule="evenodd" clip-rule="evenodd" d="M15.2351 65.5605C7.82842 64.012 -6.98596 60.9183 4.43619 49.9425C10.8964 43.737 14.9203 42.4671 19.6776 41.0468C24.8095 39.5121 32.4019 42.7224 36.4058 41.229C47.5384 37.0666 45.5941 27.0557 61.8806 30.3316C64.2236 30.8029 66.1259 34.6423 68.1278 33.4793C73.0037 30.6462 72.1538 19.4532 86.0679 18.8919C93.6005 18.589 103.415 32.3651 104.27 31.9065C110.492 28.566 114.054 5.23544 138.769 1.64286C143.777 0.913113 149.825 -0.304889 154.942 0.0700438C190.333 2.64056 179.496 16.9865 189.439 22.7673C193.052 24.8654 205.504 14.6299 212.138 18.8919C216.715 21.8342 213.27 28.9028 216.441 30.8167C220.446 33.2326 232.72 29.6103 238.861 31.9669C253.129 37.4405 239.417 41.6463 239.417 45.8267C239.417 48.9342 248.808 46.8414 248.996 49.9425C249.198 53.3243 242.124 56.8788 239.139 58.6602C229.529 64.3922 209.798 65.2734 198.671 63.5619C196.031 63.1552 193.094 59.4249 191.105 59.6283C182.735 60.4872 173.077 69.153 163.063 70.4028C151.994 71.7808 133.34 72.7244 122.317 70.4621C119.092 69.8012 116.002 65.3465 113.918 65.5605C102.308 66.7509 86.9 65.642 74.4443 67.1926C67.3724 68.0738 69.4163 62.6542 64.0326 62.6542C59.8713 62.6542 55.9188 65.8835 51.6074 66.2245C39.86 67.1576 23.4434 66.0921 15.2351 65.5605Z" fill="white"/>
</mask>
<g mask="url(#mask5_373_2403)">
<path d="M110.377 32.094C113.403 36.3644 115.378 39.8564 120.708 41.6484" stroke="#878787" stroke-width="1.667" stroke-miterlimit="10" stroke-linecap="round" stroke-linejoin="round"/>
</g>
</g>
</svg>
