<svg width="392" height="230" viewBox="0 0 392 230" fill="none" xmlns="http://www.w3.org/2000/svg">
<path fill-rule="evenodd" clip-rule="evenodd" d="M34.5163 166.73C27.1647 159.474 -6.6202 172.796 1.88352 150.187C8.48716 132.635 30.5214 142.95 37.0401 133.317C42.7859 124.836 46.3768 84.684 78.0979 101.865C79.9275 102.855 61.5318 73.5091 71.0798 42.7601C73.2016 33.7001 86.8619 15.7972 97.6022 11.1873C108.476 6.52004 115.499 9.75679 119.881 13.1091C125.981 17.7764 131.02 31.7782 139.242 35.8964C153.829 39.4655 182.6 -5.96105 253.941 1.71549C319.944 8.82579 351.669 83.6094 358.296 93.3901C364.825 103.036 391.03 99.5609 391.03 123.974C391.03 143.186 383.561 140.374 383.561 140.374C383.561 140.374 407.219 155.886 374.819 174.366C362.179 181.579 335.151 182.431 333.45 183.4C290.403 207.957 266.655 235.444 212.767 228.666C180.93 224.664 155.114 191.019 136.097 186.105C135.62 185.981 135.111 186.079 134.622 185.996C128.034 184.859 120.693 194.691 113.992 196.879C90.1966 204.647 89.4921 189.395 76.3056 186.431C67.0642 184.353 56.5775 194.674 45.9893 193.724C33.9382 192.64 41.3914 173.514 34.5163 166.73Z" fill="white"/>
<mask id="mask0_373_2475" style="mask-type:luminance" maskUnits="userSpaceOnUse" x="0" y="116" width="392" height="114">
<path d="M0 116.887H392V230H0V116.887Z" fill="white"/>
</mask>
<g mask="url(#mask0_373_2475)">
<mask id="mask1_373_2475" style="mask-type:luminance" maskUnits="userSpaceOnUse" x="0" y="1" width="392" height="229">
<path fill-rule="evenodd" clip-rule="evenodd" d="M34.5163 166.73C27.1647 159.474 -6.6202 172.796 1.88352 150.187C8.48716 132.635 30.5214 142.95 37.0401 133.317C42.7859 124.836 46.3768 84.684 78.0979 101.865C79.9275 102.855 83.9598 107.01 85.6775 106.326C93.4332 103.242 95.008 91.8093 106.518 90.1084C110.207 89.5636 123.563 93.3043 125.78 91.6334C128.194 89.8188 129.497 71.1068 131.571 66.9265C139.82 50.2993 182.6 -5.96107 253.941 1.71548C319.944 8.82578 351.669 83.6094 358.296 93.3901C364.825 103.036 391.03 99.5609 391.03 123.974C391.03 143.186 383.561 140.374 383.561 140.374C383.561 140.374 407.219 155.886 374.819 174.366C362.179 181.579 335.151 182.431 333.45 183.4C290.403 207.957 266.655 235.444 212.767 228.666C180.93 224.664 155.114 191.019 136.097 186.105C135.62 185.981 135.111 186.079 134.622 185.996C128.034 184.859 120.693 194.691 113.992 196.879C90.1966 204.647 89.4921 189.395 76.3056 186.431C67.0642 184.353 56.5775 194.674 45.9893 193.724C33.9382 192.64 41.3914 173.514 34.5163 166.73Z" fill="white"/>
</mask>
<g mask="url(#mask1_373_2475)">
<path fill-rule="evenodd" clip-rule="evenodd" d="M3.23032 155.298C5.94057 152.872 10.7788 155.62 13.9656 155.793C24.7776 156.381 32.5541 150.489 43.4013 155.298C49.7708 158.121 49.5387 169.808 58.2103 171.902C72.2257 175.282 84.256 162.327 94.4506 164.963C105.426 167.798 109.829 178.531 122.448 174.182C164.289 159.761 197.904 199.356 241.523 193.857C257.501 191.843 280.998 183.269 292.477 170.861C300.726 161.945 307.638 150.534 318.459 144.79C330.474 138.411 346.572 144.104 359.684 139.587C367.436 136.914 361.34 129.675 366.008 126.055C373.488 120.259 393.496 112.023 399.756 122.14C405.468 131.363 407.07 143.647 407.764 154.356C411.065 205.604 326.194 245.31 289.12 256.753C211.424 280.733 130.915 274.024 57.4001 239.506C33.6668 228.361 -6.49799 210.617 -14.5023 181.268C-19.6473 162.408 -1.51676 159.543 3.23032 155.298Z" fill="#D2ECED"/>
</g>
</g>
<mask id="mask2_373_2475" style="mask-type:luminance" maskUnits="userSpaceOnUse" x="185" y="119" width="71" height="19">
<path d="M185.656 119.633H255.145V137.204H185.656V119.633Z" fill="white"/>
</mask>
<g mask="url(#mask2_373_2475)">
<mask id="mask3_373_2475" style="mask-type:luminance" maskUnits="userSpaceOnUse" x="0" y="1" width="392" height="229">
<path fill-rule="evenodd" clip-rule="evenodd" d="M34.5163 166.73C27.1646 159.474 -6.62027 172.796 1.88346 150.187C8.4871 132.635 30.5213 142.95 37.04 133.317C42.7859 124.836 46.3767 84.684 78.0978 101.865C79.9275 102.855 83.9597 107.01 85.6774 106.326C93.4331 103.242 95.0079 91.8093 106.518 90.1084C110.206 89.5636 123.563 93.3043 125.78 91.6334C128.194 89.8188 129.497 71.1068 131.571 66.9265C139.82 50.2993 182.6 -5.96107 253.941 1.71548C319.944 8.82578 351.669 83.6094 358.296 93.3901C364.825 103.036 391.03 99.5609 391.03 123.974C391.03 143.186 383.56 140.374 383.56 140.374C383.56 140.374 407.219 155.886 374.818 174.366C362.179 181.579 335.151 182.431 333.45 183.4C290.403 207.957 266.655 235.444 212.767 228.666C180.93 224.664 155.114 191.019 136.097 186.105C135.62 185.981 135.11 186.079 134.621 185.996C128.034 184.859 120.693 194.691 113.992 196.879C90.1966 204.647 89.4921 189.395 76.3055 186.431C67.0641 184.353 56.5775 194.674 45.9893 193.724C33.9382 192.64 41.3914 173.514 34.5163 166.73Z" fill="white"/>
</mask>
<g mask="url(#mask3_373_2475)">
<path d="M186.547 120.484C192.902 141.29 246.361 140.753 254.295 124.343" stroke="#B4B4B4" stroke-width="1.667" stroke-miterlimit="10" stroke-linecap="round" stroke-linejoin="round"/>
</g>
</g>
<mask id="mask4_373_2475" style="mask-type:luminance" maskUnits="userSpaceOnUse" x="96" y="126" width="45" height="18">
<path d="M96.5413 126.771H140.038V143.244H96.5413V126.771Z" fill="white"/>
</mask>
<g mask="url(#mask4_373_2475)">
<mask id="mask5_373_2475" style="mask-type:luminance" maskUnits="userSpaceOnUse" x="0" y="1" width="392" height="229">
<path fill-rule="evenodd" clip-rule="evenodd" d="M34.5163 166.73C27.1647 159.474 -6.6202 172.796 1.88352 150.187C8.48716 132.635 30.5214 142.95 37.0401 133.317C42.7859 124.836 46.3768 84.684 78.0979 101.865C79.9275 102.855 83.9598 107.01 85.6775 106.326C93.4332 103.242 95.008 91.8093 106.518 90.1084C110.207 89.5636 123.563 93.3043 125.78 91.6334C128.194 89.8188 129.497 71.1068 131.571 66.9265C139.82 50.2993 182.6 -5.96107 253.941 1.71548C319.944 8.82578 351.669 83.6094 358.296 93.3901C364.825 103.036 391.03 99.5609 391.03 123.974C391.03 143.186 383.561 140.374 383.561 140.374C383.561 140.374 407.219 155.886 374.819 174.366C362.179 181.579 335.151 182.431 333.45 183.4C290.403 207.957 266.655 235.444 212.767 228.666C180.93 224.664 155.114 191.019 136.097 186.105C135.62 185.981 135.111 186.079 134.622 185.996C128.034 184.859 120.693 194.691 113.992 196.879C90.1966 204.647 89.4921 189.395 76.3056 186.431C67.0642 184.353 56.5775 194.674 45.9893 193.724C33.9382 192.64 41.3914 173.514 34.5163 166.73Z" fill="white"/>
</mask>
<g mask="url(#mask5_373_2475)">
<path d="M97.4281 127.622C103.352 146.002 124.591 142.212 139.147 142.212" stroke="#B4B4B4" stroke-width="1.667" stroke-miterlimit="10" stroke-linecap="round" stroke-linejoin="round"/>
</g>
</g>
</svg>
