<svg width="142" height="215" viewBox="0 0 142 215" fill="none" xmlns="http://www.w3.org/2000/svg">
<path d="M101.853 120.284C105.283 118.149 108.086 115.868 110.327 113.497C119.56 103.728 119.249 92.4299 113.909 83.498C112.024 80.344 109.512 77.485 106.571 75.0925C102.101 71.4547 96.6404 68.8954 90.8896 68.0175C86.9798 67.4206 82.9356 67.6009 78.977 68.7479C76.4963 69.4667 74.0492 70.565 71.6897 72.0896C62.9504 77.7365 58.9346 86.7823 58.6758 95.8687C58.545 100.462 59.3743 105.066 61.039 109.246C61.0514 109.278 61.0638 109.309 61.0763 109.34C64.4811 117.814 71.325 124.529 80.5631 125.854C86.7042 126.735 93.9033 125.234 101.853 120.284Z" fill="#F26A1B"/>
<path d="M112.984 62.2575C120.116 45.6776 125.807 24.9986 120.751 27.8362C110.525 33.5759 101.854 46.0915 96.2743 56.4679C93.8587 60.9597 92.0224 65.0506 90.8896 68.0175C96.6404 68.8954 102.101 71.4547 106.571 75.0925C108.677 71.6315 110.892 67.1208 112.984 62.2575Z" fill="#F2B035"/>
<path d="M112.984 62.2575C110.892 67.1208 108.677 71.6315 106.571 75.0925C109.512 77.485 112.024 80.344 113.909 83.498C119.591 81.1697 124.623 79.2861 129.079 77.772C129.173 77.7398 129.268 77.7078 129.362 77.676C132.48 76.0761 150.419 55.0687 149.621 51.0317C148.699 46.3666 124.103 54.7472 112.984 62.2575Z" fill="#F8B31D"/>
<path d="M117.44 99.5882C117.932 99.5874 118.469 99.5981 119.044 99.6215C128.796 98.287 163.917 75.6061 162.736 74.1493C161.662 72.8235 155.569 68.8137 129.362 77.676C129.247 77.7351 129.152 77.7677 129.079 77.772C124.623 79.2861 119.591 81.1697 113.909 83.498C119.249 92.4299 119.56 103.728 110.327 113.497C120.488 114.894 160.914 119.306 151.331 110.841C142.045 102.639 126.914 99.9417 119.044 99.6215C118.389 99.7112 117.847 99.7044 117.44 99.5882Z" fill="#F8B31D"/>
<path d="M129.803 143.073C160.15 150.494 117.291 116.354 110.327 113.497C108.086 115.868 105.283 118.149 101.853 120.284C93.9033 125.234 86.7042 126.735 80.5631 125.854C82.4457 140.703 88.2518 168.963 95.6376 163.124C100.416 159.346 101.337 147.902 100.893 137.22C100.676 131.996 100.133 126.955 99.5549 123.082C99.3572 122.262 99.3537 121.787 99.3537 121.787C99.4209 122.202 99.4881 122.634 99.5549 123.082C100.091 125.307 102.058 130.078 109.263 134.828C113.761 137.793 120.298 140.749 129.803 143.073Z" fill="#F8B31D"/>
<path d="M61.0763 109.34C59.5247 109.326 60.0014 109.296 58.0947 109.128C50.7883 109.657 39.4154 113.918 34.6895 126.142C27.3755 145.061 66.6318 118.716 68.8035 120.427C61.743 120.436 64.637 143.507 67.6846 146.754C70.7322 150.002 77.9709 130.639 80.5631 125.854C71.325 124.529 64.4811 117.814 61.0763 109.34Z" fill="#F8B31D"/>
<path d="M23.7442 99.2127C29.3804 104.693 47.1786 108.167 58.0947 109.128C59.9893 108.991 59.5223 109.045 61.0763 109.34C61.0638 109.309 61.0514 109.278 61.039 109.246C59.3743 105.066 58.545 100.462 58.6758 95.8687C55.2721 95.2628 51.7281 94.0919 48.2592 92.589C37.4264 93.8658 19.4866 95.0725 23.7442 99.2127Z" fill="#F8B31D"/>
<path d="M78.977 68.7479C76.8249 66.2762 74.4844 63.6682 71.3231 60.3705C62.6685 51.3426 51.1891 40.6257 45.9539 39.9248C44.7444 39.7629 44.0051 40.1871 43.6397 41.0568C45.5754 57.6558 56.293 74.7619 58.0711 76.7241C44.1935 73.1887 24.8433 69.4719 23.7397 74.1677C23.8892 77.1542 35.5723 87.0924 48.2592 92.589C51.7281 94.0919 55.2721 95.2628 58.6758 95.8687C58.9346 86.7823 62.9504 77.7365 71.6897 72.0896C74.0492 70.565 76.4963 69.4667 78.977 68.7479Z" fill="#F8B31D"/>
<path d="M152.648 173.659C128.858 173.273 114.071 147.691 109.263 134.828C102.058 130.078 100.091 125.307 99.5549 123.082C100.133 126.955 100.676 131.996 100.893 137.22C108.143 152.042 135.556 179.348 147.688 178.312L152.648 173.659Z" fill="#6E9E6E"/>
<path d="M96.2743 56.4679C91.0782 45.4653 80.6712 23.2779 79.4018 25.2346C77.815 27.6805 70.8304 40.0171 71.3231 60.3705C74.4844 63.6682 76.8249 66.2762 78.977 68.7479C82.9356 67.6009 86.9798 67.4206 90.8896 68.0175C92.0224 65.0506 93.8587 60.9597 96.2743 56.4679Z" fill="#F8B31D"/>
<path d="M61.0763 109.34C59.5247 109.326 60.0014 109.296 58.0947 109.128M61.0763 109.34C59.5223 109.045 59.9893 108.991 58.0947 109.128M61.0763 109.34C64.4811 117.814 71.325 124.529 80.5631 125.854M61.0763 109.34C61.0638 109.309 61.0514 109.278 61.039 109.246M58.0947 109.128C47.1786 108.167 29.3804 104.693 23.7442 99.2127C19.4866 95.0725 37.4264 93.8658 48.2592 92.589M58.0947 109.128C50.7883 109.657 39.4154 113.918 34.6895 126.142C27.3755 145.061 66.6318 118.716 68.8035 120.427C61.743 120.436 64.637 143.507 67.6846 146.754C70.7322 150.002 77.9709 130.639 80.5631 125.854M48.3311 92.5805C48.3071 92.5834 48.2832 92.5862 48.2592 92.589M96.2743 56.4679C91.0782 45.4653 80.6712 23.2779 79.4018 25.2346C77.815 27.6805 70.8304 40.0171 71.3231 60.3705M96.2743 56.4679C93.8587 60.9597 92.0224 65.0506 90.8896 68.0175M96.2743 56.4679C101.854 46.0915 110.525 33.5759 120.751 27.8362M71.3231 60.3705C74.4844 63.6682 76.8248 66.2762 78.977 68.7479M71.3231 60.3705C62.6685 51.3426 51.1891 40.6257 45.9539 39.9248M78.977 68.7479C70.933 59.5094 53.1014 40.8817 45.9539 39.9248M78.977 68.7479C82.9356 67.6009 86.9798 67.4206 90.8896 68.0175M78.977 68.7479C76.4963 69.4667 74.0492 70.565 71.6897 72.0896M45.9539 39.9248C44.7444 39.7629 44.0051 40.1871 43.6397 41.0568C45.5754 57.6558 56.293 74.7619 58.0711 76.7241M58.0711 76.7241C60.5493 77.3554 62.6817 77.93 64.6758 78.5009M58.0711 76.7241C44.1935 73.1887 24.8433 69.4719 23.7397 74.1677C23.8892 77.1542 35.5723 87.0924 48.2592 92.589M58.6758 95.8687C58.9346 86.7823 62.9505 77.7365 71.6897 72.0896M58.6758 95.8687C58.545 100.462 59.3743 105.066 61.039 109.246M58.6758 95.8687C55.2721 95.2628 51.7281 94.0919 48.2592 92.589M90.8789 68.0456C90.8825 68.0363 90.8861 68.0269 90.8896 68.0175M120.751 27.8362C127.29 24.1663 115.853 59.8325 106.571 75.0925M120.751 27.8362C125.807 24.9986 120.116 45.6776 112.984 62.2575M106.571 75.0925C109.512 77.485 112.024 80.344 113.909 83.498M106.571 75.0925C102.101 71.4547 96.6404 68.8954 90.8896 68.0175M106.571 75.0925C108.677 71.6315 110.892 67.1208 112.984 62.2575M112.984 62.2575C124.103 54.7472 148.699 46.3666 149.621 51.0317C150.419 55.0687 132.48 76.0761 129.362 77.676M129.033 77.7706C129.047 77.7725 129.062 77.773 129.079 77.772M110.327 113.497C120.488 114.894 160.914 119.306 151.331 110.841C142.045 102.639 126.914 99.9417 119.044 99.6215M110.327 113.497C117.291 116.354 160.15 150.494 129.803 143.073C120.298 140.749 113.761 137.793 109.263 134.828M110.327 113.497C108.086 115.868 105.283 118.149 101.853 120.284C93.9033 125.234 86.7042 126.735 80.5631 125.854M110.327 113.497C119.56 103.728 119.249 92.4299 113.909 83.498M110.327 113.497C127.778 95.0327 111.133 71.108 90.8896 68.0175M99.5549 123.082C99.3572 122.262 99.3537 121.787 99.3537 121.787C99.4209 122.202 99.4881 122.634 99.5549 123.082ZM99.5549 123.082C100.091 125.307 102.058 130.078 109.263 134.828M99.5549 123.082C100.133 126.955 100.676 131.996 100.893 137.22M80.5631 125.854C82.4457 140.703 88.2518 168.963 95.6376 163.124C100.416 159.346 101.337 147.902 100.893 137.22M80.5631 125.854C71.2911 124.524 64.431 117.764 61.039 109.246M71.6897 72.0896C77.8144 68.1321 84.5296 67.0466 90.8896 68.0175M71.6897 72.0896C58.5324 80.5912 56.0815 96.7971 61.039 109.246M113.909 83.498C119.591 81.1697 124.623 79.2861 129.079 77.772M109.263 134.828C114.071 147.691 128.858 173.273 152.648 173.659L147.688 178.312C135.556 179.348 108.143 152.042 100.893 137.22M129.079 77.772C129.173 77.7398 129.268 77.7078 129.362 77.676M129.079 77.772C129.152 77.7677 129.247 77.7351 129.362 77.676M129.362 77.676C155.569 68.8137 161.662 72.8235 162.736 74.1493C163.917 75.6061 128.796 98.287 119.044 99.6215M119.044 99.6215C118.469 99.5981 117.932 99.5874 117.44 99.5882C117.847 99.7044 118.389 99.7112 119.044 99.6215Z" stroke="black"/>
</svg>
