<svg width="70" height="70" viewBox="0 0 70 70" fill="none" xmlns="http://www.w3.org/2000/svg">
<path d="M49.5833 5.83325H20.4167C12.3625 5.83325 5.83333 12.3624 5.83333 20.4166V49.5832C5.83333 57.6374 12.3625 64.1666 20.4167 64.1666H49.5833C57.6375 64.1666 64.1667 57.6374 64.1667 49.5832V20.4166C64.1667 12.3624 57.6375 5.83325 49.5833 5.83325Z" stroke="white" stroke-width="2" stroke-linecap="round" stroke-linejoin="round"/>
<path d="M46.6667 33.1624C47.0266 35.5898 46.612 38.0689 45.4818 40.247C44.3516 42.4252 42.5633 44.1915 40.3714 45.2948C38.1795 46.398 35.6955 46.7821 33.2727 46.3922C30.85 46.0024 28.6118 44.8585 26.8766 43.1233C25.1414 41.3881 23.9976 39.15 23.6077 36.7272C23.2178 34.3044 23.6019 31.8204 24.7051 29.6285C25.8084 27.4366 27.5747 25.6483 29.7529 24.5181C31.931 23.3879 34.4101 22.9733 36.8375 23.3332C39.3135 23.7004 41.6058 24.8542 43.3758 26.6241C45.1457 28.3941 46.2995 30.6864 46.6667 33.1624Z" stroke="white" stroke-width="2" stroke-linecap="round" stroke-linejoin="round"/>
<path d="M51.0417 18.9583H51.0708" stroke="white" stroke-width="2" stroke-linecap="round" stroke-linejoin="round"/>
</svg>
