<svg width="70" height="70" viewBox="0 0 70 70" fill="none" xmlns="http://www.w3.org/2000/svg">
<path d="M35 4.375C51.9138 4.375 65.625 18.0863 65.625 35C65.625 51.9138 51.9138 65.625 35 65.625C18.0863 65.625 4.375 51.9138 4.375 35C4.375 18.0863 18.0863 4.375 35 4.375Z" stroke="white" stroke-width="2" stroke-linecap="round" stroke-linejoin="round"/>
<path d="M53.9583 29.712C49.2698 26.1055 43.2323 24.0653 37.116 23.498C31.029 22.9336 24.6006 23.8043 18.9583 26.3053" stroke="white" stroke-width="2" stroke-linecap="round" stroke-linejoin="round"/>
<path d="M48.9125 38.9011C45.2142 35.9873 40.4367 34.3365 35.5979 33.88C30.6556 33.4134 25.4275 34.1688 20.8862 36.3198" stroke="white" stroke-width="2" stroke-linecap="round" stroke-linejoin="round"/>
<path d="M43.8215 48.1251C41.1177 45.923 37.6221 44.6776 34.0798 44.3334C30.5579 43.9907 26.8348 44.523 23.5754 46.0528" stroke="white" stroke-width="2" stroke-linecap="round" stroke-linejoin="round"/>
</svg>
