<svg width="70" height="70" viewBox="0 0 70 70" fill="none" xmlns="http://www.w3.org/2000/svg">
<path d="M67.0833 8.75003C64.2903 10.7202 61.1978 12.227 57.925 13.2125C56.1684 11.1928 53.8339 9.76122 51.2372 9.11148C48.6405 8.46175 45.9069 8.62519 43.4061 9.57969C40.9053 10.5342 38.7579 12.2337 37.2545 14.4484C35.7511 16.663 34.9641 19.286 35 21.9625V24.8792C29.8743 25.0121 24.7954 23.8753 20.2154 21.5701C15.6355 19.2648 11.6967 15.8627 8.74999 11.6667C8.74999 11.6667 -2.91668 37.9167 23.3333 49.5834C17.3265 53.6608 10.1709 55.7052 2.91666 55.4167C29.1667 70 61.25 55.4167 61.25 21.875C61.2473 21.0626 61.1692 20.2522 61.0167 19.4542C63.9934 16.5186 66.0941 12.8121 67.0833 8.75003Z" stroke="white" stroke-width="2" stroke-linecap="round" stroke-linejoin="round"/>
</svg>
